<svg style="fill:#00ff00;fill-opacity:0.25;stroke:none" viewBox="0 0 260 120" xmlns="http://www.w3.org/2000/svg"><metadata><laserassistant model="{&quot;attrib&quot;: {&quot;viewBox&quot;: &quot;0 0 260 120&quot;, &quot;xmlns&quot;: &quot;http://www.w3.org/2000/svg&quot;, &quot;style&quot;: &quot;fill:#00ff00;fill-opacity:0.25;stroke:none&quot;}, &quot;edge_data&quot;: {&quot;edges&quot;: [{&quot;d&quot;: &quot;M 150.0 10.0 L 250.0 10.0&quot;, &quot;edge&quot;: 1, &quot;face&quot;: &quot;face1&quot;}, {&quot;d&quot;: &quot;M 250.0 10.0 L 250.0 110.0&quot;, &quot;edge&quot;: 2, &quot;face&quot;: &quot;face1&quot;}, {&quot;d&quot;: &quot;M 250.0 110.0 L 150.0 110.0&quot;, &quot;edge&quot;: 3, &quot;face&quot;: &quot;face1&quot;}, {&quot;d&quot;: &quot;M 150.0 110.0 L 150.0 10.0&quot;, &quot;edge&quot;: 4, &quot;face&quot;: &quot;face1&quot;}, {&quot;d&quot;: &quot;M 10.0 10.0 L 110.0 10.0&quot;, &quot;edge&quot;: 5, &quot;face&quot;: &quot;face2&quot;}, {&quot;d&quot;: &quot;M 110.0 10.0 L 110.0 110.0&quot;, &quot;edge&quot;: 6, &quot;face&quot;: &quot;face2&quot;}, {&quot;d&quot;: &quot;M 110.0 110.0 L 10.0 110.0&quot;, &quot;edge&quot;: 7, &quot;face&quot;: &quot;face2&quot;}, {&quot;d&quot;: &quot;M 10.0 110.0 L 10.0 10.0&quot;, &quot;edge&quot;: 8, &quot;face&quot;: &quot;face2&quot;}], &quot;viewBox&quot;: &quot;0 0 260 120&quot;}, &quot;joint_index&quot;: 2, &quot;joints&quot;: {&quot;Joint1&quot;: {&quot;edge_a&quot;: {&quot;d&quot;: &quot;M 150.0 10.0 L 250.0 10.0&quot;, &quot;edge&quot;: 1, &quot;face&quot;: &quot;face1&quot;}, &quot;edge_b&quot;: {&quot;d&quot;: &quot;M 10.0 10.0 L 110.0 10.0&quot;, &quot;edge&quot;: 5, &quot;face&quot;: &quot;face2&quot;}, &quot;joint_parameters&quot;: {&quot;joint_type&quot;: &quot;Box&quot;, &quot;fit&quot;: &quot;Clearance&quot;, &quot;tabsize&quot;: 10, &quot;tabspace&quot;: 20, &quot;tabnum&quot;: 2, &quot;boltsize&quot;: &quot;M2.5&quot;, &quot;boltspace&quot;: 5, &quot;boltnum&quot;: 2, &quot;boltlength&quot;: 10}}}, &quot;tree&quot;: {&quot;face1&quot;: {&quot;Cuts&quot;: {&quot;paths&quot;: [&quot;M 170.0,60.0 L 170.0,40.0 L 190.0,40.0 L 190.0,60.0 A 26.0,26.0 0.0 0,1 170.0,60.0&quot;]}, &quot;Perimeter&quot;: {&quot;paths&quot;: [&quot;M 150.0,10.0 L 250.0,10.0 L 250.0,110.0 L 150.0,110.0 L 150.0,10.0&quot;]}}, &quot;face2&quot;: {&quot;Cuts&quot;: {&quot;paths&quot;: [&quot;M 40.0,60.0 A 20.0,20.0 0.0 1,0 80.0,60.0 A 20.0,20.0 0.0 1,0 40.0,60.0&quot;]}, &quot;Perimeter&quot;: {&quot;paths&quot;: [&quot;M 10.0,10.0 L 110.0,10.0 L 110.0,110.0 L 10.0,110.0 L 10.0,10.0&quot;]}}}}" /></metadata><g data-name="face1" id="face1"><path d="M 250.0,110.0 L 150.0,110.0 L 150.0,10.0 L 250.0,10.0 Z M 170.0,40.0 L 170.0,60.0 L 171.005,60.394 L 172.026,60.747 L 173.061,61.057 L 174.108,61.323 L 175.166,61.546 L 176.231,61.725 L 177.303,61.859 L 178.38,61.949 L 179.459,61.994 L 180.54,61.994 L 181.619,61.949 L 182.696,61.859 L 183.768,61.725 L 184.833,61.546 L 185.891,61.323 L 186.938,61.057 L 187.973,60.747 L 188.994,60.394 L 190.0,60.0 L 190.0,40.0 Z" /></g><g data-name="face2" id="face2"><path d="M 110.0,110.0 L 10.0,110.0 L 10.0,10.0 L 110.0,10.0 Z M 58.348,40.068 L 55.09,40.611 L 51.966,41.684 L 49.061,43.256 L 46.454,45.285 L 44.217,47.715 L 42.41,50.481 L 41.083,53.506 L 40.272,56.708 L 40.0,60.0 L 40.272,63.291 L 41.083,66.493 L 42.41,69.518 L 44.217,72.284 L 46.454,74.714 L 49.061,76.743 L 51.966,78.315 L 55.09,79.388 L 58.348,79.931 L 61.651,79.931 L 64.909,79.388 L 68.033,78.315 L 70.938,76.743 L 73.545,74.714 L 75.782,72.284 L 77.589,69.518 L 78.916,66.493 L 79.727,63.291 L 80.0,60.0 L 79.727,56.708 L 78.916,53.506 L 77.589,50.481 L 75.782,47.715 L 73.545,45.285 L 70.938,43.256 L 68.033,41.684 L 64.909,40.611 L 61.651,40.068 Z" /></g></svg>