<?xml version="1.0" encoding="utf-8"?>
<!-- Generator: Adobe Illustrator 24.1.3, SVG Export Plug-In . SVG Version: 6.00 Build 0)  -->
<svg version="1.1" id="Layer_1" xmlns="http://www.w3.org/2000/svg" xmlns:xlink="http://www.w3.org/1999/xlink" x="0px" y="0px"
	 viewBox="0 0 1699 970" style="enable-background:new 0 0 1699 970;" xml:space="preserve">
<style type="text/css">
	.st0{fill:none;stroke:#ED3237;stroke-width:0.216;stroke-linejoin:bevel;stroke-miterlimit:10;}
	.st1{fill:none;stroke:#000000;stroke-miterlimit:10;}
</style>
<g id="Layer_x0020_1">
	<line class="st0" x1="1594.3" y1="646.1" x2="1594.3" y2="362.7"/>
	<line class="st0" x1="1523.5" y1="646.1" x2="1523.5" y2="637.6"/>
	<line class="st0" x1="1523.5" y1="637.6" x2="1381.7" y2="637.6"/>
	<line class="st0" x1="1381.7" y1="637.6" x2="1381.7" y2="646.1"/>
	<line class="st0" x1="1523.5" y1="362.7" x2="1523.5" y2="371.2"/>
	<line class="st0" x1="1523.5" y1="371.2" x2="1381.7" y2="371.2"/>
	<line class="st0" x1="1381.7" y1="371.2" x2="1381.7" y2="362.7"/>
	<line class="st0" x1="1594.3" y1="362.7" x2="1523.5" y2="362.7"/>
	<line class="st0" x1="1381.7" y1="362.7" x2="1310.9" y2="362.7"/>
	<line class="st0" x1="1310.9" y1="646.1" x2="1381.7" y2="646.1"/>
	<line class="st0" x1="1523.5" y1="646.1" x2="1594.3" y2="646.1"/>
	<line class="st0" x1="1310.9" y1="575.3" x2="1319.4" y2="575.3"/>
	<line class="st0" x1="1319.4" y1="575.3" x2="1319.4" y2="433.5"/>
	<line class="st0" x1="1319.4" y1="433.5" x2="1310.9" y2="433.5"/>
	<line class="st0" x1="1310.9" y1="362.7" x2="1310.9" y2="433.5"/>
	<line class="st0" x1="1310.9" y1="575.3" x2="1310.9" y2="646.1"/>
</g>
<g id="_0">
	<line class="st0" x1="17.3" y1="359.3" x2="17.3" y2="642.8"/>
	<line class="st0" x1="88.1" y1="359.3" x2="88.1" y2="367.8"/>
	<line class="st0" x1="88.1" y1="367.8" x2="229.9" y2="367.8"/>
	<line class="st0" x1="229.9" y1="367.8" x2="229.9" y2="359.3"/>
	<line class="st0" x1="88.1" y1="642.8" x2="88.1" y2="634.3"/>
	<line class="st0" x1="88.1" y1="634.3" x2="229.9" y2="634.3"/>
	<line class="st0" x1="229.9" y1="634.3" x2="229.9" y2="642.8"/>
	<line class="st0" x1="17.3" y1="642.8" x2="88.1" y2="642.8"/>
	<line class="st0" x1="229.9" y1="642.8" x2="300.7" y2="642.8"/>
	<line class="st0" x1="300.7" y1="359.3" x2="229.9" y2="359.3"/>
	<line class="st0" x1="88.1" y1="359.3" x2="17.3" y2="359.3"/>
	<path class="st0" d="M74,472.7c-15.7,0-28.3,12.7-28.3,28.3c0,15.7,12.7,28.3,28.3,28.3c15.7,0,28.3-12.7,28.3-28.3
		C102.3,485.4,89.6,472.7,74,472.7L74,472.7z"/>
	<line class="st0" x1="300.7" y1="430.2" x2="292.2" y2="430.2"/>
	<line class="st0" x1="292.2" y1="430.2" x2="292.2" y2="571.9"/>
	<line class="st0" x1="292.2" y1="571.9" x2="300.7" y2="571.9"/>
	<line class="st0" x1="300.7" y1="642.8" x2="300.7" y2="571.9"/>
	<line class="st0" x1="300.7" y1="430.2" x2="300.7" y2="359.3"/>
	<polyline class="st0" points="1288.5,430.5 1297,430.5 1297,572.3 1288.5,572.3 	"/>
	<line class="st0" x1="1288.5" y1="368.2" x2="1288.5" y2="430.5"/>
	<line class="st0" x1="1288.5" y1="430.5" x2="1297" y2="430.5"/>
	<line class="st0" x1="1297" y1="572.3" x2="1288.5" y2="572.3"/>
	<line class="st0" x1="1288.5" y1="634.6" x2="1163.8" y2="634.6"/>
	<line class="st0" x1="1163.8" y1="634.6" x2="1163.8" y2="643.1"/>
	<line class="st0" x1="1163.8" y1="643.1" x2="1022" y2="643.1"/>
	<line class="st0" x1="1022" y1="643.1" x2="1022" y2="634.6"/>
	<line class="st0" x1="1022" y1="634.6" x2="880.3" y2="634.6"/>
	<line class="st0" x1="880.3" y1="634.6" x2="880.3" y2="643.1"/>
	<line class="st0" x1="880.3" y1="643.1" x2="738.6" y2="643.1"/>
	<line class="st0" x1="738.6" y1="643.1" x2="738.6" y2="634.6"/>
	<line class="st0" x1="738.6" y1="634.6" x2="596.9" y2="634.6"/>
	<path class="st0" d="M1163.8,643.1H1022 M880.3,643.1H738.6 M596.9,643.1H455.1"/>
	<line class="st0" x1="596.9" y1="634.6" x2="596.9" y2="643.1"/>
	<line class="st0" x1="455.1" y1="643.1" x2="455.1" y2="634.6"/>
	<line class="st0" x1="455.1" y1="634.6" x2="327.6" y2="634.6"/>
	<line class="st0" x1="327.6" y1="634.6" x2="327.6" y2="572.3"/>
	<line class="st0" x1="327.6" y1="572.3" x2="319.1" y2="572.3"/>
	<line class="st0" x1="319.1" y1="572.3" x2="319.1" y2="430.5"/>
	<line class="st0" x1="319.1" y1="430.5" x2="327.6" y2="430.5"/>
	<line class="st0" x1="327.6" y1="430.5" x2="327.6" y2="368.2"/>
	<line class="st0" x1="738.6" y1="359.7" x2="738.6" y2="368.2"/>
	<line class="st0" x1="455.1" y1="368.2" x2="327.6" y2="368.2"/>
	<line class="st0" x1="596.9" y1="359.7" x2="455.1" y2="359.7"/>
	<line class="st0" x1="455.1" y1="359.7" x2="455.1" y2="368.2"/>
	<line class="st0" x1="596.9" y1="368.2" x2="596.9" y2="359.7"/>
	<line class="st0" x1="738.6" y1="368.2" x2="596.9" y2="368.2"/>
	<line class="st0" x1="880.3" y1="359.7" x2="738.6" y2="359.7"/>
	<line class="st0" x1="1022" y1="368.2" x2="880.3" y2="368.2"/>
	<line class="st0" x1="1163.8" y1="359.7" x2="1022" y2="359.7"/>
	<line class="st0" x1="1163.8" y1="368.2" x2="1163.8" y2="359.7"/>
	<line class="st0" x1="1022" y1="359.7" x2="1022" y2="368.2"/>
	<line class="st0" x1="880.3" y1="368.2" x2="880.3" y2="359.7"/>
	<line class="st0" x1="1288.5" y1="368.2" x2="1163.8" y2="368.2"/>
	<line class="st0" x1="1297" y1="572.3" x2="1288.5" y2="572.3"/>
	<line class="st0" x1="1288.5" y1="572.3" x2="1288.5" y2="634.6"/>
	<polyline class="st0" points="1296.8,721.5 1288.3,721.5 1288.3,650.6 	"/>
	<line class="st0" x1="1288.3" y1="721.5" x2="1296.8" y2="721.5"/>
	<line class="st0" x1="1296.8" y1="721.5" x2="1296.8" y2="863.2"/>
	<line class="st0" x1="1296.8" y1="863.2" x2="1288.3" y2="863.2"/>
	<line class="st0" x1="1288.3" y1="863.2" x2="1288.3" y2="934.1"/>
	<line class="st0" x1="1288.3" y1="934.1" x2="327.3" y2="934.1"/>
	<line class="st0" x1="327.3" y1="934.1" x2="327.3" y2="863.2"/>
	<line class="st0" x1="327.3" y1="863.2" x2="318.8" y2="863.2"/>
	<line class="st0" x1="318.8" y1="863.2" x2="318.8" y2="721.5"/>
	<line class="st0" x1="318.8" y1="721.5" x2="327.3" y2="721.5"/>
	<line class="st0" x1="327.3" y1="721.5" x2="327.3" y2="650.6"/>
	<line class="st0" x1="1163.6" y1="650.6" x2="1163.6" y2="659.1"/>
	<line class="st0" x1="1163.6" y1="659.1" x2="1021.8" y2="659.1"/>
	<line class="st0" x1="1021.8" y1="659.1" x2="1021.8" y2="650.6"/>
	<line class="st0" x1="880.1" y1="650.6" x2="880.1" y2="659.1"/>
	<line class="st0" x1="880.1" y1="659.1" x2="738.4" y2="659.1"/>
	<line class="st0" x1="738.4" y1="659.1" x2="738.4" y2="650.6"/>
	<line class="st0" x1="596.6" y1="650.6" x2="596.6" y2="659.1"/>
	<line class="st0" x1="596.6" y1="659.1" x2="454.9" y2="659.1"/>
	<line class="st0" x1="454.9" y1="659.1" x2="454.9" y2="650.6"/>
	<line class="st0" x1="1163.6" y1="650.6" x2="1288.3" y2="650.6"/>
	<line class="st0" x1="880.1" y1="650.6" x2="1021.8" y2="650.6"/>
	<line class="st0" x1="327.3" y1="650.6" x2="454.9" y2="650.6"/>
	<line class="st0" x1="596.6" y1="650.6" x2="738.4" y2="650.6"/>
	<polyline class="st0" points="321.2,278.8 329.7,278.8 329.7,349.7 	"/>
	<line class="st0" x1="329.7" y1="278.8" x2="321.2" y2="278.8"/>
	<line class="st0" x1="321.2" y1="278.8" x2="321.2" y2="137.1"/>
	<line class="st0" x1="321.2" y1="137.1" x2="329.7" y2="137.1"/>
	<line class="st0" x1="329.7" y1="137.1" x2="329.7" y2="66.2"/>
	<line class="st0" x1="329.7" y1="66.2" x2="1290.7" y2="66.2"/>
	<line class="st0" x1="1290.7" y1="66.2" x2="1290.7" y2="137.1"/>
	<line class="st0" x1="1290.7" y1="137.1" x2="1299.2" y2="137.1"/>
	<line class="st0" x1="1299.2" y1="137.1" x2="1299.2" y2="278.8"/>
	<line class="st0" x1="1299.2" y1="278.8" x2="1290.7" y2="278.8"/>
	<line class="st0" x1="1290.7" y1="278.8" x2="1290.7" y2="349.7"/>
	<line class="st0" x1="454.5" y1="349.7" x2="454.5" y2="341.2"/>
	<line class="st0" x1="454.5" y1="341.2" x2="596.2" y2="341.2"/>
	<line class="st0" x1="596.2" y1="341.2" x2="596.2" y2="349.7"/>
	<line class="st0" x1="737.9" y1="349.7" x2="737.9" y2="341.2"/>
	<line class="st0" x1="737.9" y1="341.2" x2="879.7" y2="341.2"/>
	<line class="st0" x1="879.7" y1="341.2" x2="879.7" y2="349.7"/>
	<line class="st0" x1="1021.4" y1="349.7" x2="1021.4" y2="341.2"/>
	<line class="st0" x1="1021.4" y1="341.2" x2="1163.1" y2="341.2"/>
	<line class="st0" x1="1163.1" y1="341.2" x2="1163.1" y2="349.7"/>
	<line class="st0" x1="454.5" y1="349.7" x2="329.7" y2="349.7"/>
	<line class="st0" x1="737.9" y1="349.7" x2="596.2" y2="349.7"/>
	<line class="st0" x1="1290.7" y1="349.7" x2="1163.1" y2="349.7"/>
	<line class="st0" x1="1021.4" y1="349.7" x2="879.7" y2="349.7"/>
</g>
<rect x="17.3" y="368.2" class="st1" width="275" height="266.1"/>
<rect x="327.6" y="368.2" class="st1" width="960.9" height="266.5"/>
<rect x="1319.4" y="371.2" class="st1" width="275" height="266.5"/>
<rect x="329.7" y="66.2" class="st1" width="958.5" height="275"/>
<rect x="327.3" y="659.1" class="st1" width="960.9" height="275"/>
<circle class="st1" cx="74" cy="501.1" r="28.3"/>
</svg>
