<?xml version="1.0" encoding="UTF-8"?>
<!DOCTYPE svg PUBLIC "-//W3C//DTD SVG 1.1//EN" "http://www.w3.org/Graphics/SVG/1.1/DTD/svg11.dtd">
<!-- Creator: CorelDRAW 2017 -->
<svg xmlns="http://www.w3.org/2000/svg" xml:space="preserve" width="210mm" height="297mm" version="1.1" style="shape-rendering:geometricPrecision; text-rendering:geometricPrecision; image-rendering:optimizeQuality; fill-rule:evenodd; clip-rule:evenodd"
viewBox="0 0 21000 29700"
 xmlns:xlink="http://www.w3.org/1999/xlink">
 <defs>
  <style type="text/css">
   <![CDATA[
    .str0 {stroke:#ED3237;stroke-width:7.62;stroke-linejoin:bevel;stroke-miterlimit:22.9256}
    .fil0 {fill:none}
   ]]>
  </style>
 </defs>
 <g id="Layer_x0020_1">
  <metadata id="CorelCorpID_0Corel-Layer"/>
  <line class="fil0 str0" x1="42697.91" y1="22794.33" x2="42697.91" y2= "12794.33" />
  <line class="fil0 str0" x1="40197.91" y1="22794.33" x2="40197.91" y2= "22494.33" />
  <line class="fil0 str0" x1="40197.91" y1="22494.33" x2="35197.91" y2= "22494.33" />
  <line class="fil0 str0" x1="35197.91" y1="22494.33" x2="35197.91" y2= "22794.33" />
  <line class="fil0 str0" x1="40197.91" y1="12794.33" x2="40197.91" y2= "13094.33" />
  <line class="fil0 str0" x1="40197.91" y1="13094.33" x2="35197.91" y2= "13094.33" />
  <line class="fil0 str0" x1="35197.91" y1="13094.33" x2="35197.91" y2= "12794.33" />
  <line class="fil0 str0" x1="42697.91" y1="12794.33" x2="40197.91" y2= "12794.33" />
  <line class="fil0 str0" x1="35197.91" y1="12794.33" x2="32697.91" y2= "12794.33" />
  <line class="fil0 str0" x1="32697.91" y1="22794.33" x2="35197.91" y2= "22794.33" />
  <line class="fil0 str0" x1="40197.91" y1="22794.33" x2="42697.91" y2= "22794.33" />
  <line class="fil0 str0" x1="32697.91" y1="20294.33" x2="32997.91" y2= "20294.33" />
  <line class="fil0 str0" x1="32997.91" y1="20294.33" x2="32997.91" y2= "15294.33" />
  <line class="fil0 str0" x1="32997.91" y1="15294.33" x2="32697.91" y2= "15294.33" />
  <line class="fil0 str0" x1="32697.91" y1="12794.33" x2="32697.91" y2= "15294.33" />
  <line class="fil0 str0" x1="32697.91" y1="20294.33" x2="32697.91" y2= "22794.33" />
 </g>
 <g id="_0">
  <metadata id="CorelCorpID_1Corel-Layer"/>
  <line class="fil0 str0" x1="-12937.45" y1="12676" x2="-12937.45" y2= "22676" />
  <line class="fil0 str0" x1="-10437.45" y1="12676" x2="-10437.45" y2= "12976" />
  <line class="fil0 str0" x1="-10437.45" y1="12976" x2="-5437.45" y2= "12976" />
  <line class="fil0 str0" x1="-5437.45" y1="12976" x2="-5437.45" y2= "12676" />
  <line class="fil0 str0" x1="-10437.45" y1="22676" x2="-10437.45" y2= "22376" />
  <line class="fil0 str0" x1="-10437.45" y1="22376" x2="-5437.45" y2= "22376" />
  <line class="fil0 str0" x1="-5437.45" y1="22376" x2="-5437.45" y2= "22676" />
  <line class="fil0 str0" x1="-12937.45" y1="22676" x2="-10437.45" y2= "22676" />
  <line class="fil0 str0" x1="-5437.45" y1="22676" x2="-2937.45" y2= "22676" />
  <line class="fil0 str0" x1="-2937.45" y1="12676" x2="-5437.45" y2= "12676" />
  <line class="fil0 str0" x1="-10437.45" y1="12676" x2="-12937.45" y2= "12676" />
  <path class="fil0 str0" d="M-10937.45 16676c-552.28,0 -1000,447.71 -1000,1000 0,552.28 447.71,1000 1000,1000 552.28,0 1000,-447.71 1000,-1000 0,-552.28 -447.71,-1000 -999.99,-1000z"/>
  <line class="fil0 str0" x1="-2937.45" y1="15176" x2="-3237.45" y2= "15176" />
  <line class="fil0 str0" x1="-3237.45" y1="15176" x2="-3237.45" y2= "20176" />
  <line class="fil0 str0" x1="-3237.45" y1="20176" x2="-2937.45" y2= "20176" />
  <line class="fil0 str0" x1="-2937.45" y1="22676" x2="-2937.45" y2= "20176" />
  <line class="fil0 str0" x1="-2937.45" y1="15176" x2="-2937.45" y2= "12676" />
  <polyline class="fil0 str0" points="31908.9,15188.82 32208.9,15188.82 32208.9,20188.82 31908.9,20188.82 "/>
  <line class="fil0 str0" x1="31908.9" y1="12988.82" x2="31908.9" y2= "15188.82" />
  <line class="fil0 str0" x1="31908.9" y1="15188.82" x2="32208.9" y2= "15188.82" />
  <line class="fil0 str0" x1="32208.9" y1="20188.82" x2="31908.9" y2= "20188.82" />
  <line class="fil0 str0" x1="31908.9" y1="22388.82" x2="27508.9" y2= "22388.82" />
  <line class="fil0 str0" x1="27508.9" y1="22388.82" x2="27508.9" y2= "22688.82" />
  <line class="fil0 str0" x1="27508.9" y1="22688.82" x2="22508.9" y2= "22688.82" />
  <line class="fil0 str0" x1="22508.9" y1="22688.82" x2="22508.9" y2= "22388.82" />
  <line class="fil0 str0" x1="22508.9" y1="22388.82" x2="17508.9" y2= "22388.82" />
  <line class="fil0 str0" x1="17508.9" y1="22388.82" x2="17508.9" y2= "22688.82" />
  <line class="fil0 str0" x1="17508.9" y1="22688.82" x2="12508.9" y2= "22688.82" />
  <line class="fil0 str0" x1="12508.9" y1="22688.82" x2="12508.9" y2= "22388.82" />
  <line class="fil0 str0" x1="12508.9" y1="22388.82" x2="7508.9" y2= "22388.82" />
  <path class="fil0 str0" d="M27508.9 22688.82l-5000 0m-5000 0l-5000 0m-5000 0l-5000 0"/>
  <line class="fil0 str0" x1="7508.9" y1="22388.82" x2="7508.9" y2= "22688.82" />
  <line class="fil0 str0" x1="2508.9" y1="22688.82" x2="2508.9" y2= "22388.82" />
  <line class="fil0 str0" x1="2508.9" y1="22388.82" x2="-1991.1" y2= "22388.82" />
  <line class="fil0 str0" x1="-1991.1" y1="22388.82" x2="-1991.1" y2= "20188.82" />
  <line class="fil0 str0" x1="-1991.1" y1="20188.82" x2="-2291.1" y2= "20188.82" />
  <line class="fil0 str0" x1="-2291.1" y1="20188.82" x2="-2291.1" y2= "15188.82" />
  <line class="fil0 str0" x1="-2291.1" y1="15188.82" x2="-1991.1" y2= "15188.82" />
  <line class="fil0 str0" x1="-1991.1" y1="15188.82" x2="-1991.1" y2= "12988.82" />
  <line class="fil0 str0" x1="12508.9" y1="12688.82" x2="12508.9" y2= "12988.82" />
  <line class="fil0 str0" x1="2508.9" y1="12988.82" x2="-1991.1" y2= "12988.82" />
  <line class="fil0 str0" x1="7508.9" y1="12688.82" x2="2508.9" y2= "12688.82" />
  <line class="fil0 str0" x1="2508.9" y1="12688.82" x2="2508.9" y2= "12988.82" />
  <line class="fil0 str0" x1="7508.9" y1="12988.82" x2="7508.9" y2= "12688.82" />
  <line class="fil0 str0" x1="12508.9" y1="12988.82" x2="7508.9" y2= "12988.82" />
  <line class="fil0 str0" x1="17508.9" y1="12688.82" x2="12508.9" y2= "12688.82" />
  <line class="fil0 str0" x1="22508.9" y1="12988.82" x2="17508.9" y2= "12988.82" />
  <line class="fil0 str0" x1="27508.9" y1="12688.82" x2="22508.9" y2= "12688.82" />
  <line class="fil0 str0" x1="27508.9" y1="12988.82" x2="27508.9" y2= "12688.82" />
  <line class="fil0 str0" x1="22508.9" y1="12688.82" x2="22508.9" y2= "12988.82" />
  <line class="fil0 str0" x1="17508.9" y1="12988.82" x2="17508.9" y2= "12688.82" />
  <line class="fil0 str0" x1="31908.9" y1="12988.82" x2="27508.9" y2= "12988.82" />
  <line class="fil0 str0" x1="32208.9" y1="20188.82" x2="31908.9" y2= "20188.82" />
  <line class="fil0 str0" x1="31908.9" y1="20188.82" x2="31908.9" y2= "22388.82" />
  <polyline class="fil0 str0" points="32201.39,25451.52 31901.39,25451.52 31901.39,22951.52 "/>
  <line class="fil0 str0" x1="31901.39" y1="25451.52" x2="32201.39" y2= "25451.52" />
  <line class="fil0 str0" x1="32201.39" y1="25451.52" x2="32201.39" y2= "30451.52" />
  <line class="fil0 str0" x1="32201.39" y1="30451.52" x2="31901.39" y2= "30451.52" />
  <line class="fil0 str0" x1="31901.39" y1="30451.52" x2="31901.39" y2= "32951.52" />
  <line class="fil0 str0" x1="31901.39" y1="32951.52" x2="-1998.61" y2= "32951.52" />
  <line class="fil0 str0" x1="-1998.61" y1="32951.52" x2="-1998.61" y2= "30451.52" />
  <line class="fil0 str0" x1="-1998.61" y1="30451.52" x2="-2298.61" y2= "30451.52" />
  <line class="fil0 str0" x1="-2298.61" y1="30451.52" x2="-2298.61" y2= "25451.52" />
  <line class="fil0 str0" x1="-2298.61" y1="25451.52" x2="-1998.61" y2= "25451.52" />
  <line class="fil0 str0" x1="-1998.61" y1="25451.52" x2="-1998.61" y2= "22951.52" />
  <line class="fil0 str0" x1="27501.39" y1="22951.52" x2="27501.39" y2= "23251.52" />
  <line class="fil0 str0" x1="27501.39" y1="23251.52" x2="22501.39" y2= "23251.52" />
  <line class="fil0 str0" x1="22501.39" y1="23251.52" x2="22501.39" y2= "22951.52" />
  <line class="fil0 str0" x1="17501.39" y1="22951.52" x2="17501.39" y2= "23251.52" />
  <line class="fil0 str0" x1="17501.39" y1="23251.52" x2="12501.39" y2= "23251.52" />
  <line class="fil0 str0" x1="12501.39" y1="23251.52" x2="12501.39" y2= "22951.52" />
  <line class="fil0 str0" x1="7501.39" y1="22951.52" x2="7501.39" y2= "23251.52" />
  <line class="fil0 str0" x1="7501.39" y1="23251.52" x2="2501.39" y2= "23251.52" />
  <line class="fil0 str0" x1="2501.39" y1="23251.52" x2="2501.39" y2= "22951.52" />
  <line class="fil0 str0" x1="27501.39" y1="22951.52" x2="31901.39" y2= "22951.52" />
  <line class="fil0 str0" x1="17501.39" y1="22951.52" x2="22501.39" y2= "22951.52" />
  <line class="fil0 str0" x1="-1998.61" y1="22951.52" x2="2501.39" y2= "22951.52" />
  <line class="fil0 str0" x1="7501.39" y1="22951.52" x2="12501.39" y2= "22951.52" />
  <polyline class="fil0 str0" points="-2213.94,9835.17 -1913.94,9835.17 -1913.94,12335.17 "/>
  <line class="fil0 str0" x1="-1913.94" y1="9835.17" x2="-2213.94" y2= "9835.17" />
  <line class="fil0 str0" x1="-2213.94" y1="9835.17" x2="-2213.94" y2= "4835.17" />
  <line class="fil0 str0" x1="-2213.94" y1="4835.17" x2="-1913.94" y2= "4835.17" />
  <line class="fil0 str0" x1="-1913.94" y1="4835.17" x2="-1913.94" y2= "2335.17" />
  <line class="fil0 str0" x1="-1913.94" y1="2335.17" x2="31986.06" y2= "2335.17" />
  <line class="fil0 str0" x1="31986.06" y1="2335.17" x2="31986.06" y2= "4835.17" />
  <line class="fil0 str0" x1="31986.06" y1="4835.17" x2="32286.06" y2= "4835.17" />
  <line class="fil0 str0" x1="32286.06" y1="4835.17" x2="32286.06" y2= "9835.17" />
  <line class="fil0 str0" x1="32286.06" y1="9835.17" x2="31986.06" y2= "9835.17" />
  <line class="fil0 str0" x1="31986.06" y1="9835.17" x2="31986.06" y2= "12335.17" />
  <line class="fil0 str0" x1="2486.06" y1="12335.17" x2="2486.06" y2= "12035.17" />
  <line class="fil0 str0" x1="2486.06" y1="12035.17" x2="7486.06" y2= "12035.17" />
  <line class="fil0 str0" x1="7486.06" y1="12035.17" x2="7486.06" y2= "12335.17" />
  <line class="fil0 str0" x1="12486.06" y1="12335.17" x2="12486.06" y2= "12035.17" />
  <line class="fil0 str0" x1="12486.06" y1="12035.17" x2="17486.06" y2= "12035.17" />
  <line class="fil0 str0" x1="17486.06" y1="12035.17" x2="17486.06" y2= "12335.17" />
  <line class="fil0 str0" x1="22486.06" y1="12335.17" x2="22486.06" y2= "12035.17" />
  <line class="fil0 str0" x1="22486.06" y1="12035.17" x2="27486.06" y2= "12035.17" />
  <line class="fil0 str0" x1="27486.06" y1="12035.17" x2="27486.06" y2= "12335.17" />
  <line class="fil0 str0" x1="2486.06" y1="12335.17" x2="-1913.94" y2= "12335.17" />
  <line class="fil0 str0" x1="12486.06" y1="12335.17" x2="7486.06" y2= "12335.17" />
  <line class="fil0 str0" x1="31986.06" y1="12335.17" x2="27486.06" y2= "12335.17" />
  <line class="fil0 str0" x1="22486.06" y1="12335.17" x2="17486.06" y2= "12335.17" />
 </g>
</svg>
