<?xml version="1.0" encoding="utf-8"?>
<!-- Generator: Adobe Illustrator 24.1.3, SVG Export Plug-In . SVG Version: 6.00 Build 0)  -->
<svg version="1.1" xmlns="http://www.w3.org/2000/svg" xmlns:xlink="http://www.w3.org/1999/xlink" x="0px" y="0px"
	 viewBox="0 0 792 612" style="enable-background:new 0 0 792 612;" xml:space="preserve">
<style type="text/css">
	.st0{fill:none;stroke:#000000;}
	.st1{fill:none;stroke:#000000;stroke-miterlimit:2.6131;}
	.st2{fill:#ED1C24;}
	.st3{fill:none;stroke:#000000;stroke-miterlimit:10;}
</style>
<g id="Layer_1">
	<path class="st0" d="M150.7,184.1c0-1.6,1.3-2.8,2.8-2.8h5.5V152h-5.5c-1.6,0-2.8-1.3-2.8-2.8V140h8.5c9.5,0,17.2-1.5,21.9-3.3
		c4.6-1.8,11.7-3.1,20.6-3.1c1,0,1.8-0.8,1.8-1.8l0,0c0-1-0.8-1.8-1.8-1.8c-9.5,0-17.2,1.5-21.9,3.3c-4.6,1.8-11.7,3.1-20.6,3.1
		l-8.5,0c-2.9,0-5.3-2.4-5.3-5.3c0-2.9,2.4-5.3,5.3-5.3v3.3h8.5v-4c0-1.6,1.3-2.8,2.8-2.8h1.4c0.4,0,0.7,0.1,1,0.4
		c0.6,0.6,1.4,0.6,2,0c0.6-0.6,1.5-0.6,2,0c0.6,0.6,1.5,0.6,2,0c0.6-0.6,1.5-0.6,2,0c0.6,0.6,1.5,0.6,2,0c0.6-0.6,1.5-0.6,2,0
		c0.6,0.6,1.4,0.6,2,0c0.3-0.3,0.6-0.4,1-0.4h208c0.4,0,0.7,0.1,1,0.4c0.6,0.6,1.5,0.6,2,0c0.6-0.6,1.5-0.6,2,0c0.6,0.6,1.4,0.6,2,0
		c0.6-0.6,1.5-0.6,2,0c0.6,0.6,1.5,0.6,2,0c0.6-0.6,1.5-0.6,2,0c0.6,0.6,1.5,0.6,2,0c0.3-0.3,0.6-0.4,1-0.4h1.4
		c1.6,0,2.8,1.3,2.8,2.8v4h8.9v-3.3c2.9,0,5.3,2.4,5.3,5.3c0,2.9-2.4,5.3-5.3,5.3l-8.9,0c-8.9,0-16-1.3-20.6-3.1
		c-4.7-1.8-12.4-3.3-21.9-3.3c-1,0-1.8,0.8-1.8,1.8l0,0c0,1,0.8,1.8,1.8,1.8c8.9,0,16,1.3,20.6,3.1c4.7,1.8,12.4,3.3,21.9,3.3h8.9
		v9.2c0,1.6-1.3,2.8-2.8,2.8h-6v29.2h6c1.6,0,2.8,1.3,2.8,2.8v12.8c2.9,0,5.3,2.4,5.3,5.3c0,2.9-2.4,5.3-5.3,5.3v-3.3h-8.9v4
		c0,1.6-1.3,2.8-2.8,2.8H162c-1.6,0-2.8-1.3-2.8-2.8v-4h-8.5v3.3c-2.9,0-5.3-2.4-5.3-5.3c0-2.9,2.4-5.3,5.3-5.3V184.1z"/>
	<rect x="216.6" y="195.4" class="st0" width="34" height="8.8"/>
	<rect x="317.2" y="195.4" class="st0" width="34" height="8.8"/>
	<rect x="216.6" y="129.1" class="st0" width="34" height="8.8"/>
	<rect x="317.2" y="129.1" class="st0" width="34" height="8.8"/>
	<path class="st1" d="M297.5,167.2c0,1.6-1.3,2.8-2.8,2.8H255c-1.6,0-2.8-1.3-2.8-2.8v-10.6c0-0.8,0.3-1.5,0.8-2l2.8-2.8
		c0.5-0.5,1.3-0.8,2-0.8h34c0.8,0,1.5,0.3,2,0.8l2.8,2.8c0.5,0.5,0.8,1.3,0.8,2V167.2z"/>
	<path class="st2" d="M285.8,183.1V180h-3.6v3.1h-1v-7.4h1v3.5h3.6v-3.5h1v7.4H285.8z"/>
	<path class="st2" d="M279.7,183c-0.6,0.1-1.3,0.2-2,0.2c-1.4,0-2.4-0.3-3-0.9c-0.7-0.6-1-1.5-1-2.7c0-1.2,0.4-2.2,1.1-2.9
		c0.7-0.7,1.8-1.1,3.3-1.1c0.7,0,1.3,0,1.7,0.1L279.7,183L279.7,183z M278.8,176.4c-0.2,0-0.6-0.1-1-0.1c-2,0-3.2,1.1-3.2,3.1
		c0,1.7,1,2.9,3,2.9c0.5,0,0.9,0,1.1-0.1L278.8,176.4L278.8,176.4z"/>
	<path class="st2" d="M266.3,178.9c0.1,1,0.1,2.3,0.1,3.2h0c0.3-0.9,0.6-1.8,0.9-2.8l1.3-3.6h0.7l1.2,3.5c0.4,1,0.6,2,0.9,2.9h0
		c0-0.9,0.1-2.2,0.1-3.3l0.2-3.2h0.9l-0.5,7.4H271l-1.3-3.6c-0.3-0.9-0.6-1.7-0.7-2.5h0c-0.2,0.7-0.4,1.6-0.8,2.5l-1.3,3.6h-1.2
		l-0.5-7.4h0.9L266.3,178.9z"/>
	<path class="st2" d="M262.9,183.1v-7.4h1v7.4H262.9z"/>
	<path class="st0" d="M382.6,452.8v-23.5H377c-1.6,0-2.8-1.3-2.8-2.8v-9.2h8.5c9.5,0,17.2-1.5,21.9-3.3c4.6-1.8,11.7-3.1,20.6-3.1
		c1,0,1.8-0.8,1.8-1.8l0,0c0-1-0.8-1.8-1.8-1.8c-9.5,0-17.2,1.5-21.9,3.3c-4.6,1.8-11.7,3.1-20.6,3.1h-8.5c-2.9,0-5.3-2.4-5.3-5.3
		s2.4-5.3,5.3-5.3v3.3h8.5v-4c0-1.6,1.3-2.8,2.8-2.8h1.4c0.4,0,0.7,0.1,1,0.4c0.6,0.6,1.5,0.6,2,0c0.6-0.6,1.5-0.6,2,0
		c0.6,0.6,1.5,0.6,2,0c0.6-0.6,1.5-0.6,2,0s1.5,0.6,2,0c0.6-0.6,1.5-0.6,2,0c0.6,0.6,1.4,0.6,2,0c0.3-0.3,0.6-0.4,1-0.4h208
		c0.4,0,0.7,0.1,1,0.4c0.6,0.6,1.5,0.6,2,0c0.6-0.6,1.5-0.6,2,0c0.6,0.6,1.5,0.6,2,0c0.6-0.6,1.5-0.6,2,0c0.6,0.6,1.5,0.6,2,0
		c0.6-0.6,1.5-0.6,2,0c0.6,0.6,1.5,0.6,2,0c0.3-0.3,0.6-0.4,1-0.4h1.4c1.6,0,2.8,1.3,2.8,2.8v4h8.9V403c2.9,0,5.3,2.4,5.3,5.3
		s-2.4,5.3-5.3,5.3h-8.9c-8.9,0-16-1.3-20.6-3.1c-4.7-1.8-12.4-3.3-21.9-3.3c-1,0-1.8,0.8-1.8,1.8l0,0c0,1,0.8,1.8,1.8,1.8
		c8.9,0,16,1.3,20.6,3.1c4.7,1.8,12.4,3.3,21.9,3.3h8.9v9.2c0,1.6-1.3,2.8-2.8,2.8h-6v29.2h6c1.6,0,2.8,1.3,2.8,2.8V474
		c2.9,0,5.3,2.4,5.3,5.3s-2.4,5.3-5.3,5.3v-3.3h-8.9v4c0,1.6-1.3,2.8-2.8,2.8H385.5c-1.6,0-2.8-1.3-2.8-2.8v-4h-8.5v3.3
		c-2.9,0-5.3-2.4-5.3-5.3s2.4-5.3,5.3-5.3v-12.8c0-1.6,1.3-2.8,2.8-2.8h109.1c1.6,0,2.8-1.3,2.8-2.8s-1.3-2.8-2.8-2.8L382.6,452.8z"
		/>
	<rect x="440.1" y="472.6" class="st0" width="34" height="8.8"/>
	<rect x="540.7" y="472.6" class="st0" width="34" height="8.8"/>
	<rect x="440.1" y="406.3" class="st0" width="34" height="8.8"/>
	<rect x="540.7" y="406.3" class="st0" width="34" height="8.8"/>
	<path class="st2" d="M529.1,423.1c0.4-0.2,1.1-0.4,2-0.4c2.1,0,3.7,1.3,3.7,3.8c0,2.3-1.6,3.9-3.9,3.9c-0.9,0-1.5-0.2-1.8-0.3
		l0.2-0.8c0.4,0.2,0.9,0.3,1.5,0.3c1.7,0,2.9-1.1,2.9-3.1c0-1.8-1-3-2.9-3c-0.6,0-1.2,0.1-1.6,0.3L529.1,423.1z"/>
	<path class="st2" d="M523.4,425.6c0-2,1.4-2.8,2.7-2.8c1.4,0,2.6,1.1,2.6,2.7c0,1.8-1.2,2.8-2.6,2.8
		C524.5,428.3,523.4,427.2,523.4,425.6z M527.7,425.5c0-1.2-0.7-2-1.6-2c-0.9,0-1.6,0.9-1.6,2.1c0,0.9,0.5,2,1.6,2
		S527.7,426.5,527.7,425.5z"/>
	<path class="st2" d="M522.3,426.8c0,0.5,0,1,0,1.4h-0.8l0-0.9h0c-0.3,0.5-0.8,1-1.7,1c-0.7,0-1.3-0.4-1.5-1.1h0
		c-0.2,0.3-0.4,0.5-0.6,0.7c-0.3,0.2-0.7,0.4-1.2,0.4c-0.7,0-1.7-0.5-1.7-2.3v-3.1h0.9v3c0,1,0.4,1.6,1.2,1.6c0.5,0,1-0.4,1.1-0.9
		c0-0.1,0.1-0.3,0.1-0.5v-3.3h0.9v3.2c0,0.8,0.4,1.5,1.1,1.5c0.6,0,1-0.5,1.2-1c0.1-0.1,0.1-0.3,0.1-0.5v-3.2h0.9L522.3,426.8
		L522.3,426.8z"/>
	<path class="st2" d="M513.4,426.5c0,0.7,0,1.2,0,1.7h-0.9l0-0.9h0c-0.4,0.6-1,1-1.9,1c-1.3,0-2.3-1.1-2.3-2.7
		c0-1.9,1.2-2.9,2.4-2.9c0.7,0,1.3,0.3,1.6,0.8h0v-2.9h1L513.4,426.5L513.4,426.5z M512.4,425c0-0.1,0-0.3,0-0.4
		c-0.2-0.7-0.8-1.1-1.5-1.1c-1,0-1.6,0.8-1.6,2.1c0,1.1,0.6,2,1.6,2c0.7,0,1.3-0.5,1.5-1.2c0-0.1,0.1-0.3,0.1-0.4V425L512.4,425z"/>
	<path class="st2" d="M502.3,425.6c0-2,1.4-2.8,2.6-2.8c1.4,0,2.6,1.1,2.6,2.7c0,1.8-1.2,2.8-2.6,2.8
		C503.4,428.3,502.3,427.2,502.3,425.6z M506.5,425.5c0-1.2-0.7-2-1.6-2c-0.9,0-1.6,0.9-1.6,2.1c0,0.9,0.5,2,1.6,2
		S506.5,426.5,506.5,425.5z"/>
	<path class="st2" d="M501.4,423.9c-0.3-0.2-0.8-0.4-1.3-0.4c-0.7,0-1,0.4-1,0.8c0,0.5,0.3,0.7,1,1c1,0.3,1.4,0.9,1.4,1.5
		c0,0.9-0.7,1.6-1.8,1.6c-0.5,0-1-0.2-1.3-0.3l0.2-0.7c0.2,0.1,0.6,0.3,1.1,0.3c0.6,0,0.9-0.3,0.9-0.7c0-0.4-0.3-0.6-1-0.9
		c-0.9-0.4-1.4-0.8-1.4-1.6c0-0.9,0.7-1.6,2-1.6c0.6,0,1.1,0.2,1.5,0.4L501.4,423.9z"/>
	<path class="st2" d="M496.1,429.7c0-0.3,0.2-0.6,0.6-0.6c0.3,0,0.6,0.3,0.6,0.6c0,0.3-0.3,0.6-0.6,0.6
		C496.3,430.3,496.1,430,496.1,429.7z M497.2,422.9v5.3h-1v-5.3H497.2z"/>
	<path class="st2" d="M493.6,429.5v-1.3h-1.4v-0.7h1.4v-2.9c0-0.7-0.2-1-0.7-1c-0.3,0-0.4,0-0.6,0.1l0-0.7c0.2-0.1,0.5-0.1,0.9-0.1
		c0.5,0,0.8,0.2,1,0.4c0.3,0.3,0.4,0.8,0.4,1.4v2.9h0.8v0.7h-0.8v1L493.6,429.5z"/>
	<path class="st2" d="M490.8,425.4c0-1.3-0.9-1.8-1.8-1.8c-0.7,0-1.1,0.1-1.5,0.3l-0.2-0.7c0.3-0.2,0.9-0.3,1.8-0.3
		c1.6,0,2.6,1.1,2.6,2.7c0,1.6-0.9,2.9-2.5,2.9c-1.7,0-2.2-1.5-2.2-2.5c0-0.2,0-0.4,0-0.5L490.8,425.4L490.8,425.4z M488,426
		c0,0.6,0.3,1.6,1.3,1.6c1,0,1.4-0.9,1.5-1.6H488z"/>
	<path class="st2" d="M532.7,411.9l2.4,7.4h-1l-1.2-3.7c-0.3-1-0.6-1.9-0.8-2.8h0c-0.2,0.9-0.5,1.8-0.8,2.8l-1.3,3.7h-1l2.7-7.4
		L532.7,411.9L532.7,411.9z"/>
	<path class="st2" d="M527.1,418.7c0-0.3,0.2-0.6,0.6-0.6c0.3,0,0.6,0.3,0.6,0.6c0,0.3-0.3,0.6-0.6,0.6
		C527.4,419.3,527.1,419,527.1,418.7z M528.2,411.9v5.3h-1v-5.3H528.2z"/>
	<path class="st2" d="M521.2,419.7v-6.4c0-0.5,0-1,0-1.4h0.9l0,0.9h0c0.3-0.6,0.9-1,1.8-1c1.3,0,2.3,1.1,2.3,2.7
		c0,1.8-1.1,2.9-2.4,2.9c-0.8,0-1.4-0.4-1.6-0.8h0v3.2H521.2z M522.2,415c0,0.1,0,0.3,0,0.4c0.1,0.6,0.7,1.1,1.4,1.1
		c1,0,1.6-0.9,1.6-2.1c0-1.1-0.5-2-1.6-2c-0.7,0-1.2,0.4-1.4,1.2c0,0.1,0,0.3,0,0.4V415z"/>
	<path class="st2" d="M519.2,414.4c0-1.3-0.9-1.8-1.8-1.8c-0.7,0-1.1,0.1-1.5,0.3l-0.2-0.7c0.3-0.2,0.9-0.3,1.8-0.3
		c1.6,0,2.6,1.1,2.6,2.7c0,1.6-0.9,2.9-2.5,2.9c-1.7,0-2.2-1.5-2.2-2.5c0-0.2,0-0.4,0-0.5L519.2,414.4L519.2,414.4z M516.3,415
		c0,0.6,0.3,1.6,1.3,1.6c1,0,1.4-0.9,1.5-1.6H516.3z"/>
	<path class="st2" d="M509.4,414.6c0-2,1.4-2.8,2.7-2.8c1.4,0,2.6,1.1,2.6,2.7c0,1.8-1.2,2.8-2.6,2.8
		C510.5,417.3,509.4,416.2,509.4,414.6z M513.7,414.5c0-1.2-0.7-2-1.6-2c-0.9,0-1.6,0.9-1.6,2.1c0,0.9,0.5,2,1.6,2
		C513.2,416.6,513.7,415.5,513.7,414.5z"/>
	<path class="st2" d="M499.7,415.7c0-2.6,1.6-3.9,3.4-3.9c2,0,3.3,1.5,3.3,3.8c0,2.4-1.5,3.9-3.4,3.9
		C501,419.4,499.7,417.9,499.7,415.7z M505.5,415.5c0-1.6-0.9-3-2.4-3c-1.5,0-2.4,1.4-2.4,3.1c0,1.5,0.8,3,2.4,3
		C504.7,418.6,505.5,417.2,505.5,415.5z"/>
	<path class="st2" d="M494.1,413.3c0-0.5,0-1,0-1.5h0.9l0.1,0.9h0c0.3-0.4,0.8-1,1.8-1c0.8,0,1.8,0.5,1.8,2.3v3.1h-1v-2.9
		c0-1-0.3-1.7-1.2-1.7c-0.6,0-1.1,0.5-1.3,0.9c-0.1,0.1-0.1,0.3-0.1,0.5v3.3h-1V413.3z"/>
	<path class="st2" d="M491.5,418.5v-1.3h-1.4v-0.7h1.4v-2.9c0-0.7-0.2-1-0.7-1c-0.3,0-0.4,0-0.6,0.1l0-0.7c0.2-0.1,0.5-0.1,0.9-0.1
		c0.5,0,0.8,0.2,1,0.4c0.3,0.3,0.4,0.8,0.4,1.4v2.9h0.8v0.7h-0.8v1L491.5,418.5z"/>
	<path class="st2" d="M614.4,449.8l0.8-2.3h1l-2.5,7.4h-1.2l-2.5-7.4h1l0.8,2.3H614.4z M611.9,450.6l0.7,2.1
		c0.2,0.5,0.3,0.9,0.4,1.4h0c0.1-0.4,0.2-0.9,0.4-1.3l0.7-2.1L611.9,450.6L611.9,450.6z"/>
	<path class="st2" d="M604.7,448.9c0-0.5,0-1,0-1.5h0.9l0.1,0.9h0c0.3-0.4,0.8-1,1.8-1c0.8,0,1.8,0.5,1.8,2.3v3.1h-1v-2.9
		c0-1-0.3-1.7-1.2-1.7c-0.6,0-1.1,0.5-1.3,0.9c-0.1,0.1-0.1,0.3-0.1,0.5v3.3h-1L604.7,448.9L604.7,448.9z"/>
	<path class="st2" d="M598.7,455.3v-6.4c0-0.5,0-1,0-1.4h0.9l0,0.9h0c0.3-0.6,0.9-1,1.8-1c1.3,0,2.3,1.1,2.3,2.7
		c0,1.8-1.1,2.9-2.4,2.9c-0.8,0-1.4-0.4-1.6-0.8h0v3.2H598.7z M599.6,450.6c0,0.1,0,0.3,0,0.4c0.1,0.6,0.7,1.1,1.4,1.1
		c1,0,1.6-0.9,1.6-2.1c0-1.1-0.5-2-1.6-2c-0.6,0-1.2,0.4-1.4,1.2c0,0.1,0,0.3,0,0.4V450.6z"/>
	<path class="st2" d="M596.1,454.3c0-0.3,0.2-0.6,0.6-0.6c0.3,0,0.6,0.3,0.6,0.6c0,0.3-0.3,0.6-0.6,0.6
		C596.4,454.9,596.1,454.6,596.1,454.3z M597.2,447.5v5.3h-1v-5.3H597.2z"/>
	<path class="st2" d="M590,450.2c0-2,1.4-2.8,2.7-2.8c1.4,0,2.6,1.1,2.6,2.7c0,1.8-1.2,2.8-2.6,2.8C591,452.9,590,451.8,590,450.2z
		 M594.2,450.1c0-1.2-0.7-2-1.6-2c-0.9,0-1.6,0.9-1.6,2.1c0,0.9,0.5,2,1.6,2C593.7,452.2,594.2,451.1,594.2,450.1z"/>
	<path class="st2" d="M599.5,440.3c0-2.6,1.6-3.9,3.4-3.9c2,0,3.3,1.5,3.3,3.8c0,2.4-1.5,3.9-3.4,3.9
		C600.8,444,599.5,442.5,599.5,440.3z M605.2,440.1c0-1.6-0.9-3-2.4-3c-1.5,0-2.4,1.4-2.4,3.1c0,1.5,0.8,3,2.4,3
		C604.4,443.2,605.2,441.8,605.2,440.1z"/>
	<path class="st2" d="M593.8,437.9c0-0.5,0-1,0-1.5h0.9l0.1,0.9h0c0.3-0.4,0.8-1,1.8-1c0.8,0,1.8,0.5,1.8,2.3v3.1h-1v-2.9
		c0-1-0.3-1.7-1.2-1.7c-0.6,0-1.1,0.5-1.3,0.9c-0.1,0.1-0.1,0.3-0.1,0.5v3.3h-1V437.9z"/>
	<path class="st2" d="M591.2,443.1v-1.3h-1.4v-0.7h1.4v-2.9c0-0.7-0.2-1-0.7-1c-0.3,0-0.4,0-0.6,0.1l0-0.7c0.2-0.1,0.5-0.1,0.9-0.1
		c0.5,0,0.8,0.2,1,0.4c0.3,0.3,0.4,0.8,0.4,1.4v2.9h0.8v0.7h-0.8v1L591.2,443.1z"/>
	<circle class="st1" cx="573.6" cy="445.8" r="9.9"/>
	<circle class="st1" cx="520.3" cy="450.9" r="14.9"/>
	<path class="st0" d="M647.9,382.5c0,1.6-1.3,2.8-2.8,2.8h-54.6v5.7c0,1.6-1.3,2.8-2.8,2.8h-28.3c-1.6,0-2.8-1.3-2.8-2.8v-5.7h-66.6
		v5.7c0,1.6-1.3,2.8-2.8,2.8h-28.3c-1.6,0-2.8-1.3-2.8-2.8v-5.7h-54.6c-1.6,0-2.8-1.3-2.8-2.8V228c0-1.6,1.3-2.8,2.8-2.8h54.6v-5.7
		c0-1.6,1.3-2.8,2.8-2.8h28.3c1.6,0,2.8,1.3,2.8,2.8v5.7h66.6v-5.7c0-1.6,1.3-2.8,2.8-2.8h28.3c1.6,0,2.8,1.3,2.8,2.8v5.7h54.6
		c1.6,0,2.8,1.3,2.8,2.8L647.9,382.5L647.9,382.5z"/>
	<path class="st0" d="M392.8,382.5c0,1.6-1.3,2.8-2.8,2.8h-54.6v5.7c0,1.6-1.3,2.8-2.8,2.8h-28.3c-1.6,0-2.8-1.3-2.8-2.8v-5.7h-66.6
		v5.7c0,1.6-1.3,2.8-2.8,2.8h-28.3c-1.6,0-2.8-1.3-2.8-2.8v-5.7h-54.6c-1.6,0-2.8-1.3-2.8-2.8V228c0-1.6,1.3-2.8,2.8-2.8h54.6v-5.7
		c0-1.6,1.3-2.8,2.8-2.8H232c1.6,0,2.8,1.3,2.8,2.8v5.7h66.6v-5.7c0-1.6,1.3-2.8,2.8-2.8h28.3c1.6,0,2.8,1.3,2.8,2.8v5.7H390
		c1.6,0,2.8,1.3,2.8,2.8V382.5z"/>
	<rect x="434.5" y="123.7" class="st0" width="9" height="22.7"/>
	<rect x="434.5" y="175.6" class="st0" width="9" height="22.7"/>
	<rect x="602.9" y="123.7" class="st0" width="9" height="22.7"/>
	<rect x="602.9" y="175.6" class="st0" width="9" height="22.7"/>
	<path class="st0" d="M427.7,125.1c0-4.7,3.8-8.5,8.5-8.5h174c4.7,0,8.5,3.8,8.5,8.5v73.1c0,7.8-6.3,14.2-14.2,14.2
		c-5.2,0-9.8-2.9-12.3-7.1H454.1c-2.5,4.2-7,7.1-12.3,7.1c-7.8,0-14.2-6.3-14.2-14.2L427.7,125.1L427.7,125.1z"/>
	<path class="st0" d="M473.6,180.8l0.7-0.7h20.3c1.6,0,2.8-1.3,2.8-2.8V139c0-1.6-1.3-2.8-2.8-2.8h-43.9c-1.6,0-2.8,1.3-2.8,2.8
		v38.3c0,1.6,1.3,2.8,2.8,2.8h20.3l0.7,0.7"/>
	<path class="st1" d="M510.2,136.2c0-1.6,1.3-2.8,2.8-2.8h38.3c1.6,0,2.8,1.3,2.8,2.8v41.1c0,1.6-1.3,2.8-2.8,2.8H513
		c-1.6,0-2.8-1.3-2.8-2.8V136.2z"/>
	<path class="st2" d="M454.1,193.2v-7.4h1l2.4,3.8c0.5,0.9,1,1.6,1.3,2.4l0,0c-0.1-1-0.1-1.9-0.1-3v-3.1h0.9v7.4h-1l-2.4-3.8
		c-0.5-0.8-1-1.7-1.4-2.5l0,0c0.1,0.9,0.1,1.8,0.1,3.1v3.2H454.1z"/>
	<path class="st2" d="M461.8,190.7c0,1.3,0.9,1.8,1.8,1.8c0.7,0,1.1-0.1,1.5-0.3l0.2,0.7c-0.3,0.2-0.9,0.3-1.8,0.3
		c-1.6,0-2.6-1.1-2.6-2.7c0-1.6,0.9-2.9,2.5-2.9c1.7,0,2.2,1.5,2.2,2.5c0,0.2,0,0.4,0,0.5L461.8,190.7L461.8,190.7z M464.6,190
		c0-0.6-0.3-1.6-1.3-1.6c-1,0-1.4,0.9-1.5,1.6H464.6z"/>
	<path class="st2" d="M467.8,186.6v1.3h1.4v0.7h-1.4v2.9c0,0.7,0.2,1,0.7,1c0.3,0,0.4,0,0.6-0.1l0,0.7c-0.2,0.1-0.5,0.1-0.9,0.1
		c-0.5,0-0.8-0.2-1-0.4c-0.3-0.3-0.4-0.8-0.4-1.4v-2.9H466v-0.7h0.8v-1L467.8,186.6z"/>
	<path class="st2" d="M470.8,187.9l0.7,2.7c0.2,0.6,0.3,1.1,0.4,1.7h0c0.1-0.5,0.3-1.1,0.5-1.7l0.9-2.7h0.8l0.8,2.7
		c0.2,0.6,0.4,1.2,0.5,1.7h0c0.1-0.5,0.2-1.1,0.4-1.7l0.8-2.7h1l-1.7,5.3h-0.9l-0.8-2.5c-0.2-0.6-0.3-1.1-0.5-1.8h0
		c-0.1,0.6-0.3,1.2-0.5,1.8l-0.9,2.5h-0.9l-1.6-5.3L470.8,187.9L470.8,187.9z"/>
	<path class="st2" d="M483.1,190.5c0,2-1.4,2.8-2.7,2.8c-1.4,0-2.6-1.1-2.6-2.7c0-1.8,1.2-2.8,2.6-2.8
		C482,187.7,483.1,188.9,483.1,190.5z M478.8,190.5c0,1.2,0.7,2,1.6,2c0.9,0,1.6-0.9,1.6-2.1c0-0.9-0.5-2-1.6-2
		C479.3,188.5,478.8,189.5,478.8,190.5z"/>
	<path class="st2" d="M484.2,189.5c0-0.6,0-1.2,0-1.7h0.8l0,1h0c0.2-0.7,0.8-1.2,1.5-1.2c0.1,0,0.2,0,0.3,0v0.9c-0.1,0-0.2,0-0.3,0
		c-0.7,0-1.2,0.5-1.3,1.2c0,0.1,0,0.3,0,0.5v2.8h-1L484.2,189.5L484.2,189.5z"/>
	<path class="st2" d="M488.6,190.3L488.6,190.3c0.2-0.2,0.3-0.4,0.5-0.6l1.6-1.8h1.2l-2.1,2.2l2.3,3.1h-1.2l-1.8-2.6l-0.5,0.6v2h-1
		v-7.8h1L488.6,190.3L488.6,190.3z"/>
	<path class="st2" d="M525,185.8v4.4c0,1.7,0.7,2.4,1.7,2.4c1.1,0,1.8-0.7,1.8-2.4v-4.4h1v4.3c0,2.3-1.2,3.2-2.8,3.2
		c-1.5,0-2.7-0.9-2.7-3.2v-4.4H525z"/>
	<path class="st2" d="M530.7,192c0.4,0.3,1.1,0.5,1.7,0.5c1,0,1.6-0.5,1.6-1.3c0-0.7-0.4-1.1-1.4-1.5c-1.2-0.4-2-1.1-2-2.1
		c0-1.2,1-2,2.4-2c0.8,0,1.3,0.2,1.6,0.4l-0.3,0.8c-0.2-0.1-0.7-0.4-1.4-0.4c-1,0-1.4,0.6-1.4,1.1c0,0.7,0.5,1,1.5,1.4
		c1.3,0.5,1.9,1.1,1.9,2.2c0,1.1-0.8,2.1-2.6,2.1c-0.7,0-1.5-0.2-1.9-0.5L530.7,192z"/>
	<path class="st2" d="M536,185.9c0.4-0.1,1.1-0.2,1.7-0.2c1,0,1.6,0.2,2,0.5c0.4,0.3,0.6,0.7,0.6,1.3c0,0.7-0.5,1.3-1.3,1.6v0
		c0.7,0.2,1.5,0.8,1.5,1.9c0,0.6-0.3,1.1-0.6,1.5c-0.5,0.5-1.4,0.7-2.6,0.7c-0.7,0-1.2,0-1.5-0.1V185.9z M537,192.5
		c0.2,0,0.5,0,0.8,0c1,0,1.9-0.4,1.9-1.4c0-1-0.9-1.4-1.9-1.4H537V192.5z M537,188.9h0.9c1,0,1.6-0.5,1.6-1.2c0-0.9-0.7-1.2-1.6-1.2
		c-0.4,0-0.7,0-0.8,0.1L537,188.9L537,188.9z"/>
	<path class="st0" d="M471.6,175.8l-0.7,0.7h-9.6c-1.6,0-2.8-1.3-2.8-2.8v-1.8c0-0.8,0.4-1.6,1-2.2c1.1-0.9,1.8-2.4,1.8-3.8
		c0-2.7-2.2-5-5-5h-0.7c-1.6,0-2.8-1.3-2.8-2.8v-15.6c0-1.6,1.3-2.8,2.8-2.8h34c1.6,0,2.8,1.3,2.8,2.8v15.6c0,1.6-1.3,2.8-2.8,2.8
		h-0.7c-2.7,0-5,2.2-5,5c0,1.4,0.7,2.9,1.8,3.8c0.6,0.5,1,1.3,1,2.2v1.8c0,1.6-1.3,2.8-2.8,2.8h-9.6l-0.7-0.7"/>
	<rect x="345" y="464.1" class="st0" width="9" height="22.7"/>
	<rect x="345" y="412.3" class="st0" width="9" height="22.7"/>
	<rect x="176.6" y="464.1" class="st0" width="9" height="22.7"/>
	<rect x="176.6" y="412.3" class="st0" width="9" height="22.7"/>
	<path class="st0" d="M360.8,485.4c0,4.7-3.8,8.5-8.5,8.5h-174c-4.7,0-8.5-3.8-8.5-8.5v-73.1c0-7.8,6.3-14.2,14.2-14.2
		c5.2,0,9.8,2.9,12.3,7.1h138.2c2.5-4.2,7-7.1,12.3-7.1c7.8,0,14.2,6.3,14.2,14.2L360.8,485.4L360.8,485.4z"/>
	<path class="st0" d="M309.5,427.8c0,1.6-1.3,2.8-2.8,2.8h-70.9c-1.6,0-2.8-1.3-2.8-2.8v-4.3c0-1.6,1.3-2.8,2.8-2.8h70.9
		c1.6,0,2.8,1.3,2.8,2.8L309.5,427.8L309.5,427.8z"/>
	<path class="st2" d="M220.8,463.2c-0.5,0.1-1.1,0.1-1.8,0.1c-0.9,0-1.6-0.2-2.1-0.6c-0.4-0.4-0.6-0.9-0.6-1.6
		c0-0.7,0.2-1.2,0.6-1.6c0.5-0.5,1.3-0.8,2.3-0.8c0.3,0,0.6,0,0.8,0.1v-3h1L220.8,463.2L220.8,463.2z M219.9,459.7
		c-0.2-0.1-0.5-0.1-0.8-0.1c-1.2,0-1.9,0.6-1.9,1.6c0,1,0.7,1.5,1.7,1.5c0.4,0,0.7,0,0.9-0.1V459.7z"/>
	<path class="st2" d="M210.5,458.6c0-2,1.4-2.8,2.7-2.8c1.4,0,2.6,1.1,2.6,2.7c0,1.8-1.2,2.8-2.6,2.8
		C211.6,461.4,210.5,460.2,210.5,458.6z M214.8,458.6c0-1.2-0.7-2-1.6-2c-0.9,0-1.6,0.9-1.6,2.1c0,0.9,0.5,2,1.6,2
		C214.3,460.6,214.8,459.6,214.8,458.6z"/>
	<path class="st2" d="M209.2,461.2l-0.7-2.7c-0.2-0.6-0.3-1.1-0.4-1.7h0c-0.1,0.5-0.3,1.1-0.5,1.7l-0.9,2.7h-0.8l-0.8-2.7
		c-0.2-0.6-0.4-1.2-0.5-1.7h0c-0.1,0.5-0.2,1.1-0.4,1.7l-0.8,2.7h-1l1.7-5.3h0.9l0.8,2.5c0.2,0.6,0.3,1.1,0.5,1.8h0
		c0.1-0.6,0.3-1.2,0.5-1.8l0.9-2.5h0.9l1.6,5.3L209.2,461.2L209.2,461.2z"/>
	<path class="st2" d="M201.1,458.4c0-1.3-0.9-1.8-1.8-1.8c-0.7,0-1.1,0.1-1.5,0.3l-0.2-0.7c0.3-0.2,0.9-0.3,1.8-0.3
		c1.6,0,2.6,1.1,2.6,2.7c0,1.6-0.9,2.9-2.5,2.9c-1.7,0-2.2-1.5-2.2-2.5c0-0.2,0-0.4,0-0.5L201.1,458.4L201.1,458.4z M198.3,459.1
		c0,0.6,0.3,1.6,1.3,1.6c1,0,1.4-0.9,1.5-1.6H198.3z"/>
	<path class="st2" d="M196.3,459.6c0,0.6,0,1.2,0,1.7h-0.8l0-1h0c-0.2,0.7-0.8,1.2-1.5,1.2c-0.1,0-0.2,0-0.3,0v-0.9
		c0.1,0,0.2,0,0.3,0c0.7,0,1.2-0.5,1.3-1.2c0-0.1,0-0.3,0-0.5v-2.8h1V459.6z"/>
	<path class="st2" d="M288.3,437.5c-0.4-0.3-1.1-0.5-1.7-0.5c-1,0-1.6,0.5-1.6,1.3c0,0.7,0.4,1.1,1.4,1.5c1.2,0.4,2,1.1,2,2.1
		c0,1.2-1,2-2.4,2c-0.8,0-1.3-0.2-1.6-0.4l0.3-0.8c0.2,0.1,0.7,0.4,1.4,0.4c1,0,1.4-0.6,1.4-1.1c0-0.7-0.5-1-1.5-1.4
		c-1.3-0.5-1.9-1.1-1.9-2.2c0-1.1,0.8-2.1,2.6-2.1c0.7,0,1.5,0.2,1.9,0.5L288.3,437.5z"/>
	<path class="st2" d="M283,443.7c-0.6,0.1-1.3,0.2-2,0.2c-1.4,0-2.4-0.3-3-0.9c-0.7-0.6-1-1.5-1-2.7c0-1.2,0.4-2.2,1.1-2.9
		c0.7-0.7,1.8-1.1,3.3-1.1c0.7,0,1.3,0,1.7,0.1L283,443.7L283,443.7z M282.1,437.1c-0.2,0-0.6-0.1-1-0.1c-2,0-3.2,1.1-3.2,3.1
		c0,1.7,1,2.9,3,2.9c0.5,0,0.9,0,1.1-0.1V437.1L282.1,437.1z"/>
	<path class="st2" d="M268.4,436.6c0.4-0.2,1.1-0.4,2-0.4c2.1,0,3.7,1.3,3.7,3.8c0,2.3-1.6,3.9-3.9,3.9c-0.9,0-1.5-0.2-1.8-0.3
		l0.2-0.8c0.4,0.2,0.9,0.3,1.5,0.3c1.7,0,2.9-1.1,2.9-3.1c0-1.8-1-3-2.9-3c-0.6,0-1.2,0.1-1.6,0.3L268.4,436.6z"/>
	<path class="st2" d="M263.6,437.6c0-0.5,0-0.9-0.1-1.3h0.9l0.1,0.7h0c0.3-0.4,0.9-0.8,1.6-0.8c1.1,0,1.6,0.8,1.6,1.5
		c0,1.3-1.1,2-3.2,2v0.1c0,0.4,0.1,1.2,1.2,1.2c0.5,0,1-0.2,1.4-0.4l0.2,0.6c-0.4,0.3-1.1,0.5-1.7,0.5c-1.6,0-2-1.1-2-2.2
		L263.6,437.6L263.6,437.6z M264.6,439.1c1.1,0,2.3-0.2,2.3-1.2c0-0.6-0.4-0.9-0.9-0.9c-0.7,0-1.1,0.4-1.3,0.9
		c0,0.1-0.1,0.2-0.1,0.3C264.6,438.1,264.6,439.1,264.6,439.1z"/>
	<path class="st2" d="M262.2,440c0,0.6,0,1.2,0,1.7h-0.8l0-1h0c-0.2,0.7-0.8,1.2-1.5,1.2c-0.1,0-0.2,0-0.3,0v-0.9c0.1,0,0.2,0,0.3,0
		c0.7,0,1.2-0.5,1.3-1.2c0-0.1,0-0.3,0-0.5v-2.8h1C262.2,436.4,262.2,440,262.2,440z"/>
	<path class="st2" d="M254.2,444.2v-6.4c0-0.5,0-1,0-1.4h0.9l0,0.9h0c0.3-0.6,0.9-1,1.8-1c1.3,0,2.3,1.1,2.3,2.7
		c0,1.8-1.1,2.9-2.4,2.9c-0.8,0-1.4-0.4-1.6-0.8h0v3.2H254.2z M255.2,439.5c0,0.1,0,0.3,0,0.4c0.1,0.6,0.7,1.1,1.4,1.1
		c1,0,1.6-0.9,1.6-2.1c0-1.1-0.5-2-1.6-2c-0.6,0-1.2,0.4-1.4,1.2c0,0.1,0,0.3,0,0.4C255.2,438.6,255.2,439.5,255.2,439.5z"/>
	<path class="st0" d="M196.2,450.2c-3.1,0-5.7-2.5-5.7-5.7v-14.2c0-3.1,2.5-5.7,5.7-5.7h22.7c3.1,0,5.7,2.5,5.7,5.7v14.2
		c0,3.1-2.5,5.7-5.7,5.7H196.2z"/>
	<path class="st2" d="M155.5,240.2c-0.4,0.2-1.2,0.4-2.1,0.4c-2.3,0-4-1.4-4-4.1c0-2.5,1.7-4.2,4.2-4.2c1,0,1.6,0.2,1.9,0.4
		l-0.3,0.9c-0.4-0.2-0.9-0.3-1.6-0.3c-1.9,0-3.2,1.2-3.2,3.3c0,2,1.1,3.2,3.1,3.2c0.6,0,1.3-0.1,1.7-0.3L155.5,240.2z"/>
	<path class="st2" d="M156.8,236.5c0-0.7,0-1.3,0-1.8h0.9l0,1.2h0c0.3-0.8,0.9-1.3,1.6-1.3c0.1,0,0.2,0,0.3,0v1c-0.1,0-0.2,0-0.4,0
		c-0.7,0-1.3,0.6-1.4,1.3c0,0.1,0,0.3,0,0.5v3.1h-1.1L156.8,236.5L156.8,236.5z"/>
	<path class="st2" d="M161.2,237.8c0,1.4,0.9,2,2,2c0.8,0,1.2-0.1,1.6-0.3l0.2,0.8c-0.4,0.2-1,0.4-1.9,0.4c-1.8,0-2.9-1.2-2.9-2.9
		s1-3.1,2.7-3.1c1.9,0,2.4,1.7,2.4,2.7c0,0.2,0,0.4,0,0.5L161.2,237.8L161.2,237.8z M164.3,237c0-0.7-0.3-1.7-1.5-1.7
		c-1.1,0-1.5,1-1.6,1.7H164.3z"/>
	<path class="st2" d="M170.7,239.1c0,0.5,0,1,0.1,1.4h-0.9l-0.1-0.7h0c-0.3,0.5-0.9,0.9-1.8,0.9c-1.2,0-1.8-0.8-1.8-1.7
		c0-1.4,1.2-2.2,3.5-2.2v-0.1c0-0.5-0.1-1.3-1.3-1.3c-0.6,0-1.1,0.2-1.5,0.4l-0.2-0.7c0.5-0.3,1.2-0.5,1.9-0.5
		c1.8,0,2.2,1.2,2.2,2.4L170.7,239.1L170.7,239.1z M169.7,237.5c-1.2,0-2.5,0.2-2.5,1.3c0,0.7,0.5,1,1,1c0.8,0,1.3-0.5,1.4-1
		c0-0.1,0-0.2,0-0.3L169.7,237.5L169.7,237.5z"/>
	<path class="st2" d="M173.6,233.3v1.4h1.5v0.8h-1.5v3.1c0,0.7,0.2,1.1,0.8,1.1c0.3,0,0.5,0,0.6-0.1l0,0.8c-0.2,0.1-0.5,0.1-0.9,0.1
		c-0.5,0-0.9-0.2-1.1-0.4c-0.3-0.3-0.4-0.8-0.4-1.5v-3.2h-0.9v-0.8h0.9v-1.1L173.6,233.3z"/>
	<path class="st2" d="M177.5,233.1c0,0.4-0.3,0.6-0.7,0.6c-0.4,0-0.6-0.3-0.6-0.6s0.3-0.7,0.7-0.7
		C177.2,232.4,177.5,232.7,177.5,233.1z M176.3,240.5v-5.8h1.1v5.8H176.3z"/>
	<path class="st2" d="M179.5,234.7l1.1,3.2c0.2,0.5,0.3,1,0.5,1.5h0c0.1-0.5,0.3-1,0.5-1.5l1.1-3.2h1.1l-2.3,5.8h-1l-2.2-5.8H179.5z
		"/>
	<path class="st2" d="M185.4,237.8c0,1.4,0.9,2,2,2c0.8,0,1.2-0.1,1.6-0.3l0.2,0.8c-0.4,0.2-1,0.4-1.9,0.4c-1.8,0-2.9-1.2-2.9-2.9
		s1-3.1,2.7-3.1c1.9,0,2.4,1.7,2.4,2.7c0,0.2,0,0.4,0,0.5L185.4,237.8L185.4,237.8z M188.5,237c0-0.7-0.3-1.7-1.5-1.7
		c-1.1,0-1.5,1-1.6,1.7H188.5z"/>
	<path class="st2" d="M199,240.2c-0.4,0.2-1.2,0.4-2.1,0.4c-2.3,0-4-1.4-4-4.1c0-2.5,1.7-4.2,4.2-4.2c1,0,1.6,0.2,1.9,0.4l-0.3,0.9
		c-0.4-0.2-0.9-0.3-1.6-0.3c-1.9,0-3.2,1.2-3.2,3.3c0,2,1.1,3.2,3.1,3.2c0.6,0,1.3-0.1,1.7-0.3L199,240.2z"/>
	<path class="st2" d="M205.4,237.6c0,2.1-1.5,3.1-2.9,3.1c-1.6,0-2.8-1.2-2.8-3c0-1.9,1.3-3.1,2.9-3.1
		C204.3,234.6,205.4,235.8,205.4,237.6z M200.8,237.6c0,1.3,0.7,2.2,1.8,2.2c1,0,1.8-0.9,1.8-2.3c0-1-0.5-2.2-1.7-2.2
		C201.4,235.4,200.8,236.5,200.8,237.6z"/>
	<path class="st2" d="M206.8,236.3c0-0.6,0-1.1,0-1.6h0.9l0,0.9h0c0.3-0.6,0.9-1.1,1.8-1.1c0.8,0,1.4,0.5,1.6,1.2h0
		c0.2-0.3,0.4-0.6,0.7-0.8c0.3-0.3,0.7-0.4,1.3-0.4c0.8,0,1.9,0.5,1.9,2.5v3.4h-1v-3.3c0-1.1-0.4-1.8-1.3-1.8
		c-0.6,0-1.1,0.4-1.3,0.9c0,0.2-0.1,0.3-0.1,0.5v3.6h-1V237c0-0.9-0.4-1.6-1.2-1.6c-0.6,0-1.1,0.5-1.3,1.1c-0.1,0.1-0.1,0.3-0.1,0.5
		v3.5h-1C206.8,240.5,206.8,236.3,206.8,236.3z"/>
	<path class="st2" d="M216.8,236.3c0-0.6,0-1.1,0-1.6h0.9l0,0.9h0c0.3-0.6,0.9-1.1,1.8-1.1c0.8,0,1.4,0.5,1.6,1.2h0
		c0.2-0.3,0.4-0.6,0.7-0.8c0.3-0.3,0.7-0.4,1.3-0.4c0.8,0,1.9,0.5,1.9,2.5v3.4h-1v-3.3c0-1.1-0.4-1.8-1.3-1.8
		c-0.6,0-1.1,0.4-1.3,0.9c0,0.2-0.1,0.3-0.1,0.5v3.6h-1V237c0-0.9-0.4-1.6-1.2-1.6c-0.6,0-1.1,0.5-1.3,1.1c-0.1,0.1-0.1,0.3-0.1,0.5
		v3.5h-1C216.8,240.5,216.8,236.3,216.8,236.3z"/>
	<path class="st2" d="M232,237.6c0,2.1-1.5,3.1-2.9,3.1c-1.6,0-2.8-1.2-2.8-3c0-1.9,1.3-3.1,2.9-3.1
		C230.9,234.6,232,235.8,232,237.6z M227.4,237.6c0,1.3,0.7,2.2,1.8,2.2c1,0,1.8-0.9,1.8-2.3c0-1-0.5-2.2-1.7-2.2
		C228,235.4,227.4,236.5,227.4,237.6z"/>
	<path class="st2" d="M233.4,236.3c0-0.6,0-1.1,0-1.6h0.9l0.1,1h0c0.3-0.5,1-1.1,1.9-1.1c0.8,0,2.1,0.5,2.1,2.5v3.5h-1.1v-3.3
		c0-0.9-0.3-1.7-1.3-1.7c-0.7,0-1.2,0.5-1.4,1.1c0,0.1-0.1,0.3-0.1,0.5v3.5h-1.1V236.3z"/>
	<path class="st2" d="M239.9,239.4c0.3,0.2,0.9,0.4,1.4,0.4c0.8,0,1.1-0.4,1.1-0.9c0-0.5-0.3-0.8-1.1-1.1c-1.1-0.4-1.5-0.9-1.5-1.6
		c0-0.9,0.8-1.7,2-1.7c0.6,0,1.1,0.2,1.4,0.4l-0.3,0.8c-0.2-0.1-0.6-0.3-1.2-0.3c-0.6,0-1,0.4-1,0.8c0,0.5,0.3,0.7,1.1,1
		c1,0.4,1.5,0.9,1.5,1.7c0,1-0.8,1.8-2.2,1.8c-0.6,0-1.2-0.2-1.6-0.4L239.9,239.4z"/>
	<path class="st2" d="M247,240.5v-0.6l0.8-0.8c2-1.9,2.9-2.9,2.9-4.1c0-0.8-0.4-1.5-1.5-1.5c-0.7,0-1.3,0.4-1.7,0.7l-0.3-0.7
		c0.5-0.4,1.3-0.8,2.2-0.8c1.7,0,2.4,1.2,2.4,2.3c0,1.4-1,2.6-2.7,4.2l-0.6,0.6v0h3.5v0.9L247,240.5L247,240.5z"/>
	<path class="st2" d="M253.2,239.9c0-0.4,0.3-0.8,0.7-0.8s0.7,0.3,0.7,0.8c0,0.4-0.3,0.8-0.7,0.8
		C253.5,240.6,253.2,240.3,253.2,239.9z"/>
	<path class="st2" d="M260.3,233.6h-3l-0.3,2c0.2,0,0.3,0,0.6,0c0.6,0,1.2,0.1,1.7,0.4c0.6,0.3,1.1,1,1.1,2c0,1.5-1.2,2.7-2.9,2.7
		c-0.9,0-1.6-0.2-1.9-0.5l0.3-0.8c0.3,0.2,1,0.4,1.7,0.4c1,0,1.8-0.6,1.8-1.7c0-1-0.7-1.7-2.2-1.7c-0.5,0-0.8,0-1.1,0.1l0.5-3.7h3.7
		C260.3,232.7,260.3,233.6,260.3,233.6z"/>
	<path class="st2" d="M261.4,242c0.3-0.7,0.6-2,0.7-2.9l1.2-0.1c-0.3,1-0.8,2.4-1.2,2.9L261.4,242z"/>
	<path class="st2" d="M268.5,238l-0.8,2.5h-1.1l2.8-8.1h1.2l2.8,8.1h-1.1l-0.9-2.5H268.5z M271.1,237.1l-0.8-2.3
		c-0.2-0.5-0.3-1-0.4-1.5h0c-0.1,0.5-0.2,1-0.4,1.5l-0.8,2.3L271.1,237.1L271.1,237.1z"/>
	<path class="st2" d="M275.6,233.3v1.4h1.5v0.8h-1.5v3.1c0,0.7,0.2,1.1,0.8,1.1c0.3,0,0.5,0,0.6-0.1l0,0.8c-0.2,0.1-0.5,0.1-0.9,0.1
		c-0.5,0-0.9-0.2-1.1-0.4c-0.3-0.3-0.4-0.8-0.4-1.5v-3.2h-0.9v-0.8h0.9v-1.1L275.6,233.3z"/>
	<path class="st2" d="M279.6,233.3v1.4h1.5v0.8h-1.5v3.1c0,0.7,0.2,1.1,0.8,1.1c0.3,0,0.5,0,0.6-0.1l0,0.8c-0.2,0.1-0.5,0.1-0.9,0.1
		c-0.5,0-0.9-0.2-1.1-0.4c-0.3-0.3-0.4-0.8-0.4-1.5v-3.2h-0.9v-0.8h0.9v-1.1L279.6,233.3z"/>
	<path class="st2" d="M282.3,236.5c0-0.7,0-1.3,0-1.8h0.9l0,1.2h0c0.3-0.8,0.9-1.3,1.6-1.3c0.1,0,0.2,0,0.3,0v1c-0.1,0-0.2,0-0.4,0
		c-0.7,0-1.3,0.6-1.4,1.3c0,0.1,0,0.3,0,0.5v3.1h-1.1L282.3,236.5L282.3,236.5z"/>
	<path class="st2" d="M287.5,233.1c0,0.4-0.3,0.6-0.7,0.6c-0.4,0-0.6-0.3-0.6-0.6s0.3-0.7,0.7-0.7
		C287.2,232.4,287.5,232.7,287.5,233.1z M286.3,240.5v-5.8h1.1v5.8H286.3z"/>
	<path class="st2" d="M289.1,232h1v3.6h0c0.4-0.6,1-1.1,2-1.1c1.5,0,2.5,1.2,2.5,2.9c0,2.1-1.3,3.1-2.6,3.1c-0.8,0-1.5-0.3-2-1.1h0
		l-0.1,0.9H289c0-0.4,0-1,0-1.5V232z M290.1,238.2c0,0.1,0,0.3,0,0.4c0.2,0.7,0.8,1.2,1.6,1.2c1.1,0,1.8-0.9,1.8-2.2
		c0-1.2-0.6-2.2-1.7-2.2c-0.7,0-1.4,0.5-1.6,1.3c0,0.1-0.1,0.3-0.1,0.4V238.2z"/>
	<path class="st2" d="M300.8,238.9c0,0.6,0,1.1,0,1.6h-0.9l-0.1-0.9h0c-0.3,0.5-0.9,1.1-1.9,1.1c-0.9,0-2-0.5-2-2.5v-3.4h1.1v3.2
		c0,1.1,0.3,1.9,1.3,1.9c0.7,0,1.2-0.5,1.4-1c0.1-0.1,0.1-0.3,0.1-0.5v-3.5h1.1V238.9L300.8,238.9z"/>
	<path class="st2" d="M303.8,233.3v1.4h1.5v0.8h-1.5v3.1c0,0.7,0.2,1.1,0.8,1.1c0.3,0,0.5,0,0.6-0.1l0,0.8c-0.2,0.1-0.5,0.1-0.9,0.1
		c-0.5,0-0.9-0.2-1.1-0.4c-0.3-0.3-0.4-0.8-0.4-1.5v-3.2h-0.9v-0.8h0.9v-1.1L303.8,233.3z"/>
	<path class="st2" d="M307.7,233.1c0,0.4-0.3,0.6-0.7,0.6c-0.4,0-0.6-0.3-0.6-0.6s0.3-0.7,0.7-0.7
		C307.4,232.4,307.7,232.7,307.7,233.1z M306.5,240.5v-5.8h1.1v5.8H306.5z"/>
	<path class="st2" d="M314.6,237.6c0,2.1-1.5,3.1-2.9,3.1c-1.6,0-2.8-1.2-2.8-3c0-1.9,1.3-3.1,2.9-3.1
		C313.4,234.6,314.6,235.8,314.6,237.6z M310,237.6c0,1.3,0.7,2.2,1.8,2.2c1,0,1.8-0.9,1.8-2.3c0-1-0.5-2.2-1.7-2.2
		C310.5,235.4,310,236.5,310,237.6z"/>
	<path class="st2" d="M315.9,236.3c0-0.6,0-1.1,0-1.6h0.9l0.1,1h0c0.3-0.5,1-1.1,1.9-1.1c0.8,0,2.1,0.5,2.1,2.5v3.5h-1.1v-3.3
		c0-0.9-0.3-1.7-1.3-1.7c-0.7,0-1.2,0.5-1.4,1.1c0,0.1-0.1,0.3-0.1,0.5v3.5h-1.1V236.3z"/>
	<path class="st2" d="M321.9,242c0.3-0.7,0.6-2,0.7-2.9l1.2-0.1c-0.3,1-0.8,2.4-1.2,2.9L321.9,242z"/>
	<path class="st2" d="M327.5,239.2c0.5,0.3,1.1,0.5,1.9,0.5c1.1,0,1.7-0.6,1.7-1.4c0-0.7-0.4-1.2-1.5-1.6c-1.3-0.5-2.1-1.2-2.1-2.3
		c0-1.3,1-2.2,2.6-2.2c0.8,0,1.4,0.2,1.8,0.4l-0.3,0.9c-0.3-0.2-0.8-0.4-1.5-0.4c-1.1,0-1.5,0.7-1.5,1.2c0,0.8,0.5,1.1,1.6,1.6
		c1.4,0.5,2.1,1.2,2.1,2.4c0,1.2-0.9,2.3-2.8,2.3c-0.8,0-1.6-0.2-2.1-0.5L327.5,239.2z"/>
	<path class="st2" d="M333.5,232h1.1v3.6h0c0.2-0.3,0.4-0.6,0.8-0.8c0.3-0.2,0.7-0.3,1.1-0.3c0.8,0,2,0.5,2,2.5v3.5h-1.1v-3.3
		c0-0.9-0.3-1.7-1.3-1.7c-0.7,0-1.2,0.5-1.4,1c-0.1,0.2-0.1,0.3-0.1,0.5v3.5h-1.1V232z"/>
	<path class="st2" d="M344.2,239.1c0,0.5,0,1,0.1,1.4h-0.9l-0.1-0.7h0c-0.3,0.5-0.9,0.9-1.8,0.9c-1.2,0-1.8-0.8-1.8-1.7
		c0-1.4,1.2-2.2,3.5-2.2v-0.1c0-0.5-0.1-1.3-1.3-1.3c-0.6,0-1.1,0.2-1.5,0.4l-0.2-0.7c0.5-0.3,1.2-0.5,1.9-0.5
		c1.8,0,2.2,1.2,2.2,2.4L344.2,239.1L344.2,239.1z M343.2,237.5c-1.2,0-2.5,0.2-2.5,1.3c0,0.7,0.5,1,1,1c0.8,0,1.3-0.5,1.4-1
		c0-0.1,0-0.2,0-0.3L343.2,237.5L343.2,237.5z"/>
	<path class="st2" d="M345.9,236.5c0-0.7,0-1.3,0-1.8h0.9l0,1.2h0c0.3-0.8,0.9-1.3,1.6-1.3c0.1,0,0.2,0,0.3,0v1c-0.1,0-0.2,0-0.4,0
		c-0.7,0-1.3,0.6-1.4,1.3c0,0.1,0,0.3,0,0.5v3.1h-1.1L345.9,236.5L345.9,236.5z"/>
	<path class="st2" d="M350.3,237.8c0,1.4,0.9,2,2,2c0.8,0,1.2-0.1,1.6-0.3l0.2,0.8c-0.4,0.2-1,0.4-1.9,0.4c-1.8,0-2.9-1.2-2.9-2.9
		s1-3.1,2.7-3.1c1.9,0,2.4,1.7,2.4,2.7c0,0.2,0,0.4,0,0.5L350.3,237.8L350.3,237.8z M353.4,237c0-0.7-0.3-1.7-1.5-1.7
		c-1.1,0-1.5,1-1.6,1.7H353.4z"/>
	<path class="st2" d="M358.5,236.9v0.8h-3v-0.8H358.5z"/>
	<path class="st2" d="M363.9,239.1c0,0.5,0,1,0.1,1.4H363l-0.1-0.7h0c-0.3,0.5-0.9,0.9-1.8,0.9c-1.2,0-1.8-0.8-1.8-1.7
		c0-1.4,1.2-2.2,3.5-2.2v-0.1c0-0.5-0.1-1.3-1.3-1.3c-0.6,0-1.1,0.2-1.5,0.4l-0.2-0.7c0.5-0.3,1.2-0.5,1.9-0.5
		c1.8,0,2.2,1.2,2.2,2.4L363.9,239.1L363.9,239.1z M362.8,237.5c-1.2,0-2.5,0.2-2.5,1.3c0,0.7,0.5,1,1,1c0.8,0,1.3-0.5,1.4-1
		c0-0.1,0-0.2,0-0.3L362.8,237.5L362.8,237.5z"/>
	<path class="st2" d="M365.6,232h1.1v8.5h-1.1V232z"/>
	<path class="st2" d="M369.6,233.1c0,0.4-0.3,0.6-0.7,0.6c-0.4,0-0.6-0.3-0.6-0.6s0.3-0.7,0.7-0.7
		C369.3,232.4,369.6,232.7,369.6,233.1z M368.4,240.5v-5.8h1.1v5.8H368.4z"/>
	<path class="st2" d="M372.2,237.4L372.2,237.4c0.2-0.2,0.4-0.5,0.5-0.7l1.7-2h1.3l-2.2,2.4l2.6,3.4h-1.3l-2-2.8l-0.5,0.6v2.2h-1
		V232h1V237.4L372.2,237.4z"/>
	<path class="st2" d="M377.4,237.8c0,1.4,0.9,2,2,2c0.8,0,1.2-0.1,1.6-0.3l0.2,0.8c-0.4,0.2-1,0.4-1.9,0.4c-1.8,0-2.9-1.2-2.9-2.9
		s1-3.1,2.7-3.1c1.9,0,2.4,1.7,2.4,2.7c0,0.2,0,0.4,0,0.5L377.4,237.8L377.4,237.8z M380.5,237c0-0.7-0.3-1.7-1.5-1.7
		c-1.1,0-1.5,1-1.6,1.7H380.5z"/>
	<path class="st2" d="M149.9,246.9c0.6-0.1,1.4-0.2,2.2-0.2c1.5,0,2.6,0.4,3.3,1c0.7,0.7,1.2,1.6,1.2,2.9c0,1.3-0.4,2.4-1.2,3.1
		c-0.8,0.8-2,1.2-3.6,1.2c-0.8,0-1.4,0-1.9-0.1C149.9,254.9,149.9,246.9,149.9,246.9z M151,254.1c0.3,0,0.6,0,1.1,0
		c2.2,0,3.4-1.2,3.4-3.4c0-1.9-1.1-3.1-3.3-3.1c-0.5,0-0.9,0-1.2,0.1C151,247.7,151,254.1,151,254.1z"/>
	<path class="st2" d="M158.5,252.2c0,1.4,0.9,2,2,2c0.8,0,1.2-0.1,1.6-0.3l0.2,0.8c-0.4,0.2-1,0.4-1.9,0.4c-1.8,0-2.9-1.2-2.9-2.9
		s1-3.1,2.7-3.1c1.9,0,2.4,1.7,2.4,2.7c0,0.2,0,0.4,0,0.5L158.5,252.2L158.5,252.2z M161.6,251.4c0-0.7-0.3-1.7-1.5-1.7
		c-1.1,0-1.5,1-1.6,1.7H161.6z"/>
	<path class="st2" d="M163.8,253.8c0.3,0.2,0.9,0.4,1.4,0.4c0.8,0,1.1-0.4,1.1-0.9c0-0.5-0.3-0.8-1.1-1.1c-1.1-0.4-1.5-0.9-1.5-1.6
		c0-0.9,0.8-1.7,2-1.7c0.6,0,1.1,0.2,1.4,0.4l-0.3,0.8c-0.2-0.1-0.6-0.3-1.2-0.3c-0.6,0-1,0.4-1,0.8c0,0.5,0.3,0.7,1.1,1
		c1,0.4,1.5,0.9,1.5,1.7c0,1-0.8,1.8-2.2,1.8c-0.6,0-1.2-0.2-1.6-0.4L163.8,253.8z"/>
	<path class="st2" d="M169.9,247.5c0,0.4-0.3,0.6-0.7,0.6c-0.4,0-0.6-0.3-0.6-0.6c0-0.4,0.3-0.7,0.7-0.7
		C169.6,246.8,169.9,247.1,169.9,247.5z M168.7,254.9v-5.8h1.1v5.8H168.7z"/>
	<path class="st2" d="M176.5,254c0,1.3-0.3,2.1-0.8,2.7c-0.6,0.5-1.4,0.7-2.1,0.7c-0.7,0-1.5-0.2-1.9-0.5l0.3-0.8
		c0.4,0.3,1,0.5,1.7,0.5c1.1,0,1.9-0.6,1.9-2v-0.6h0c-0.3,0.5-0.9,1-1.8,1c-1.4,0-2.5-1.2-2.5-2.8c0-2,1.3-3.1,2.6-3.1
		c1,0,1.5,0.5,1.8,1h0l0-0.9h0.9c0,0.4,0,0.9,0,1.6V254z M175.4,251.4c0-0.2,0-0.3-0.1-0.5c-0.2-0.6-0.7-1.1-1.5-1.1
		c-1,0-1.7,0.9-1.7,2.2c0,1.1,0.6,2.1,1.7,2.1c0.7,0,1.2-0.4,1.5-1.1c0.1-0.2,0.1-0.4,0.1-0.6L175.4,251.4L175.4,251.4z"/>
	<path class="st2" d="M178.1,250.7c0-0.6,0-1.1,0-1.6h0.9l0.1,1h0c0.3-0.5,1-1.1,1.9-1.1c0.8,0,2.1,0.5,2.1,2.5v3.5H182v-3.3
		c0-0.9-0.3-1.7-1.3-1.7c-0.7,0-1.2,0.5-1.4,1.1c0,0.1-0.1,0.3-0.1,0.5v3.5h-1.1V250.7z"/>
	<path class="st2" d="M185.4,252.2c0,1.4,0.9,2,2,2c0.8,0,1.2-0.1,1.6-0.3l0.2,0.8c-0.4,0.2-1,0.4-1.9,0.4c-1.8,0-2.9-1.2-2.9-2.9
		s1-3.1,2.7-3.1c1.9,0,2.4,1.7,2.4,2.7c0,0.2,0,0.4,0,0.5L185.4,252.2L185.4,252.2z M188.5,251.4c0-0.7-0.3-1.7-1.5-1.7
		c-1.1,0-1.5,1-1.6,1.7H188.5z"/>
	<path class="st2" d="M195.8,246.4v7c0,0.5,0,1.1,0,1.5h-0.9l0-1h0c-0.3,0.6-1,1.1-2,1.1c-1.4,0-2.5-1.2-2.5-2.9
		c0-1.9,1.2-3.1,2.6-3.1c0.9,0,1.5,0.4,1.8,0.9h0v-3.5H195.8z M194.8,251.5c0-0.1,0-0.3,0-0.4c-0.2-0.7-0.7-1.2-1.5-1.2
		c-1.1,0-1.7,1-1.7,2.2c0,1.2,0.6,2.1,1.7,2.1c0.7,0,1.4-0.5,1.5-1.3c0-0.1,0-0.3,0-0.5C194.8,252.5,194.8,251.5,194.8,251.5z"/>
	<path class="st2" d="M200.1,246.4h1v3.6h0c0.4-0.6,1-1.1,2-1.1c1.5,0,2.5,1.2,2.5,3c0,2.1-1.3,3.1-2.6,3.1c-0.8,0-1.5-0.3-2-1.1h0
		l-0.1,0.9h-0.9c0-0.4,0-1,0-1.5V246.4z M201.1,252.6c0,0.1,0,0.3,0,0.4c0.2,0.7,0.8,1.2,1.6,1.2c1.1,0,1.8-0.9,1.8-2.2
		c0-1.2-0.6-2.2-1.7-2.2c-0.7,0-1.4,0.5-1.6,1.3c0,0.1-0.1,0.3-0.1,0.4V252.6z"/>
	<path class="st2" d="M207.2,249.1l1.3,3.4c0.1,0.4,0.3,0.8,0.4,1.2h0c0.1-0.3,0.2-0.8,0.4-1.2l1.2-3.4h1.1l-1.6,4.1
		c-0.8,2-1.3,3-2,3.6c-0.5,0.4-1,0.6-1.3,0.7l-0.3-0.9c0.3-0.1,0.6-0.3,0.9-0.5c0.3-0.2,0.6-0.6,0.9-1.2c0-0.1,0.1-0.2,0.1-0.3
		c0-0.1,0-0.1-0.1-0.3l-2.1-5.3L207.2,249.1L207.2,249.1z"/>
	<path class="st2" d="M216.4,252.4l-0.8,2.5h-1.1l2.8-8.1h1.2l2.8,8.1h-1.1l-0.9-2.5H216.4z M219.1,251.5l-0.8-2.3
		c-0.2-0.5-0.3-1-0.4-1.5h0c-0.1,0.5-0.2,1-0.4,1.5l-0.8,2.3H219.1z"/>
	<path class="st2" d="M227.2,246.4v7c0,0.5,0,1.1,0,1.5h-0.9l0-1h0c-0.3,0.6-1,1.1-2,1.1c-1.4,0-2.5-1.2-2.5-2.9
		c0-1.9,1.2-3.1,2.6-3.1c0.9,0,1.5,0.4,1.8,0.9h0v-3.5H227.2z M226.2,251.5c0-0.1,0-0.3,0-0.4c-0.2-0.7-0.7-1.2-1.5-1.2
		c-1.1,0-1.7,1-1.7,2.2c0,1.2,0.6,2.1,1.7,2.1c0.7,0,1.4-0.5,1.5-1.3c0-0.1,0-0.3,0-0.5C226.2,252.5,226.2,251.5,226.2,251.5z"/>
	<path class="st2" d="M233.1,253.5c0,0.5,0,1,0.1,1.4h-0.9l-0.1-0.7h0c-0.3,0.5-0.9,0.9-1.8,0.9c-1.2,0-1.8-0.8-1.8-1.7
		c0-1.4,1.2-2.2,3.5-2.2v-0.1c0-0.5-0.1-1.3-1.3-1.3c-0.6,0-1.1,0.2-1.5,0.4l-0.2-0.7c0.5-0.3,1.2-0.5,1.9-0.5
		c1.8,0,2.2,1.2,2.2,2.4L233.1,253.5L233.1,253.5z M232.1,251.9c-1.2,0-2.5,0.2-2.5,1.3c0,0.7,0.5,1,1,1c0.8,0,1.3-0.5,1.4-1
		c0-0.1,0-0.2,0-0.3V251.9z"/>
	<path class="st2" d="M234.9,254.9v-5h-0.8v-0.8h0.8v-0.3c0-0.8,0.2-1.6,0.7-2c0.4-0.4,0.9-0.5,1.4-0.5c0.4,0,0.7,0.1,0.9,0.2
		l-0.1,0.8c-0.2-0.1-0.4-0.1-0.7-0.1c-0.9,0-1.1,0.8-1.1,1.7v0.3h1.4v0.8H236v5L234.9,254.9L234.9,254.9z"/>
	<path class="st2" d="M238.3,250.9c0-0.7,0-1.3,0-1.8h0.9l0,1.2h0c0.3-0.8,0.9-1.3,1.6-1.3c0.1,0,0.2,0,0.3,0v1c-0.1,0-0.2,0-0.4,0
		c-0.7,0-1.3,0.6-1.4,1.3c0,0.1,0,0.3,0,0.5v3.1h-1.1L238.3,250.9L238.3,250.9z"/>
	<path class="st2" d="M247.1,253.3c0,0.6,0,1.1,0,1.6h-0.9l-0.1-0.9h0c-0.3,0.5-0.9,1.1-1.9,1.1c-0.9,0-2-0.5-2-2.5v-3.4h1.1v3.2
		c0,1.1,0.3,1.9,1.3,1.9c0.7,0,1.2-0.5,1.4-1c0.1-0.1,0.1-0.3,0.1-0.5v-3.6h1.1V253.3z"/>
	<path class="st2" d="M250,247.5c0,0.4-0.3,0.6-0.7,0.6c-0.4,0-0.6-0.3-0.6-0.6c0-0.4,0.3-0.7,0.7-0.7
		C249.8,246.8,250,247.1,250,247.5z M248.8,254.9v-5.8h1.1v5.8H248.8z"/>
	<path class="st2" d="M252.9,247.7v1.4h1.5v0.8h-1.5v3.1c0,0.7,0.2,1.1,0.8,1.1c0.3,0,0.5,0,0.6-0.1l0,0.8c-0.2,0.1-0.5,0.1-0.9,0.1
		c-0.5,0-0.9-0.2-1.1-0.4c-0.3-0.3-0.4-0.8-0.4-1.5v-3.2H251v-0.8h0.9V248L252.9,247.7z"/>
	<path class="st2" d="M259.2,246.8v8.1h-1.1v-8.1C258.2,246.8,259.2,246.8,259.2,246.8z"/>
	<path class="st2" d="M261.1,250.7c0-0.6,0-1.1,0-1.6h0.9l0.1,1h0c0.3-0.5,1-1.1,1.9-1.1c0.8,0,2.1,0.5,2.1,2.5v3.5H265v-3.3
		c0-0.9-0.3-1.7-1.3-1.7c-0.7,0-1.2,0.5-1.4,1.1c0,0.1-0.1,0.3-0.1,0.5v3.5h-1.1V250.7z"/>
	<path class="st2" d="M272.8,246.4v7c0,0.5,0,1.1,0,1.5h-0.9l0-1h0c-0.3,0.6-1,1.1-2,1.1c-1.4,0-2.5-1.2-2.5-2.9
		c0-1.9,1.2-3.1,2.6-3.1c0.9,0,1.5,0.4,1.8,0.9h0v-3.5H272.8z M271.8,251.5c0-0.1,0-0.3,0-0.4c-0.2-0.7-0.7-1.2-1.5-1.2
		c-1.1,0-1.7,1-1.7,2.2c0,1.2,0.6,2.1,1.7,2.1c0.7,0,1.4-0.5,1.5-1.3c0-0.1,0-0.3,0-0.5V251.5z"/>
	<path class="st2" d="M279.4,253.3c0,0.6,0,1.1,0,1.6h-0.9l-0.1-0.9h0c-0.3,0.5-0.9,1.1-1.9,1.1c-0.9,0-2-0.5-2-2.5v-3.4h1.1v3.2
		c0,1.1,0.3,1.9,1.3,1.9c0.7,0,1.2-0.5,1.4-1c0.1-0.1,0.1-0.3,0.1-0.5v-3.6h1.1V253.3L279.4,253.3z"/>
	<path class="st2" d="M281,253.8c0.3,0.2,0.9,0.4,1.4,0.4c0.8,0,1.1-0.4,1.1-0.9c0-0.5-0.3-0.8-1.1-1.1c-1.1-0.4-1.5-0.9-1.5-1.6
		c0-0.9,0.8-1.7,2-1.7c0.6,0,1.1,0.2,1.4,0.4l-0.3,0.8c-0.2-0.1-0.6-0.3-1.2-0.3c-0.6,0-1,0.4-1,0.8c0,0.5,0.3,0.7,1.1,1
		c1,0.4,1.5,0.9,1.5,1.7c0,1-0.8,1.8-2.2,1.8c-0.6,0-1.2-0.2-1.6-0.4L281,253.8z"/>
	<path class="st2" d="M287.2,247.7v1.4h1.5v0.8h-1.5v3.1c0,0.7,0.2,1.1,0.8,1.1c0.3,0,0.5,0,0.6-0.1l0,0.8c-0.2,0.1-0.5,0.1-0.9,0.1
		c-0.5,0-0.9-0.2-1.1-0.4c-0.3-0.3-0.4-0.8-0.4-1.5v-3.2h-0.9v-0.8h0.9V248L287.2,247.7z"/>
	<path class="st2" d="M289.9,250.9c0-0.7,0-1.3,0-1.8h0.9l0,1.2h0c0.3-0.8,0.9-1.3,1.6-1.3c0.1,0,0.2,0,0.3,0v1c-0.1,0-0.2,0-0.4,0
		c-0.7,0-1.3,0.6-1.4,1.3c0,0.1,0,0.3,0,0.5v3.1h-1.1L289.9,250.9L289.9,250.9z"/>
	<path class="st2" d="M295.1,247.5c0,0.4-0.3,0.6-0.7,0.6c-0.4,0-0.6-0.3-0.6-0.6c0-0.4,0.3-0.7,0.7-0.7
		C294.8,246.8,295.1,247.1,295.1,247.5z M293.9,254.9v-5.8h1.1v5.8H293.9z"/>
	<path class="st2" d="M297.3,252.2c0,1.4,0.9,2,2,2c0.8,0,1.2-0.1,1.6-0.3l0.2,0.8c-0.4,0.2-1,0.4-1.9,0.4c-1.8,0-2.9-1.2-2.9-2.9
		s1-3.1,2.7-3.1c1.9,0,2.4,1.7,2.4,2.7c0,0.2,0,0.4,0,0.5L297.3,252.2L297.3,252.2z M300.4,251.4c0-0.7-0.3-1.7-1.5-1.7
		c-1.1,0-1.5,1-1.6,1.7H300.4z"/>
	<path class="st2" d="M302.6,253.8c0.3,0.2,0.9,0.4,1.4,0.4c0.8,0,1.1-0.4,1.1-0.9c0-0.5-0.3-0.8-1.1-1.1c-1.1-0.4-1.5-0.9-1.5-1.6
		c0-0.9,0.8-1.7,2-1.7c0.6,0,1.1,0.2,1.4,0.4l-0.3,0.8c-0.2-0.1-0.6-0.3-1.2-0.3c-0.6,0-1,0.4-1,0.8c0,0.5,0.3,0.7,1.1,1
		c1,0.4,1.5,0.9,1.5,1.7c0,1-0.8,1.8-2.2,1.8c-0.6,0-1.2-0.2-1.6-0.4L302.6,253.8z"/>
	<path class="st2" d="M306.6,256.4c0.3-0.7,0.6-2,0.7-2.9l1.2-0.1c-0.3,1-0.8,2.4-1.2,2.9L306.6,256.4z"/>
	<path class="st2" d="M312.4,246.8h1.1v7.2h3.5v0.9h-4.5V246.8z"/>
	<path class="st2" d="M318,246.8h1.1v7.2h3.5v0.9H318V246.8z"/>
	<path class="st2" d="M328.9,254.6c-0.4,0.2-1.2,0.4-2.1,0.4c-2.3,0-4-1.4-4-4.1c0-2.5,1.7-4.2,4.2-4.2c1,0,1.6,0.2,1.9,0.4
		l-0.3,0.9c-0.4-0.2-0.9-0.3-1.6-0.3c-1.9,0-3.2,1.2-3.2,3.3c0,2,1.1,3.2,3.1,3.2c0.6,0,1.3-0.1,1.7-0.3L328.9,254.6z"/>
	<path class="st2" d="M329.9,254.3c0-0.4,0.3-0.8,0.7-0.8c0.4,0,0.7,0.3,0.7,0.8c0,0.4-0.3,0.8-0.7,0.8
		C330.2,255,329.9,254.7,329.9,254.3z"/>
	<path class="st2" d="M151.2,266.8l-0.8,2.5h-1.1l2.8-8.1h1.2l2.8,8.1h-1.1l-0.9-2.5L151.2,266.8L151.2,266.8z M153.9,265.9
		l-0.8-2.3c-0.2-0.5-0.3-1-0.4-1.5h0c-0.1,0.5-0.2,1-0.4,1.5l-0.8,2.3L153.9,265.9L153.9,265.9z"/>
	<path class="st2" d="M157.2,260.8h1.1v8.5h-1.1V260.8z"/>
	<path class="st2" d="M160,260.8h1.1v8.5H160V260.8z"/>
	<path class="st2" d="M165.4,265.3c0-0.7,0-1.3,0-1.8h0.9l0,1.2h0c0.3-0.8,0.9-1.3,1.6-1.3c0.1,0,0.2,0,0.3,0v1c-0.1,0-0.2,0-0.4,0
		c-0.7,0-1.3,0.6-1.4,1.3c0,0.1,0,0.3,0,0.5v3.1h-1.1L165.4,265.3L165.4,265.3z"/>
	<path class="st2" d="M169.8,266.6c0,1.4,0.9,2,2,2c0.8,0,1.2-0.1,1.6-0.3l0.2,0.8c-0.4,0.2-1,0.4-1.9,0.4c-1.8,0-2.9-1.2-2.9-2.9
		s1-3.1,2.7-3.1c1.9,0,2.4,1.7,2.4,2.7c0,0.2,0,0.4,0,0.5L169.8,266.6L169.8,266.6z M172.9,265.8c0-0.7-0.3-1.7-1.5-1.7
		c-1.1,0-1.5,1-1.6,1.7H172.9z"/>
	<path class="st2" d="M175.2,265.4c0-0.7,0-1.3,0-1.9h0.9l0.1,1h0c0.4-0.7,1.1-1.1,2.1-1.1c1.4,0,2.5,1.2,2.5,2.9
		c0,2.1-1.3,3.1-2.6,3.1c-0.8,0-1.4-0.3-1.8-0.9h0v3.2h-1L175.2,265.4L175.2,265.4z M176.3,266.9c0,0.2,0,0.3,0,0.4
		c0.2,0.7,0.8,1.2,1.6,1.2c1.1,0,1.8-0.9,1.8-2.2c0-1.2-0.6-2.1-1.7-2.1c-0.7,0-1.4,0.5-1.6,1.3c0,0.1-0.1,0.3-0.1,0.4V266.9z"/>
	<path class="st2" d="M182,265.3c0-0.7,0-1.3,0-1.8h0.9l0,1.2h0c0.3-0.8,0.9-1.3,1.6-1.3c0.1,0,0.2,0,0.3,0v1c-0.1,0-0.2,0-0.4,0
		c-0.7,0-1.3,0.6-1.4,1.3c0,0.1,0,0.3,0,0.5v3.1H182L182,265.3L182,265.3z"/>
	<path class="st2" d="M191.1,266.4c0,2.1-1.5,3.1-2.9,3.1c-1.6,0-2.8-1.2-2.8-3c0-1.9,1.3-3.1,2.9-3.1
		C190,263.4,191.1,264.6,191.1,266.4z M186.5,266.4c0,1.3,0.7,2.2,1.8,2.2c1,0,1.8-0.9,1.8-2.3c0-1-0.5-2.2-1.7-2.2
		C187,264.2,186.5,265.3,186.5,266.4z"/>
	<path class="st2" d="M197.4,260.8v7c0,0.5,0,1.1,0,1.5h-0.9l0-1h0c-0.3,0.6-1,1.1-2,1.1c-1.4,0-2.5-1.2-2.5-2.9
		c0-1.9,1.2-3.1,2.6-3.1c0.9,0,1.5,0.4,1.8,0.9h0v-3.5H197.4z M196.4,265.9c0-0.1,0-0.3,0-0.4c-0.2-0.7-0.7-1.2-1.5-1.2
		c-1.1,0-1.7,1-1.7,2.2c0,1.2,0.6,2.1,1.7,2.1c0.7,0,1.4-0.5,1.5-1.3c0-0.1,0-0.3,0-0.5C196.4,266.9,196.4,265.9,196.4,265.9z"/>
	<path class="st2" d="M204.1,267.7c0,0.6,0,1.1,0,1.6h-0.9l-0.1-0.9h0c-0.3,0.5-0.9,1.1-1.9,1.1c-0.9,0-2-0.5-2-2.5v-3.4h1.1v3.2
		c0,1.1,0.3,1.9,1.3,1.9c0.7,0,1.2-0.5,1.4-1c0.1-0.1,0.1-0.3,0.1-0.5v-3.5h1.1V267.7z"/>
	<path class="st2" d="M209.9,269.1c-0.3,0.1-0.9,0.3-1.7,0.3c-1.8,0-2.9-1.2-2.9-3c0-1.8,1.2-3.1,3.1-3.1c0.6,0,1.2,0.2,1.5,0.3
		l-0.2,0.8c-0.3-0.1-0.6-0.3-1.2-0.3c-1.3,0-2.1,1-2.1,2.2c0,1.3,0.9,2.2,2,2.2c0.6,0,1-0.1,1.3-0.3L209.9,269.1z"/>
	<path class="st2" d="M212.6,262.1v1.4h1.5v0.8h-1.5v3.1c0,0.7,0.2,1.1,0.8,1.1c0.3,0,0.5,0,0.6-0.1l0,0.8c-0.2,0.1-0.5,0.1-0.9,0.1
		c-0.5,0-0.9-0.2-1.1-0.4c-0.3-0.3-0.4-0.8-0.4-1.5v-3.2h-0.9v-0.8h0.9v-1.1L212.6,262.1z"/>
	<path class="st2" d="M216.5,261.9c0,0.4-0.3,0.6-0.7,0.6c-0.4,0-0.6-0.3-0.6-0.6c0-0.4,0.3-0.7,0.7-0.7
		C216.2,261.2,216.5,261.5,216.5,261.9z M215.3,269.3v-5.8h1.1v5.8H215.3z"/>
	<path class="st2" d="M223.4,266.4c0,2.1-1.5,3.1-2.9,3.1c-1.6,0-2.8-1.2-2.8-3c0-1.9,1.3-3.1,2.9-3.1
		C222.2,263.4,223.4,264.6,223.4,266.4z M218.8,266.4c0,1.3,0.7,2.2,1.8,2.2c1,0,1.8-0.9,1.8-2.3c0-1-0.5-2.2-1.7-2.2
		C219.3,264.2,218.8,265.3,218.8,266.4z"/>
	<path class="st2" d="M224.7,265.1c0-0.6,0-1.1,0-1.6h0.9l0.1,1h0c0.3-0.5,1-1.1,1.9-1.1c0.8,0,2.1,0.5,2.1,2.5v3.5h-1.1V266
		c0-0.9-0.3-1.7-1.3-1.7c-0.7,0-1.2,0.5-1.4,1.1c0,0.1-0.1,0.3-0.1,0.5v3.5h-1.1V265.1z"/>
	<path class="st2" d="M231.2,268.2c0.3,0.2,0.9,0.4,1.4,0.4c0.8,0,1.1-0.4,1.1-0.9c0-0.5-0.3-0.8-1.1-1.1c-1.1-0.4-1.5-0.9-1.5-1.6
		c0-0.9,0.8-1.7,2-1.7c0.6,0,1.1,0.2,1.4,0.4l-0.3,0.8c-0.2-0.1-0.6-0.3-1.2-0.3c-0.6,0-1,0.4-1,0.8c0,0.5,0.3,0.7,1.1,1
		c1,0.4,1.5,0.9,1.5,1.7c0,1-0.8,1.8-2.2,1.8c-0.6,0-1.2-0.2-1.6-0.4L231.2,268.2z"/>
	<path class="st2" d="M238.7,265.1c0-0.6,0-1.1,0-1.6h0.9l0,0.9h0c0.3-0.6,0.9-1.1,1.8-1.1c0.8,0,1.4,0.5,1.6,1.2h0
		c0.2-0.3,0.4-0.6,0.7-0.8c0.3-0.3,0.7-0.4,1.3-0.4c0.8,0,1.9,0.5,1.9,2.5v3.4h-1V266c0-1.1-0.4-1.8-1.3-1.8c-0.6,0-1.1,0.4-1.3,0.9
		c0,0.2-0.1,0.3-0.1,0.5v3.6h-1v-3.5c0-0.9-0.4-1.6-1.2-1.6c-0.6,0-1.1,0.5-1.3,1.1c-0.1,0.1-0.1,0.3-0.1,0.5v3.5h-1
		C238.7,269.3,238.7,265.1,238.7,265.1z"/>
	<path class="st2" d="M253.5,267.7c0,0.6,0,1.1,0,1.6h-0.9l-0.1-0.9h0c-0.3,0.5-0.9,1.1-1.9,1.1c-0.9,0-2-0.5-2-2.5v-3.4h1.1v3.2
		c0,1.1,0.3,1.9,1.3,1.9c0.7,0,1.2-0.5,1.4-1c0.1-0.1,0.1-0.3,0.1-0.5v-3.5h1.1V267.7z"/>
	<path class="st2" d="M255.1,268.2c0.3,0.2,0.9,0.4,1.4,0.4c0.8,0,1.1-0.4,1.1-0.9c0-0.5-0.3-0.8-1.1-1.1c-1.1-0.4-1.5-0.9-1.5-1.6
		c0-0.9,0.8-1.7,2-1.7c0.6,0,1.1,0.2,1.4,0.4l-0.3,0.8c-0.2-0.1-0.6-0.3-1.2-0.3c-0.6,0-1,0.4-1,0.8c0,0.5,0.3,0.7,1.1,1
		c1,0.4,1.5,0.9,1.5,1.7c0,1-0.8,1.8-2.2,1.8c-0.6,0-1.2-0.2-1.6-0.4L255.1,268.2z"/>
	<path class="st2" d="M261.3,262.1v1.4h1.5v0.8h-1.5v3.1c0,0.7,0.2,1.1,0.8,1.1c0.3,0,0.5,0,0.6-0.1l0,0.8c-0.2,0.1-0.5,0.1-0.9,0.1
		c-0.5,0-0.9-0.2-1.1-0.4c-0.3-0.3-0.4-0.8-0.4-1.5v-3.2h-0.9v-0.8h0.9v-1.1L261.3,262.1z"/>
	<path class="st2" d="M267.7,261.9c0,0.4-0.3,0.6-0.7,0.6c-0.4,0-0.6-0.3-0.6-0.6c0-0.4,0.3-0.7,0.7-0.7
		C267.5,261.2,267.7,261.5,267.7,261.9z M266.5,269.3v-5.8h1.1v5.8H266.5z"/>
	<path class="st2" d="M269.4,265.1c0-0.6,0-1.1,0-1.6h0.9l0.1,1h0c0.3-0.5,1-1.1,1.9-1.1c0.8,0,2.1,0.5,2.1,2.5v3.5h-1.1V266
		c0-0.9-0.3-1.7-1.3-1.7c-0.7,0-1.2,0.5-1.4,1.1c0,0.1-0.1,0.3-0.1,0.5v3.5h-1.1V265.1z"/>
	<path class="st2" d="M280.2,269.1c-0.3,0.1-0.9,0.3-1.7,0.3c-1.8,0-2.9-1.2-2.9-3c0-1.8,1.2-3.1,3.1-3.1c0.6,0,1.2,0.2,1.5,0.3
		l-0.2,0.8c-0.3-0.1-0.6-0.3-1.2-0.3c-1.3,0-2.1,1-2.1,2.2c0,1.3,0.9,2.2,2,2.2c0.6,0,1-0.1,1.3-0.3L280.2,269.1z"/>
	<path class="st2" d="M281.4,260.8h1.1v8.5h-1.1V260.8z"/>
	<path class="st2" d="M289.1,267.7c0,0.6,0,1.1,0,1.6h-0.9l-0.1-0.9h0c-0.3,0.5-0.9,1.1-1.9,1.1c-0.9,0-2-0.5-2-2.5v-3.4h1.1v3.2
		c0,1.1,0.3,1.9,1.3,1.9c0.7,0,1.2-0.5,1.4-1c0.1-0.1,0.1-0.3,0.1-0.5v-3.5h1.1V267.7L289.1,267.7z"/>
	<path class="st2" d="M295.8,260.8v7c0,0.5,0,1.1,0,1.5H295l0-1h0c-0.3,0.6-1,1.1-2,1.1c-1.4,0-2.5-1.2-2.5-2.9
		c0-1.9,1.2-3.1,2.6-3.1c0.9,0,1.5,0.4,1.8,0.9h0v-3.5H295.8z M294.8,265.9c0-0.1,0-0.3,0-0.4c-0.2-0.7-0.7-1.2-1.5-1.2
		c-1.1,0-1.7,1-1.7,2.2c0,1.2,0.6,2.1,1.7,2.1c0.7,0,1.4-0.5,1.5-1.3c0-0.1,0-0.3,0-0.5V265.9z"/>
	<path class="st2" d="M298.2,266.6c0,1.4,0.9,2,2,2c0.8,0,1.2-0.1,1.6-0.3l0.2,0.8c-0.4,0.2-1,0.4-1.9,0.4c-1.8,0-2.9-1.2-2.9-2.9
		s1-3.1,2.7-3.1c1.9,0,2.4,1.7,2.4,2.7c0,0.2,0,0.4,0,0.5L298.2,266.6L298.2,266.6z M301.3,265.8c0-0.7-0.3-1.7-1.5-1.7
		c-1.1,0-1.5,1-1.6,1.7H301.3z"/>
	<path class="st2" d="M307.4,262.1v1.4h1.5v0.8h-1.5v3.1c0,0.7,0.2,1.1,0.8,1.1c0.3,0,0.5,0,0.6-0.1l0,0.8c-0.2,0.1-0.5,0.1-0.9,0.1
		c-0.5,0-0.9-0.2-1.1-0.4c-0.3-0.3-0.4-0.8-0.4-1.5v-3.2h-0.9v-0.8h0.9v-1.1L307.4,262.1z"/>
	<path class="st2" d="M310.1,260.8h1.1v3.6h0c0.2-0.3,0.4-0.6,0.8-0.8c0.3-0.2,0.7-0.3,1.1-0.3c0.8,0,2,0.5,2,2.5v3.5H314V266
		c0-0.9-0.3-1.7-1.3-1.7c-0.7,0-1.2,0.5-1.4,1c-0.1,0.2-0.1,0.3-0.1,0.5v3.5h-1.1V260.8z"/>
	<path class="st2" d="M318,261.9c0,0.4-0.3,0.6-0.7,0.6c-0.4,0-0.6-0.3-0.6-0.6c0-0.4,0.3-0.7,0.7-0.7
		C317.7,261.2,318,261.5,318,261.9z M316.8,269.3v-5.8h1.1v5.8H316.8z"/>
	<path class="st2" d="M319.5,268.2c0.3,0.2,0.9,0.4,1.4,0.4c0.8,0,1.1-0.4,1.1-0.9c0-0.5-0.3-0.8-1.1-1.1c-1.1-0.4-1.5-0.9-1.5-1.6
		c0-0.9,0.8-1.7,2-1.7c0.6,0,1.1,0.2,1.4,0.4l-0.3,0.8c-0.2-0.1-0.6-0.3-1.2-0.3c-0.6,0-1,0.4-1,0.8c0,0.5,0.3,0.7,1.1,1
		c1,0.4,1.5,0.9,1.5,1.7c0,1-0.8,1.8-2.2,1.8c-0.6,0-1.2-0.2-1.6-0.4L319.5,268.2z"/>
	<path class="st2" d="M328.2,262.1v1.4h1.5v0.8h-1.5v3.1c0,0.7,0.2,1.1,0.8,1.1c0.3,0,0.5,0,0.6-0.1l0,0.8c-0.2,0.1-0.5,0.1-0.9,0.1
		c-0.5,0-0.9-0.2-1.1-0.4c-0.3-0.3-0.4-0.8-0.4-1.5v-3.2h-0.9v-0.8h0.9v-1.1L328.2,262.1z"/>
	<path class="st2" d="M331.4,266.6c0,1.4,0.9,2,2,2c0.8,0,1.2-0.1,1.6-0.3l0.2,0.8c-0.4,0.2-1,0.4-1.9,0.4c-1.8,0-2.9-1.2-2.9-2.9
		s1-3.1,2.7-3.1c1.9,0,2.4,1.7,2.4,2.7c0,0.2,0,0.4,0,0.5L331.4,266.6L331.4,266.6z M334.5,265.8c0-0.7-0.3-1.7-1.5-1.7
		c-1.1,0-1.5,1-1.6,1.7H334.5z"/>
	<path class="st2" d="M337.3,263.5l0.8,1.2c0.2,0.3,0.4,0.6,0.6,0.9h0c0.2-0.3,0.4-0.6,0.6-0.9l0.8-1.2h1.2l-2,2.8l2,3h-1.2
		l-0.9-1.3c-0.2-0.3-0.4-0.7-0.6-1h0c-0.2,0.3-0.4,0.7-0.6,1l-0.8,1.3H336l2.1-3l-2-2.8L337.3,263.5L337.3,263.5z"/>
	<path class="st2" d="M343.8,262.1v1.4h1.5v0.8h-1.5v3.1c0,0.7,0.2,1.1,0.8,1.1c0.3,0,0.5,0,0.6-0.1l0,0.8c-0.2,0.1-0.5,0.1-0.9,0.1
		c-0.5,0-0.9-0.2-1.1-0.4c-0.3-0.3-0.4-0.8-0.4-1.5v-3.2h-0.9v-0.8h0.9v-1.1L343.8,262.1z"/>
	<path class="st2" d="M346.2,268.7c0-0.4,0.3-0.8,0.7-0.8s0.7,0.3,0.7,0.8c0,0.4-0.3,0.8-0.7,0.8
		C346.5,269.4,346.2,269.1,346.2,268.7z"/>
	<path class="st2" d="M412.5,240.2c-0.4,0.2-1.2,0.4-2.1,0.4c-2.3,0-4-1.4-4-4.1c0-2.5,1.7-4.2,4.2-4.2c1,0,1.6,0.2,1.9,0.4
		l-0.3,0.9c-0.4-0.2-0.9-0.3-1.6-0.3c-1.9,0-3.2,1.2-3.2,3.3c0,2,1.1,3.2,3.1,3.2c0.6,0,1.3-0.1,1.7-0.3L412.5,240.2z"/>
	<path class="st2" d="M413.8,236.5c0-0.7,0-1.3,0-1.8h0.9l0,1.2h0c0.3-0.8,0.9-1.3,1.6-1.3c0.1,0,0.2,0,0.3,0v1c-0.1,0-0.2,0-0.4,0
		c-0.7,0-1.3,0.6-1.4,1.3c0,0.1,0,0.3,0,0.5v3.1h-1.1V236.5z"/>
	<path class="st2" d="M418.2,237.8c0,1.4,0.9,2,2,2c0.8,0,1.2-0.1,1.6-0.3l0.2,0.8c-0.4,0.2-1,0.4-1.9,0.4c-1.8,0-2.9-1.2-2.9-2.9
		s1-3.1,2.7-3.1c1.9,0,2.4,1.7,2.4,2.7c0,0.2,0,0.4,0,0.5L418.2,237.8L418.2,237.8z M421.3,237c0-0.7-0.3-1.7-1.5-1.7
		c-1.1,0-1.5,1-1.6,1.7H421.3z"/>
	<path class="st2" d="M427.7,239.1c0,0.5,0,1,0.1,1.4h-0.9l-0.1-0.7h0c-0.3,0.5-0.9,0.9-1.8,0.9c-1.2,0-1.8-0.8-1.8-1.7
		c0-1.4,1.2-2.2,3.5-2.2v-0.1c0-0.5-0.1-1.3-1.3-1.3c-0.6,0-1.1,0.2-1.5,0.4l-0.2-0.7c0.5-0.3,1.2-0.5,1.9-0.5
		c1.8,0,2.2,1.2,2.2,2.4L427.7,239.1L427.7,239.1z M426.7,237.5c-1.2,0-2.5,0.2-2.5,1.3c0,0.7,0.5,1,1,1c0.8,0,1.3-0.5,1.4-1
		c0-0.1,0-0.2,0-0.3V237.5z"/>
	<path class="st2" d="M430.6,233.3v1.4h1.5v0.8h-1.5v3.1c0,0.7,0.2,1.1,0.8,1.1c0.3,0,0.5,0,0.6-0.1l0,0.8c-0.2,0.1-0.5,0.1-0.9,0.1
		c-0.5,0-0.9-0.2-1.1-0.4c-0.3-0.3-0.4-0.8-0.4-1.5v-3.2h-0.9v-0.8h0.9v-1.1L430.6,233.3z"/>
	<path class="st2" d="M434.5,233.1c0,0.4-0.3,0.6-0.7,0.6c-0.4,0-0.6-0.3-0.6-0.6s0.3-0.7,0.7-0.7
		C434.2,232.4,434.5,232.7,434.5,233.1z M433.3,240.5v-5.8h1.1v5.8H433.3z"/>
	<path class="st2" d="M436.5,234.7l1.1,3.2c0.2,0.5,0.3,1,0.5,1.5h0c0.1-0.5,0.3-1,0.5-1.5l1.1-3.2h1.1l-2.3,5.8h-1l-2.2-5.8H436.5z
		"/>
	<path class="st2" d="M442.4,237.8c0,1.4,0.9,2,2,2c0.8,0,1.2-0.1,1.6-0.3l0.2,0.8c-0.4,0.2-1,0.4-1.9,0.4c-1.8,0-2.9-1.2-2.9-2.9
		s1-3.1,2.7-3.1c1.9,0,2.4,1.7,2.4,2.7c0,0.2,0,0.4,0,0.5L442.4,237.8L442.4,237.8z M445.5,237c0-0.7-0.3-1.7-1.5-1.7
		c-1.1,0-1.5,1-1.6,1.7H445.5z"/>
	<path class="st2" d="M456,240.2c-0.4,0.2-1.2,0.4-2.1,0.4c-2.3,0-4-1.4-4-4.1c0-2.5,1.7-4.2,4.2-4.2c1,0,1.6,0.2,1.9,0.4l-0.3,0.9
		c-0.4-0.2-0.9-0.3-1.6-0.3c-1.9,0-3.2,1.2-3.2,3.3c0,2,1.1,3.2,3.1,3.2c0.6,0,1.3-0.1,1.7-0.3L456,240.2z"/>
	<path class="st2" d="M462.4,237.6c0,2.1-1.5,3.1-2.9,3.1c-1.6,0-2.8-1.2-2.8-3c0-1.9,1.3-3.1,2.9-3.1
		C461.3,234.6,462.4,235.8,462.4,237.6z M457.8,237.6c0,1.3,0.7,2.2,1.8,2.2c1,0,1.8-0.9,1.8-2.3c0-1-0.5-2.2-1.7-2.2
		C458.4,235.4,457.8,236.5,457.8,237.6z"/>
	<path class="st2" d="M463.8,236.3c0-0.6,0-1.1,0-1.6h0.9l0,0.9h0c0.3-0.6,0.9-1.1,1.8-1.1c0.8,0,1.4,0.5,1.6,1.2h0
		c0.2-0.3,0.4-0.6,0.7-0.8c0.3-0.3,0.7-0.4,1.3-0.4c0.8,0,1.9,0.5,1.9,2.5v3.4h-1v-3.3c0-1.1-0.4-1.8-1.3-1.8
		c-0.6,0-1.1,0.4-1.3,0.9c0,0.2-0.1,0.3-0.1,0.5v3.6h-1V237c0-0.9-0.4-1.6-1.2-1.6c-0.6,0-1.1,0.5-1.3,1.1c-0.1,0.1-0.1,0.3-0.1,0.5
		v3.5h-1L463.8,236.3L463.8,236.3z"/>
	<path class="st2" d="M473.8,236.3c0-0.6,0-1.1,0-1.6h0.9l0,0.9h0c0.3-0.6,0.9-1.1,1.8-1.1c0.8,0,1.4,0.5,1.6,1.2h0
		c0.2-0.3,0.4-0.6,0.7-0.8c0.3-0.3,0.7-0.4,1.3-0.4c0.8,0,1.9,0.5,1.9,2.5v3.4h-1v-3.3c0-1.1-0.4-1.8-1.3-1.8
		c-0.6,0-1.1,0.4-1.3,0.9c0,0.2-0.1,0.3-0.1,0.5v3.6h-1V237c0-0.9-0.4-1.6-1.2-1.6c-0.6,0-1.1,0.5-1.3,1.1c-0.1,0.1-0.1,0.3-0.1,0.5
		v3.5h-1L473.8,236.3L473.8,236.3z"/>
	<path class="st2" d="M489,237.6c0,2.1-1.5,3.1-2.9,3.1c-1.6,0-2.8-1.2-2.8-3c0-1.9,1.3-3.1,2.9-3.1
		C487.9,234.6,489,235.8,489,237.6z M484.4,237.6c0,1.3,0.7,2.2,1.8,2.2c1,0,1.8-0.9,1.8-2.3c0-1-0.5-2.2-1.7-2.2
		C485,235.4,484.4,236.5,484.4,237.6z"/>
	<path class="st2" d="M490.4,236.3c0-0.6,0-1.1,0-1.6h0.9l0.1,1h0c0.3-0.5,1-1.1,1.9-1.1c0.8,0,2.1,0.5,2.1,2.5v3.5h-1.1v-3.3
		c0-0.9-0.3-1.7-1.3-1.7c-0.7,0-1.2,0.5-1.4,1.1c0,0.1-0.1,0.3-0.1,0.5v3.5h-1.1L490.4,236.3L490.4,236.3z"/>
	<path class="st2" d="M496.9,239.4c0.3,0.2,0.9,0.4,1.4,0.4c0.8,0,1.1-0.4,1.1-0.9c0-0.5-0.3-0.8-1.1-1.1c-1.1-0.4-1.5-0.9-1.5-1.6
		c0-0.9,0.8-1.7,2-1.7c0.6,0,1.1,0.2,1.4,0.4l-0.3,0.8c-0.2-0.1-0.6-0.3-1.2-0.3c-0.6,0-1,0.4-1,0.8c0,0.5,0.3,0.7,1.1,1
		c1,0.4,1.5,0.9,1.5,1.7c0,1-0.8,1.8-2.2,1.8c-0.6,0-1.2-0.2-1.6-0.4L496.9,239.4z"/>
	<path class="st2" d="M504,240.5v-0.6l0.8-0.8c2-1.9,2.9-2.9,2.9-4.1c0-0.8-0.4-1.5-1.5-1.5c-0.7,0-1.3,0.4-1.7,0.7l-0.3-0.7
		c0.5-0.4,1.3-0.8,2.2-0.8c1.7,0,2.4,1.2,2.4,2.3c0,1.4-1,2.6-2.7,4.2l-0.6,0.6v0h3.5v0.9L504,240.5L504,240.5z"/>
	<path class="st2" d="M510.2,239.9c0-0.4,0.3-0.8,0.7-0.8s0.7,0.3,0.7,0.8c0,0.4-0.3,0.8-0.7,0.8
		C510.5,240.6,510.2,240.3,510.2,239.9z"/>
	<path class="st2" d="M517.3,233.6h-3l-0.3,2c0.2,0,0.3,0,0.6,0c0.6,0,1.2,0.1,1.7,0.4c0.6,0.3,1.1,1,1.1,2c0,1.5-1.2,2.7-2.9,2.7
		c-0.9,0-1.6-0.2-1.9-0.5l0.3-0.8c0.3,0.2,1,0.4,1.7,0.4c1,0,1.8-0.6,1.8-1.7c0-1-0.7-1.7-2.2-1.7c-0.5,0-0.8,0-1.1,0.1l0.5-3.7h3.7
		L517.3,233.6L517.3,233.6z"/>
	<path class="st2" d="M518.4,242c0.3-0.7,0.6-2,0.7-2.9l1.2-0.1c-0.3,1-0.8,2.4-1.2,2.9L518.4,242z"/>
	<path class="st2" d="M525.5,238l-0.8,2.5h-1.1l2.8-8.1h1.2l2.8,8.1h-1.1l-0.9-2.5H525.5z M528.1,237.1l-0.8-2.3
		c-0.2-0.5-0.3-1-0.4-1.5h0c-0.1,0.5-0.2,1-0.4,1.5l-0.8,2.3L528.1,237.1L528.1,237.1z"/>
	<path class="st2" d="M532.6,233.3v1.4h1.5v0.8h-1.5v3.1c0,0.7,0.2,1.1,0.8,1.1c0.3,0,0.5,0,0.6-0.1l0,0.8c-0.2,0.1-0.5,0.1-0.9,0.1
		c-0.5,0-0.9-0.2-1.1-0.4c-0.3-0.3-0.4-0.8-0.4-1.5v-3.2h-0.9v-0.8h0.9v-1.1L532.6,233.3z"/>
	<path class="st2" d="M536.6,233.3v1.4h1.5v0.8h-1.5v3.1c0,0.7,0.2,1.1,0.8,1.1c0.3,0,0.5,0,0.6-0.1l0,0.8c-0.2,0.1-0.5,0.1-0.9,0.1
		c-0.5,0-0.9-0.2-1.1-0.4c-0.3-0.3-0.4-0.8-0.4-1.5v-3.2h-0.9v-0.8h0.9v-1.1L536.6,233.3z"/>
	<path class="st2" d="M539.3,236.5c0-0.7,0-1.3,0-1.8h0.9l0,1.2h0c0.3-0.8,0.9-1.3,1.6-1.3c0.1,0,0.2,0,0.3,0v1c-0.1,0-0.2,0-0.4,0
		c-0.7,0-1.3,0.6-1.4,1.3c0,0.1,0,0.3,0,0.5v3.1h-1.1L539.3,236.5L539.3,236.5z"/>
	<path class="st2" d="M544.5,233.1c0,0.4-0.3,0.6-0.7,0.6c-0.4,0-0.6-0.3-0.6-0.6s0.3-0.7,0.7-0.7
		C544.2,232.4,544.5,232.7,544.5,233.1z M543.3,240.5v-5.8h1.1v5.8H543.3z"/>
	<path class="st2" d="M546.1,232h1v3.6h0c0.4-0.6,1-1.1,2-1.1c1.5,0,2.5,1.2,2.5,2.9c0,2.1-1.3,3.1-2.6,3.1c-0.8,0-1.5-0.3-2-1.1h0
		l-0.1,0.9H546c0-0.4,0-1,0-1.5L546.1,232L546.1,232z M547.1,238.2c0,0.1,0,0.3,0,0.4c0.2,0.7,0.8,1.2,1.6,1.2
		c1.1,0,1.8-0.9,1.8-2.2c0-1.2-0.6-2.2-1.7-2.2c-0.7,0-1.4,0.5-1.6,1.3c0,0.1-0.1,0.3-0.1,0.4V238.2z"/>
	<path class="st2" d="M557.8,238.9c0,0.6,0,1.1,0,1.6h-0.9l-0.1-0.9h0c-0.3,0.5-0.9,1.1-1.9,1.1c-0.9,0-2-0.5-2-2.5v-3.4h1.1v3.2
		c0,1.1,0.3,1.9,1.3,1.9c0.7,0,1.2-0.5,1.4-1c0.1-0.1,0.1-0.3,0.1-0.5v-3.5h1.1L557.8,238.9L557.8,238.9z"/>
	<path class="st2" d="M560.8,233.3v1.4h1.5v0.8h-1.5v3.1c0,0.7,0.2,1.1,0.8,1.1c0.3,0,0.5,0,0.6-0.1l0,0.8c-0.2,0.1-0.5,0.1-0.9,0.1
		c-0.5,0-0.9-0.2-1.1-0.4c-0.3-0.3-0.4-0.8-0.4-1.5v-3.2h-0.9v-0.8h0.9v-1.1L560.8,233.3z"/>
	<path class="st2" d="M564.7,233.1c0,0.4-0.3,0.6-0.7,0.6c-0.4,0-0.6-0.3-0.6-0.6s0.3-0.7,0.7-0.7
		C564.4,232.4,564.7,232.7,564.7,233.1z M563.5,240.5v-5.8h1.1v5.8H563.5z"/>
	<path class="st2" d="M571.6,237.6c0,2.1-1.5,3.1-2.9,3.1c-1.6,0-2.8-1.2-2.8-3c0-1.9,1.3-3.1,2.9-3.1
		C570.4,234.6,571.6,235.8,571.6,237.6z M567,237.6c0,1.3,0.7,2.2,1.8,2.2c1,0,1.8-0.9,1.8-2.3c0-1-0.5-2.2-1.7-2.2
		C567.5,235.4,567,236.5,567,237.6z"/>
	<path class="st2" d="M572.9,236.3c0-0.6,0-1.1,0-1.6h0.9l0.1,1h0c0.3-0.5,1-1.1,1.9-1.1c0.8,0,2.1,0.5,2.1,2.5v3.5h-1.1v-3.3
		c0-0.9-0.3-1.7-1.3-1.7c-0.7,0-1.2,0.5-1.4,1.1c0,0.1-0.1,0.3-0.1,0.5v3.5h-1.1L572.9,236.3L572.9,236.3z"/>
	<path class="st2" d="M578.9,242c0.3-0.7,0.6-2,0.7-2.9l1.2-0.1c-0.3,1-0.8,2.4-1.1,2.9L578.9,242z"/>
	<path class="st2" d="M584.5,239.2c0.5,0.3,1.1,0.5,1.9,0.5c1.1,0,1.7-0.6,1.7-1.4c0-0.7-0.4-1.2-1.5-1.6c-1.3-0.5-2.1-1.2-2.1-2.3
		c0-1.3,1-2.2,2.6-2.2c0.8,0,1.4,0.2,1.8,0.4l-0.3,0.9c-0.3-0.2-0.8-0.4-1.5-0.4c-1.1,0-1.5,0.7-1.5,1.2c0,0.8,0.5,1.1,1.6,1.6
		c1.4,0.5,2.1,1.2,2.1,2.4c0,1.2-0.9,2.3-2.8,2.3c-0.8,0-1.6-0.2-2.1-0.5L584.5,239.2z"/>
	<path class="st2" d="M590.5,232h1.1v3.6h0c0.2-0.3,0.4-0.6,0.8-0.8c0.3-0.2,0.7-0.3,1.1-0.3c0.8,0,2,0.5,2,2.5v3.5h-1.1v-3.3
		c0-0.9-0.3-1.7-1.3-1.7c-0.7,0-1.2,0.5-1.4,1c-0.1,0.2-0.1,0.3-0.1,0.5v3.5h-1.1L590.5,232L590.5,232z"/>
	<path class="st2" d="M601.2,239.1c0,0.5,0,1,0.1,1.4h-0.9l-0.1-0.7h0c-0.3,0.5-0.9,0.9-1.8,0.9c-1.2,0-1.8-0.8-1.8-1.7
		c0-1.4,1.2-2.2,3.5-2.2v-0.1c0-0.5-0.1-1.3-1.3-1.3c-0.6,0-1.1,0.2-1.5,0.4l-0.2-0.7c0.5-0.3,1.2-0.5,1.9-0.5
		c1.8,0,2.2,1.2,2.2,2.4L601.2,239.1L601.2,239.1z M600.2,237.5c-1.2,0-2.5,0.2-2.5,1.3c0,0.7,0.5,1,1,1c0.8,0,1.3-0.5,1.4-1
		c0-0.1,0-0.2,0-0.3V237.5z"/>
	<path class="st2" d="M602.9,236.5c0-0.7,0-1.3,0-1.8h0.9l0,1.2h0c0.3-0.8,0.9-1.3,1.6-1.3c0.1,0,0.2,0,0.3,0v1c-0.1,0-0.2,0-0.4,0
		c-0.7,0-1.3,0.6-1.4,1.3c0,0.1,0,0.3,0,0.5v3.1h-1.1L602.9,236.5L602.9,236.5z"/>
	<path class="st2" d="M607.3,237.8c0,1.4,0.9,2,2,2c0.8,0,1.2-0.1,1.6-0.3l0.2,0.8c-0.4,0.2-1,0.4-1.9,0.4c-1.8,0-2.9-1.2-2.9-2.9
		s1-3.1,2.7-3.1c1.9,0,2.4,1.7,2.4,2.7c0,0.2,0,0.4,0,0.5L607.3,237.8L607.3,237.8z M610.4,237c0-0.7-0.3-1.7-1.5-1.7
		c-1.1,0-1.5,1-1.6,1.7H610.4z"/>
	<path class="st2" d="M615.5,236.9v0.8h-3v-0.8H615.5z"/>
	<path class="st2" d="M620.9,239.1c0,0.5,0,1,0.1,1.4H620l-0.1-0.7h0c-0.3,0.5-0.9,0.9-1.8,0.9c-1.2,0-1.8-0.8-1.8-1.7
		c0-1.4,1.2-2.2,3.5-2.2v-0.1c0-0.5-0.1-1.3-1.3-1.3c-0.6,0-1.1,0.2-1.5,0.4l-0.2-0.7c0.5-0.3,1.2-0.5,1.9-0.5
		c1.8,0,2.2,1.2,2.2,2.4L620.9,239.1L620.9,239.1z M619.8,237.5c-1.2,0-2.5,0.2-2.5,1.3c0,0.7,0.5,1,1,1c0.8,0,1.3-0.5,1.4-1
		c0-0.1,0-0.2,0-0.3V237.5z"/>
	<path class="st2" d="M622.6,232h1.1v8.5h-1.1V232z"/>
	<path class="st2" d="M626.6,233.1c0,0.4-0.3,0.6-0.7,0.6c-0.4,0-0.6-0.3-0.6-0.6s0.3-0.7,0.7-0.7
		C626.3,232.4,626.6,232.7,626.6,233.1z M625.4,240.5v-5.8h1.1v5.8H625.4z"/>
	<path class="st2" d="M629.2,237.4L629.2,237.4c0.2-0.2,0.4-0.5,0.5-0.7l1.7-2h1.3l-2.2,2.4l2.6,3.4h-1.3l-2-2.8l-0.5,0.6v2.2h-1
		V232h1L629.2,237.4L629.2,237.4z"/>
	<path class="st2" d="M634.4,237.8c0,1.4,0.9,2,2,2c0.8,0,1.2-0.1,1.6-0.3l0.2,0.8c-0.4,0.2-1,0.4-1.9,0.4c-1.8,0-2.9-1.2-2.9-2.9
		s1-3.1,2.7-3.1c1.9,0,2.4,1.7,2.4,2.7c0,0.2,0,0.4,0,0.5L634.4,237.8L634.4,237.8z M637.5,237c0-0.7-0.3-1.7-1.5-1.7
		c-1.1,0-1.5,1-1.6,1.7H637.5z"/>
	<path class="st2" d="M406.9,246.9c0.6-0.1,1.4-0.2,2.2-0.2c1.5,0,2.6,0.4,3.3,1c0.7,0.7,1.2,1.6,1.2,2.9c0,1.3-0.4,2.4-1.2,3.1
		c-0.8,0.8-2,1.2-3.6,1.2c-0.8,0-1.4,0-1.9-0.1L406.9,246.9L406.9,246.9z M408,254.1c0.3,0,0.6,0,1.1,0c2.2,0,3.4-1.2,3.4-3.4
		c0-1.9-1.1-3.1-3.3-3.1c-0.5,0-0.9,0-1.2,0.1V254.1z"/>
	<path class="st2" d="M415.5,252.2c0,1.4,0.9,2,2,2c0.8,0,1.2-0.1,1.6-0.3l0.2,0.8c-0.4,0.2-1,0.4-1.9,0.4c-1.8,0-2.9-1.2-2.9-2.9
		s1-3.1,2.7-3.1c1.9,0,2.4,1.7,2.4,2.7c0,0.2,0,0.4,0,0.5L415.5,252.2L415.5,252.2z M418.6,251.4c0-0.7-0.3-1.7-1.5-1.7
		c-1.1,0-1.5,1-1.6,1.7H418.6z"/>
	<path class="st2" d="M420.8,253.8c0.3,0.2,0.9,0.4,1.4,0.4c0.8,0,1.1-0.4,1.1-0.9c0-0.5-0.3-0.8-1.1-1.1c-1.1-0.4-1.5-0.9-1.5-1.6
		c0-0.9,0.8-1.7,2-1.7c0.6,0,1.1,0.2,1.4,0.4l-0.3,0.8c-0.2-0.1-0.6-0.3-1.2-0.3c-0.6,0-1,0.4-1,0.8c0,0.5,0.3,0.7,1.1,1
		c1,0.4,1.5,0.9,1.5,1.7c0,1-0.8,1.8-2.2,1.8c-0.6,0-1.2-0.2-1.6-0.4L420.8,253.8z"/>
	<path class="st2" d="M426.9,247.5c0,0.4-0.3,0.6-0.7,0.6c-0.4,0-0.6-0.3-0.6-0.6c0-0.4,0.3-0.7,0.7-0.7
		C426.6,246.8,426.9,247.1,426.9,247.5z M425.7,254.9v-5.8h1.1v5.8H425.7z"/>
	<path class="st2" d="M433.5,254c0,1.3-0.3,2.1-0.8,2.7c-0.6,0.5-1.4,0.7-2.1,0.7c-0.7,0-1.5-0.2-1.9-0.5l0.3-0.8
		c0.4,0.3,1,0.5,1.7,0.5c1.1,0,1.9-0.6,1.9-2v-0.6h0c-0.3,0.5-0.9,1-1.8,1c-1.4,0-2.5-1.2-2.5-2.8c0-2,1.3-3.1,2.6-3.1
		c1,0,1.5,0.5,1.8,1h0l0-0.9h0.9c0,0.4,0,0.9,0,1.6L433.5,254L433.5,254z M432.4,251.4c0-0.2,0-0.3-0.1-0.5
		c-0.2-0.6-0.7-1.1-1.5-1.1c-1,0-1.7,0.9-1.7,2.2c0,1.1,0.6,2.1,1.7,2.1c0.7,0,1.2-0.4,1.5-1.1c0.1-0.2,0.1-0.4,0.1-0.6L432.4,251.4
		L432.4,251.4z"/>
	<path class="st2" d="M435.1,250.7c0-0.6,0-1.1,0-1.6h0.9l0.1,1h0c0.3-0.5,1-1.1,1.9-1.1c0.8,0,2.1,0.5,2.1,2.5v3.5H439v-3.3
		c0-0.9-0.3-1.7-1.3-1.7c-0.7,0-1.2,0.5-1.4,1.1c0,0.1-0.1,0.3-0.1,0.5v3.5h-1.1V250.7z"/>
	<path class="st2" d="M442.4,252.2c0,1.4,0.9,2,2,2c0.8,0,1.2-0.1,1.6-0.3l0.2,0.8c-0.4,0.2-1,0.4-1.9,0.4c-1.8,0-2.9-1.2-2.9-2.9
		s1-3.1,2.7-3.1c1.9,0,2.4,1.7,2.4,2.7c0,0.2,0,0.4,0,0.5L442.4,252.2L442.4,252.2z M445.5,251.4c0-0.7-0.3-1.7-1.5-1.7
		c-1.1,0-1.5,1-1.6,1.7H445.5z"/>
	<path class="st2" d="M452.8,246.4v7c0,0.5,0,1.1,0,1.5h-0.9l0-1h0c-0.3,0.6-1,1.1-2,1.1c-1.4,0-2.5-1.2-2.5-2.9
		c0-1.9,1.2-3.1,2.6-3.1c0.9,0,1.5,0.4,1.8,0.9h0v-3.5H452.8z M451.8,251.5c0-0.1,0-0.3,0-0.4c-0.2-0.7-0.7-1.2-1.5-1.2
		c-1.1,0-1.7,1-1.7,2.2c0,1.2,0.6,2.1,1.7,2.1c0.7,0,1.4-0.5,1.5-1.3c0-0.1,0-0.3,0-0.5L451.8,251.5L451.8,251.5z"/>
	<path class="st2" d="M457.1,246.4h1v3.6h0c0.4-0.6,1-1.1,2-1.1c1.5,0,2.5,1.2,2.5,3c0,2.1-1.3,3.1-2.6,3.1c-0.8,0-1.5-0.3-2-1.1h0
		l-0.1,0.9h-0.9c0-0.4,0-1,0-1.5L457.1,246.4L457.1,246.4z M458.2,252.6c0,0.1,0,0.3,0,0.4c0.2,0.7,0.8,1.2,1.6,1.2
		c1.1,0,1.8-0.9,1.8-2.2c0-1.2-0.6-2.2-1.7-2.2c-0.7,0-1.4,0.5-1.6,1.3c0,0.1-0.1,0.3-0.1,0.4V252.6z"/>
	<path class="st2" d="M464.2,249.1l1.3,3.4c0.1,0.4,0.3,0.8,0.4,1.2h0c0.1-0.3,0.2-0.8,0.4-1.2l1.2-3.4h1.1l-1.6,4.1
		c-0.8,2-1.3,3-2,3.6c-0.5,0.4-1,0.6-1.3,0.7l-0.3-0.9c0.3-0.1,0.6-0.3,0.9-0.5c0.3-0.2,0.6-0.6,0.9-1.2c0-0.1,0.1-0.2,0.1-0.3
		c0-0.1,0-0.1-0.1-0.3l-2.1-5.3L464.2,249.1L464.2,249.1z"/>
	<path class="st2" d="M473.4,252.4l-0.8,2.5h-1.1l2.8-8.1h1.2l2.8,8.1h-1.1l-0.9-2.5H473.4z M476.1,251.5l-0.8-2.3
		c-0.2-0.5-0.3-1-0.4-1.5h0c-0.1,0.5-0.2,1-0.4,1.5l-0.8,2.3H476.1z"/>
	<path class="st2" d="M484.2,246.4v7c0,0.5,0,1.1,0,1.5h-0.9l0-1h0c-0.3,0.6-1,1.1-2,1.1c-1.4,0-2.5-1.2-2.5-2.9
		c0-1.9,1.2-3.1,2.6-3.1c0.9,0,1.5,0.4,1.8,0.9h0v-3.5H484.2z M483.2,251.5c0-0.1,0-0.3,0-0.4c-0.2-0.7-0.7-1.2-1.5-1.2
		c-1.1,0-1.7,1-1.7,2.2c0,1.2,0.6,2.1,1.7,2.1c0.7,0,1.4-0.5,1.5-1.3c0-0.1,0-0.3,0-0.5L483.2,251.5L483.2,251.5z"/>
	<path class="st2" d="M490.1,253.5c0,0.5,0,1,0.1,1.4h-0.9l-0.1-0.7h0c-0.3,0.5-0.9,0.9-1.8,0.9c-1.2,0-1.8-0.8-1.8-1.7
		c0-1.4,1.2-2.2,3.5-2.2v-0.1c0-0.5-0.1-1.3-1.3-1.3c-0.6,0-1.1,0.2-1.5,0.4l-0.2-0.7c0.5-0.3,1.2-0.5,1.9-0.5
		c1.8,0,2.2,1.2,2.2,2.4L490.1,253.5L490.1,253.5z M489.1,251.9c-1.2,0-2.5,0.2-2.5,1.3c0,0.7,0.5,1,1,1c0.8,0,1.3-0.5,1.4-1
		c0-0.1,0-0.2,0-0.3V251.9z"/>
	<path class="st2" d="M491.9,254.9v-5h-0.8v-0.8h0.8v-0.3c0-0.8,0.2-1.6,0.7-2c0.4-0.4,0.9-0.5,1.4-0.5c0.4,0,0.7,0.1,0.9,0.2
		l-0.1,0.8c-0.2-0.1-0.4-0.1-0.7-0.1c-0.9,0-1.1,0.8-1.1,1.7v0.3h1.4v0.8h-1.4v5L491.9,254.9L491.9,254.9z"/>
	<path class="st2" d="M495.3,250.9c0-0.7,0-1.3,0-1.8h0.9l0,1.2h0c0.3-0.8,0.9-1.3,1.6-1.3c0.1,0,0.2,0,0.3,0v1c-0.1,0-0.2,0-0.4,0
		c-0.7,0-1.3,0.6-1.4,1.3c0,0.1,0,0.3,0,0.5v3.1h-1.1V250.9z"/>
	<path class="st2" d="M504.1,253.3c0,0.6,0,1.1,0,1.6h-0.9l-0.1-0.9h0c-0.3,0.5-0.9,1.1-1.9,1.1c-0.9,0-2-0.5-2-2.5v-3.4h1.1v3.2
		c0,1.1,0.3,1.9,1.3,1.9c0.7,0,1.2-0.5,1.4-1c0.1-0.1,0.1-0.3,0.1-0.5v-3.6h1.1L504.1,253.3L504.1,253.3z"/>
	<path class="st2" d="M507,247.5c0,0.4-0.3,0.6-0.7,0.6c-0.4,0-0.6-0.3-0.6-0.6c0-0.4,0.3-0.7,0.7-0.7
		C506.8,246.8,507,247.1,507,247.5z M505.8,254.9v-5.8h1.1v5.8H505.8z"/>
	<path class="st2" d="M509.9,247.7v1.4h1.5v0.8h-1.5v3.1c0,0.7,0.2,1.1,0.8,1.1c0.3,0,0.5,0,0.6-0.1l0,0.8c-0.2,0.1-0.5,0.1-0.9,0.1
		c-0.5,0-0.9-0.2-1.1-0.4c-0.3-0.3-0.4-0.8-0.4-1.5v-3.2H508v-0.8h0.9V248L509.9,247.7z"/>
	<path class="st2" d="M516.2,246.8v8.1h-1.1v-8.1C515.2,246.8,516.2,246.8,516.2,246.8z"/>
	<path class="st2" d="M518.2,250.7c0-0.6,0-1.1,0-1.6h0.9l0.1,1h0c0.3-0.5,1-1.1,1.9-1.1c0.8,0,2.1,0.5,2.1,2.5v3.5H522v-3.3
		c0-0.9-0.3-1.7-1.3-1.7c-0.7,0-1.2,0.5-1.4,1.1c0,0.1-0.1,0.3-0.1,0.5v3.5h-1.1V250.7L518.2,250.7z"/>
	<path class="st2" d="M529.8,246.4v7c0,0.5,0,1.1,0,1.5h-0.9l0-1h0c-0.3,0.6-1,1.1-2,1.1c-1.4,0-2.5-1.2-2.5-2.9
		c0-1.9,1.2-3.1,2.6-3.1c0.9,0,1.5,0.4,1.8,0.9h0v-3.5H529.8z M528.8,251.5c0-0.1,0-0.3,0-0.4c-0.2-0.7-0.7-1.2-1.5-1.2
		c-1.1,0-1.7,1-1.7,2.2c0,1.2,0.6,2.1,1.7,2.1c0.7,0,1.4-0.5,1.5-1.3c0-0.1,0-0.3,0-0.5L528.8,251.5L528.8,251.5z"/>
	<path class="st2" d="M536.4,253.3c0,0.6,0,1.1,0,1.6h-0.9l-0.1-0.9h0c-0.3,0.5-0.9,1.1-1.9,1.1c-0.9,0-2-0.5-2-2.5v-3.4h1.1v3.2
		c0,1.1,0.3,1.9,1.3,1.9c0.7,0,1.2-0.5,1.4-1c0.1-0.1,0.1-0.3,0.1-0.5v-3.6h1.1L536.4,253.3L536.4,253.3z"/>
	<path class="st2" d="M538,253.8c0.3,0.2,0.9,0.4,1.4,0.4c0.8,0,1.1-0.4,1.1-0.9c0-0.5-0.3-0.8-1.1-1.1c-1.1-0.4-1.5-0.9-1.5-1.6
		c0-0.9,0.8-1.7,2-1.7c0.6,0,1.1,0.2,1.4,0.4l-0.3,0.8c-0.2-0.1-0.6-0.3-1.2-0.3c-0.6,0-1,0.4-1,0.8c0,0.5,0.3,0.7,1.1,1
		c1,0.4,1.5,0.9,1.5,1.7c0,1-0.8,1.8-2.2,1.8c-0.6,0-1.2-0.2-1.6-0.4L538,253.8z"/>
	<path class="st2" d="M544.2,247.7v1.4h1.5v0.8h-1.5v3.1c0,0.7,0.2,1.1,0.8,1.1c0.3,0,0.5,0,0.6-0.1l0,0.8c-0.2,0.1-0.5,0.1-0.9,0.1
		c-0.5,0-0.9-0.2-1.1-0.4c-0.3-0.3-0.4-0.8-0.4-1.5v-3.2h-0.9v-0.8h0.9V248L544.2,247.7z"/>
	<path class="st2" d="M546.9,250.9c0-0.7,0-1.3,0-1.8h0.9l0,1.2h0c0.3-0.8,0.9-1.3,1.6-1.3c0.1,0,0.2,0,0.3,0v1c-0.1,0-0.2,0-0.4,0
		c-0.7,0-1.3,0.6-1.4,1.3c0,0.1,0,0.3,0,0.5v3.1h-1.1V250.9z"/>
	<path class="st2" d="M552.1,247.5c0,0.4-0.3,0.6-0.7,0.6c-0.4,0-0.6-0.3-0.6-0.6c0-0.4,0.3-0.7,0.7-0.7
		C551.8,246.8,552.1,247.1,552.1,247.5z M550.9,254.9v-5.8h1.1v5.8H550.9z"/>
	<path class="st2" d="M554.3,252.2c0,1.4,0.9,2,2,2c0.8,0,1.2-0.1,1.6-0.3l0.2,0.8c-0.4,0.2-1,0.4-1.9,0.4c-1.8,0-2.9-1.2-2.9-2.9
		s1-3.1,2.7-3.1c1.9,0,2.4,1.7,2.4,2.7c0,0.2,0,0.4,0,0.5L554.3,252.2L554.3,252.2z M557.4,251.4c0-0.7-0.3-1.7-1.5-1.7
		c-1.1,0-1.5,1-1.6,1.7H557.4z"/>
	<path class="st2" d="M559.6,253.8c0.3,0.2,0.9,0.4,1.4,0.4c0.8,0,1.1-0.4,1.1-0.9c0-0.5-0.3-0.8-1.1-1.1c-1.1-0.4-1.5-0.9-1.5-1.6
		c0-0.9,0.8-1.7,2-1.7c0.6,0,1.1,0.2,1.4,0.4l-0.3,0.8c-0.2-0.1-0.6-0.3-1.2-0.3c-0.6,0-1,0.4-1,0.8c0,0.5,0.3,0.7,1.1,1
		c1,0.4,1.5,0.9,1.5,1.7c0,1-0.8,1.8-2.2,1.8c-0.6,0-1.2-0.2-1.6-0.4L559.6,253.8z"/>
	<path class="st2" d="M563.6,256.4c0.3-0.7,0.6-2,0.7-2.9l1.2-0.1c-0.3,1-0.8,2.4-1.2,2.9L563.6,256.4z"/>
	<path class="st2" d="M569.4,246.8h1.1v7.2h3.5v0.9h-4.5V246.8z"/>
	<path class="st2" d="M575,246.8h1.1v7.2h3.5v0.9H575V246.8z"/>
	<path class="st2" d="M585.9,254.6c-0.4,0.2-1.2,0.4-2.1,0.4c-2.3,0-4-1.4-4-4.1c0-2.5,1.7-4.2,4.2-4.2c1,0,1.6,0.2,1.9,0.4
		l-0.3,0.9c-0.4-0.2-0.9-0.3-1.6-0.3c-1.9,0-3.2,1.2-3.2,3.3c0,2,1.1,3.2,3.1,3.2c0.6,0,1.3-0.1,1.7-0.3L585.9,254.6z"/>
	<path class="st2" d="M586.9,254.3c0-0.4,0.3-0.8,0.7-0.8s0.7,0.3,0.7,0.8c0,0.4-0.3,0.8-0.7,0.8C587.2,255,586.9,254.7,586.9,254.3
		z"/>
	<path class="st2" d="M408.2,266.8l-0.8,2.5h-1.1l2.8-8.1h1.2l2.8,8.1H412l-0.9-2.5L408.2,266.8L408.2,266.8z M410.9,265.9l-0.8-2.3
		c-0.2-0.5-0.3-1-0.4-1.5h0c-0.1,0.5-0.2,1-0.4,1.5l-0.8,2.3L410.9,265.9L410.9,265.9z"/>
	<path class="st2" d="M414.2,260.8h1.1v8.5h-1.1V260.8z"/>
	<path class="st2" d="M417,260.8h1.1v8.5H417V260.8z"/>
	<path class="st2" d="M422.4,265.3c0-0.7,0-1.3,0-1.8h0.9l0,1.2h0c0.3-0.8,0.9-1.3,1.6-1.3c0.1,0,0.2,0,0.3,0v1c-0.1,0-0.2,0-0.4,0
		c-0.7,0-1.3,0.6-1.4,1.3c0,0.1,0,0.3,0,0.5v3.1h-1.1V265.3z"/>
	<path class="st2" d="M426.8,266.6c0,1.4,0.9,2,2,2c0.8,0,1.2-0.1,1.6-0.3l0.2,0.8c-0.4,0.2-1,0.4-1.9,0.4c-1.8,0-2.9-1.2-2.9-2.9
		s1-3.1,2.7-3.1c1.9,0,2.4,1.7,2.4,2.7c0,0.2,0,0.4,0,0.5L426.8,266.6L426.8,266.6z M429.9,265.8c0-0.7-0.3-1.7-1.5-1.7
		c-1.1,0-1.5,1-1.6,1.7H429.9z"/>
	<path class="st2" d="M432.2,265.4c0-0.7,0-1.3,0-1.9h0.9l0.1,1h0c0.4-0.7,1.1-1.1,2.1-1.1c1.4,0,2.5,1.2,2.5,2.9
		c0,2.1-1.3,3.1-2.6,3.1c-0.8,0-1.4-0.3-1.8-0.9h0v3.2h-1L432.2,265.4L432.2,265.4z M433.2,266.9c0,0.2,0,0.3,0,0.4
		c0.2,0.7,0.8,1.2,1.6,1.2c1.1,0,1.8-0.9,1.8-2.2c0-1.2-0.6-2.1-1.7-2.1c-0.7,0-1.4,0.5-1.6,1.3c0,0.1-0.1,0.3-0.1,0.4L433.2,266.9
		L433.2,266.9z"/>
	<path class="st2" d="M439,265.3c0-0.7,0-1.3,0-1.8h0.9l0,1.2h0c0.3-0.8,0.9-1.3,1.6-1.3c0.1,0,0.2,0,0.3,0v1c-0.1,0-0.2,0-0.4,0
		c-0.7,0-1.3,0.6-1.4,1.3c0,0.1,0,0.3,0,0.5v3.1H439L439,265.3L439,265.3z"/>
	<path class="st2" d="M448.1,266.4c0,2.1-1.5,3.1-2.9,3.1c-1.6,0-2.8-1.2-2.8-3c0-1.9,1.3-3.1,2.9-3.1
		C447,263.4,448.1,264.6,448.1,266.4z M443.5,266.4c0,1.3,0.7,2.2,1.8,2.2c1,0,1.8-0.9,1.8-2.3c0-1-0.5-2.2-1.7-2.2
		C444,264.2,443.5,265.3,443.5,266.4z"/>
	<path class="st2" d="M454.4,260.8v7c0,0.5,0,1.1,0,1.5h-0.9l0-1h0c-0.3,0.6-1,1.1-2,1.1c-1.4,0-2.5-1.2-2.5-2.9
		c0-1.9,1.2-3.1,2.6-3.1c0.9,0,1.5,0.4,1.8,0.9h0v-3.5H454.4z M453.4,265.9c0-0.1,0-0.3,0-0.4c-0.2-0.7-0.7-1.2-1.5-1.2
		c-1.1,0-1.7,1-1.7,2.2c0,1.2,0.6,2.1,1.7,2.1c0.7,0,1.4-0.5,1.5-1.3c0-0.1,0-0.3,0-0.5L453.4,265.9L453.4,265.9z"/>
	<path class="st2" d="M461.1,267.7c0,0.6,0,1.1,0,1.6h-0.9l-0.1-0.9h0c-0.3,0.5-0.9,1.1-1.9,1.1c-0.9,0-2-0.5-2-2.5v-3.4h1.1v3.2
		c0,1.1,0.3,1.9,1.3,1.9c0.7,0,1.2-0.5,1.4-1c0.1-0.1,0.1-0.3,0.1-0.5v-3.5h1.1L461.1,267.7L461.1,267.7z"/>
	<path class="st2" d="M466.9,269.1c-0.3,0.1-0.9,0.3-1.7,0.3c-1.8,0-2.9-1.2-2.9-3c0-1.8,1.2-3.1,3.1-3.1c0.6,0,1.2,0.2,1.5,0.3
		l-0.2,0.8c-0.3-0.1-0.6-0.3-1.2-0.3c-1.3,0-2.1,1-2.1,2.2c0,1.3,0.9,2.2,2,2.2c0.6,0,1-0.1,1.3-0.3L466.9,269.1z"/>
	<path class="st2" d="M469.6,262.1v1.4h1.5v0.8h-1.5v3.1c0,0.7,0.2,1.1,0.8,1.1c0.3,0,0.5,0,0.6-0.1l0,0.8c-0.2,0.1-0.5,0.1-0.9,0.1
		c-0.5,0-0.9-0.2-1.1-0.4c-0.3-0.3-0.4-0.8-0.4-1.5v-3.2h-0.9v-0.8h0.9v-1.1L469.6,262.1z"/>
	<path class="st2" d="M473.5,261.9c0,0.4-0.3,0.6-0.7,0.6c-0.4,0-0.6-0.3-0.6-0.6c0-0.4,0.3-0.7,0.7-0.7
		C473.2,261.2,473.5,261.5,473.5,261.9z M472.3,269.3v-5.8h1.1v5.8H472.3z"/>
	<path class="st2" d="M480.4,266.4c0,2.1-1.5,3.1-2.9,3.1c-1.6,0-2.8-1.2-2.8-3c0-1.9,1.3-3.1,2.9-3.1
		C479.2,263.4,480.4,264.6,480.4,266.4z M475.8,266.4c0,1.3,0.7,2.2,1.8,2.2c1,0,1.8-0.9,1.8-2.3c0-1-0.5-2.2-1.7-2.2
		C476.3,264.2,475.8,265.3,475.8,266.4z"/>
	<path class="st2" d="M481.7,265.1c0-0.6,0-1.1,0-1.6h0.9l0.1,1h0c0.3-0.5,1-1.1,1.9-1.1c0.8,0,2.1,0.5,2.1,2.5v3.5h-1.1V266
		c0-0.9-0.3-1.7-1.3-1.7c-0.7,0-1.2,0.5-1.4,1.1c0,0.1-0.1,0.3-0.1,0.5v3.5h-1.1L481.7,265.1L481.7,265.1z"/>
	<path class="st2" d="M488.2,268.2c0.3,0.2,0.9,0.4,1.4,0.4c0.8,0,1.1-0.4,1.1-0.9c0-0.5-0.3-0.8-1.1-1.1c-1.1-0.4-1.5-0.9-1.5-1.6
		c0-0.9,0.8-1.7,2-1.7c0.6,0,1.1,0.2,1.4,0.4l-0.3,0.8c-0.2-0.1-0.6-0.3-1.2-0.3c-0.6,0-1,0.4-1,0.8c0,0.5,0.3,0.7,1.1,1
		c1,0.4,1.5,0.9,1.5,1.7c0,1-0.8,1.8-2.2,1.8c-0.6,0-1.2-0.2-1.6-0.4L488.2,268.2z"/>
	<path class="st2" d="M495.7,265.1c0-0.6,0-1.1,0-1.6h0.9l0,0.9h0c0.3-0.6,0.9-1.1,1.8-1.1c0.8,0,1.4,0.5,1.6,1.2h0
		c0.2-0.3,0.4-0.6,0.7-0.8c0.3-0.3,0.7-0.4,1.3-0.4c0.8,0,1.9,0.5,1.9,2.5v3.4h-1V266c0-1.1-0.4-1.8-1.3-1.8c-0.6,0-1.1,0.4-1.3,0.9
		c0,0.2-0.1,0.3-0.1,0.5v3.6h-1v-3.5c0-0.9-0.4-1.6-1.2-1.6c-0.6,0-1.1,0.5-1.3,1.1c-0.1,0.1-0.1,0.3-0.1,0.5v3.5h-1L495.7,265.1
		L495.7,265.1z"/>
	<path class="st2" d="M510.5,267.7c0,0.6,0,1.1,0,1.6h-0.9l-0.1-0.9h0c-0.3,0.5-0.9,1.1-1.9,1.1c-0.9,0-2-0.5-2-2.5v-3.4h1.1v3.2
		c0,1.1,0.3,1.9,1.3,1.9c0.7,0,1.2-0.5,1.4-1c0.1-0.1,0.1-0.3,0.1-0.5v-3.5h1.1L510.5,267.7L510.5,267.7z"/>
	<path class="st2" d="M512.1,268.2c0.3,0.2,0.9,0.4,1.4,0.4c0.8,0,1.1-0.4,1.1-0.9c0-0.5-0.3-0.8-1.1-1.1c-1.1-0.4-1.5-0.9-1.5-1.6
		c0-0.9,0.8-1.7,2-1.7c0.6,0,1.1,0.2,1.4,0.4l-0.3,0.8c-0.2-0.1-0.6-0.3-1.2-0.3c-0.6,0-1,0.4-1,0.8c0,0.5,0.3,0.7,1.1,1
		c1,0.4,1.5,0.9,1.5,1.7c0,1-0.8,1.8-2.2,1.8c-0.6,0-1.2-0.2-1.6-0.4L512.1,268.2z"/>
	<path class="st2" d="M518.3,262.1v1.4h1.5v0.8h-1.5v3.1c0,0.7,0.2,1.1,0.8,1.1c0.3,0,0.5,0,0.6-0.1l0,0.8c-0.2,0.1-0.5,0.1-0.9,0.1
		c-0.5,0-0.9-0.2-1.1-0.4c-0.3-0.3-0.4-0.8-0.4-1.5v-3.2h-0.9v-0.8h0.9v-1.1L518.3,262.1z"/>
	<path class="st2" d="M524.7,261.9c0,0.4-0.3,0.6-0.7,0.6c-0.4,0-0.6-0.3-0.6-0.6c0-0.4,0.3-0.7,0.7-0.7
		C524.5,261.2,524.7,261.5,524.7,261.9z M523.5,269.3v-5.8h1.1v5.8H523.5z"/>
	<path class="st2" d="M526.4,265.1c0-0.6,0-1.1,0-1.6h0.9l0.1,1h0c0.3-0.5,1-1.1,1.9-1.1c0.8,0,2.1,0.5,2.1,2.5v3.5h-1.1V266
		c0-0.9-0.3-1.7-1.3-1.7c-0.7,0-1.2,0.5-1.4,1.1c0,0.1-0.1,0.3-0.1,0.5v3.5h-1.1L526.4,265.1L526.4,265.1z"/>
	<path class="st2" d="M537.2,269.1c-0.3,0.1-0.9,0.3-1.7,0.3c-1.8,0-2.9-1.2-2.9-3c0-1.8,1.2-3.1,3.1-3.1c0.6,0,1.2,0.2,1.5,0.3
		l-0.2,0.8c-0.3-0.1-0.6-0.3-1.2-0.3c-1.3,0-2.1,1-2.1,2.2c0,1.3,0.9,2.2,2,2.2c0.6,0,1-0.1,1.3-0.3L537.2,269.1z"/>
	<path class="st2" d="M538.4,260.8h1.1v8.5h-1.1V260.8z"/>
	<path class="st2" d="M546.1,267.7c0,0.6,0,1.1,0,1.6h-0.9l-0.1-0.9h0c-0.3,0.5-0.9,1.1-1.9,1.1c-0.9,0-2-0.5-2-2.5v-3.4h1.1v3.2
		c0,1.1,0.3,1.9,1.3,1.9c0.7,0,1.2-0.5,1.4-1c0.1-0.1,0.1-0.3,0.1-0.5v-3.5h1.1L546.1,267.7L546.1,267.7z"/>
	<path class="st2" d="M552.8,260.8v7c0,0.5,0,1.1,0,1.5H552l0-1h0c-0.3,0.6-1,1.1-2,1.1c-1.4,0-2.5-1.2-2.5-2.9
		c0-1.9,1.2-3.1,2.6-3.1c0.9,0,1.5,0.4,1.8,0.9h0v-3.5H552.8z M551.8,265.9c0-0.1,0-0.3,0-0.4c-0.2-0.7-0.7-1.2-1.5-1.2
		c-1.1,0-1.7,1-1.7,2.2c0,1.2,0.6,2.1,1.7,2.1c0.7,0,1.4-0.5,1.5-1.3c0-0.1,0-0.3,0-0.5L551.8,265.9L551.8,265.9z"/>
	<path class="st2" d="M555.2,266.6c0,1.4,0.9,2,2,2c0.8,0,1.2-0.1,1.6-0.3l0.2,0.8c-0.4,0.2-1,0.4-1.9,0.4c-1.8,0-2.9-1.2-2.9-2.9
		s1-3.1,2.7-3.1c1.9,0,2.4,1.7,2.4,2.7c0,0.2,0,0.4,0,0.5L555.2,266.6L555.2,266.6z M558.3,265.8c0-0.7-0.3-1.7-1.5-1.7
		c-1.1,0-1.5,1-1.6,1.7H558.3z"/>
	<path class="st2" d="M564.4,262.1v1.4h1.5v0.8h-1.5v3.1c0,0.7,0.2,1.1,0.8,1.1c0.3,0,0.5,0,0.6-0.1l0,0.8c-0.2,0.1-0.5,0.1-0.9,0.1
		c-0.5,0-0.9-0.2-1.1-0.4c-0.3-0.3-0.4-0.8-0.4-1.5v-3.2h-0.9v-0.8h0.9v-1.1L564.4,262.1z"/>
	<path class="st2" d="M567.1,260.8h1.1v3.6h0c0.2-0.3,0.4-0.6,0.8-0.8c0.3-0.2,0.7-0.3,1.1-0.3c0.8,0,2,0.5,2,2.5v3.5H571V266
		c0-0.9-0.3-1.7-1.3-1.7c-0.7,0-1.2,0.5-1.4,1c-0.1,0.2-0.1,0.3-0.1,0.5v3.5h-1.1L567.1,260.8L567.1,260.8z"/>
	<path class="st2" d="M575,261.9c0,0.4-0.3,0.6-0.7,0.6c-0.4,0-0.6-0.3-0.6-0.6c0-0.4,0.3-0.7,0.7-0.7
		C574.7,261.2,575,261.5,575,261.9z M573.8,269.3v-5.8h1.1v5.8H573.8z"/>
	<path class="st2" d="M576.5,268.2c0.3,0.2,0.9,0.4,1.4,0.4c0.8,0,1.1-0.4,1.1-0.9c0-0.5-0.3-0.8-1.1-1.1c-1.1-0.4-1.5-0.9-1.5-1.6
		c0-0.9,0.8-1.7,2-1.7c0.6,0,1.1,0.2,1.4,0.4l-0.3,0.8c-0.2-0.1-0.6-0.3-1.2-0.3c-0.6,0-1,0.4-1,0.8c0,0.5,0.3,0.7,1.1,1
		c1,0.4,1.5,0.9,1.5,1.7c0,1-0.8,1.8-2.2,1.8c-0.6,0-1.2-0.2-1.6-0.4L576.5,268.2z"/>
	<path class="st2" d="M585.2,262.1v1.4h1.5v0.8h-1.5v3.1c0,0.7,0.2,1.1,0.8,1.1c0.3,0,0.5,0,0.6-0.1l0,0.8c-0.2,0.1-0.5,0.1-0.9,0.1
		c-0.5,0-0.9-0.2-1.1-0.4c-0.3-0.3-0.4-0.8-0.4-1.5v-3.2h-0.9v-0.8h0.9v-1.1L585.2,262.1z"/>
	<path class="st2" d="M588.4,266.6c0,1.4,0.9,2,2,2c0.8,0,1.2-0.1,1.6-0.3l0.2,0.8c-0.4,0.2-1,0.4-1.9,0.4c-1.8,0-2.9-1.2-2.9-2.9
		s1-3.1,2.7-3.1c1.9,0,2.4,1.7,2.4,2.7c0,0.2,0,0.4,0,0.5L588.4,266.6L588.4,266.6z M591.5,265.8c0-0.7-0.3-1.7-1.5-1.7
		c-1.1,0-1.5,1-1.6,1.7H591.5z"/>
	<path class="st2" d="M594.3,263.5l0.8,1.2c0.2,0.3,0.4,0.6,0.6,0.9h0c0.2-0.3,0.4-0.6,0.6-0.9l0.8-1.2h1.1l-2,2.8l2,3h-1.2
		l-0.9-1.3c-0.2-0.3-0.4-0.7-0.6-1h0c-0.2,0.3-0.4,0.7-0.6,1l-0.8,1.3H593l2.1-3l-2-2.8L594.3,263.5L594.3,263.5z"/>
	<path class="st2" d="M600.8,262.1v1.4h1.5v0.8h-1.5v3.1c0,0.7,0.2,1.1,0.8,1.1c0.3,0,0.5,0,0.6-0.1l0,0.8c-0.2,0.1-0.5,0.1-0.9,0.1
		c-0.5,0-0.9-0.2-1.1-0.4c-0.3-0.3-0.4-0.8-0.4-1.5v-3.2h-0.9v-0.8h0.9v-1.1L600.8,262.1z"/>
	<path class="st2" d="M603.2,268.7c0-0.4,0.3-0.8,0.7-0.8c0.4,0,0.7,0.3,0.7,0.8c0,0.4-0.3,0.8-0.7,0.8
		C603.5,269.4,603.2,269.1,603.2,268.7z"/>
	<polygon class="st3" points="360.7,493.9 169.7,493.9 169.7,412.3 169.7,405.2 196.2,405.2 360.7,405.2 	"/>
	<rect x="368.9" y="399.5" class="st3" width="276.7" height="88.7"/>
</g>
<g id="Layer_2">
	<rect x="145.4" y="122.3" class="st3" width="276.7" height="88.7"/>
	<rect x="427.8" y="116.6" class="st3" width="191" height="95.8"/>
	<rect x="143.4" y="216.7" class="st3" width="249.4" height="177.2"/>
</g>
</svg>
