<?xml version="1.0" encoding="utf-8"?>
<!-- Generator: Adobe Illustrator 22.1.0, SVG Export Plug-In . SVG Version: 6.00 Build 0)  -->
<svg version="1.1" id="Layer_1" xmlns="http://www.w3.org/2000/svg" xmlns:xlink="http://www.w3.org/1999/xlink" x="0px" y="0px"
	 width="1440px" height="864px" viewBox="0 0 1440 864" style="enable-background:new 0 0 1440 864;" xml:space="preserve">
<style type="text/css">
	.st0{fill:none;stroke:#010101;stroke-width:0.7087;stroke-linecap:round;stroke-linejoin:round;stroke-miterlimit:10;}
	.st1{fill:none;stroke:#000000;stroke-width:0.7087;stroke-linecap:round;stroke-linejoin:round;stroke-miterlimit:10;}
</style>
<g>
	<path class="st0" d="M828.1,256.8"/>
	<polyline class="st0" points="295.2,203.8 221.2,203.8 221.2,164.1 212.7,164.1 212.7,144.6 221.2,144.6 221.2,113.1 212.7,113.1 
		212.7,96.1 221.2,96.1 221.2,64.9 212.7,64.9 212.7,47.9 221.2,47.9 221.2,33.7 912.9,33.7 912.9,47.6 921.4,47.6 921.4,64.9 
		912.9,64.9 912.9,110 921.4,110 921.4,127.3 912.9,127.3 912.9,170.9 921.4,170.9 921.4,187.9 912.9,187.9 912.9,203.8 	"/>
	<polyline class="st0" points="693.7,203.8 439.8,203.8 436.9,203.8 	"/>
	<path class="st0" d="M403.2,73.4c0,17.6-14.5,32-32,32c-17.6,0-32-14.5-32-32c0-17.6,14.5-32,32-32S403.2,55.8,403.2,73.4
		L403.2,73.4z"/>
	<g id="LINE_37_">
		<polyline class="st0" points="693.7,212.3 835.5,212.3 835.5,203.8 912.9,203.8 		"/>
	</g>
	<line class="st0" x1="693.7" y1="212.3" x2="693.7" y2="203.8"/>
	<line class="st0" x1="436.9" y1="212.3" x2="436.9" y2="203.8"/>
	<line class="st0" x1="436.9" y1="212.3" x2="295.2" y2="212.3"/>
	<line class="st0" x1="295.2" y1="212.3" x2="295.2" y2="203.8"/>
	<path class="st0" d="M907.8,203.8"/>
	<path class="st0" d="M907.8,203.8"/>
</g>
<g>
	<polyline class="st0" points="695,646.5 695,638 836.7,638 836.7,646.5 	"/>
	<line class="st0" x1="219.9" y1="705.7" x2="211.4" y2="705.7"/>
	<line class="st0" x1="211.4" y1="705.7" x2="211.4" y2="686.2"/>
	<line class="st0" x1="211.4" y1="705.7" x2="211.4" y2="686.2"/>
	<line class="st0" x1="211.4" y1="686.2" x2="219.9" y2="686.2"/>
	<line class="st0" x1="219.9" y1="686.2" x2="219.9" y2="646.5"/>
	<line class="st0" x1="219.9" y1="646.5" x2="296.4" y2="646.5"/>
	<line class="st0" x1="296.4" y1="646.5" x2="296.4" y2="638"/>
	<line class="st0" x1="296.4" y1="638" x2="438.2" y2="638"/>
	<line class="st0" x1="219.9" y1="646.5" x2="296.4" y2="646.5"/>
	<polyline class="st0" points="836.7,646.5 836.7,646.5 844.1,646.5 911.5,646.5 	"/>
	<polyline class="st0" points="438.2,638 438.2,646.5 683.6,646.5 695,646.5 	"/>
	<line class="st0" x1="695" y1="646.5" x2="695" y2="638"/>
	<line class="st0" x1="836.7" y1="638" x2="836.7" y2="646.5"/>
	<line class="st0" x1="911.5" y1="646.5" x2="911.5" y2="662.4"/>
	<line class="st0" x1="911.5" y1="646.5" x2="911.5" y2="662.4"/>
	<line class="st0" x1="911.5" y1="662.4" x2="920" y2="662.4"/>
	<line class="st0" x1="920" y1="662.4" x2="920" y2="679.4"/>
	<line class="st0" x1="920" y1="679.4" x2="920" y2="662.4"/>
	<line class="st0" x1="920" y1="679.4" x2="911.5" y2="679.4"/>
	<line class="st0" x1="911.5" y1="679.4" x2="911.5" y2="723"/>
	<line class="st0" x1="911.5" y1="679.4" x2="911.5" y2="723"/>
	<line class="st0" x1="911.5" y1="723" x2="920" y2="723"/>
	<line class="st0" x1="920" y1="723" x2="920" y2="740.3"/>
	<line class="st0" x1="920" y1="723" x2="920" y2="740.3"/>
	<line class="st0" x1="920" y1="740.3" x2="911.5" y2="740.3"/>
	<line class="st0" x1="911.5" y1="740.3" x2="911.5" y2="785.4"/>
	<line class="st0" x1="911.5" y1="740.3" x2="911.5" y2="785.4"/>
	<line class="st0" x1="911.5" y1="785.4" x2="920" y2="785.4"/>
	<line class="st0" x1="920" y1="785.4" x2="920" y2="802.7"/>
	<line class="st0" x1="920" y1="802.7" x2="911.5" y2="802.7"/>
	<line class="st0" x1="911.5" y1="802.7" x2="911.5" y2="816.6"/>
	<line class="st0" x1="911.5" y1="816.6" x2="219.9" y2="816.6"/>
	<line class="st0" x1="219.9" y1="816.6" x2="219.9" y2="802.4"/>
	<line class="st0" x1="219.9" y1="802.4" x2="211.4" y2="802.4"/>
	<line class="st0" x1="211.4" y1="802.4" x2="211.4" y2="785.4"/>
	<line class="st0" x1="211.4" y1="785.4" x2="219.9" y2="785.4"/>
	<line class="st0" x1="219.9" y1="785.4" x2="219.9" y2="754.2"/>
	<line class="st0" x1="219.9" y1="754.2" x2="211.4" y2="754.2"/>
	<line class="st0" x1="211.4" y1="754.2" x2="211.4" y2="737.2"/>
	<line class="st0" x1="211.4" y1="737.2" x2="219.9" y2="737.2"/>
	<line class="st0" x1="219.9" y1="737.2" x2="219.9" y2="705.7"/>
</g>
<g>
	<g id="LWPOLYLINE_1_">
		<polyline class="st0" points="199.2,280.2 207.7,280.2 207.7,351 199.2,351 		"/>
	</g>
	<g id="LINE_73_">
		<line class="st0" x1="29.1" y1="634.5" x2="29.1" y2="209.3"/>
	</g>
	<g id="LINE_72_">
		<line class="st0" x1="159.5" y1="209.3" x2="199.2" y2="209.3"/>
		<line class="st0" x1="108.5" y1="209.3" x2="140" y2="209.3"/>
		<line class="st0" x1="60.3" y1="209.3" x2="91.5" y2="209.3"/>
		<line class="st0" x1="29.1" y1="209.3" x2="43.3" y2="209.3"/>
	</g>
	<g id="LINE_71_">
		<line class="st0" x1="199.2" y1="280.2" x2="199.2" y2="209.3"/>
	</g>
	<g id="LINE_70_">
		<line class="st0" x1="207.7" y1="280.2" x2="199.2" y2="280.2"/>
	</g>
	<g id="LINE_69_">
		<line class="st0" x1="199.2" y1="351" x2="199.2" y2="492.7"/>
	</g>
	<g id="LINE_68_">
		<line class="st0" x1="199.2" y1="492.7" x2="207.7" y2="492.7"/>
	</g>
	<g id="LINE_67_">
		<line class="st0" x1="207.7" y1="351" x2="199.2" y2="351"/>
	</g>
	<g id="LINE_66_">
		<line class="st0" x1="199.2" y1="563.6" x2="199.2" y2="634.5"/>
	</g>
	<g id="LINE_65_">
		<path class="st0" d="M199.2,634.5"/>
	</g>
	<g id="LINE_64_">
		<line class="st0" x1="207.7" y1="492.7" x2="207.7" y2="563.6"/>
	</g>
	<g id="LINE_63_">
		<line class="st0" x1="207.7" y1="563.6" x2="199.2" y2="563.6"/>
	</g>
	<g id="LINE_62_">
		<line class="st0" x1="159.5" y1="626" x2="159.5" y2="634.5"/>
	</g>
	<g id="LINE_61_">
		<path class="st0" d="M140,634.5"/>
		<path class="st0" d="M159.5,634.5"/>
	</g>
	<g id="LINE_60_">
		<line class="st0" x1="140" y1="634.5" x2="140" y2="626"/>
	</g>
	<g id="LINE_59_">
		<line class="st0" x1="140" y1="626" x2="159.5" y2="626"/>
	</g>
	<g id="LINE_58_">
		<line class="st0" x1="108.5" y1="626" x2="108.5" y2="634.5"/>
	</g>
	<g id="LINE_57_">
		<path class="st0" d="M91.5,634.5"/>
		<path class="st0" d="M108.5,634.5"/>
	</g>
	<g id="LINE_56_">
		<line class="st0" x1="91.5" y1="634.5" x2="91.5" y2="626"/>
	</g>
	<g id="LINE_55_">
		<line class="st0" x1="91.5" y1="626" x2="108.5" y2="626"/>
	</g>
	<g id="LINE_54_">
		<line class="st0" x1="60.3" y1="626" x2="60.3" y2="634.5"/>
	</g>
	<g id="LINE_53_">
		<path class="st0" d="M43.3,634.5"/>
		<path class="st0" d="M60.3,634.5"/>
	</g>
	<g id="LINE_52_">
		<line class="st0" x1="43.3" y1="634.5" x2="43.3" y2="626"/>
	</g>
	<g id="LINE_51_">
		<line class="st0" x1="43.3" y1="626" x2="60.3" y2="626"/>
	</g>
	<g id="LINE_50_">
		<line class="st0" x1="43.3" y1="217.8" x2="43.3" y2="209.3"/>
	</g>
	<g id="LINE_49_">
		<line class="st0" x1="60.3" y1="209.3" x2="60.3" y2="217.8"/>
	</g>
	<g id="LINE_48_">
		<line class="st0" x1="60.3" y1="217.8" x2="43.3" y2="217.8"/>
	</g>
	<g id="LINE_47_">
		<line class="st0" x1="91.5" y1="217.8" x2="91.5" y2="209.3"/>
	</g>
	<g id="LINE_46_">
		<line class="st0" x1="108.5" y1="209.3" x2="108.5" y2="217.8"/>
	</g>
	<g id="LINE_45_">
		<line class="st0" x1="108.5" y1="217.8" x2="91.5" y2="217.8"/>
	</g>
	<g id="LINE_44_">
		<line class="st0" x1="140" y1="217.8" x2="140" y2="209.3"/>
	</g>
	<g id="LINE_43_">
		<line class="st0" x1="159.5" y1="209.3" x2="159.5" y2="217.8"/>
	</g>
	<g id="LINE_42_">
		<line class="st0" x1="159.5" y1="217.8" x2="140" y2="217.8"/>
	</g>
	<g id="LINE_41_">
		<line class="st0" x1="199.2" y1="634.5" x2="159.5" y2="634.5"/>
	</g>
	<g id="LINE_40_">
		<line class="st0" x1="140" y1="634.5" x2="108.5" y2="634.5"/>
	</g>
	<g id="LINE_39_">
		<line class="st0" x1="91.5" y1="634.5" x2="60.3" y2="634.5"/>
	</g>
	<g id="LINE_38_">
		<line class="st0" x1="43.3" y1="634.5" x2="29.1" y2="634.5"/>
	</g>
</g>
<path class="st0" d="M531.7,421.9c0-18.7,15.3-34,34-34s34,15.3,34,34s-15.3,34-34,34S531.7,440.6,531.7,421.9L531.7,421.9z"/>
<path class="st0" d="M211.4,209.3"/>
<path class="st0" d="M211.4,634.5"/>
<path class="st0" d="M920,634.5"/>
<path class="st0" d="M920,209.3"/>
<line class="st0" x1="294.7" y1="634.5" x2="211.4" y2="634.5"/>
<line class="st0" x1="693.3" y1="634.5" x2="436.5" y2="634.5"/>
<line class="st0" x1="920" y1="634.5" x2="835" y2="634.5"/>
<line class="st0" x1="835" y1="209.3" x2="920" y2="209.3"/>
<line class="st0" x1="436.5" y1="209.3" x2="693.3" y2="209.3"/>
<line class="st0" x1="211.4" y1="209.3" x2="294.7" y2="209.3"/>
<line class="st0" x1="693.3" y1="634.5" x2="693.3" y2="626"/>
<line class="st0" x1="693.3" y1="626" x2="835" y2="626"/>
<line class="st0" x1="835" y1="626" x2="835" y2="634.5"/>
<line class="st0" x1="920" y1="563.6" x2="911.5" y2="563.6"/>
<line class="st0" x1="911.5" y1="563.6" x2="911.5" y2="492.7"/>
<line class="st0" x1="911.5" y1="492.7" x2="920" y2="492.7"/>
<line class="st0" x1="920" y1="563.6" x2="920" y2="563.6"/>
<line class="st0" x1="920" y1="492.7" x2="920" y2="492.7"/>
<line class="st0" x1="920" y1="351" x2="911.5" y2="351"/>
<line class="st0" x1="911.5" y1="351" x2="911.5" y2="280.2"/>
<line class="st0" x1="911.5" y1="280.2" x2="920" y2="280.2"/>
<line class="st0" x1="835" y1="217.8" x2="693.3" y2="217.8"/>
<line class="st0" x1="693.3" y1="217.8" x2="693.3" y2="209.3"/>
<line class="st0" x1="835" y1="209.3" x2="835" y2="217.8"/>
<line class="st0" x1="436.5" y1="217.8" x2="294.7" y2="217.8"/>
<line class="st0" x1="294.7" y1="217.8" x2="294.7" y2="209.3"/>
<line class="st0" x1="436.5" y1="209.3" x2="436.5" y2="217.8"/>
<line class="st0" x1="219.9" y1="351" x2="211.4" y2="351"/>
<line class="st0" x1="211.4" y1="280.2" x2="219.9" y2="280.2"/>
<line class="st0" x1="219.9" y1="280.2" x2="219.9" y2="351"/>
<line class="st0" x1="219.9" y1="563.6" x2="211.4" y2="563.6"/>
<line class="st0" x1="211.4" y1="492.7" x2="211.4" y2="492.7"/>
<line class="st0" x1="211.4" y1="563.6" x2="211.4" y2="563.6"/>
<line class="st0" x1="211.4" y1="492.7" x2="219.9" y2="492.7"/>
<line class="st0" x1="219.9" y1="492.7" x2="219.9" y2="563.6"/>
<line class="st0" x1="294.7" y1="634.5" x2="294.7" y2="626"/>
<line class="st0" x1="294.7" y1="626" x2="436.5" y2="626"/>
<line class="st0" x1="436.5" y1="626" x2="436.5" y2="634.5"/>
<line class="st0" x1="920" y1="351" x2="920" y2="492.7"/>
<line class="st0" x1="920" y1="209.3" x2="920" y2="280.2"/>
<line class="st0" x1="920" y1="563.6" x2="920" y2="634.5"/>
<line class="st0" x1="211.4" y1="634.5" x2="211.4" y2="563.6"/>
<line class="st0" x1="211.4" y1="280.2" x2="211.4" y2="209.3"/>
<line class="st0" x1="211.4" y1="492.7" x2="211.4" y2="351"/>
<path class="st0" d="M531.7,421.9c0-18.7,15.3-34,34-34s34,15.3,34,34s-15.3,34-34,34S531.7,440.6,531.7,421.9L531.7,421.9z"/>
<g>
	<polygon class="st1" points="941.4,634.4 957.2,634.4 957.2,625.9 974.4,625.9 974.4,634.4 1017.9,634.4 1017.9,625.9 
		1035.1,625.9 1035.1,634.4 1080.3,634.4 1080.3,625.9 1097.6,625.9 1097.6,634.4 1111.5,634.4 1111.5,209.3 1097.6,209.3 
		1097.6,217.8 1080.3,217.8 1080.3,209.3 1035.1,209.3 1035.1,217.8 1017.9,217.8 1017.9,209.3 974.4,209.3 974.4,217.8 
		957.2,217.8 957.2,209.3 941.4,209.3 941.4,280.1 932.9,280.1 932.9,351 941.4,351 941.4,492.7 932.9,492.7 932.9,563.6 
		941.4,563.6 	"/>
</g>
</svg>
