<?xml version="1.0" encoding="utf-8"?>
<!-- Generator: Adobe Illustrator 24.3.0, SVG Export Plug-In . SVG Version: 6.00 Build 0)  -->
<svg version="1.1" id="Layer_1" xmlns="http://www.w3.org/2000/svg" xmlns:xlink="http://www.w3.org/1999/xlink" x="0px" y="0px"
	 viewBox="0 0 623.6 623.6" style="enable-background:new 0 0 623.6 623.6;" xml:space="preserve">
<style type="text/css">
	.st0{fill:none;stroke:#FF0000;stroke-width:0.25;}
	.st1{fill:none;stroke:#0000FF;stroke-width:0.25;}
</style>
<polygon class="st0" points="52.4,104.9 56.5,103.7 74.6,107.5 77.6,115.6 52.4,118.5 "/>
<polygon class="st0" points="52.4,123.8 80.7,120.5 85.9,125.5 66.7,139.4 61.3,140.3 52.4,139.4 "/>
<polygon class="st0" points="52.4,144.7 58,145.2 71,168.1 57.1,171.2 52.4,169.4 "/>
<polygon class="st0" points="60.8,81.7 108.9,96.2 78.6,102.8 60.8,99.1 "/>
<polygon class="st0" points="61.2,184.4 67.1,191.3 61.6,193.9 "/>
<polygon class="st0" points="63.8,175.3 76.7,172.4 86,174.7 88.8,184.6 74.9,188.5 "/>
<polygon class="st0" points="67.5,144.7 69.2,144.4 121.5,156.2 89.5,169.9 80.6,167.8 "/>
<polygon class="st0" points="68.4,78.1 118,70.2 133.1,70.2 140.5,82.6 118.9,93.3 "/>
<polygon class="st0" points="69.5,196.9 75.4,194.1 93.5,189 112.8,196.9 "/>
<polygon class="st0" points="76.8,140.6 94.1,128.1 120.3,126 131,131.2 128.8,152.2 "/>
<polygon class="st0" points="84,107.1 115,100.4 116.9,121 94,122.9 87.5,116.7 "/>
<polygon class="st0" points="95.3,174 129.3,159.4 139.4,182.8 120.9,193.8 98.3,184.6 "/>
<polygon class="st0" points="124.1,97.7 146.7,86.4 158,89.4 166.5,119.6 136.6,127.1 126.4,122 "/>
<polygon class="st0" points="126.1,198.3 146.2,186.4 168.1,188.4 176.8,199 126.1,199 "/>
<polygon class="st0" points="138.5,158.4 196.2,163.6 172.2,182 169.7,183.4 148.4,181.3 "/>
<polygon class="st0" points="138.5,148.8 140.3,131.8 171.7,124 198.8,131 "/>
<polygon class="st0" points="142.1,153.5 206.3,134.6 209.5,157.9 203.9,159.1 "/>
<polygon class="st0" points="142.9,70.2 195.7,70.2 170.9,84.6 163,85 149.7,81.5 "/>
<polygon class="st0" points="167.6,90 172.4,89.7 229.5,102 234,115.7 209.5,128.1 176,119.4 "/>
<polygon class="st0" points="176.9,186.7 177.2,186.5 218.9,192.2 215.1,199 187,199 "/>
<polygon class="st0" points="181.3,86.1 208.7,70.2 231.8,70.2 236.5,92.1 231.6,96.9 "/>
<polygon class="st0" points="183.6,182.1 207.4,163.9 212.6,162.7 228.7,180 222.2,187.3 "/>
<polygon class="st0" points="215.3,132.1 240.3,119.5 253.9,121.9 259.2,141.6 244,154.1 218.7,156.9 "/>
<polygon class="st0" points="222.2,161.8 246.8,159 286.1,163.6 286.1,177.3 259.3,180.6 237.1,177.7 "/>
<polygon class="st0" points="224.9,199 229.2,191.3 236.4,183 254.8,185.4 255.6,199 "/>
<polygon class="st0" points="238.6,100.6 244.5,94.8 258.5,92.3 286.1,97.7 286.1,114.8 259.6,117.4 258.9,117.4 243.2,114.6 "/>
<polygon class="st0" points="241.2,70.2 267.1,70.2 277.6,76.8 256.2,87.3 245.3,89.2 "/>
<polygon class="st0" points="254.5,154.6 265.4,145.7 286.1,152.5 286.1,158.3 "/>
<polygon class="st0" points="264.1,185.3 286.1,182.6 286.1,199 265,199 "/>
<polygon class="st0" points="265.3,129 286.1,146.1 286.1,146.5 268.3,140.6 "/>
<polygon class="st0" points="267.6,88.6 285.8,79.7 286.1,79.7 286.1,92.2 "/>
<polygon class="st0" points="267.8,121.8 286.1,120.1 286.1,136.9 "/>
<polygon class="st0" points="279.5,70.2 286.1,70.2 286.1,74.3 "/>
<polygon class="st0" points="328.1,68.4 338.1,68.4 334.6,73.4 330.5,73.9 328.1,73.2 "/>
<polygon class="st0" points="328.1,93.7 330.8,92.9 337.2,96.6 328.1,105.3 "/>
<polygon class="st0" points="328.1,115.5 358,127.9 356.9,134.9 353.7,138.3 328.1,147.7 "/>
<polygon class="st0" points="328.1,153.9 356.5,143.5 364,147.9 382.8,175.6 378,178 328.1,185.4 "/>
<polygon class="st0" points="328.1,190.7 378.3,183.3 393.7,196.1 394.4,197.2 328.1,197.2 "/>
<polygon class="st0" points="332.9,111 345.8,98.6 373.6,97.1 380.6,99 381.7,99.5 384,108.2 362.1,123.1 "/>
<polygon class="st0" points="334.8,78.6 338,78.3 351.9,79.7 366.4,92.3 344.8,93.5 336.2,88.5 "/>
<polygon class="st0" points="344.4,73.7 348.1,68.4 363.2,68.4 353,74.6 "/>
<polygon class="st0" points="360.6,77.7 375.8,68.4 376.5,68.4 378.2,92.6 377.6,92.5 "/>
<polygon class="st0" points="362.9,139.7 364.1,138.4 431.4,143.5 431.1,145.1 397.6,151.7 370.8,144.5 "/>
<polygon class="st0" points="366.5,133.4 367.4,127.7 390.5,112 442.5,122.4 443.7,129.4 433.9,138.5 "/>
<polygon class="st0" points="376.5,151.7 392.9,156.2 395.4,172.2 391,173.1 "/>
<polygon class="st0" points="385.8,68.4 407.7,81 401.7,86.9 387.6,93.9 "/>
<polygon class="st0" points="386.4,180.7 390.7,178.6 401.2,176.5 444.2,175.9 445.2,176.4 399.4,191.5 "/>
<polygon class="st0" points="391,99.1 406.3,91.6 442.1,100.7 441.8,116.8 393.2,107.1 "/>
<polygon class="st0" points="398.7,68.4 442.1,68.4 414.3,77.4 "/>
<polygon class="st0" points="402.3,156.2 432.1,150.4 440.2,170.8 404.7,171.3 "/>
<polygon class="st0" points="403.6,196.1 446.5,182 448.1,197.2 404.2,197.2 "/>
<polygon class="st0" points="412,87.4 416.9,82.5 455,70.2 459.9,76.3 444.5,95.6 "/>
<polygon class="st0" points="440.3,146.8 441,142.1 450.4,133.3 480,140.5 495.9,153.6 464.4,170.8 452.1,172.9 450.2,171.9 "/>
<polygon class="st0" points="451.1,116.8 451.5,99.6 466.9,80.3 487.4,88.8 482.4,108.5 "/>
<polygon class="st0" points="451.8,122.4 486.8,113.1 511.5,118.9 514.5,121.4 482.4,135.5 452.9,128.2 "/>
<polygon class="st0" points="455.4,177.7 466.6,175.8 533.1,191.5 539.4,197.2 457.5,197.2 "/>
<polygon class="st0" points="463.8,68.4 561.7,68.4 561.7,73.3 521.1,84 493.8,85 468.8,74.7 "/>
<polygon class="st0" points="475.1,172.2 503.8,156.6 506.5,156.6 526.2,161.6 530.9,185.4 "/>
<polygon class="st0" points="489.4,139 521.3,125 526,126.3 504.6,151.4 504.5,151.4 "/>
<polygon class="st0" points="491.8,108.7 496.5,90 517.3,89.3 515.4,108.8 512,113.4 "/>
<polygon class="st0" points="513.8,152.8 534.9,128 538.9,128.2 561.7,138.4 561.7,146.7 530.3,156.9 "/>
<polygon class="st0" points="519.9,116.5 523.7,111.2 556.3,102.6 538,123 533.4,122.7 524,119.9 "/>
<polygon class="st0" points="525.1,105.1 526.8,88.2 561.7,79 561.7,95.5 "/>
<polygon class="st0" points="535.6,161.2 561.7,152.7 561.7,165.1 544.4,191.9 540.9,188.6 "/>
<polygon class="st0" points="546.6,125 561.7,108.2 561.7,131.8 "/>
<polygon class="st0" points="52.6,267.4 58.4,259.7 67.2,276.5 52.6,279.1 "/>
<polygon class="st0" points="52.6,291.6 56.4,297.8 52.6,300.7 "/>
<polygon class="st0" points="52.6,309.5 63.3,301.3 99.3,307.9 52.6,323.3 "/>
<polygon class="st0" points="52.6,329.3 105.2,312 102.2,319.2 80.4,345.4 52.6,332.8 "/>
<polygon class="st0" points="52.6,339.4 78.8,351.4 79.1,351.6 67.6,372.5 52.6,379.2 "/>
<polygon class="st0" points="56,384.3 72.6,376.9 113.5,384.3 "/>
<polygon class="st0" points="57.7,283.6 73.7,280.8 74.6,280.8 86.4,281.9 109.1,296.4 105.9,303.7 65.2,296.2 "/>
<polygon class="st0" points="65.9,255.5 75.4,255.5 72.5,268.1 "/>
<polygon class="st0" points="77.4,372.4 87.8,353.5 113.4,352.8 133.1,353.7 143.2,360.3 133.5,382.5 "/>
<polygon class="st0" points="80.1,276.1 84.8,255.5 101.8,255.5 98.4,264.5 86.3,276.6 "/>
<polygon class="st0" points="88.3,348.4 104,329.4 108.2,347.8 "/>
<polygon class="st0" points="94.5,279.1 104.5,269.1 141.7,282.4 115,292.3 "/>
<polygon class="st0" points="108.1,264.2 111.4,255.5 184.3,255.5 183.2,264.4 150.2,279.3 "/>
<polygon class="st0" points="111.4,320.2 114.3,313.4 141.6,324.4 141.7,325.5 131.8,348.5 117.6,347.8 "/>
<polygon class="st0" points="114.2,306.8 118.3,297.3 148.7,286 162.1,315.4 146.6,320.1 114.6,307.2 "/>
<polygon class="st0" points="140.5,350.6 149.4,329.8 190.1,343.3 190.5,343.7 173.5,355.8 150.3,357 "/>
<polygon class="st0" points="142.4,384.3 152,362.1 174.3,360.9 186,366.6 202.3,378.8 204.7,384.3 "/>
<polygon class="st0" points="151.5,324.5 169.1,319.1 186.2,317.5 188.5,336.7 "/>
<polygon class="st0" points="156.9,282.9 186.2,269.7 201.1,307.5 188.8,312 171,313.7 "/>
<polygon class="st0" points="182.3,357.9 198.4,346.5 204.1,346.1 230.5,352 190.4,361.8 "/>
<polygon class="st0" points="192.5,265 193.7,255.5 286.2,255.5 286.2,263.8 268.3,281.1 193.9,266.2 193.7,266.1 "/>
<polygon class="st0" points="195.4,315.7 206.8,311.5 218.8,314.3 225,318.6 201.9,341.1 198.7,341.3 198.4,340.8 "/>
<polygon class="st0" points="196.7,365.9 229.7,357.8 206.8,373.5 "/>
<polygon class="st0" points="197.6,274.4 246.3,296.5 220.8,309.2 210.3,306.8 "/>
<polygon class="st0" points="211.5,342.2 231.9,322.3 278.6,346.8 277.8,347.2 244.4,349.5 243.7,349.4 "/>
<polygon class="st0" points="211.7,378.4 246.6,354.5 272.8,352.7 259.5,373.6 247.9,384.3 214.3,384.3 "/>
<polygon class="st0" points="216.1,276.1 265.6,286.1 265.2,291.5 254.4,293.5 "/>
<polygon class="st0" points="228.2,312.5 255.8,298.7 268.4,296.3 279,302.6 233.1,316 "/>
<polygon class="st0" points="240.4,319.6 286.2,306.3 286.2,343.7 "/>
<polygon class="st0" points="258.8,384.3 265.2,378.4 280.8,384.3 "/>
<polygon class="st0" points="269.3,373.7 283.7,351.2 286.2,350 286.2,380.1 "/>
<polygon class="st0" points="274.5,292.3 275,285 286.2,274.2 286.2,299.3 "/>
<polygon class="st0" points="327.4,263.6 368.9,280.2 327.4,309.8 "/>
<polygon class="st0" points="327.4,319.7 346.2,327.6 327.4,345.8 "/>
<polygon class="st0" points="327.4,359.5 360.2,358.6 336.4,373.4 332.1,374 327.4,372.2 "/>
<polygon class="st0" points="329.3,258 385.7,255.1 417.3,255.1 407.3,275.7 402.1,278.1 377.2,277.2 "/>
<polygon class="st0" points="329.5,354.3 354.3,330.1 356.9,330.6 364,353.3 "/>
<polygon class="st0" points="331.9,315.1 377.7,282.4 399.8,283.2 407.2,303.7 384,322.3 361.3,326 354.5,324.6 "/>
<polygon class="st0" points="334.8,383.9 335,383.1 336.7,383.9 "/>
<polygon class="st0" points="339.4,378.3 339.5,378.2 366.7,379.7 365.4,383.9 350.5,383.9 "/>
<polygon class="st0" points="348.6,373.6 371.1,359.6 385.2,364.6 370.1,374.7 "/>
<polygon class="st0" points="366.4,330.6 385.5,327.5 404.4,339.2 412,357.1 401.2,361.5 393.7,361.4 373.8,354.4 "/>
<polygon class="st0" points="374.8,383.9 376.5,378.5 394.4,366.5 399,366.6 407.2,383.9 "/>
<polygon class="st0" points="392.9,324.3 413.4,307.9 430.1,314.2 423.1,330 409.6,334.7 "/>
<polygon class="st0" points="408,365.1 419,360.7 436.5,360.2 451.6,364 460.7,383.9 416.8,383.9 "/>
<polygon class="st0" points="408.8,281.7 412.9,279.8 463.2,284.4 475,291.6 475.1,291.8 453.1,304.3 434.8,309.7 416.4,302.8 "/>
<polygon class="st0" points="414,339.2 427.4,334.6 443.3,339.1 433.9,355.1 420.9,355.5 "/>
<polygon class="st0" points="417.3,275 427,255.1 496.5,255.1 463.5,279.2 "/>
<polygon class="st0" points="432.6,330.3 438.1,317.9 440,318.8 452.2,332 447.9,334.6 "/>
<polygon class="st0" points="442.5,313.3 456.1,309.3 467.6,312.3 465.4,313.9 445.2,314.5 "/>
<polygon class="st0" points="443.1,356.2 453,339.1 459.7,335 475,335.4 501.7,343 485.5,351.8 455.6,359.4 "/>
<polygon class="st0" points="451.1,319.5 465.8,319.1 470.7,322.2 471.3,330.2 460.7,329.9 "/>
<polygon class="st0" points="461.1,363.6 485.3,357.5 501.2,383.9 470.3,383.9 "/>
<polygon class="st0" points="463.9,305.6 479.4,296.8 487.6,304.1 474.4,308.4 "/>
<polygon class="st0" points="471.6,281.9 508.2,255.1 544.2,255.1 517.6,279.6 480.6,287.3 "/>
<polygon class="st0" points="473.8,316.3 477.9,313.2 488,309.9 487,313.5 476.1,317.8 "/>
<polygon class="st0" points="480.1,322.5 488.8,319.1 498.3,336.2 480.8,331.3 "/>
<polygon class="st0" points="484.9,291.9 517.1,285.2 522.9,304.3 496.9,302.5 "/>
<polygon class="st0" points="493.5,354.7 510.8,345.2 515.5,345.1 536.4,367.6 517.2,383.9 511.1,383.9 "/>
<polygon class="st0" points="496.1,314.8 498,307.8 526.8,309.8 529.2,310.7 519.2,338.4 516.3,340 510.5,340.1 510.1,339.9 "/>
<polygon class="st0" points="524,343 525.5,342.2 556.6,340.7 556.6,365.7 544.8,365.3 "/>
<polygon class="st0" points="525.6,282.2 555.1,255.1 561.1,255.1 561.1,298.8 557.8,302.9 535.2,306.7 532.8,305.8 "/>
<polygon class="st0" points="528.3,383.9 544.2,370.4 555.9,370.9 552.5,383.9 "/>
<polygon class="st0" points="529.3,336.9 538.4,311.5 556.6,308.5 556.6,335.5 "/>
<polygon class="st0" points="240.9,584 234.4,571.6 234.4,529 257.7,555.1 261.3,562.7 261.1,563.5 240.9,584 "/>
<polygon class="st0" points="248.2,584 264.4,567.5 302.9,571.9 305.1,584 "/>
<polygon class="st0" points="310.3,584 307.9,570.4 312.5,565.7 333,580.7 331.5,584 "/>
<polygon class="st0" points="337.1,584 338.2,581.7 344.9,578.2 348.4,584 "/>
<polygon class="st0" points="354.5,584 348.7,574.5 351.6,566.4 363.2,564.4 363.2,577.3 355.3,584 "/>
<polygon class="st0" points="336.4,576.8 315.5,561.5 320,552.6 339,557.6 346.7,564.8 343.7,573 "/>
<polygon class="st0" points="304.1,566.8 266.9,562.6 278.8,542.4 284.3,538.6 315,544.8 315.9,549.2 310.1,560.8 "/>
<polygon class="st0" points="350.6,561.3 343.6,554.8 351.1,542.3 363.2,542.5 363.2,559.2 "/>
<polygon class="st0" points="264.2,556.9 262.4,552.8 257.3,534.2 265.5,527.2 273.9,540.6 "/>
<polygon class="st0" points="339.1,552.3 320.8,547.5 319.8,542.7 321.1,538.2 328.8,523.8 338.4,524.9 346.6,539.6 "/>
<polygon class="st0" points="254.5,543.8 234.4,521.2 234.4,520.4 245.1,520.7 251.9,534.3 "/>
<polygon class="st0" points="315.3,539.6 286.9,533.8 289.3,523.9 293.4,520.5 315.8,538.1 "/>
<polygon class="st0" points="361.4,537.3 351.1,537.1 343.7,523.9 353.9,520.4 "/>
<polygon class="st0" points="277.6,537 268.4,522.1 264.6,512.7 273.2,513.3 284.1,523.3 281.5,534.3 "/>
<polygon class="st0" points="317.9,533.3 296.6,516.5 300.2,509.6 322.3,514.2 324.6,520.8 "/>
<polygon class="st0" points="255.2,529.2 250.2,519.4 260,515.1 263.1,522.5 "/>
<polygon class="st0" points="363.2,528.8 358.3,517.7 363.2,512.4 "/>
<polygon class="st0" points="339.7,519.9 329.3,518.6 327,511.9 330.8,497.4 331.6,496.6 346.4,496.4 361.5,506.6 353.8,515 "/>
<polygon class="st0" points="287.1,519 278.1,510.8 287.6,501.9 292.7,501 295.9,506.7 291.3,515.6 "/>
<polygon class="st0" points="246.2,515.6 234.4,515.3 234.4,497.4 254.3,490.3 259.6,509.6 "/>
<polygon class="st0" points="322.4,509 300.5,504.4 296.8,497.7 300.2,482.6 325.5,497.3 "/>
<polygon class="st0" points="273.3,508.1 268.6,507.8 277.4,497.8 282,500.1 "/>
<polygon class="st0" points="263.8,505.5 258.8,487.2 261.4,482.2 266.7,482.9 273.7,494.3 "/>
<polygon class="st0" points="363.2,501.6 350.4,492.9 363.2,462.9 "/>
<polygon class="st0" points="286.8,496.8 278.7,492.6 272.4,482.2 292.7,477.5 292.7,477.5 294.1,478 295.6,479.5 291.9,495.9 "/>
<polygon class="st0" points="328.1,492.9 303.7,478.7 331.1,464.4 328.1,492.8 "/>
<polygon class="st0" points="235,491.8 247.8,455.2 247.9,455.2 257.2,479.2 254.2,484.9 "/>
<polygon class="st0" points="333.4,491.4 336.7,460.7 339.9,455.2 360.9,455.2 345.5,491.3 "/>
<polygon class="st0" points="234.4,478 234.4,455.2 242.4,455.2 "/>
<polygon class="st0" points="268.2,477.9 261.9,477 253.5,455.2 275.2,455.2 288.3,473.3 "/>
<polygon class="st0" points="298.9,475.4 298.5,475 304.3,456.7 305.5,455.2 334,455.2 332.3,458 "/>
<polygon class="st0" points="295.1,468.6 293.8,458.1 298.5,458.1 "/>
<polygon class="st0" points="289.6,466.3 281.6,455.2 287.1,455.2 288.4,456.6 "/>
<rect x="32" y="51.5" class="st1" width="266.6" height="166.2"/>
<rect x="306.5" y="49.7" class="st1" width="266.8" height="166.2"/>
<rect x="32" y="236.8" class="st1" width="266.8" height="166.2"/>
<rect x="306.9" y="236.4" class="st1" width="266.8" height="166.2"/>
<rect x="215.7" y="436.5" class="st1" width="166.2" height="166.2"/>
</svg>
