<svg style="fill:none;stroke:#ff0000;stroke-linejoin:round;stroke-width:0.1px;stroke-linecap:round;stroke-opacity:0.5" version="1.1" viewBox="0 0 623.6 623.6" x="0px" xmlns="http://www.w3.org/2000/svg" y="0px" xml:space="preserve"><metadata><laserassistant model="{&quot;attrib&quot;: {&quot;style&quot;: &quot;fill:none;stroke:#ff0000;stroke-linejoin:round;stroke-width:0.1px;stroke-linecap:round;stroke-opacity:0.5&quot;, &quot;version&quot;: &quot;1.1&quot;, &quot;viewBox&quot;: &quot;0 0 623.6 623.6&quot;, &quot;x&quot;: &quot;0px&quot;, &quot;xmlns&quot;: &quot;http://www.w3.org/2000/svg&quot;, &quot;y&quot;: &quot;0px&quot;, &quot;{http://www.w3.org/XML/1998/namespace}space&quot;: &quot;preserve&quot;}, &quot;edge_data&quot;: {&quot;edges&quot;: [{&quot;d&quot;: &quot;M 32.0 51.5 L 298.6 51.5&quot;, &quot;edge&quot;: 1, &quot;face&quot;: &quot;face1&quot;}, {&quot;d&quot;: &quot;M 298.6 51.5 L 298.6 217.7&quot;, &quot;edge&quot;: 2, &quot;face&quot;: &quot;face1&quot;}, {&quot;d&quot;: &quot;M 298.6 217.7 L 32.0 217.7&quot;, &quot;edge&quot;: 3, &quot;face&quot;: &quot;face1&quot;}, {&quot;d&quot;: &quot;M 32.0 217.7 L 32.0 51.5&quot;, &quot;edge&quot;: 4, &quot;face&quot;: &quot;face1&quot;}, {&quot;d&quot;: &quot;M 306.5 49.7 L 573.3 49.7&quot;, &quot;edge&quot;: 5, &quot;face&quot;: &quot;face2&quot;}, {&quot;d&quot;: &quot;M 573.3 49.7 L 573.3 215.89999999999998&quot;, &quot;edge&quot;: 6, &quot;face&quot;: &quot;face2&quot;}, {&quot;d&quot;: &quot;M 573.3 215.89999999999998 L 306.5 215.89999999999998&quot;, &quot;edge&quot;: 7, &quot;face&quot;: &quot;face2&quot;}, {&quot;d&quot;: &quot;M 306.5 215.89999999999998 L 306.5 49.69999999999999&quot;, &quot;edge&quot;: 8, &quot;face&quot;: &quot;face2&quot;}, {&quot;d&quot;: &quot;M 32.0 236.8 L 298.8 236.8&quot;, &quot;edge&quot;: 9, &quot;face&quot;: &quot;face3&quot;}, {&quot;d&quot;: &quot;M 298.8 236.8 L 298.8 403.0&quot;, &quot;edge&quot;: 10, &quot;face&quot;: &quot;face3&quot;}, {&quot;d&quot;: &quot;M 298.8 403.0 L 32.0 403.0&quot;, &quot;edge&quot;: 11, &quot;face&quot;: &quot;face3&quot;}, {&quot;d&quot;: &quot;M 32.0 403.0 L 32.0 236.8&quot;, &quot;edge&quot;: 12, &quot;face&quot;: &quot;face3&quot;}, {&quot;d&quot;: &quot;M 306.9 236.4 L 573.7 236.4&quot;, &quot;edge&quot;: 13, &quot;face&quot;: &quot;face4&quot;}, {&quot;d&quot;: &quot;M 573.7 236.4 L 573.7 402.6&quot;, &quot;edge&quot;: 14, &quot;face&quot;: &quot;face4&quot;}, {&quot;d&quot;: &quot;M 573.7 402.6 L 306.9 402.6&quot;, &quot;edge&quot;: 15, &quot;face&quot;: &quot;face4&quot;}, {&quot;d&quot;: &quot;M 306.9 402.6 L 306.9 236.4&quot;, &quot;edge&quot;: 16, &quot;face&quot;: &quot;face4&quot;}, {&quot;d&quot;: &quot;M 215.7 436.5 L 381.9 436.5&quot;, &quot;edge&quot;: 17, &quot;face&quot;: &quot;face5&quot;}, {&quot;d&quot;: &quot;M 381.9 436.5 L 381.9 602.7&quot;, &quot;edge&quot;: 18, &quot;face&quot;: &quot;face5&quot;}, {&quot;d&quot;: &quot;M 381.9 602.7 L 215.7 602.7&quot;, &quot;edge&quot;: 19, &quot;face&quot;: &quot;face5&quot;}, {&quot;d&quot;: &quot;M 215.7 602.7 L 215.7 436.5&quot;, &quot;edge&quot;: 20, &quot;face&quot;: &quot;face5&quot;}], &quot;viewBox&quot;: &quot;0 0 623.6 623.6&quot;}, &quot;joint_index&quot;: 19, &quot;joints&quot;: {&quot;Joint1&quot;: {&quot;edge_a&quot;: {&quot;d&quot;: &quot;M 32.0 403.0 L 32.0 236.8&quot;, &quot;edge&quot;: 12, &quot;face&quot;: &quot;face3&quot;}, &quot;edge_b&quot;: {&quot;d&quot;: &quot;M 381.9 436.5 L 381.9 602.7&quot;, &quot;edge&quot;: 18, &quot;face&quot;: &quot;face5&quot;}, &quot;joint_parameters&quot;: {&quot;joint_type&quot;: &quot;Box&quot;, &quot;fit&quot;: &quot;Clearance&quot;, &quot;tabsize&quot;: 23.4, &quot;tabspace&quot;: 23.5, &quot;tabnum&quot;: 3, &quot;boltsize&quot;: &quot;M2.5&quot;, &quot;boltspace&quot;: 5, &quot;boltnum&quot;: 2, &quot;boltlength&quot;: 10}}, &quot;Joint7&quot;: {&quot;edge_a&quot;: {&quot;d&quot;: &quot;M 306.9 402.6 L 306.9 236.4&quot;, &quot;edge&quot;: 16, &quot;face&quot;: &quot;face4&quot;}, &quot;edge_b&quot;: {&quot;d&quot;: &quot;M 381.9 602.7 L 215.7 602.7&quot;, &quot;edge&quot;: 19, &quot;face&quot;: &quot;face5&quot;}, &quot;joint_parameters&quot;: {&quot;joint_type&quot;: &quot;Box&quot;, &quot;fit&quot;: &quot;Clearance&quot;, &quot;tabsize&quot;: 23.4, &quot;tabspace&quot;: 23.5, &quot;tabnum&quot;: 3, &quot;boltsize&quot;: &quot;M2.5&quot;, &quot;boltspace&quot;: 5, &quot;boltnum&quot;: 2, &quot;boltlength&quot;: 10}}, &quot;Joint8&quot;: {&quot;edge_a&quot;: {&quot;d&quot;: &quot;M 32.0 217.7 L 32.0 51.5&quot;, &quot;edge&quot;: 4, &quot;face&quot;: &quot;face1&quot;}, &quot;edge_b&quot;: {&quot;d&quot;: &quot;M 215.7 602.7 L 215.7 436.5&quot;, &quot;edge&quot;: 20, &quot;face&quot;: &quot;face5&quot;}, &quot;joint_parameters&quot;: {&quot;joint_type&quot;: &quot;Box&quot;, &quot;fit&quot;: &quot;Clearance&quot;, &quot;tabsize&quot;: 23.4, &quot;tabspace&quot;: 23.5, &quot;tabnum&quot;: 3, &quot;boltsize&quot;: &quot;M2.5&quot;, &quot;boltspace&quot;: 5, &quot;boltnum&quot;: 2, &quot;boltlength&quot;: 10}}, &quot;Joint9&quot;: {&quot;edge_a&quot;: {&quot;d&quot;: &quot;M 306.5 215.89999999999998 L 306.5 49.69999999999999&quot;, &quot;edge&quot;: 8, &quot;face&quot;: &quot;face2&quot;}, &quot;edge_b&quot;: {&quot;d&quot;: &quot;M 215.7 436.5 L 381.9 436.5&quot;, &quot;edge&quot;: 17, &quot;face&quot;: &quot;face5&quot;}, &quot;joint_parameters&quot;: {&quot;joint_type&quot;: &quot;Box&quot;, &quot;fit&quot;: &quot;Clearance&quot;, &quot;tabsize&quot;: 23.4, &quot;tabspace&quot;: 23.5, &quot;tabnum&quot;: 3, &quot;boltsize&quot;: &quot;M2.5&quot;, &quot;boltspace&quot;: 5, &quot;boltnum&quot;: 2, &quot;boltlength&quot;: 10}}, &quot;Joint10&quot;: {&quot;edge_a&quot;: {&quot;d&quot;: &quot;M 298.6 217.7 L 32.0 217.7&quot;, &quot;edge&quot;: 3, &quot;face&quot;: &quot;face1&quot;}, &quot;edge_b&quot;: {&quot;d&quot;: &quot;M 306.5 49.7 L 573.3 49.7&quot;, &quot;edge&quot;: 5, &quot;face&quot;: &quot;face2&quot;}, &quot;joint_parameters&quot;: {&quot;joint_type&quot;: &quot;Box&quot;, &quot;fit&quot;: &quot;Clearance&quot;, &quot;tabsize&quot;: 35, &quot;tabspace&quot;: 35, &quot;tabnum&quot;: 3, &quot;boltsize&quot;: &quot;M2.5&quot;, &quot;boltspace&quot;: 5, &quot;boltnum&quot;: 2, &quot;boltlength&quot;: 10}}, &quot;Joint14&quot;: {&quot;edge_a&quot;: {&quot;d&quot;: &quot;M 306.9 236.4 L 573.7 236.4&quot;, &quot;edge&quot;: 13, &quot;face&quot;: &quot;face4&quot;}, &quot;edge_b&quot;: {&quot;d&quot;: &quot;M 573.3 215.89999999999998 L 306.5 215.89999999999998&quot;, &quot;edge&quot;: 7, &quot;face&quot;: &quot;face2&quot;}, &quot;joint_parameters&quot;: {&quot;joint_type&quot;: &quot;Box&quot;, &quot;fit&quot;: &quot;Clearance&quot;, &quot;tabsize&quot;: 35, &quot;tabspace&quot;: 35, &quot;tabnum&quot;: 3, &quot;boltsize&quot;: &quot;M2.5&quot;, &quot;boltspace&quot;: 5, &quot;boltnum&quot;: 2, &quot;boltlength&quot;: 10}}, &quot;Joint16&quot;: {&quot;edge_a&quot;: {&quot;d&quot;: &quot;M 573.7 402.6 L 306.9 402.6&quot;, &quot;edge&quot;: 15, &quot;face&quot;: &quot;face4&quot;}, &quot;edge_b&quot;: {&quot;d&quot;: &quot;M 32.0 236.8 L 298.8 236.8&quot;, &quot;edge&quot;: 9, &quot;face&quot;: &quot;face3&quot;}, &quot;joint_parameters&quot;: {&quot;joint_type&quot;: &quot;Box&quot;, &quot;fit&quot;: &quot;Clearance&quot;, &quot;tabsize&quot;: 35, &quot;tabspace&quot;: 35, &quot;tabnum&quot;: 3, &quot;boltsize&quot;: &quot;M2.5&quot;, &quot;boltspace&quot;: 5, &quot;boltnum&quot;: 2, &quot;boltlength&quot;: 10}}, &quot;Joint17&quot;: {&quot;edge_a&quot;: {&quot;d&quot;: &quot;M 32.0 51.5 L 298.6 51.5&quot;, &quot;edge&quot;: 1, &quot;face&quot;: &quot;face1&quot;}, &quot;edge_b&quot;: {&quot;d&quot;: &quot;M 298.8 403.0 L 32.0 403.0&quot;, &quot;edge&quot;: 11, &quot;face&quot;: &quot;face3&quot;}, &quot;joint_parameters&quot;: {&quot;joint_type&quot;: &quot;Box&quot;, &quot;fit&quot;: &quot;Clearance&quot;, &quot;tabsize&quot;: 35, &quot;tabspace&quot;: 35, &quot;tabnum&quot;: 3, &quot;boltsize&quot;: &quot;M2.5&quot;, &quot;boltspace&quot;: 5, &quot;boltnum&quot;: 2, &quot;boltlength&quot;: 10}}}, &quot;tree&quot;: {&quot;face1&quot;: {&quot;Cuts&quot;: {&quot;paths&quot;: [&quot;M 52.4,104.9 L 56.5,103.7 L 74.6,107.5 L 77.6,115.6 L 52.4,118.5 L 52.4,104.9&quot;, &quot;M 52.4,123.8 L 80.7,120.5 L 85.9,125.5 L 66.7,139.4 L 61.3,140.3 L 52.4,139.4 L 52.4,123.8&quot;, &quot;M 52.4,144.7 L 58.0,145.2 L 71.0,168.1 L 57.1,171.2 L 52.4,169.4 L 52.4,144.7&quot;, &quot;M 60.8,81.7 L 108.9,96.2 L 78.6,102.8 L 60.8,99.1 L 60.8,81.7&quot;, &quot;M 61.2,184.4 L 67.1,191.3 L 61.6,193.9 L 61.2,184.4&quot;, &quot;M 63.8,175.3 L 76.7,172.4 L 86.0,174.7 L 88.8,184.6 L 74.9,188.5 L 63.8,175.3&quot;, &quot;M 67.5,144.7 L 69.2,144.4 L 121.5,156.2 L 89.5,169.9 L 80.6,167.8 L 67.5,144.7&quot;, &quot;M 68.4,78.1 L 118.0,70.2 L 133.1,70.2 L 140.5,82.6 L 118.9,93.3 L 68.4,78.1&quot;, &quot;M 69.5,196.9 L 75.4,194.1 L 93.5,189.0 L 112.8,196.9 L 69.5,196.9&quot;, &quot;M 76.8,140.6 L 94.1,128.1 L 120.3,126.0 L 131.0,131.2 L 128.8,152.2 L 76.8,140.6&quot;, &quot;M 84.0,107.1 L 115.0,100.4 L 116.9,121.0 L 94.0,122.9 L 87.5,116.7 L 84.0,107.1&quot;, &quot;M 95.3,174.0 L 129.3,159.4 L 139.4,182.8 L 120.9,193.8 L 98.3,184.6 L 95.3,174.0&quot;, &quot;M 124.1,97.7 L 146.7,86.4 L 158.0,89.4 L 166.5,119.6 L 136.6,127.1 L 126.4,122.0 L 124.1,97.7&quot;, &quot;M 126.1,198.3 L 146.2,186.4 L 168.1,188.4 L 176.8,199.0 L 126.1,199.0 L 126.1,198.3&quot;, &quot;M 138.5,158.4 L 196.2,163.6 L 172.2,182.0 L 169.7,183.4 L 148.4,181.3 L 138.5,158.4&quot;, &quot;M 138.5,148.8 L 140.3,131.8 L 171.7,124.0 L 198.8,131.0 L 138.5,148.8&quot;, &quot;M 142.1,153.5 L 206.3,134.6 L 209.5,157.9 L 203.9,159.1 L 142.1,153.5&quot;, &quot;M 142.9,70.2 L 195.7,70.2 L 170.9,84.6 L 163.0,85.0 L 149.7,81.5 L 142.9,70.2&quot;, &quot;M 167.6,90.0 L 172.4,89.7 L 229.5,102.0 L 234.0,115.7 L 209.5,128.1 L 176.0,119.4 L 167.6,90.0&quot;, &quot;M 176.9,186.7 L 177.2,186.5 L 218.9,192.2 L 215.1,199.0 L 187.0,199.0 L 176.9,186.7&quot;, &quot;M 181.3,86.1 L 208.7,70.2 L 231.8,70.2 L 236.5,92.1 L 231.6,96.9 L 181.3,86.1&quot;, &quot;M 183.6,182.1 L 207.4,163.9 L 212.6,162.7 L 228.7,180.0 L 222.2,187.3 L 183.6,182.1&quot;, &quot;M 215.3,132.1 L 240.3,119.5 L 253.9,121.9 L 259.2,141.6 L 244.0,154.1 L 218.7,156.9 L 215.3,132.1&quot;, &quot;M 222.2,161.8 L 246.8,159.0 L 286.1,163.6 L 286.1,177.3 L 259.3,180.6 L 237.1,177.7 L 222.2,161.8&quot;, &quot;M 224.9,199.0 L 229.2,191.3 L 236.4,183.0 L 254.8,185.4 L 255.6,199.0 L 224.9,199.0&quot;, &quot;M 238.6,100.6 L 244.5,94.8 L 258.5,92.3 L 286.1,97.7 L 286.1,114.8 L 259.6,117.4 L 258.9,117.4 L 243.2,114.6 L 238.6,100.6&quot;, &quot;M 241.2,70.2 L 267.1,70.2 L 277.6,76.8 L 256.2,87.3 L 245.3,89.2 L 241.2,70.2&quot;, &quot;M 254.5,154.6 L 265.4,145.7 L 286.1,152.5 L 286.1,158.3 L 254.5,154.6&quot;, &quot;M 264.1,185.3 L 286.1,182.6 L 286.1,199.0 L 265.0,199.0 L 264.1,185.3&quot;, &quot;M 265.3,129.0 L 286.1,146.1 L 286.1,146.5 L 268.3,140.6 L 265.3,129.0&quot;, &quot;M 267.6,88.6 L 285.8,79.7 L 286.1,79.7 L 286.1,92.2 L 267.6,88.6&quot;, &quot;M 267.8,121.8 L 286.1,120.1 L 286.1,136.9 L 267.8,121.8&quot;, &quot;M 279.5,70.2 L 286.1,70.2 L 286.1,74.3 L 279.5,70.2&quot;]}, &quot;Perimeter&quot;: {&quot;paths&quot;: [&quot;M 32.0,51.5 L 298.6,51.5 L 298.6,217.7 L 32.0,217.7 L 32.0,51.5&quot;]}}, &quot;face2&quot;: {&quot;Cuts&quot;: {&quot;paths&quot;: [&quot;M 328.1,68.4 L 338.1,68.4 L 334.6,73.4 L 330.5,73.9 L 328.1,73.2 L 328.1,68.4&quot;, &quot;M 328.1,93.7 L 330.8,92.9 L 337.2,96.6 L 328.1,105.3 L 328.1,93.7&quot;, &quot;M 328.1,115.5 L 358.0,127.9 L 356.9,134.9 L 353.7,138.3 L 328.1,147.7 L 328.1,115.5&quot;, &quot;M 328.1,153.9 L 356.5,143.5 L 364.0,147.9 L 382.8,175.6 L 378.0,178.0 L 328.1,185.4 L 328.1,153.9&quot;, &quot;M 328.1,190.7 L 378.3,183.3 L 393.7,196.1 L 394.4,197.2 L 328.1,197.2 L 328.1,190.7&quot;, &quot;M 332.9,111.0 L 345.8,98.6 L 373.6,97.1 L 380.6,99.0 L 381.7,99.5 L 384.0,108.2 L 362.1,123.1 L 332.9,111.0&quot;, &quot;M 334.8,78.6 L 338.0,78.3 L 351.9,79.7 L 366.4,92.3 L 344.8,93.5 L 336.2,88.5 L 334.8,78.6&quot;, &quot;M 344.4,73.7 L 348.1,68.4 L 363.2,68.4 L 353.0,74.6 L 344.4,73.7&quot;, &quot;M 360.6,77.7 L 375.8,68.4 L 376.5,68.4 L 378.2,92.6 L 377.6,92.5 L 360.6,77.7&quot;, &quot;M 362.9,139.7 L 364.1,138.4 L 431.4,143.5 L 431.1,145.1 L 397.6,151.7 L 370.8,144.5 L 362.9,139.7&quot;, &quot;M 366.5,133.4 L 367.4,127.7 L 390.5,112.0 L 442.5,122.4 L 443.7,129.4 L 433.9,138.5 L 366.5,133.4&quot;, &quot;M 376.5,151.7 L 392.9,156.2 L 395.4,172.2 L 391.0,173.1 L 376.5,151.7&quot;, &quot;M 385.8,68.4 L 407.7,81.0 L 401.7,86.9 L 387.6,93.9 L 385.8,68.4&quot;, &quot;M 386.4,180.7 L 390.7,178.6 L 401.2,176.5 L 444.2,175.9 L 445.2,176.4 L 399.4,191.5 L 386.4,180.7&quot;, &quot;M 391.0,99.1 L 406.3,91.6 L 442.1,100.7 L 441.8,116.8 L 393.2,107.1 L 391.0,99.1&quot;, &quot;M 398.7,68.4 L 442.1,68.4 L 414.3,77.4 L 398.7,68.4&quot;, &quot;M 402.3,156.2 L 432.1,150.4 L 440.2,170.8 L 404.7,171.3 L 402.3,156.2&quot;, &quot;M 403.6,196.1 L 446.5,182.0 L 448.1,197.2 L 404.2,197.2 L 403.6,196.1&quot;, &quot;M 412.0,87.4 L 416.9,82.5 L 455.0,70.2 L 459.9,76.3 L 444.5,95.6 L 412.0,87.4&quot;, &quot;M 440.3,146.8 L 441.0,142.1 L 450.4,133.3 L 480.0,140.5 L 495.9,153.6 L 464.4,170.8 L 452.1,172.9 L 450.2,171.9 L 440.3,146.8&quot;, &quot;M 451.1,116.8 L 451.5,99.6 L 466.9,80.3 L 487.4,88.8 L 482.4,108.5 L 451.1,116.8&quot;, &quot;M 451.8,122.4 L 486.8,113.1 L 511.5,118.9 L 514.5,121.4 L 482.4,135.5 L 452.9,128.2 L 451.8,122.4&quot;, &quot;M 455.4,177.7 L 466.6,175.8 L 533.1,191.5 L 539.4,197.2 L 457.5,197.2 L 455.4,177.7&quot;, &quot;M 463.8,68.4 L 561.7,68.4 L 561.7,73.3 L 521.1,84.0 L 493.8,85.0 L 468.8,74.7 L 463.8,68.4&quot;, &quot;M 475.1,172.2 L 503.8,156.6 L 506.5,156.6 L 526.2,161.6 L 530.9,185.4 L 475.1,172.2&quot;, &quot;M 489.4,139.0 L 521.3,125.0 L 526.0,126.3 L 504.6,151.4 L 504.5,151.4 L 489.4,139.0&quot;, &quot;M 491.8,108.7 L 496.5,90.0 L 517.3,89.3 L 515.4,108.8 L 512.0,113.4 L 491.8,108.7&quot;, &quot;M 513.8,152.8 L 534.9,128.0 L 538.9,128.2 L 561.7,138.4 L 561.7,146.7 L 530.3,156.9 L 513.8,152.8&quot;, &quot;M 519.9,116.5 L 523.7,111.2 L 556.3,102.6 L 538.0,123.0 L 533.4,122.7 L 524.0,119.9 L 519.9,116.5&quot;, &quot;M 525.1,105.1 L 526.8,88.2 L 561.7,79.0 L 561.7,95.5 L 525.1,105.1&quot;, &quot;M 535.6,161.2 L 561.7,152.7 L 561.7,165.1 L 544.4,191.9 L 540.9,188.6 L 535.6,161.2&quot;, &quot;M 546.6,125.0 L 561.7,108.2 L 561.7,131.8 L 546.6,125.0&quot;]}, &quot;Perimeter&quot;: {&quot;paths&quot;: [&quot;M 306.5,49.7 L 573.3,49.7 L 573.3,215.89999999999998 L 306.5,215.89999999999998 L 306.5,49.7&quot;]}}, &quot;face3&quot;: {&quot;Cuts&quot;: {&quot;paths&quot;: [&quot;M 52.6,267.4 L 58.4,259.7 L 67.2,276.5 L 52.6,279.1 L 52.6,267.4&quot;, &quot;M 52.6,291.6 L 56.4,297.8 L 52.6,300.7 L 52.6,291.6&quot;, &quot;M 52.6,309.5 L 63.3,301.3 L 99.3,307.9 L 52.6,323.3 L 52.6,309.5&quot;, &quot;M 52.6,329.3 L 105.2,312.0 L 102.2,319.2 L 80.4,345.4 L 52.6,332.8 L 52.6,329.3&quot;, &quot;M 52.6,339.4 L 78.8,351.4 L 79.1,351.6 L 67.6,372.5 L 52.6,379.2 L 52.6,339.4&quot;, &quot;M 56.0,384.3 L 72.6,376.9 L 113.5,384.3 L 56.0,384.3&quot;, &quot;M 57.7,283.6 L 73.7,280.8 L 74.6,280.8 L 86.4,281.9 L 109.1,296.4 L 105.9,303.7 L 65.2,296.2 L 57.7,283.6&quot;, &quot;M 65.9,255.5 L 75.4,255.5 L 72.5,268.1 L 65.9,255.5&quot;, &quot;M 77.4,372.4 L 87.8,353.5 L 113.4,352.8 L 133.1,353.7 L 143.2,360.3 L 133.5,382.5 L 77.4,372.4&quot;, &quot;M 80.1,276.1 L 84.8,255.5 L 101.8,255.5 L 98.4,264.5 L 86.3,276.6 L 80.1,276.1&quot;, &quot;M 88.3,348.4 L 104.0,329.4 L 108.2,347.8 L 88.3,348.4&quot;, &quot;M 94.5,279.1 L 104.5,269.1 L 141.7,282.4 L 115.0,292.3 L 94.5,279.1&quot;, &quot;M 108.1,264.2 L 111.4,255.5 L 184.3,255.5 L 183.2,264.4 L 150.2,279.3 L 108.1,264.2&quot;, &quot;M 111.4,320.2 L 114.3,313.4 L 141.6,324.4 L 141.7,325.5 L 131.8,348.5 L 117.6,347.8 L 111.4,320.2&quot;, &quot;M 114.2,306.8 L 118.3,297.3 L 148.7,286.0 L 162.1,315.4 L 146.6,320.1 L 114.6,307.2 L 114.2,306.8&quot;, &quot;M 140.5,350.6 L 149.4,329.8 L 190.1,343.3 L 190.5,343.7 L 173.5,355.8 L 150.3,357.0 L 140.5,350.6&quot;, &quot;M 142.4,384.3 L 152.0,362.1 L 174.3,360.9 L 186.0,366.6 L 202.3,378.8 L 204.7,384.3 L 142.4,384.3&quot;, &quot;M 151.5,324.5 L 169.1,319.1 L 186.2,317.5 L 188.5,336.7 L 151.5,324.5&quot;, &quot;M 156.9,282.9 L 186.2,269.7 L 201.1,307.5 L 188.8,312.0 L 171.0,313.7 L 156.9,282.9&quot;, &quot;M 182.3,357.9 L 198.4,346.5 L 204.1,346.1 L 230.5,352.0 L 190.4,361.8 L 182.3,357.9&quot;, &quot;M 192.5,265.0 L 193.7,255.5 L 286.2,255.5 L 286.2,263.8 L 268.3,281.1 L 193.9,266.2 L 193.7,266.1 L 192.5,265.0&quot;, &quot;M 195.4,315.7 L 206.8,311.5 L 218.8,314.3 L 225.0,318.6 L 201.9,341.1 L 198.7,341.3 L 198.4,340.8 L 195.4,315.7&quot;, &quot;M 196.7,365.9 L 229.7,357.8 L 206.8,373.5 L 196.7,365.9&quot;, &quot;M 197.6,274.4 L 246.3,296.5 L 220.8,309.2 L 210.3,306.8 L 197.6,274.4&quot;, &quot;M 211.5,342.2 L 231.9,322.3 L 278.6,346.8 L 277.8,347.2 L 244.4,349.5 L 243.7,349.4 L 211.5,342.2&quot;, &quot;M 211.7,378.4 L 246.6,354.5 L 272.8,352.7 L 259.5,373.6 L 247.9,384.3 L 214.3,384.3 L 211.7,378.4&quot;, &quot;M 216.1,276.1 L 265.6,286.1 L 265.2,291.5 L 254.4,293.5 L 216.1,276.1&quot;, &quot;M 228.2,312.5 L 255.8,298.7 L 268.4,296.3 L 279.0,302.6 L 233.1,316.0 L 228.2,312.5&quot;, &quot;M 240.4,319.6 L 286.2,306.3 L 286.2,343.7 L 240.4,319.6&quot;, &quot;M 258.8,384.3 L 265.2,378.4 L 280.8,384.3 L 258.8,384.3&quot;, &quot;M 269.3,373.7 L 283.7,351.2 L 286.2,350.0 L 286.2,380.1 L 269.3,373.7&quot;, &quot;M 274.5,292.3 L 275.0,285.0 L 286.2,274.2 L 286.2,299.3 L 274.5,292.3&quot;]}, &quot;Perimeter&quot;: {&quot;paths&quot;: [&quot;M 32.0,236.8 L 298.8,236.8 L 298.8,403.0 L 32.0,403.0 L 32.0,236.8&quot;]}}, &quot;face4&quot;: {&quot;Cuts&quot;: {&quot;paths&quot;: [&quot;M 327.4,263.6 L 368.9,280.2 L 327.4,309.8 L 327.4,263.6&quot;, &quot;M 327.4,319.7 L 346.2,327.6 L 327.4,345.8 L 327.4,319.7&quot;, &quot;M 327.4,359.5 L 360.2,358.6 L 336.4,373.4 L 332.1,374.0 L 327.4,372.2 L 327.4,359.5&quot;, &quot;M 329.3,258.0 L 385.7,255.1 L 417.3,255.1 L 407.3,275.7 L 402.1,278.1 L 377.2,277.2 L 329.3,258.0&quot;, &quot;M 329.5,354.3 L 354.3,330.1 L 356.9,330.6 L 364.0,353.3 L 329.5,354.3&quot;, &quot;M 331.9,315.1 L 377.7,282.4 L 399.8,283.2 L 407.2,303.7 L 384.0,322.3 L 361.3,326.0 L 354.5,324.6 L 331.9,315.1&quot;, &quot;M 334.8,383.9 L 335.0,383.1 L 336.7,383.9 L 334.8,383.9&quot;, &quot;M 339.4,378.3 L 339.5,378.2 L 366.7,379.7 L 365.4,383.9 L 350.5,383.9 L 339.4,378.3&quot;, &quot;M 348.6,373.6 L 371.1,359.6 L 385.2,364.6 L 370.1,374.7 L 348.6,373.6&quot;, &quot;M 366.4,330.6 L 385.5,327.5 L 404.4,339.2 L 412.0,357.1 L 401.2,361.5 L 393.7,361.4 L 373.8,354.4 L 366.4,330.6&quot;, &quot;M 374.8,383.9 L 376.5,378.5 L 394.4,366.5 L 399.0,366.6 L 407.2,383.9 L 374.8,383.9&quot;, &quot;M 392.9,324.3 L 413.4,307.9 L 430.1,314.2 L 423.1,330.0 L 409.6,334.7 L 392.9,324.3&quot;, &quot;M 408.0,365.1 L 419.0,360.7 L 436.5,360.2 L 451.6,364.0 L 460.7,383.9 L 416.8,383.9 L 408.0,365.1&quot;, &quot;M 408.8,281.7 L 412.9,279.8 L 463.2,284.4 L 475.0,291.6 L 475.1,291.8 L 453.1,304.3 L 434.8,309.7 L 416.4,302.8 L 408.8,281.7&quot;, &quot;M 414.0,339.2 L 427.4,334.6 L 443.3,339.1 L 433.9,355.1 L 420.9,355.5 L 414.0,339.2&quot;, &quot;M 417.3,275.0 L 427.0,255.1 L 496.5,255.1 L 463.5,279.2 L 417.3,275.0&quot;, &quot;M 432.6,330.3 L 438.1,317.9 L 440.0,318.8 L 452.2,332.0 L 447.9,334.6 L 432.6,330.3&quot;, &quot;M 442.5,313.3 L 456.1,309.3 L 467.6,312.3 L 465.4,313.9 L 445.2,314.5 L 442.5,313.3&quot;, &quot;M 443.1,356.2 L 453.0,339.1 L 459.7,335.0 L 475.0,335.4 L 501.7,343.0 L 485.5,351.8 L 455.6,359.4 L 443.1,356.2&quot;, &quot;M 451.1,319.5 L 465.8,319.1 L 470.7,322.2 L 471.3,330.2 L 460.7,329.9 L 451.1,319.5&quot;, &quot;M 461.1,363.6 L 485.3,357.5 L 501.2,383.9 L 470.3,383.9 L 461.1,363.6&quot;, &quot;M 463.9,305.6 L 479.4,296.8 L 487.6,304.1 L 474.4,308.4 L 463.9,305.6&quot;, &quot;M 471.6,281.9 L 508.2,255.1 L 544.2,255.1 L 517.6,279.6 L 480.6,287.3 L 471.6,281.9&quot;, &quot;M 473.8,316.3 L 477.9,313.2 L 488.0,309.9 L 487.0,313.5 L 476.1,317.8 L 473.8,316.3&quot;, &quot;M 480.1,322.5 L 488.8,319.1 L 498.3,336.2 L 480.8,331.3 L 480.1,322.5&quot;, &quot;M 484.9,291.9 L 517.1,285.2 L 522.9,304.3 L 496.9,302.5 L 484.9,291.9&quot;, &quot;M 493.5,354.7 L 510.8,345.2 L 515.5,345.1 L 536.4,367.6 L 517.2,383.9 L 511.1,383.9 L 493.5,354.7&quot;, &quot;M 496.1,314.8 L 498.0,307.8 L 526.8,309.8 L 529.2,310.7 L 519.2,338.4 L 516.3,340.0 L 510.5,340.1 L 510.1,339.9 L 496.1,314.8&quot;, &quot;M 524.0,343.0 L 525.5,342.2 L 556.6,340.7 L 556.6,365.7 L 544.8,365.3 L 524.0,343.0&quot;, &quot;M 525.6,282.2 L 555.1,255.1 L 561.1,255.1 L 561.1,298.8 L 557.8,302.9 L 535.2,306.7 L 532.8,305.8 L 525.6,282.2&quot;, &quot;M 528.3,383.9 L 544.2,370.4 L 555.9,370.9 L 552.5,383.9 L 528.3,383.9&quot;, &quot;M 529.3,336.9 L 538.4,311.5 L 556.6,308.5 L 556.6,335.5 L 529.3,336.9&quot;]}, &quot;Perimeter&quot;: {&quot;paths&quot;: [&quot;M 306.9,236.4 L 573.7,236.4 L 573.7,402.6 L 306.9,402.6 L 306.9,236.4&quot;]}}, &quot;face5&quot;: {&quot;Cuts&quot;: {&quot;paths&quot;: [&quot;M 240.9,584.0 L 234.4,571.6 L 234.4,529.0 L 257.7,555.1 L 261.3,562.7 L 261.1,563.5 L 240.9,584.0 L 240.9,584.0&quot;, &quot;M 248.2,584.0 L 264.4,567.5 L 302.9,571.9 L 305.1,584.0 L 248.2,584.0&quot;, &quot;M 310.3,584.0 L 307.9,570.4 L 312.5,565.7 L 333.0,580.7 L 331.5,584.0 L 310.3,584.0&quot;, &quot;M 337.1,584.0 L 338.2,581.7 L 344.9,578.2 L 348.4,584.0 L 337.1,584.0&quot;, &quot;M 354.5,584.0 L 348.7,574.5 L 351.6,566.4 L 363.2,564.4 L 363.2,577.3 L 355.3,584.0 L 354.5,584.0&quot;, &quot;M 336.4,576.8 L 315.5,561.5 L 320.0,552.6 L 339.0,557.6 L 346.7,564.8 L 343.7,573.0 L 336.4,576.8&quot;, &quot;M 304.1,566.8 L 266.9,562.6 L 278.8,542.4 L 284.3,538.6 L 315.0,544.8 L 315.9,549.2 L 310.1,560.8 L 304.1,566.8&quot;, &quot;M 350.6,561.3 L 343.6,554.8 L 351.1,542.3 L 363.2,542.5 L 363.2,559.2 L 350.6,561.3&quot;, &quot;M 264.2,556.9 L 262.4,552.8 L 257.3,534.2 L 265.5,527.2 L 273.9,540.6 L 264.2,556.9&quot;, &quot;M 339.1,552.3 L 320.8,547.5 L 319.8,542.7 L 321.1,538.2 L 328.8,523.8 L 338.4,524.9 L 346.6,539.6 L 339.1,552.3&quot;, &quot;M 254.5,543.8 L 234.4,521.2 L 234.4,520.4 L 245.1,520.7 L 251.9,534.3 L 254.5,543.8&quot;, &quot;M 315.3,539.6 L 286.9,533.8 L 289.3,523.9 L 293.4,520.5 L 315.8,538.1 L 315.3,539.6&quot;, &quot;M 361.4,537.3 L 351.1,537.1 L 343.7,523.9 L 353.9,520.4 L 361.4,537.3&quot;, &quot;M 277.6,537.0 L 268.4,522.1 L 264.6,512.7 L 273.2,513.3 L 284.1,523.3 L 281.5,534.3 L 277.6,537.0&quot;, &quot;M 317.9,533.3 L 296.6,516.5 L 300.2,509.6 L 322.3,514.2 L 324.6,520.8 L 317.9,533.3&quot;, &quot;M 255.2,529.2 L 250.2,519.4 L 260.0,515.1 L 263.1,522.5 L 255.2,529.2&quot;, &quot;M 363.2,528.8 L 358.3,517.7 L 363.2,512.4 L 363.2,528.8&quot;, &quot;M 339.7,519.9 L 329.3,518.6 L 327.0,511.9 L 330.8,497.4 L 331.6,496.6 L 346.4,496.4 L 361.5,506.6 L 353.8,515.0 L 339.7,519.9&quot;, &quot;M 287.1,519.0 L 278.1,510.8 L 287.6,501.9 L 292.7,501.0 L 295.9,506.7 L 291.3,515.6 L 287.1,519.0&quot;, &quot;M 246.2,515.6 L 234.4,515.3 L 234.4,497.4 L 254.3,490.3 L 259.6,509.6 L 246.2,515.6&quot;, &quot;M 322.4,509.0 L 300.5,504.4 L 296.8,497.7 L 300.2,482.6 L 325.5,497.3 L 322.4,509.0&quot;, &quot;M 273.3,508.1 L 268.6,507.8 L 277.4,497.8 L 282.0,500.1 L 273.3,508.1&quot;, &quot;M 263.8,505.5 L 258.8,487.2 L 261.4,482.2 L 266.7,482.9 L 273.7,494.3 L 263.8,505.5&quot;, &quot;M 363.2,501.6 L 350.4,492.9 L 363.2,462.9 L 363.2,501.6&quot;, &quot;M 286.8,496.8 L 278.7,492.6 L 272.4,482.2 L 292.7,477.5 L 292.7,477.5 L 294.1,478.0 L 295.6,479.5 L 291.9,495.9 L 286.8,496.8&quot;, &quot;M 328.1,492.9 L 303.7,478.7 L 331.1,464.4 L 328.1,492.8 L 328.1,492.9&quot;, &quot;M 235.0,491.8 L 247.8,455.2 L 247.9,455.2 L 257.2,479.2 L 254.2,484.9 L 235.0,491.8&quot;, &quot;M 333.4,491.4 L 336.7,460.7 L 339.9,455.2 L 360.9,455.2 L 345.5,491.3 L 333.4,491.4&quot;, &quot;M 234.4,478.0 L 234.4,455.2 L 242.4,455.2 L 234.4,478.0&quot;, &quot;M 268.2,477.9 L 261.9,477.0 L 253.5,455.2 L 275.2,455.2 L 288.3,473.3 L 268.2,477.9&quot;, &quot;M 298.9,475.4 L 298.5,475.0 L 304.3,456.7 L 305.5,455.2 L 334.0,455.2 L 332.3,458.0 L 298.9,475.4&quot;, &quot;M 295.1,468.6 L 293.8,458.1 L 298.5,458.1 L 295.1,468.6&quot;, &quot;M 289.6,466.3 L 281.6,455.2 L 287.1,455.2 L 288.4,456.6 L 289.6,466.3&quot;]}, &quot;Perimeter&quot;: {&quot;paths&quot;: [&quot;M 215.7,436.5 L 381.9,436.5 L 381.9,602.7 L 215.7,602.7 L 215.7,436.5&quot;]}}}}"></laserassistant></metadata><g data-name="face1" id="face1"><path d="M 77.823,51.231 L 77.846,51.234 L 77.869,51.239 L 77.891,51.246 L 77.913,51.255 L 77.933,51.265 L 77.953,51.278 L 77.972,51.292 L 77.989,51.307 L 78.005,51.324 L 78.019,51.342 L 78.032,51.362 L 78.043,51.382 L 78.052,51.403 L 78.06,51.425 L 78.065,51.448 L 78.068,51.471 L 78.07,51.5 L 78.07,54.33 L 112.53,54.33 L 112.53,51.5 L 112.531,51.477 L 112.534,51.454 L 112.539,51.431 L 112.546,51.409 L 112.555,51.387 L 112.565,51.367 L 112.578,51.347 L 112.592,51.328 L 112.607,51.311 L 112.624,51.295 L 112.642,51.281 L 112.662,51.268 L 112.682,51.257 L 112.703,51.248 L 112.725,51.24 L 112.748,51.235 L 112.771,51.232 L 112.8,51.23 L 147.8,51.23 L 147.823,51.231 L 147.846,51.234 L 147.869,51.239 L 147.891,51.246 L 147.913,51.255 L 147.933,51.265 L 147.953,51.278 L 147.972,51.292 L 147.989,51.307 L 148.005,51.324 L 148.019,51.342 L 148.032,51.362 L 148.043,51.382 L 148.052,51.403 L 148.06,51.425 L 148.065,51.448 L 148.068,51.471 L 148.07,51.5 L 148.07,54.33 L 182.53,54.33 L 182.53,51.5 L 182.531,51.477 L 182.534,51.454 L 182.539,51.431 L 182.546,51.409 L 182.555,51.387 L 182.565,51.367 L 182.578,51.347 L 182.592,51.328 L 182.607,51.311 L 182.624,51.295 L 182.642,51.281 L 182.662,51.268 L 182.682,51.257 L 182.703,51.248 L 182.725,51.24 L 182.748,51.235 L 182.771,51.232 L 182.8,51.23 L 217.8,51.23 L 217.823,51.231 L 217.846,51.234 L 217.869,51.239 L 217.891,51.246 L 217.913,51.255 L 217.933,51.265 L 217.953,51.278 L 217.972,51.292 L 217.989,51.307 L 218.005,51.324 L 218.019,51.342 L 218.032,51.362 L 218.043,51.382 L 218.052,51.403 L 218.06,51.425 L 218.065,51.448 L 218.068,51.471 L 218.07,51.5 L 218.07,54.33 L 252.53,54.33 L 252.53,51.5 L 252.531,51.477 L 252.534,51.454 L 252.539,51.431 L 252.546,51.409 L 252.555,51.387 L 252.565,51.367 L 252.578,51.347 L 252.592,51.328 L 252.607,51.311 L 252.624,51.295 L 252.642,51.281 L 252.662,51.268 L 252.682,51.257 L 252.703,51.248 L 252.725,51.24 L 252.748,51.235 L 252.771,51.232 L 252.8,51.23 L 298.6,51.23 L 298.623,51.231 L 298.646,51.234 L 298.669,51.239 L 298.691,51.246 L 298.713,51.255 L 298.733,51.265 L 298.753,51.278 L 298.772,51.292 L 298.789,51.307 L 298.805,51.324 L 298.819,51.342 L 298.832,51.362 L 298.843,51.382 L 298.852,51.403 L 298.86,51.425 L 298.865,51.448 L 298.868,51.471 L 298.87,51.5 L 298.87,217.7 L 298.869,217.723 L 298.866,217.746 L 298.861,217.769 L 298.854,217.791 L 298.845,217.813 L 298.835,217.833 L 298.822,217.853 L 298.808,217.872 L 298.793,217.889 L 298.776,217.905 L 298.758,217.919 L 298.738,217.932 L 298.718,217.943 L 298.697,217.952 L 298.675,217.96 L 298.652,217.965 L 298.629,217.968 L 298.6,217.97 L 252.8,217.97 L 252.777,217.969 L 252.754,217.966 L 252.731,217.961 L 252.709,217.954 L 252.687,217.945 L 252.667,217.935 L 252.647,217.922 L 252.628,217.908 L 252.611,217.893 L 252.595,217.876 L 252.581,217.858 L 252.568,217.838 L 252.557,217.818 L 252.548,217.797 L 252.54,217.775 L 252.535,217.752 L 252.532,217.729 L 252.53,217.7 L 252.53,214.87 L 218.07,214.87 L 218.07,217.7 L 218.069,217.723 L 218.066,217.746 L 218.061,217.769 L 218.054,217.791 L 218.045,217.813 L 218.035,217.833 L 218.022,217.853 L 218.008,217.872 L 217.993,217.889 L 217.976,217.905 L 217.958,217.919 L 217.938,217.932 L 217.918,217.943 L 217.897,217.952 L 217.875,217.96 L 217.852,217.965 L 217.829,217.968 L 217.8,217.97 L 182.8,217.97 L 182.777,217.969 L 182.754,217.966 L 182.731,217.961 L 182.709,217.954 L 182.687,217.945 L 182.667,217.935 L 182.647,217.922 L 182.628,217.908 L 182.611,217.893 L 182.595,217.876 L 182.581,217.858 L 182.568,217.838 L 182.557,217.818 L 182.548,217.797 L 182.54,217.775 L 182.535,217.752 L 182.532,217.729 L 182.53,217.7 L 182.53,214.87 L 148.07,214.87 L 148.07,217.7 L 148.069,217.723 L 148.066,217.746 L 148.061,217.769 L 148.054,217.791 L 148.045,217.813 L 148.035,217.833 L 148.022,217.853 L 148.008,217.872 L 147.993,217.889 L 147.976,217.905 L 147.958,217.919 L 147.938,217.932 L 147.918,217.943 L 147.897,217.952 L 147.875,217.96 L 147.852,217.965 L 147.829,217.968 L 147.8,217.97 L 112.8,217.97 L 112.777,217.969 L 112.754,217.966 L 112.731,217.961 L 112.709,217.954 L 112.687,217.945 L 112.667,217.935 L 112.647,217.922 L 112.628,217.908 L 112.611,217.893 L 112.595,217.876 L 112.581,217.858 L 112.568,217.838 L 112.557,217.818 L 112.548,217.797 L 112.54,217.775 L 112.535,217.752 L 112.532,217.729 L 112.53,217.7 L 112.53,214.87 L 78.069,214.87 L 78.069,217.7 L 78.068,217.723 L 78.065,217.746 L 78.06,217.769 L 78.053,217.791 L 78.044,217.813 L 78.034,217.833 L 78.021,217.853 L 78.007,217.872 L 77.992,217.889 L 77.975,217.905 L 77.957,217.919 L 77.937,217.932 L 77.917,217.943 L 77.896,217.952 L 77.874,217.96 L 77.851,217.965 L 77.828,217.968 L 77.799,217.97 L 32.0,217.97 L 31.977,217.969 L 31.954,217.966 L 31.931,217.961 L 31.909,217.954 L 31.887,217.945 L 31.867,217.935 L 31.847,217.922 L 31.828,217.908 L 31.811,217.893 L 31.795,217.876 L 31.781,217.858 L 31.768,217.838 L 31.757,217.818 L 31.748,217.797 L 31.74,217.775 L 31.735,217.752 L 31.732,217.729 L 31.73,217.7 L 31.73,193.2 L 31.731,193.177 L 31.734,193.154 L 31.739,193.131 L 31.746,193.109 L 31.755,193.087 L 31.765,193.067 L 31.778,193.047 L 31.792,193.028 L 31.807,193.011 L 31.824,192.995 L 31.842,192.981 L 31.862,192.968 L 31.882,192.957 L 31.903,192.948 L 31.925,192.94 L 31.948,192.935 L 31.971,192.932 L 32.0,192.93 L 34.829,192.93 L 34.829,170.069 L 32.0,170.069 L 31.977,170.068 L 31.954,170.065 L 31.931,170.06 L 31.909,170.053 L 31.887,170.044 L 31.867,170.034 L 31.847,170.021 L 31.828,170.007 L 31.811,169.992 L 31.795,169.975 L 31.781,169.957 L 31.768,169.937 L 31.757,169.917 L 31.748,169.896 L 31.74,169.874 L 31.735,169.851 L 31.732,169.828 L 31.73,169.799 L 31.73,146.299 L 31.731,146.276 L 31.734,146.253 L 31.739,146.23 L 31.746,146.208 L 31.755,146.186 L 31.765,146.166 L 31.778,146.146 L 31.792,146.127 L 31.807,146.11 L 31.824,146.094 L 31.842,146.08 L 31.862,146.067 L 31.882,146.056 L 31.903,146.047 L 31.925,146.039 L 31.948,146.034 L 31.971,146.031 L 32.0,146.029 L 34.83,146.029 L 34.83,123.169 L 32.0,123.169 L 31.977,123.168 L 31.954,123.165 L 31.931,123.16 L 31.909,123.153 L 31.887,123.144 L 31.867,123.134 L 31.847,123.121 L 31.828,123.107 L 31.811,123.092 L 31.795,123.075 L 31.781,123.057 L 31.768,123.037 L 31.757,123.017 L 31.748,122.996 L 31.74,122.974 L 31.735,122.951 L 31.732,122.928 L 31.73,122.899 L 31.73,99.399 L 31.731,99.376 L 31.734,99.353 L 31.739,99.33 L 31.746,99.308 L 31.755,99.286 L 31.765,99.266 L 31.778,99.246 L 31.792,99.227 L 31.807,99.21 L 31.824,99.194 L 31.842,99.18 L 31.862,99.167 L 31.882,99.156 L 31.903,99.147 L 31.925,99.139 L 31.948,99.134 L 31.971,99.131 L 32.0,99.129 L 34.83,99.129 L 34.83,76.269 L 32.0,76.269 L 31.977,76.268 L 31.954,76.265 L 31.931,76.26 L 31.909,76.253 L 31.887,76.244 L 31.867,76.234 L 31.847,76.221 L 31.828,76.207 L 31.811,76.192 L 31.795,76.175 L 31.781,76.157 L 31.768,76.137 L 31.757,76.117 L 31.748,76.096 L 31.74,76.074 L 31.735,76.051 L 31.732,76.028 L 31.73,75.999 L 31.73,51.5 L 31.731,51.477 L 31.734,51.454 L 31.739,51.431 L 31.746,51.409 L 31.755,51.387 L 31.765,51.367 L 31.778,51.347 L 31.792,51.328 L 31.807,51.311 L 31.824,51.295 L 31.842,51.281 L 31.862,51.268 L 31.882,51.257 L 31.903,51.248 L 31.925,51.24 L 31.948,51.235 L 31.971,51.232 L 32.0,51.23 L 77.8,51.23 Z M 264.386,185.537 L 265.252,198.73 L 285.83,198.73 L 285.83,182.905 Z M 229.423,191.455 L 225.36,198.73 L 255.313,198.73 L 254.543,185.639 L 236.509,183.287 Z M 187.128,198.73 L 214.941,198.73 L 218.47,192.414 L 177.323,186.79 Z M 126.37,198.454 L 126.37,198.73 L 176.229,198.73 L 167.963,188.659 L 146.262,186.677 Z M 75.496,194.354 L 70.699,196.63 L 111.428,196.63 L 93.484,189.285 Z M 95.625,174.155 L 98.524,184.4 L 120.878,193.499 L 139.058,182.689 L 129.159,159.755 Z M 61.853,193.482 L 66.666,191.207 L 61.503,185.169 Z M 64.293,175.466 L 74.995,188.193 L 88.466,184.413 L 85.783,174.924 L 76.696,172.677 Z M 207.517,164.15 L 184.281,181.919 L 222.093,187.013 L 228.334,180.004 L 212.508,162.998 Z M 148.585,181.047 L 169.642,183.123 L 172.056,181.771 L 195.487,163.807 L 138.928,158.71 Z M 222.765,162.007 L 237.231,177.445 L 259.302,180.328 L 285.83,177.061 L 285.83,163.84 L 246.8,159.272 Z M 52.67,169.214 L 57.12,170.918 L 70.585,167.915 L 57.835,145.456 L 52.67,144.995 Z M 67.924,144.9 L 80.777,167.564 L 89.476,169.617 L 120.629,156.28 L 69.195,144.675 Z M 143.535,153.359 L 203.883,158.827 L 209.199,157.688 L 206.076,134.947 Z M 255.164,154.406 L 285.83,157.997 L 285.83,152.696 L 265.456,146.003 Z M 215.593,132.255 L 218.931,156.603 L 243.89,153.841 L 258.894,141.502 L 253.684,122.136 L 240.341,119.782 Z M 94.197,128.363 L 77.445,140.467 L 128.563,151.87 L 130.711,131.36 L 120.248,126.275 Z M 140.548,132.017 L 138.81,148.427 L 197.788,131.017 L 171.699,124.278 Z M 268.524,140.39 L 285.624,146.058 L 265.769,129.735 Z M 52.67,124.04 L 52.67,139.156 L 61.294,140.028 L 66.592,139.145 L 85.48,125.471 L 80.604,120.783 Z M 268.477,122.008 L 285.83,136.327 L 285.83,120.396 Z M 167.952,90.248 L 176.218,119.178 L 209.469,127.813 L 233.671,115.564 L 229.291,102.231 L 172.378,89.971 Z M 124.386,97.858 L 126.655,121.826 L 136.631,126.814 L 166.165,119.406 L 157.782,89.621 L 146.729,86.687 Z M 84.36,107.299 L 87.733,116.55 L 94.098,122.621 L 116.606,120.754 L 114.759,100.728 Z M 52.67,105.102 L 52.67,118.197 L 77.227,115.371 L 74.399,107.733 L 56.511,103.978 Z M 244.63,95.051 L 238.909,100.675 L 243.407,114.362 L 258.924,117.13 L 259.584,117.13 L 285.83,114.555 L 285.83,97.922 L 258.498,92.575 Z M 61.07,98.881 L 78.598,102.524 L 107.824,96.158 L 61.07,82.064 Z M 208.774,70.47 L 182.041,85.983 L 231.515,96.605 L 236.205,92.011 L 231.582,70.47 Z M 118.023,70.47 L 69.608,78.181 L 118.876,93.01 L 140.119,82.488 L 132.947,70.47 Z M 268.443,88.489 L 285.83,91.872 L 285.83,79.987 Z M 241.535,70.47 L 245.509,88.889 L 256.117,87.041 L 277.046,76.771 L 267.021,70.47 Z M 143.377,70.47 L 149.874,81.267 L 163.027,84.728 L 170.822,84.333 L 194.698,70.47 Z M 280.445,70.47 L 285.83,73.815 L 285.83,70.47 Z"></path></g><g data-name="face2" id="face2"><path d="M 387.447,49.431 L 387.47,49.434 L 387.493,49.439 L 387.515,49.446 L 387.537,49.455 L 387.557,49.465 L 387.577,49.478 L 387.596,49.492 L 387.613,49.507 L 387.629,49.524 L 387.643,49.542 L 387.656,49.562 L 387.667,49.582 L 387.676,49.603 L 387.684,49.625 L 387.689,49.648 L 387.692,49.671 L 387.694,49.7 L 387.694,52.53 L 422.105,52.53 L 422.105,49.7 L 422.106,49.677 L 422.109,49.654 L 422.114,49.631 L 422.121,49.609 L 422.13,49.587 L 422.14,49.567 L 422.153,49.547 L 422.167,49.528 L 422.182,49.511 L 422.199,49.495 L 422.217,49.481 L 422.237,49.468 L 422.257,49.457 L 422.278,49.448 L 422.3,49.44 L 422.323,49.435 L 422.346,49.432 L 422.375,49.43 L 457.424,49.43 L 457.447,49.431 L 457.47,49.434 L 457.493,49.439 L 457.515,49.446 L 457.537,49.455 L 457.557,49.465 L 457.577,49.478 L 457.596,49.492 L 457.613,49.507 L 457.629,49.524 L 457.643,49.542 L 457.656,49.562 L 457.667,49.582 L 457.676,49.603 L 457.684,49.625 L 457.689,49.648 L 457.692,49.671 L 457.694,49.7 L 457.694,52.53 L 492.104,52.53 L 492.104,49.7 L 492.105,49.677 L 492.108,49.654 L 492.113,49.631 L 492.12,49.609 L 492.129,49.587 L 492.139,49.567 L 492.152,49.547 L 492.166,49.528 L 492.181,49.511 L 492.198,49.495 L 492.216,49.481 L 492.236,49.468 L 492.256,49.457 L 492.277,49.448 L 492.299,49.44 L 492.322,49.435 L 492.345,49.432 L 492.374,49.43 L 527.425,49.43 L 527.448,49.431 L 527.471,49.434 L 527.494,49.439 L 527.516,49.446 L 527.538,49.455 L 527.558,49.465 L 527.578,49.478 L 527.597,49.492 L 527.614,49.507 L 527.63,49.524 L 527.644,49.542 L 527.657,49.562 L 527.668,49.582 L 527.677,49.603 L 527.685,49.625 L 527.69,49.648 L 527.693,49.671 L 527.695,49.7 L 527.695,52.53 L 573.3,52.53 L 573.323,52.531 L 573.346,52.534 L 573.369,52.539 L 573.391,52.546 L 573.413,52.555 L 573.433,52.565 L 573.453,52.578 L 573.472,52.592 L 573.489,52.607 L 573.505,52.624 L 573.519,52.642 L 573.532,52.662 L 573.543,52.682 L 573.552,52.703 L 573.56,52.725 L 573.565,52.748 L 573.568,52.771 L 573.57,52.8 L 573.57,212.799 L 573.569,212.822 L 573.566,212.845 L 573.561,212.868 L 573.554,212.89 L 573.545,212.912 L 573.535,212.932 L 573.522,212.952 L 573.508,212.971 L 573.493,212.988 L 573.476,213.004 L 573.458,213.018 L 573.438,213.031 L 573.418,213.042 L 573.397,213.051 L 573.375,213.059 L 573.352,213.064 L 573.329,213.067 L 573.3,213.069 L 527.645,213.069 L 527.645,215.899 L 527.644,215.922 L 527.641,215.945 L 527.636,215.968 L 527.629,215.99 L 527.62,216.012 L 527.61,216.032 L 527.597,216.052 L 527.583,216.071 L 527.568,216.088 L 527.551,216.104 L 527.533,216.118 L 527.513,216.131 L 527.493,216.142 L 527.472,216.151 L 527.45,216.159 L 527.427,216.164 L 527.404,216.167 L 527.375,216.169 L 492.375,216.169 L 492.352,216.168 L 492.329,216.165 L 492.306,216.16 L 492.284,216.153 L 492.262,216.144 L 492.242,216.134 L 492.222,216.121 L 492.203,216.107 L 492.186,216.092 L 492.17,216.075 L 492.156,216.057 L 492.143,216.037 L 492.132,216.017 L 492.123,215.996 L 492.115,215.974 L 492.11,215.951 L 492.107,215.928 L 492.105,215.899 L 492.105,213.069 L 457.694,213.07 L 457.694,215.899 L 457.693,215.922 L 457.69,215.945 L 457.685,215.968 L 457.678,215.99 L 457.669,216.012 L 457.659,216.032 L 457.646,216.052 L 457.632,216.071 L 457.617,216.088 L 457.6,216.104 L 457.582,216.118 L 457.562,216.131 L 457.542,216.142 L 457.521,216.151 L 457.499,216.159 L 457.476,216.164 L 457.453,216.167 L 457.424,216.169 L 422.375,216.169 L 422.352,216.168 L 422.329,216.165 L 422.306,216.16 L 422.284,216.153 L 422.262,216.144 L 422.242,216.134 L 422.222,216.121 L 422.203,216.107 L 422.186,216.092 L 422.17,216.075 L 422.156,216.057 L 422.143,216.037 L 422.132,216.017 L 422.123,215.996 L 422.115,215.974 L 422.11,215.951 L 422.107,215.928 L 422.105,215.899 L 422.105,213.07 L 387.694,213.07 L 387.694,215.899 L 387.693,215.922 L 387.69,215.945 L 387.685,215.968 L 387.678,215.99 L 387.669,216.012 L 387.659,216.032 L 387.646,216.052 L 387.632,216.071 L 387.617,216.088 L 387.6,216.104 L 387.582,216.118 L 387.562,216.131 L 387.542,216.142 L 387.521,216.151 L 387.499,216.159 L 387.476,216.164 L 387.453,216.167 L 387.424,216.169 L 352.375,216.169 L 352.352,216.168 L 352.329,216.165 L 352.306,216.16 L 352.284,216.153 L 352.262,216.144 L 352.242,216.134 L 352.222,216.121 L 352.203,216.107 L 352.186,216.092 L 352.17,216.075 L 352.156,216.057 L 352.143,216.037 L 352.132,216.017 L 352.123,215.996 L 352.115,215.974 L 352.11,215.951 L 352.107,215.928 L 352.105,215.899 L 352.105,213.07 L 306.5,213.07 L 306.477,213.069 L 306.454,213.066 L 306.431,213.061 L 306.409,213.054 L 306.387,213.045 L 306.367,213.035 L 306.347,213.022 L 306.328,213.008 L 306.311,212.993 L 306.295,212.976 L 306.281,212.958 L 306.268,212.938 L 306.257,212.918 L 306.248,212.897 L 306.24,212.875 L 306.235,212.852 L 306.232,212.829 L 306.23,212.8 L 306.23,191.399 L 306.231,191.376 L 306.234,191.353 L 306.239,191.33 L 306.246,191.308 L 306.255,191.286 L 306.265,191.266 L 306.278,191.246 L 306.292,191.227 L 306.307,191.21 L 306.324,191.194 L 306.342,191.18 L 306.362,191.167 L 306.382,191.156 L 306.403,191.147 L 306.425,191.139 L 306.448,191.134 L 306.471,191.131 L 306.5,191.129 L 309.33,191.129 L 309.33,168.27 L 306.5,168.27 L 306.477,168.269 L 306.454,168.266 L 306.431,168.261 L 306.409,168.254 L 306.387,168.245 L 306.367,168.235 L 306.347,168.222 L 306.328,168.208 L 306.311,168.193 L 306.295,168.176 L 306.281,168.158 L 306.268,168.138 L 306.257,168.118 L 306.248,168.097 L 306.24,168.075 L 306.235,168.052 L 306.232,168.029 L 306.23,168.0 L 306.23,144.5 L 306.231,144.477 L 306.234,144.454 L 306.239,144.431 L 306.246,144.409 L 306.255,144.387 L 306.265,144.367 L 306.278,144.347 L 306.292,144.328 L 306.307,144.311 L 306.324,144.295 L 306.342,144.281 L 306.362,144.268 L 306.382,144.257 L 306.403,144.248 L 306.425,144.24 L 306.448,144.235 L 306.471,144.232 L 306.5,144.23 L 309.33,144.23 L 309.33,121.369 L 306.5,121.369 L 306.477,121.368 L 306.454,121.365 L 306.431,121.36 L 306.409,121.353 L 306.387,121.344 L 306.367,121.334 L 306.347,121.321 L 306.328,121.307 L 306.311,121.292 L 306.295,121.275 L 306.281,121.257 L 306.268,121.237 L 306.257,121.217 L 306.248,121.196 L 306.24,121.174 L 306.235,121.151 L 306.232,121.128 L 306.23,121.099 L 306.23,97.599 L 306.231,97.576 L 306.234,97.553 L 306.239,97.53 L 306.246,97.508 L 306.255,97.486 L 306.265,97.466 L 306.278,97.446 L 306.292,97.427 L 306.307,97.41 L 306.324,97.394 L 306.342,97.38 L 306.362,97.367 L 306.382,97.356 L 306.403,97.347 L 306.425,97.339 L 306.448,97.334 L 306.471,97.331 L 306.5,97.329 L 309.33,97.329 L 309.33,74.469 L 306.5,74.469 L 306.477,74.468 L 306.454,74.465 L 306.431,74.46 L 306.409,74.453 L 306.387,74.444 L 306.367,74.434 L 306.347,74.421 L 306.328,74.407 L 306.311,74.392 L 306.295,74.375 L 306.281,74.357 L 306.268,74.337 L 306.257,74.317 L 306.248,74.296 L 306.24,74.274 L 306.235,74.251 L 306.232,74.228 L 306.23,74.199 L 306.23,52.8 L 306.231,52.777 L 306.234,52.754 L 306.239,52.731 L 306.246,52.709 L 306.255,52.687 L 306.265,52.667 L 306.278,52.647 L 306.292,52.628 L 306.307,52.611 L 306.324,52.595 L 306.342,52.581 L 306.362,52.568 L 306.382,52.557 L 306.403,52.548 L 306.425,52.54 L 306.448,52.535 L 306.471,52.532 L 306.5,52.53 L 352.154,52.53 L 352.154,49.7 L 352.155,49.677 L 352.158,49.654 L 352.163,49.631 L 352.17,49.609 L 352.179,49.587 L 352.189,49.567 L 352.202,49.547 L 352.216,49.528 L 352.231,49.511 L 352.248,49.495 L 352.266,49.481 L 352.286,49.468 L 352.306,49.457 L 352.327,49.448 L 352.349,49.44 L 352.372,49.435 L 352.395,49.432 L 352.424,49.43 L 387.424,49.43 Z M 455.695,177.924 L 457.742,196.93 L 538.7,196.93 L 532.971,191.747 L 466.59,176.075 Z M 403.992,196.256 L 404.36,196.93 L 447.8,196.93 L 446.266,182.361 Z M 328.37,190.933 L 328.37,196.93 L 393.908,196.93 L 393.495,196.282 L 378.219,183.585 Z M 535.91,161.383 L 541.149,188.464 L 544.349,191.481 L 561.43,165.021 L 561.43,153.072 Z M 401.23,176.77 L 390.787,178.858 L 386.895,180.759 L 399.458,191.197 L 444.494,176.349 L 444.139,176.171 Z M 328.37,154.089 L 328.37,185.087 L 377.919,177.739 L 382.404,175.497 L 363.811,148.103 L 356.473,143.798 Z M 503.868,156.87 L 475.85,172.1 L 530.554,185.04 L 525.968,161.82 L 506.466,156.87 Z M 391.122,172.799 L 395.093,171.987 L 392.66,156.414 L 377.133,152.153 Z M 441.253,142.233 L 440.578,146.769 L 450.414,171.707 L 452.145,172.619 L 464.31,170.542 L 495.42,153.554 L 479.876,140.747 L 450.479,133.597 Z M 402.608,156.415 L 404.93,171.027 L 439.804,170.536 L 431.932,150.708 Z M 514.287,152.643 L 530.29,156.619 L 561.43,146.504 L 561.43,138.574 L 538.838,128.467 L 535.02,128.277 Z M 363.322,139.64 L 370.907,144.249 L 397.61,151.423 L 430.869,144.87 L 431.079,143.746 L 364.21,138.679 Z M 489.911,139.07 L 504.526,151.072 L 525.52,126.447 L 521.32,125.286 Z M 328.37,147.314 L 353.546,138.069 L 356.646,134.776 L 357.7,128.067 L 328.37,115.904 Z M 367.649,127.857 L 366.813,133.153 L 433.802,138.222 L 443.409,129.301 L 442.265,122.629 L 390.558,112.287 Z M 452.112,122.596 L 453.133,127.978 L 482.376,135.216 L 513.992,121.328 L 511.377,119.149 L 486.804,113.378 Z M 547.048,124.906 L 561.43,131.382 L 561.43,108.904 Z M 345.915,98.865 L 333.384,110.909 L 362.068,122.795 L 383.69,108.084 L 381.472,99.693 L 380.509,99.256 L 373.571,97.372 Z M 523.862,111.436 L 520.266,116.453 L 524.129,119.657 L 533.451,122.433 L 537.887,122.722 L 555.497,103.091 Z M 391.319,99.244 L 393.416,106.868 L 441.536,116.472 L 441.826,100.909 L 406.329,91.886 Z M 451.768,99.697 L 451.378,116.447 L 482.177,108.28 L 487.081,88.959 L 466.984,80.627 Z M 496.712,90.263 L 492.129,108.499 L 511.889,113.097 L 515.138,108.701 L 517.0,89.58 Z M 527.05,88.413 L 525.408,104.74 L 561.43,95.292 L 561.43,79.35 Z M 328.37,93.902 L 328.37,104.668 L 336.753,96.654 L 330.765,93.192 Z M 417.045,82.737 L 412.528,87.254 L 444.398,95.296 L 459.555,76.3 L 454.906,70.514 Z M 387.841,93.479 L 401.541,86.677 L 407.257,81.057 L 386.105,68.887 Z M 335.107,78.843 L 336.449,88.333 L 344.865,93.226 L 365.72,92.067 L 351.788,79.96 L 337.998,78.572 Z M 375.876,68.67 L 361.055,77.738 L 377.72,92.247 L 377.907,92.278 L 376.249,68.67 Z M 464.359,68.67 L 468.967,74.476 L 493.849,84.728 L 521.061,83.731 L 561.43,73.092 L 561.43,68.67 Z M 399.709,68.67 L 414.331,77.106 L 440.389,68.67 Z M 348.241,68.67 L 344.884,73.479 L 352.938,74.322 L 362.236,68.67 Z M 328.37,68.67 L 328.37,72.998 L 330.522,73.625 L 334.448,73.147 L 337.582,68.67 Z"></path></g><g data-name="face3" id="face3"><path d="M 112.948,236.531 L 112.971,236.534 L 112.994,236.539 L 113.016,236.546 L 113.038,236.555 L 113.058,236.565 L 113.078,236.578 L 113.097,236.592 L 113.114,236.607 L 113.13,236.624 L 113.144,236.642 L 113.157,236.662 L 113.168,236.682 L 113.177,236.703 L 113.185,236.725 L 113.19,236.748 L 113.193,236.771 L 113.195,236.8 L 113.195,239.63 L 147.605,239.63 L 147.605,236.8 L 147.606,236.777 L 147.609,236.754 L 147.614,236.731 L 147.621,236.709 L 147.63,236.687 L 147.64,236.667 L 147.653,236.647 L 147.667,236.628 L 147.682,236.611 L 147.699,236.595 L 147.717,236.581 L 147.737,236.568 L 147.757,236.557 L 147.778,236.548 L 147.8,236.54 L 147.823,236.535 L 147.846,236.532 L 147.875,236.53 L 182.925,236.53 L 182.948,236.531 L 182.971,236.534 L 182.994,236.539 L 183.016,236.546 L 183.038,236.555 L 183.058,236.565 L 183.078,236.578 L 183.097,236.592 L 183.114,236.607 L 183.13,236.624 L 183.144,236.642 L 183.157,236.662 L 183.168,236.682 L 183.177,236.703 L 183.185,236.725 L 183.19,236.748 L 183.193,236.771 L 183.195,236.8 L 183.195,239.63 L 217.605,239.63 L 217.605,236.8 L 217.606,236.777 L 217.609,236.754 L 217.614,236.731 L 217.621,236.709 L 217.63,236.687 L 217.64,236.667 L 217.653,236.647 L 217.667,236.628 L 217.682,236.611 L 217.699,236.595 L 217.717,236.581 L 217.737,236.568 L 217.757,236.557 L 217.778,236.548 L 217.8,236.54 L 217.823,236.535 L 217.846,236.532 L 217.875,236.53 L 252.925,236.53 L 252.948,236.531 L 252.971,236.534 L 252.994,236.539 L 253.016,236.546 L 253.038,236.555 L 253.058,236.565 L 253.078,236.578 L 253.097,236.592 L 253.114,236.607 L 253.13,236.624 L 253.144,236.642 L 253.157,236.662 L 253.168,236.682 L 253.177,236.703 L 253.185,236.725 L 253.19,236.748 L 253.193,236.771 L 253.195,236.8 L 253.195,239.63 L 298.8,239.63 L 298.823,239.631 L 298.846,239.634 L 298.869,239.639 L 298.891,239.646 L 298.913,239.655 L 298.933,239.665 L 298.953,239.678 L 298.972,239.692 L 298.989,239.707 L 299.005,239.724 L 299.019,239.742 L 299.032,239.762 L 299.043,239.782 L 299.052,239.803 L 299.06,239.825 L 299.065,239.848 L 299.068,239.871 L 299.07,239.9 L 299.07,399.9 L 299.069,399.923 L 299.066,399.946 L 299.061,399.969 L 299.054,399.991 L 299.045,400.013 L 299.035,400.033 L 299.022,400.053 L 299.008,400.072 L 298.993,400.089 L 298.976,400.105 L 298.958,400.119 L 298.938,400.132 L 298.918,400.143 L 298.897,400.152 L 298.875,400.16 L 298.852,400.165 L 298.829,400.168 L 298.8,400.17 L 253.145,400.17 L 253.145,403.0 L 253.144,403.023 L 253.141,403.046 L 253.136,403.069 L 253.129,403.091 L 253.12,403.113 L 253.11,403.133 L 253.097,403.153 L 253.083,403.172 L 253.068,403.189 L 253.051,403.205 L 253.033,403.219 L 253.013,403.232 L 252.993,403.243 L 252.972,403.252 L 252.95,403.26 L 252.927,403.265 L 252.904,403.268 L 252.875,403.27 L 217.875,403.27 L 217.852,403.269 L 217.829,403.266 L 217.806,403.261 L 217.784,403.254 L 217.762,403.245 L 217.742,403.235 L 217.722,403.222 L 217.703,403.208 L 217.686,403.193 L 217.67,403.176 L 217.656,403.158 L 217.643,403.138 L 217.632,403.118 L 217.623,403.097 L 217.615,403.075 L 217.61,403.052 L 217.607,403.029 L 217.605,403.0 L 217.605,400.17 L 183.195,400.17 L 183.195,403.0 L 183.194,403.023 L 183.191,403.046 L 183.186,403.069 L 183.179,403.091 L 183.17,403.113 L 183.16,403.133 L 183.147,403.153 L 183.133,403.172 L 183.118,403.189 L 183.101,403.205 L 183.083,403.219 L 183.063,403.232 L 183.043,403.243 L 183.022,403.252 L 183.0,403.26 L 182.977,403.265 L 182.954,403.268 L 182.925,403.27 L 147.875,403.27 L 147.852,403.269 L 147.829,403.266 L 147.806,403.261 L 147.784,403.254 L 147.762,403.245 L 147.742,403.235 L 147.722,403.222 L 147.703,403.208 L 147.686,403.193 L 147.67,403.176 L 147.656,403.158 L 147.643,403.138 L 147.632,403.118 L 147.623,403.097 L 147.615,403.075 L 147.61,403.052 L 147.607,403.029 L 147.605,403.0 L 147.605,400.17 L 113.195,400.17 L 113.195,403.0 L 113.194,403.023 L 113.191,403.046 L 113.186,403.069 L 113.179,403.091 L 113.17,403.113 L 113.16,403.133 L 113.147,403.153 L 113.133,403.172 L 113.118,403.189 L 113.101,403.205 L 113.083,403.219 L 113.063,403.232 L 113.043,403.243 L 113.022,403.252 L 113.0,403.26 L 112.977,403.265 L 112.954,403.268 L 112.925,403.27 L 77.875,403.27 L 77.852,403.269 L 77.829,403.266 L 77.806,403.261 L 77.784,403.254 L 77.762,403.245 L 77.742,403.235 L 77.722,403.222 L 77.703,403.208 L 77.686,403.193 L 77.67,403.176 L 77.656,403.158 L 77.643,403.138 L 77.632,403.118 L 77.623,403.097 L 77.615,403.075 L 77.61,403.052 L 77.607,403.029 L 77.605,403.0 L 77.605,400.17 L 32.0,400.17 L 31.977,400.169 L 31.954,400.166 L 31.931,400.161 L 31.909,400.154 L 31.887,400.145 L 31.867,400.135 L 31.847,400.122 L 31.828,400.108 L 31.811,400.093 L 31.795,400.076 L 31.781,400.058 L 31.768,400.038 L 31.757,400.018 L 31.748,399.997 L 31.74,399.975 L 31.735,399.952 L 31.732,399.929 L 31.73,399.9 L 31.73,378.5 L 31.731,378.477 L 31.734,378.454 L 31.739,378.431 L 31.746,378.409 L 31.755,378.387 L 31.765,378.367 L 31.778,378.347 L 31.792,378.328 L 31.807,378.311 L 31.824,378.295 L 31.842,378.281 L 31.862,378.268 L 31.882,378.257 L 31.903,378.248 L 31.925,378.24 L 31.948,378.235 L 31.971,378.232 L 32.0,378.23 L 34.83,378.23 L 34.83,355.37 L 32.0,355.37 L 31.977,355.369 L 31.954,355.366 L 31.931,355.361 L 31.909,355.354 L 31.887,355.345 L 31.867,355.335 L 31.847,355.322 L 31.828,355.308 L 31.811,355.293 L 31.795,355.276 L 31.781,355.258 L 31.768,355.238 L 31.757,355.218 L 31.748,355.197 L 31.74,355.175 L 31.735,355.152 L 31.732,355.129 L 31.73,355.1 L 31.73,331.6 L 31.731,331.577 L 31.734,331.554 L 31.739,331.531 L 31.746,331.509 L 31.755,331.487 L 31.765,331.467 L 31.778,331.447 L 31.792,331.428 L 31.807,331.411 L 31.824,331.395 L 31.842,331.381 L 31.862,331.368 L 31.882,331.357 L 31.903,331.348 L 31.925,331.34 L 31.948,331.335 L 31.971,331.332 L 32.0,331.33 L 34.83,331.33 L 34.83,308.47 L 32.0,308.47 L 31.977,308.469 L 31.954,308.466 L 31.931,308.461 L 31.909,308.454 L 31.887,308.445 L 31.867,308.435 L 31.847,308.422 L 31.828,308.408 L 31.811,308.393 L 31.795,308.376 L 31.781,308.358 L 31.768,308.338 L 31.757,308.318 L 31.748,308.297 L 31.74,308.275 L 31.735,308.252 L 31.732,308.229 L 31.73,308.2 L 31.73,284.7 L 31.731,284.677 L 31.734,284.654 L 31.739,284.631 L 31.746,284.609 L 31.755,284.587 L 31.765,284.567 L 31.778,284.547 L 31.792,284.528 L 31.807,284.511 L 31.824,284.495 L 31.842,284.481 L 31.862,284.468 L 31.882,284.457 L 31.903,284.448 L 31.925,284.44 L 31.948,284.435 L 31.971,284.432 L 32.0,284.43 L 34.83,284.43 L 34.83,261.568 L 32.0,261.568 L 31.977,261.567 L 31.954,261.564 L 31.931,261.559 L 31.909,261.552 L 31.887,261.543 L 31.867,261.533 L 31.847,261.52 L 31.828,261.506 L 31.811,261.491 L 31.795,261.474 L 31.781,261.456 L 31.768,261.436 L 31.757,261.416 L 31.748,261.395 L 31.74,261.373 L 31.735,261.35 L 31.732,261.327 L 31.73,261.298 L 31.73,239.9 L 31.731,239.877 L 31.734,239.854 L 31.739,239.831 L 31.746,239.809 L 31.755,239.787 L 31.765,239.767 L 31.778,239.747 L 31.792,239.728 L 31.807,239.711 L 31.824,239.695 L 31.842,239.681 L 31.862,239.668 L 31.882,239.657 L 31.903,239.648 L 31.925,239.64 L 31.948,239.635 L 31.971,239.632 L 32.0,239.63 L 77.655,239.63 L 77.655,236.8 L 77.656,236.777 L 77.659,236.754 L 77.664,236.731 L 77.671,236.709 L 77.68,236.687 L 77.69,236.667 L 77.703,236.647 L 77.717,236.628 L 77.732,236.611 L 77.749,236.595 L 77.767,236.581 L 77.787,236.568 L 77.807,236.557 L 77.828,236.548 L 77.85,236.54 L 77.873,236.535 L 77.896,236.532 L 77.925,236.53 L 112.925,236.53 Z M 259.492,384.03 L 279.321,384.03 L 265.26,378.712 Z M 246.693,354.764 L 212.038,378.497 L 214.476,384.03 L 247.795,384.03 L 259.29,373.427 L 272.285,353.006 Z M 152.181,362.361 L 142.811,384.03 L 204.288,384.03 L 202.082,378.974 L 185.859,366.832 L 174.245,361.174 Z M 57.27,384.03 L 110.49,384.03 L 72.634,377.181 Z M 87.962,353.766 L 77.818,372.201 L 133.339,382.196 L 142.861,360.401 L 133.014,353.967 L 113.395,353.07 Z M 283.886,351.41 L 269.707,373.565 L 285.93,379.708 L 285.93,350.429 Z M 52.87,378.783 L 67.407,372.29 L 78.743,351.687 L 78.662,351.633 L 52.87,339.82 Z M 197.317,366.026 L 206.807,373.167 L 228.324,358.415 Z M 198.494,346.764 L 182.829,357.856 L 190.43,361.515 L 229.316,352.012 L 204.08,346.372 Z M 140.837,350.498 L 150.374,356.725 L 173.408,355.534 L 190.083,343.665 L 189.954,343.536 L 149.55,330.134 Z M 212.045,342.046 L 243.747,349.134 L 244.41,349.229 L 277.728,346.935 L 278.008,346.794 L 231.949,322.63 Z M 111.682,320.226 L 117.818,347.54 L 131.626,348.221 L 141.425,325.456 L 141.346,324.588 L 114.444,313.749 Z M 88.888,348.112 L 107.864,347.54 L 103.859,329.994 Z M 52.87,329.495 L 52.87,332.626 L 80.323,345.069 L 101.967,319.056 L 104.724,312.44 Z M 241.118,319.672 L 285.93,343.253 L 285.93,306.659 Z M 195.693,315.879 L 198.661,340.709 L 198.848,341.021 L 201.784,340.837 L 224.577,318.636 L 218.688,314.551 L 206.817,311.781 Z M 169.151,319.367 L 152.39,324.509 L 188.182,336.311 L 185.963,317.793 Z M 52.87,309.633 L 52.87,322.927 L 98.211,307.975 L 63.368,301.587 Z M 118.502,297.513 L 114.521,306.739 L 114.753,306.971 L 146.613,319.814 L 161.726,315.232 L 148.558,286.341 Z M 255.887,298.958 L 228.722,312.541 L 233.151,315.704 L 278.328,302.515 L 268.35,296.584 Z M 157.258,283.035 L 171.165,313.413 L 188.739,311.734 L 200.747,307.341 L 186.053,270.062 Z M 210.499,306.569 L 220.766,308.915 L 245.671,296.511 L 198.094,274.921 Z M 73.724,281.07 L 58.132,283.799 L 65.369,295.956 L 105.739,303.395 L 108.76,296.504 L 86.31,282.163 L 74.586,281.07 Z M 52.87,300.154 L 56.042,297.733 L 52.87,292.557 Z M 275.262,285.122 L 274.78,292.153 L 285.93,298.823 L 285.93,274.835 Z M 254.436,293.219 L 264.946,291.273 L 265.313,286.318 L 218.37,276.834 Z M 94.928,279.054 L 115.033,292.0 L 140.911,282.405 L 104.57,269.412 Z M 193.938,255.77 L 192.785,264.896 L 193.854,265.876 L 193.986,265.942 L 268.214,280.807 L 285.93,263.685 L 285.93,255.77 Z M 111.586,255.77 L 108.45,264.039 L 150.188,279.009 L 182.951,264.216 L 183.995,255.77 Z M 52.87,267.49 L 52.87,278.778 L 66.79,276.299 L 58.359,260.203 Z M 85.015,255.77 L 80.432,275.856 L 86.197,276.321 L 98.168,264.35 L 101.409,255.77 Z M 66.346,255.77 L 72.4,267.329 L 75.061,255.77 Z"></path></g><g data-name="face4" id="face4"><path d="M 352.823,236.131 L 352.846,236.134 L 352.869,236.139 L 352.891,236.146 L 352.913,236.155 L 352.933,236.165 L 352.953,236.178 L 352.972,236.192 L 352.989,236.207 L 353.005,236.224 L 353.019,236.242 L 353.032,236.262 L 353.043,236.282 L 353.052,236.303 L 353.06,236.325 L 353.065,236.348 L 353.068,236.371 L 353.07,236.4 L 353.07,239.23 L 387.53,239.23 L 387.53,236.4 L 387.531,236.377 L 387.534,236.354 L 387.539,236.331 L 387.546,236.309 L 387.555,236.287 L 387.565,236.267 L 387.578,236.247 L 387.592,236.228 L 387.607,236.211 L 387.624,236.195 L 387.642,236.181 L 387.662,236.168 L 387.682,236.157 L 387.703,236.148 L 387.725,236.14 L 387.748,236.135 L 387.771,236.132 L 387.8,236.13 L 422.8,236.13 L 422.823,236.131 L 422.846,236.134 L 422.869,236.139 L 422.891,236.146 L 422.913,236.155 L 422.933,236.165 L 422.953,236.178 L 422.972,236.192 L 422.989,236.207 L 423.005,236.224 L 423.019,236.242 L 423.032,236.262 L 423.043,236.282 L 423.052,236.303 L 423.06,236.325 L 423.065,236.348 L 423.068,236.371 L 423.07,236.4 L 423.07,239.23 L 457.53,239.23 L 457.53,236.4 L 457.531,236.377 L 457.534,236.354 L 457.539,236.331 L 457.546,236.309 L 457.555,236.287 L 457.565,236.267 L 457.578,236.247 L 457.592,236.228 L 457.607,236.211 L 457.624,236.195 L 457.642,236.181 L 457.662,236.168 L 457.682,236.157 L 457.703,236.148 L 457.725,236.14 L 457.748,236.135 L 457.771,236.132 L 457.8,236.13 L 492.8,236.13 L 492.823,236.131 L 492.846,236.134 L 492.869,236.139 L 492.891,236.146 L 492.913,236.155 L 492.933,236.165 L 492.953,236.178 L 492.972,236.192 L 492.989,236.207 L 493.005,236.224 L 493.019,236.242 L 493.032,236.262 L 493.043,236.282 L 493.052,236.303 L 493.06,236.325 L 493.065,236.348 L 493.068,236.371 L 493.07,236.4 L 493.07,239.23 L 527.53,239.23 L 527.53,236.4 L 527.531,236.377 L 527.534,236.354 L 527.539,236.331 L 527.546,236.309 L 527.555,236.287 L 527.565,236.267 L 527.578,236.247 L 527.592,236.228 L 527.607,236.211 L 527.624,236.195 L 527.642,236.181 L 527.662,236.168 L 527.682,236.157 L 527.703,236.148 L 527.725,236.14 L 527.748,236.135 L 527.771,236.132 L 527.8,236.13 L 573.7,236.13 L 573.723,236.131 L 573.746,236.134 L 573.769,236.139 L 573.791,236.146 L 573.813,236.155 L 573.833,236.165 L 573.853,236.178 L 573.872,236.192 L 573.889,236.207 L 573.905,236.224 L 573.919,236.242 L 573.932,236.262 L 573.943,236.282 L 573.952,236.303 L 573.96,236.325 L 573.965,236.348 L 573.968,236.371 L 573.97,236.4 L 573.97,402.6 L 573.969,402.623 L 573.966,402.646 L 573.961,402.669 L 573.954,402.691 L 573.945,402.713 L 573.935,402.733 L 573.922,402.753 L 573.908,402.772 L 573.893,402.789 L 573.876,402.805 L 573.858,402.819 L 573.838,402.832 L 573.818,402.843 L 573.797,402.852 L 573.775,402.86 L 573.752,402.865 L 573.729,402.868 L 573.7,402.87 L 527.8,402.87 L 527.777,402.869 L 527.754,402.866 L 527.731,402.861 L 527.709,402.854 L 527.687,402.845 L 527.667,402.835 L 527.647,402.822 L 527.628,402.808 L 527.611,402.793 L 527.595,402.776 L 527.581,402.758 L 527.568,402.738 L 527.557,402.718 L 527.548,402.697 L 527.54,402.675 L 527.535,402.652 L 527.532,402.629 L 527.53,402.6 L 527.53,399.77 L 493.069,399.77 L 493.069,402.6 L 493.068,402.623 L 493.065,402.646 L 493.06,402.669 L 493.053,402.691 L 493.044,402.713 L 493.034,402.733 L 493.021,402.753 L 493.007,402.772 L 492.992,402.789 L 492.975,402.805 L 492.957,402.819 L 492.937,402.832 L 492.917,402.843 L 492.896,402.852 L 492.874,402.86 L 492.851,402.865 L 492.828,402.868 L 492.799,402.87 L 457.799,402.87 L 457.776,402.869 L 457.753,402.866 L 457.73,402.861 L 457.708,402.854 L 457.686,402.845 L 457.666,402.835 L 457.646,402.822 L 457.627,402.808 L 457.61,402.793 L 457.594,402.776 L 457.58,402.758 L 457.567,402.738 L 457.556,402.718 L 457.547,402.697 L 457.539,402.675 L 457.534,402.652 L 457.531,402.629 L 457.529,402.6 L 457.529,399.77 L 423.069,399.77 L 423.069,402.6 L 423.068,402.623 L 423.065,402.646 L 423.06,402.669 L 423.053,402.691 L 423.044,402.713 L 423.034,402.733 L 423.021,402.753 L 423.007,402.772 L 422.992,402.789 L 422.975,402.805 L 422.957,402.819 L 422.937,402.832 L 422.917,402.843 L 422.896,402.852 L 422.874,402.86 L 422.851,402.865 L 422.828,402.868 L 422.799,402.87 L 387.799,402.87 L 387.776,402.869 L 387.753,402.866 L 387.73,402.861 L 387.708,402.854 L 387.686,402.845 L 387.666,402.835 L 387.646,402.822 L 387.627,402.808 L 387.61,402.793 L 387.594,402.776 L 387.58,402.758 L 387.567,402.738 L 387.556,402.718 L 387.547,402.697 L 387.539,402.675 L 387.534,402.652 L 387.531,402.629 L 387.529,402.6 L 387.529,399.77 L 353.069,399.77 L 353.069,402.6 L 353.068,402.623 L 353.065,402.646 L 353.06,402.669 L 353.053,402.691 L 353.044,402.713 L 353.034,402.733 L 353.021,402.753 L 353.007,402.772 L 352.992,402.789 L 352.975,402.805 L 352.957,402.819 L 352.937,402.832 L 352.917,402.843 L 352.896,402.852 L 352.874,402.86 L 352.851,402.865 L 352.828,402.868 L 352.799,402.87 L 306.9,402.87 L 306.877,402.869 L 306.854,402.866 L 306.831,402.861 L 306.809,402.854 L 306.787,402.845 L 306.767,402.835 L 306.747,402.822 L 306.728,402.808 L 306.711,402.793 L 306.695,402.776 L 306.681,402.758 L 306.668,402.738 L 306.657,402.718 L 306.648,402.697 L 306.64,402.675 L 306.635,402.652 L 306.632,402.629 L 306.63,402.6 L 306.63,378.1 L 306.631,378.077 L 306.634,378.054 L 306.639,378.031 L 306.646,378.009 L 306.655,377.987 L 306.665,377.967 L 306.678,377.947 L 306.692,377.928 L 306.707,377.911 L 306.724,377.895 L 306.742,377.881 L 306.762,377.868 L 306.782,377.857 L 306.803,377.848 L 306.825,377.84 L 306.848,377.835 L 306.871,377.832 L 306.9,377.83 L 309.73,377.83 L 309.73,354.97 L 306.9,354.97 L 306.877,354.969 L 306.854,354.966 L 306.831,354.961 L 306.809,354.954 L 306.787,354.945 L 306.767,354.935 L 306.747,354.922 L 306.728,354.908 L 306.711,354.893 L 306.695,354.876 L 306.681,354.858 L 306.668,354.838 L 306.657,354.818 L 306.648,354.797 L 306.64,354.775 L 306.635,354.752 L 306.632,354.729 L 306.63,354.7 L 306.63,331.2 L 306.631,331.177 L 306.634,331.154 L 306.639,331.131 L 306.646,331.109 L 306.655,331.087 L 306.665,331.067 L 306.678,331.047 L 306.692,331.028 L 306.707,331.011 L 306.724,330.995 L 306.742,330.981 L 306.762,330.968 L 306.782,330.957 L 306.803,330.948 L 306.825,330.94 L 306.848,330.935 L 306.871,330.932 L 306.9,330.93 L 309.73,330.93 L 309.73,308.07 L 306.9,308.07 L 306.877,308.069 L 306.854,308.066 L 306.831,308.061 L 306.809,308.054 L 306.787,308.045 L 306.767,308.035 L 306.747,308.022 L 306.728,308.008 L 306.711,307.993 L 306.695,307.976 L 306.681,307.958 L 306.668,307.938 L 306.657,307.918 L 306.648,307.897 L 306.64,307.875 L 306.635,307.852 L 306.632,307.829 L 306.63,307.8 L 306.63,284.3 L 306.631,284.277 L 306.634,284.254 L 306.639,284.231 L 306.646,284.209 L 306.655,284.187 L 306.665,284.167 L 306.678,284.147 L 306.692,284.128 L 306.707,284.111 L 306.724,284.095 L 306.742,284.081 L 306.762,284.068 L 306.782,284.057 L 306.803,284.048 L 306.825,284.04 L 306.848,284.035 L 306.871,284.032 L 306.9,284.03 L 309.73,284.03 L 309.73,261.169 L 306.9,261.169 L 306.877,261.168 L 306.854,261.165 L 306.831,261.16 L 306.809,261.153 L 306.787,261.144 L 306.767,261.134 L 306.747,261.121 L 306.728,261.107 L 306.711,261.092 L 306.695,261.075 L 306.681,261.057 L 306.668,261.037 L 306.657,261.017 L 306.648,260.996 L 306.64,260.974 L 306.635,260.951 L 306.632,260.928 L 306.63,260.899 L 306.63,236.4 L 306.631,236.377 L 306.634,236.354 L 306.639,236.331 L 306.646,236.309 L 306.655,236.287 L 306.665,236.267 L 306.678,236.247 L 306.692,236.228 L 306.707,236.211 L 306.724,236.195 L 306.742,236.181 L 306.762,236.168 L 306.782,236.157 L 306.803,236.148 L 306.825,236.14 L 306.848,236.135 L 306.871,236.132 L 306.9,236.13 L 352.8,236.13 Z M 529.036,383.63 L 552.292,383.63 L 555.554,371.156 L 544.294,370.675 Z M 510.872,345.469 L 493.876,354.802 L 511.252,383.63 L 517.1,383.63 L 536.01,367.577 L 515.384,345.373 Z M 461.479,363.783 L 470.474,383.63 L 500.723,383.63 L 485.172,357.811 Z M 419.056,360.969 L 408.366,365.245 L 416.972,383.63 L 460.279,383.63 L 451.408,364.23 L 436.47,360.471 Z M 376.73,378.67 L 375.169,383.63 L 406.773,383.63 L 398.827,366.866 L 394.479,366.772 Z M 350.565,383.63 L 365.201,383.63 L 366.34,379.951 L 340.441,378.523 Z M 335.146,383.63 L 335.493,383.63 L 335.182,383.484 Z M 349.474,373.374 L 370.026,374.425 L 384.604,364.674 L 371.133,359.898 Z M 327.67,359.763 L 327.67,372.014 L 332.133,373.723 L 336.305,373.141 L 359.211,358.897 Z M 525.572,342.467 L 524.437,343.073 L 544.92,365.034 L 556.33,365.421 L 556.33,340.984 Z M 366.75,330.817 L 374.018,354.19 L 393.749,361.131 L 401.149,361.229 L 411.644,356.954 L 404.184,339.384 L 385.444,327.783 Z M 453.2,339.294 L 443.513,356.026 L 455.6,359.121 L 485.403,351.546 L 500.99,343.079 L 474.958,335.669 L 459.772,335.272 Z M 414.362,339.361 L 421.077,355.224 L 433.742,354.835 L 442.89,339.265 L 427.407,334.883 Z M 330.184,354.01 L 363.635,353.04 L 356.69,330.834 L 354.388,330.392 Z M 327.67,345.163 L 345.718,327.691 L 327.67,320.107 Z M 496.39,314.765 L 510.296,339.697 L 510.561,339.829 L 516.229,339.731 L 518.98,338.214 L 528.855,310.859 L 526.74,310.066 L 498.203,308.084 Z M 538.601,311.74 L 529.691,336.609 L 556.33,335.243 L 556.33,308.818 Z M 480.385,322.678 L 481.054,331.091 L 497.75,335.766 L 488.678,319.437 Z M 393.367,324.273 L 409.633,334.403 L 422.901,329.783 L 429.737,314.352 L 413.449,308.207 Z M 432.973,330.124 L 447.86,334.308 L 451.777,331.94 L 439.838,319.022 L 438.234,318.263 Z M 451.701,319.754 L 460.821,329.633 L 471.009,329.922 L 470.441,322.355 L 465.726,319.372 Z M 332.451,315.039 L 354.584,324.342 L 361.306,325.726 L 383.885,322.046 L 406.88,303.61 L 399.608,283.463 L 377.782,282.673 Z M 478.025,313.444 L 474.269,316.284 L 476.13,317.498 L 486.776,313.298 L 487.605,310.313 Z M 443.282,313.351 L 445.254,314.228 L 465.309,313.632 L 466.98,312.417 L 456.105,309.58 Z M 409.138,281.841 L 416.611,302.591 L 434.811,309.415 L 452.993,304.05 L 474.686,291.725 L 463.114,284.663 L 412.948,280.076 Z M 327.67,309.275 L 368.34,280.267 L 327.67,263.999 Z M 464.607,305.509 L 474.392,308.118 L 487.068,303.989 L 479.365,297.131 Z M 555.206,255.37 L 525.908,282.284 L 533.019,305.594 L 535.228,306.422 L 557.654,302.651 L 560.83,298.706 L 560.83,255.37 Z M 485.482,292.054 L 497.01,302.237 L 522.528,304.004 L 516.914,285.514 Z M 508.289,255.37 L 472.088,281.878 L 480.649,287.014 L 517.471,279.351 L 543.508,255.37 Z M 427.169,255.37 L 417.714,274.766 L 463.423,278.922 L 495.673,255.37 Z M 385.714,255.37 L 330.542,258.207 L 377.257,276.932 L 402.046,277.828 L 407.099,275.496 L 416.869,255.37 Z"></path></g><g data-name="face5" id="face5"><path d="M 357.447,436.231 L 357.47,436.234 L 357.493,436.239 L 357.515,436.246 L 357.537,436.255 L 357.557,436.265 L 357.577,436.278 L 357.596,436.292 L 357.613,436.307 L 357.629,436.324 L 357.643,436.342 L 357.656,436.362 L 357.667,436.382 L 357.676,436.403 L 357.684,436.425 L 357.689,436.448 L 357.692,436.471 L 357.694,436.5 L 357.694,439.33 L 378.799,439.33 L 378.822,439.331 L 378.845,439.334 L 378.868,439.339 L 378.89,439.346 L 378.912,439.355 L 378.932,439.365 L 378.952,439.378 L 378.971,439.392 L 378.988,439.407 L 379.004,439.424 L 379.018,439.442 L 379.031,439.462 L 379.042,439.482 L 379.051,439.503 L 379.059,439.525 L 379.064,439.548 L 379.067,439.571 L 379.069,439.6 L 379.069,460.755 L 381.9,460.755 L 381.923,460.756 L 381.946,460.759 L 381.969,460.764 L 381.991,460.771 L 382.013,460.78 L 382.033,460.79 L 382.053,460.803 L 382.072,460.817 L 382.089,460.832 L 382.105,460.849 L 382.119,460.867 L 382.132,460.887 L 382.143,460.907 L 382.152,460.928 L 382.16,460.95 L 382.165,460.973 L 382.168,460.996 L 382.17,461.025 L 382.17,484.425 L 382.169,484.448 L 382.166,484.471 L 382.161,484.494 L 382.154,484.516 L 382.145,484.538 L 382.135,484.558 L 382.122,484.578 L 382.108,484.597 L 382.093,484.614 L 382.076,484.63 L 382.058,484.644 L 382.038,484.657 L 382.018,484.668 L 381.997,484.677 L 381.975,484.685 L 381.952,484.69 L 381.929,484.693 L 381.9,484.695 L 379.069,484.695 L 379.069,507.605 L 381.9,507.605 L 381.923,507.606 L 381.946,507.609 L 381.969,507.614 L 381.991,507.621 L 382.013,507.63 L 382.033,507.64 L 382.053,507.653 L 382.072,507.667 L 382.089,507.682 L 382.105,507.699 L 382.119,507.717 L 382.132,507.737 L 382.143,507.757 L 382.152,507.778 L 382.16,507.8 L 382.165,507.823 L 382.168,507.846 L 382.17,507.875 L 382.17,531.325 L 382.169,531.348 L 382.166,531.371 L 382.161,531.394 L 382.154,531.416 L 382.145,531.438 L 382.135,531.458 L 382.122,531.478 L 382.108,531.497 L 382.093,531.514 L 382.076,531.53 L 382.058,531.544 L 382.038,531.557 L 382.018,531.568 L 381.997,531.577 L 381.975,531.585 L 381.952,531.59 L 381.929,531.593 L 381.9,531.595 L 379.069,531.595 L 379.069,554.505 L 381.9,554.505 L 381.923,554.506 L 381.946,554.509 L 381.969,554.514 L 381.991,554.521 L 382.013,554.53 L 382.033,554.54 L 382.053,554.553 L 382.072,554.567 L 382.089,554.582 L 382.105,554.599 L 382.119,554.617 L 382.132,554.637 L 382.143,554.657 L 382.152,554.678 L 382.16,554.7 L 382.165,554.723 L 382.168,554.746 L 382.17,554.775 L 382.17,578.225 L 382.169,578.248 L 382.166,578.271 L 382.161,578.294 L 382.154,578.316 L 382.145,578.338 L 382.135,578.358 L 382.122,578.378 L 382.108,578.397 L 382.093,578.414 L 382.076,578.43 L 382.058,578.444 L 382.038,578.457 L 382.018,578.468 L 381.997,578.477 L 381.975,578.485 L 381.952,578.49 L 381.929,578.493 L 381.9,578.495 L 379.069,578.495 L 379.069,599.6 L 379.068,599.623 L 379.065,599.646 L 379.06,599.669 L 379.053,599.691 L 379.044,599.713 L 379.034,599.733 L 379.021,599.753 L 379.007,599.772 L 378.992,599.789 L 378.975,599.805 L 378.957,599.819 L 378.937,599.832 L 378.917,599.843 L 378.896,599.852 L 378.874,599.86 L 378.851,599.865 L 378.828,599.868 L 378.799,599.87 L 357.645,599.87 L 357.645,602.7 L 357.644,602.723 L 357.641,602.746 L 357.636,602.769 L 357.629,602.791 L 357.62,602.813 L 357.61,602.833 L 357.597,602.853 L 357.583,602.872 L 357.568,602.889 L 357.551,602.905 L 357.533,602.919 L 357.513,602.932 L 357.493,602.943 L 357.472,602.952 L 357.45,602.96 L 357.427,602.965 L 357.404,602.968 L 357.375,602.97 L 333.974,602.97 L 333.951,602.969 L 333.928,602.966 L 333.905,602.961 L 333.883,602.954 L 333.861,602.945 L 333.841,602.935 L 333.821,602.922 L 333.802,602.908 L 333.785,602.893 L 333.769,602.876 L 333.755,602.858 L 333.742,602.838 L 333.731,602.818 L 333.722,602.797 L 333.714,602.775 L 333.709,602.752 L 333.706,602.729 L 333.704,602.7 L 333.704,599.87 L 310.795,599.87 L 310.795,602.7 L 310.794,602.723 L 310.791,602.746 L 310.786,602.769 L 310.779,602.791 L 310.77,602.813 L 310.76,602.833 L 310.747,602.853 L 310.733,602.872 L 310.718,602.889 L 310.701,602.905 L 310.683,602.919 L 310.663,602.932 L 310.643,602.943 L 310.622,602.952 L 310.6,602.96 L 310.577,602.965 L 310.554,602.968 L 310.525,602.97 L 287.075,602.97 L 287.052,602.969 L 287.029,602.966 L 287.006,602.961 L 286.984,602.954 L 286.962,602.945 L 286.942,602.935 L 286.922,602.922 L 286.903,602.908 L 286.886,602.893 L 286.87,602.876 L 286.856,602.858 L 286.843,602.838 L 286.832,602.818 L 286.823,602.797 L 286.815,602.775 L 286.81,602.752 L 286.807,602.729 L 286.805,602.7 L 286.805,599.87 L 263.895,599.87 L 263.895,602.7 L 263.894,602.723 L 263.891,602.746 L 263.886,602.769 L 263.879,602.791 L 263.87,602.813 L 263.86,602.833 L 263.847,602.853 L 263.833,602.872 L 263.818,602.889 L 263.801,602.905 L 263.783,602.919 L 263.763,602.932 L 263.743,602.943 L 263.722,602.952 L 263.7,602.96 L 263.677,602.965 L 263.654,602.968 L 263.625,602.97 L 240.174,602.97 L 240.151,602.969 L 240.128,602.966 L 240.105,602.961 L 240.083,602.954 L 240.061,602.945 L 240.041,602.935 L 240.021,602.922 L 240.002,602.908 L 239.985,602.893 L 239.969,602.876 L 239.955,602.858 L 239.942,602.838 L 239.931,602.818 L 239.922,602.797 L 239.914,602.775 L 239.909,602.752 L 239.906,602.729 L 239.904,602.7 L 239.904,599.87 L 218.8,599.87 L 218.777,599.869 L 218.754,599.866 L 218.731,599.861 L 218.709,599.854 L 218.687,599.845 L 218.667,599.835 L 218.647,599.822 L 218.628,599.808 L 218.611,599.793 L 218.595,599.776 L 218.581,599.758 L 218.568,599.738 L 218.557,599.718 L 218.548,599.697 L 218.54,599.675 L 218.535,599.652 L 218.532,599.629 L 218.53,599.6 L 218.53,578.445 L 215.7,578.445 L 215.677,578.444 L 215.654,578.441 L 215.631,578.436 L 215.609,578.429 L 215.587,578.42 L 215.567,578.41 L 215.547,578.397 L 215.528,578.383 L 215.511,578.368 L 215.495,578.351 L 215.481,578.333 L 215.468,578.313 L 215.457,578.293 L 215.448,578.272 L 215.44,578.25 L 215.435,578.227 L 215.432,578.204 L 215.43,578.175 L 215.43,554.775 L 215.431,554.752 L 215.434,554.729 L 215.439,554.706 L 215.446,554.684 L 215.455,554.662 L 215.465,554.642 L 215.478,554.622 L 215.492,554.603 L 215.507,554.586 L 215.524,554.57 L 215.542,554.556 L 215.562,554.543 L 215.582,554.532 L 215.603,554.523 L 215.625,554.515 L 215.648,554.51 L 215.671,554.507 L 215.7,554.505 L 218.53,554.505 L 218.53,531.595 L 215.7,531.595 L 215.677,531.594 L 215.654,531.591 L 215.631,531.586 L 215.609,531.579 L 215.587,531.57 L 215.567,531.56 L 215.547,531.547 L 215.528,531.533 L 215.511,531.518 L 215.495,531.501 L 215.481,531.483 L 215.468,531.463 L 215.457,531.443 L 215.448,531.422 L 215.44,531.4 L 215.435,531.377 L 215.432,531.354 L 215.43,531.325 L 215.43,507.875 L 215.431,507.852 L 215.434,507.829 L 215.439,507.806 L 215.446,507.784 L 215.455,507.762 L 215.465,507.742 L 215.478,507.722 L 215.492,507.703 L 215.507,507.686 L 215.524,507.67 L 215.542,507.656 L 215.562,507.643 L 215.582,507.632 L 215.603,507.623 L 215.625,507.615 L 215.648,507.61 L 215.671,507.607 L 215.7,507.605 L 218.53,507.605 L 218.53,484.695 L 215.7,484.695 L 215.677,484.694 L 215.654,484.691 L 215.631,484.686 L 215.609,484.679 L 215.587,484.67 L 215.567,484.66 L 215.547,484.647 L 215.528,484.633 L 215.511,484.618 L 215.495,484.601 L 215.481,484.583 L 215.468,484.563 L 215.457,484.543 L 215.448,484.522 L 215.44,484.5 L 215.435,484.477 L 215.432,484.454 L 215.43,484.425 L 215.43,460.975 L 215.431,460.952 L 215.434,460.929 L 215.439,460.906 L 215.446,460.884 L 215.455,460.862 L 215.465,460.842 L 215.478,460.822 L 215.492,460.803 L 215.507,460.786 L 215.524,460.77 L 215.542,460.756 L 215.562,460.743 L 215.582,460.732 L 215.603,460.723 L 215.625,460.715 L 215.648,460.71 L 215.671,460.707 L 215.7,460.705 L 218.53,460.705 L 218.53,439.6 L 218.531,439.577 L 218.534,439.554 L 218.539,439.531 L 218.546,439.509 L 218.555,439.487 L 218.565,439.467 L 218.578,439.447 L 218.592,439.428 L 218.607,439.411 L 218.624,439.395 L 218.642,439.381 L 218.662,439.368 L 218.682,439.357 L 218.703,439.348 L 218.725,439.34 L 218.748,439.335 L 218.771,439.332 L 218.8,439.33 L 239.955,439.33 L 239.955,436.5 L 239.956,436.477 L 239.959,436.454 L 239.964,436.431 L 239.971,436.409 L 239.98,436.387 L 239.99,436.367 L 240.003,436.347 L 240.017,436.328 L 240.032,436.311 L 240.049,436.295 L 240.067,436.281 L 240.087,436.268 L 240.107,436.257 L 240.128,436.248 L 240.15,436.24 L 240.173,436.235 L 240.196,436.232 L 240.225,436.23 L 357.424,436.23 Z M 351.801,566.639 L 348.997,574.47 L 354.651,583.73 L 355.2,583.73 L 362.93,577.175 L 362.93,564.72 Z M 338.405,581.897 L 337.529,583.73 L 347.922,583.73 L 344.8,578.556 Z M 308.19,570.49 L 310.527,583.73 L 331.326,583.73 L 332.663,580.788 L 312.53,566.056 Z M 248.844,583.73 L 304.776,583.73 L 302.67,572.145 L 264.501,567.783 Z M 234.67,571.534 L 240.967,583.547 L 260.856,563.363 L 261.015,562.729 L 257.472,555.25 L 234.67,529.708 Z M 315.844,561.418 L 336.424,576.483 L 343.482,572.81 L 346.385,564.874 L 338.866,557.844 L 320.143,552.917 Z M 279.003,542.587 L 267.344,562.379 L 304.001,566.517 L 309.879,560.639 L 315.617,549.164 L 314.771,545.029 L 284.358,538.887 Z M 343.945,554.751 L 350.687,561.012 L 362.93,558.972 L 362.93,542.766 L 351.252,542.573 Z M 257.605,534.294 L 262.654,552.707 L 264.236,556.311 L 273.584,540.604 L 265.437,527.608 Z M 321.351,538.303 L 320.078,542.71 L 321.03,547.281 L 338.972,551.987 L 346.289,539.597 L 338.231,525.152 L 328.951,524.088 Z M 234.67,521.097 L 253.936,542.76 L 251.647,534.398 L 244.931,520.965 L 234.67,520.678 Z M 289.541,524.051 L 287.228,533.591 L 315.12,539.287 L 315.484,538.195 L 293.405,520.847 Z M 344.094,524.05 L 351.26,536.833 L 360.981,537.022 L 353.753,520.736 Z M 268.64,521.974 L 277.68,536.616 L 281.261,534.137 L 283.801,523.391 L 273.086,513.561 L 265.012,512.999 Z M 296.943,516.426 L 317.814,532.888 L 324.306,520.776 L 322.095,514.433 L 300.345,509.906 Z M 250.571,519.532 L 255.286,528.773 L 262.775,522.422 L 259.857,515.457 Z M 358.618,517.753 L 362.93,527.52 L 362.93,513.089 Z M 331.713,496.869 L 331.042,497.54 L 327.282,511.889 L 329.5,518.353 L 339.671,519.624 L 353.648,514.767 L 361.09,506.649 L 346.319,496.671 Z M 287.726,502.152 L 278.498,510.797 L 287.111,518.644 L 291.086,515.426 L 295.594,506.705 L 292.559,501.299 Z M 234.67,497.59 L 234.67,515.036 L 246.147,515.328 L 259.279,509.449 L 254.117,490.652 Z M 297.086,497.659 L 300.677,504.161 L 322.205,508.683 L 325.186,497.43 L 300.382,483.018 Z M 269.166,507.566 L 273.201,507.824 L 281.529,500.166 L 277.465,498.134 Z M 259.088,487.232 L 263.928,504.947 L 273.366,494.271 L 266.538,483.151 L 261.552,482.493 Z M 350.735,492.802 L 362.93,501.09 L 362.93,464.22 Z M 272.824,482.379 L 278.892,492.395 L 286.843,496.518 L 291.677,495.665 L 295.304,479.586 L 293.951,478.233 L 292.684,477.781 Z M 304.258,478.713 L 327.865,492.451 L 330.778,464.872 Z M 235.442,491.354 L 254.01,484.682 L 256.904,479.183 L 247.86,455.846 Z M 340.055,455.47 L 336.962,460.786 L 333.7,491.128 L 345.321,491.031 L 360.492,455.47 Z M 253.893,455.47 L 262.094,476.755 L 268.188,477.626 L 287.842,473.128 L 275.062,455.47 Z M 234.67,455.47 L 234.67,476.415 L 242.019,455.47 Z M 305.63,455.47 L 304.542,456.831 L 298.807,474.925 L 298.951,475.069 L 332.108,457.796 L 333.52,455.47 Z M 294.106,458.37 L 295.218,467.358 L 298.129,458.37 Z M 282.127,455.47 L 289.203,465.287 L 288.143,456.72 L 286.982,455.47 Z M 310.795,436.77 L 310.795,439.33 L 333.704,439.33 L 333.704,436.77 Z M 263.895,436.77 L 263.895,439.33 L 286.805,439.33 L 286.805,436.77 Z"></path></g></svg>