<svg style="fill:none;stroke:#ff0000;stroke-linejoin:round;stroke-width:0.1px;stroke-linecap:round;stroke-opacity:0.5" version="1.1" viewBox="0 0 623.6 623.6" x="0px" xmlns="http://www.w3.org/2000/svg" y="0px" xml:space="preserve"><metadata><laserassistant model="{&quot;attrib&quot;: {&quot;style&quot;: &quot;fill:none;stroke:#ff0000;stroke-linejoin:round;stroke-width:0.1px;stroke-linecap:round;stroke-opacity:0.5&quot;, &quot;version&quot;: &quot;1.1&quot;, &quot;viewBox&quot;: &quot;0 0 623.6 623.6&quot;, &quot;x&quot;: &quot;0px&quot;, &quot;xmlns&quot;: &quot;http://www.w3.org/2000/svg&quot;, &quot;y&quot;: &quot;0px&quot;, &quot;{http://www.w3.org/XML/1998/namespace}space&quot;: &quot;preserve&quot;}, &quot;edge_data&quot;: {&quot;edges&quot;: [{&quot;d&quot;: &quot;M 32.0 51.5 L 298.6 51.5&quot;, &quot;edge&quot;: 1, &quot;face&quot;: &quot;face1&quot;}, {&quot;d&quot;: &quot;M 298.6 51.5 L 298.6 217.7&quot;, &quot;edge&quot;: 2, &quot;face&quot;: &quot;face1&quot;}, {&quot;d&quot;: &quot;M 298.6 217.7 L 32.0 217.7&quot;, &quot;edge&quot;: 3, &quot;face&quot;: &quot;face1&quot;}, {&quot;d&quot;: &quot;M 32.0 217.7 L 32.0 51.5&quot;, &quot;edge&quot;: 4, &quot;face&quot;: &quot;face1&quot;}, {&quot;d&quot;: &quot;M 306.5 49.7 L 573.3 49.7&quot;, &quot;edge&quot;: 5, &quot;face&quot;: &quot;face2&quot;}, {&quot;d&quot;: &quot;M 573.3 49.7 L 573.3 215.89999999999998&quot;, &quot;edge&quot;: 6, &quot;face&quot;: &quot;face2&quot;}, {&quot;d&quot;: &quot;M 573.3 215.89999999999998 L 306.5 215.89999999999998&quot;, &quot;edge&quot;: 7, &quot;face&quot;: &quot;face2&quot;}, {&quot;d&quot;: &quot;M 306.5 215.89999999999998 L 306.5 49.69999999999999&quot;, &quot;edge&quot;: 8, &quot;face&quot;: &quot;face2&quot;}, {&quot;d&quot;: &quot;M 32.0 236.8 L 298.8 236.8&quot;, &quot;edge&quot;: 9, &quot;face&quot;: &quot;face3&quot;}, {&quot;d&quot;: &quot;M 298.8 236.8 L 298.8 403.0&quot;, &quot;edge&quot;: 10, &quot;face&quot;: &quot;face3&quot;}, {&quot;d&quot;: &quot;M 298.8 403.0 L 32.0 403.0&quot;, &quot;edge&quot;: 11, &quot;face&quot;: &quot;face3&quot;}, {&quot;d&quot;: &quot;M 32.0 403.0 L 32.0 236.8&quot;, &quot;edge&quot;: 12, &quot;face&quot;: &quot;face3&quot;}, {&quot;d&quot;: &quot;M 306.9 236.4 L 573.7 236.4&quot;, &quot;edge&quot;: 13, &quot;face&quot;: &quot;face4&quot;}, {&quot;d&quot;: &quot;M 573.7 236.4 L 573.7 402.6&quot;, &quot;edge&quot;: 14, &quot;face&quot;: &quot;face4&quot;}, {&quot;d&quot;: &quot;M 573.7 402.6 L 306.9 402.6&quot;, &quot;edge&quot;: 15, &quot;face&quot;: &quot;face4&quot;}, {&quot;d&quot;: &quot;M 306.9 402.6 L 306.9 236.4&quot;, &quot;edge&quot;: 16, &quot;face&quot;: &quot;face4&quot;}, {&quot;d&quot;: &quot;M 215.7 436.5 L 381.9 436.5&quot;, &quot;edge&quot;: 17, &quot;face&quot;: &quot;face5&quot;}, {&quot;d&quot;: &quot;M 381.9 436.5 L 381.9 602.7&quot;, &quot;edge&quot;: 18, &quot;face&quot;: &quot;face5&quot;}, {&quot;d&quot;: &quot;M 381.9 602.7 L 215.7 602.7&quot;, &quot;edge&quot;: 19, &quot;face&quot;: &quot;face5&quot;}, {&quot;d&quot;: &quot;M 215.7 602.7 L 215.7 436.5&quot;, &quot;edge&quot;: 20, &quot;face&quot;: &quot;face5&quot;}], &quot;viewBox&quot;: &quot;0 0 623.6 623.6&quot;}, &quot;joint_index&quot;: 32, &quot;joints&quot;: {&quot;Joint1&quot;: {&quot;edge_a&quot;: {&quot;d&quot;: &quot;M 32.0 403.0 L 32.0 236.8&quot;, &quot;edge&quot;: 12, &quot;face&quot;: &quot;face3&quot;}, &quot;edge_b&quot;: {&quot;d&quot;: &quot;M 381.9 436.5 L 381.9 602.7&quot;, &quot;edge&quot;: 18, &quot;face&quot;: &quot;face5&quot;}, &quot;joint_parameters&quot;: {&quot;boltlength&quot;: 10, &quot;boltnum&quot;: 2, &quot;boltsize&quot;: &quot;M2.5&quot;, &quot;boltspace&quot;: 5, &quot;fit&quot;: &quot;Friction&quot;, &quot;joint_type&quot;: &quot;Box&quot;, &quot;tabnum&quot;: 3, &quot;tabsize&quot;: 23.4, &quot;tabspace&quot;: 23.5}}, &quot;Joint10&quot;: {&quot;edge_a&quot;: {&quot;d&quot;: &quot;M 298.6 217.7 L 32.0 217.7&quot;, &quot;edge&quot;: 3, &quot;face&quot;: &quot;face1&quot;}, &quot;edge_b&quot;: {&quot;d&quot;: &quot;M 306.5 49.7 L 573.3 49.7&quot;, &quot;edge&quot;: 5, &quot;face&quot;: &quot;face2&quot;}, &quot;joint_parameters&quot;: {&quot;boltlength&quot;: 10, &quot;boltnum&quot;: 2, &quot;boltsize&quot;: &quot;M2.5&quot;, &quot;boltspace&quot;: 5, &quot;fit&quot;: &quot;Friction&quot;, &quot;joint_type&quot;: &quot;Box&quot;, &quot;tabnum&quot;: 3, &quot;tabsize&quot;: 35, &quot;tabspace&quot;: 35}}, &quot;Joint14&quot;: {&quot;edge_a&quot;: {&quot;d&quot;: &quot;M 306.9 236.4 L 573.7 236.4&quot;, &quot;edge&quot;: 13, &quot;face&quot;: &quot;face4&quot;}, &quot;edge_b&quot;: {&quot;d&quot;: &quot;M 573.3 215.89999999999998 L 306.5 215.89999999999998&quot;, &quot;edge&quot;: 7, &quot;face&quot;: &quot;face2&quot;}, &quot;joint_parameters&quot;: {&quot;boltlength&quot;: 10, &quot;boltnum&quot;: 2, &quot;boltsize&quot;: &quot;M2.5&quot;, &quot;boltspace&quot;: 5, &quot;fit&quot;: &quot;Friction&quot;, &quot;joint_type&quot;: &quot;Box&quot;, &quot;tabnum&quot;: 3, &quot;tabsize&quot;: 35, &quot;tabspace&quot;: 35}}, &quot;Joint16&quot;: {&quot;edge_a&quot;: {&quot;d&quot;: &quot;M 573.7 402.6 L 306.9 402.6&quot;, &quot;edge&quot;: 15, &quot;face&quot;: &quot;face4&quot;}, &quot;edge_b&quot;: {&quot;d&quot;: &quot;M 32.0 236.8 L 298.8 236.8&quot;, &quot;edge&quot;: 9, &quot;face&quot;: &quot;face3&quot;}, &quot;joint_parameters&quot;: {&quot;boltlength&quot;: 10, &quot;boltnum&quot;: 2, &quot;boltsize&quot;: &quot;M2.5&quot;, &quot;boltspace&quot;: 5, &quot;fit&quot;: &quot;Friction&quot;, &quot;joint_type&quot;: &quot;Box&quot;, &quot;tabnum&quot;: 3, &quot;tabsize&quot;: 35, &quot;tabspace&quot;: 35}}, &quot;Joint17&quot;: {&quot;edge_a&quot;: {&quot;d&quot;: &quot;M 32.0 51.5 L 298.6 51.5&quot;, &quot;edge&quot;: 1, &quot;face&quot;: &quot;face1&quot;}, &quot;edge_b&quot;: {&quot;d&quot;: &quot;M 298.8 403.0 L 32.0 403.0&quot;, &quot;edge&quot;: 11, &quot;face&quot;: &quot;face3&quot;}, &quot;joint_parameters&quot;: {&quot;boltlength&quot;: 10, &quot;boltnum&quot;: 2, &quot;boltsize&quot;: &quot;M2.5&quot;, &quot;boltspace&quot;: 5, &quot;fit&quot;: &quot;Friction&quot;, &quot;joint_type&quot;: &quot;Box&quot;, &quot;tabnum&quot;: 3, &quot;tabsize&quot;: 35, &quot;tabspace&quot;: 35}}, &quot;Joint7&quot;: {&quot;edge_a&quot;: {&quot;d&quot;: &quot;M 306.9 402.6 L 306.9 236.4&quot;, &quot;edge&quot;: 16, &quot;face&quot;: &quot;face4&quot;}, &quot;edge_b&quot;: {&quot;d&quot;: &quot;M 381.9 602.7 L 215.7 602.7&quot;, &quot;edge&quot;: 19, &quot;face&quot;: &quot;face5&quot;}, &quot;joint_parameters&quot;: {&quot;boltlength&quot;: 10, &quot;boltnum&quot;: 2, &quot;boltsize&quot;: &quot;M2.5&quot;, &quot;boltspace&quot;: 5, &quot;fit&quot;: &quot;Friction&quot;, &quot;joint_type&quot;: &quot;Box&quot;, &quot;tabnum&quot;: 3, &quot;tabsize&quot;: 23.4, &quot;tabspace&quot;: 23.5}}, &quot;Joint8&quot;: {&quot;edge_a&quot;: {&quot;d&quot;: &quot;M 32.0 217.7 L 32.0 51.5&quot;, &quot;edge&quot;: 4, &quot;face&quot;: &quot;face1&quot;}, &quot;edge_b&quot;: {&quot;d&quot;: &quot;M 215.7 602.7 L 215.7 436.5&quot;, &quot;edge&quot;: 20, &quot;face&quot;: &quot;face5&quot;}, &quot;joint_parameters&quot;: {&quot;boltlength&quot;: 10, &quot;boltnum&quot;: 2, &quot;boltsize&quot;: &quot;M2.5&quot;, &quot;boltspace&quot;: 5, &quot;fit&quot;: &quot;Friction&quot;, &quot;joint_type&quot;: &quot;Box&quot;, &quot;tabnum&quot;: 3, &quot;tabsize&quot;: 23.4, &quot;tabspace&quot;: 23.5}}, &quot;Joint9&quot;: {&quot;edge_a&quot;: {&quot;d&quot;: &quot;M 306.5 215.89999999999998 L 306.5 49.69999999999999&quot;, &quot;edge&quot;: 8, &quot;face&quot;: &quot;face2&quot;}, &quot;edge_b&quot;: {&quot;d&quot;: &quot;M 215.7 436.5 L 381.9 436.5&quot;, &quot;edge&quot;: 17, &quot;face&quot;: &quot;face5&quot;}, &quot;joint_parameters&quot;: {&quot;boltlength&quot;: 10, &quot;boltnum&quot;: 2, &quot;boltsize&quot;: &quot;M2.5&quot;, &quot;boltspace&quot;: 5, &quot;fit&quot;: &quot;Friction&quot;, &quot;joint_type&quot;: &quot;Box&quot;, &quot;tabnum&quot;: 3, &quot;tabsize&quot;: 23.4, &quot;tabspace&quot;: 23.5}}}, &quot;tree&quot;: {&quot;face1&quot;: {&quot;Cuts&quot;: {&quot;paths&quot;: [&quot;M 52.4,104.9 L 56.5,103.7 L 74.6,107.5 L 77.6,115.6 L 52.4,118.5 L 52.4,104.9&quot;, &quot;M 52.4,123.8 L 80.7,120.5 L 85.9,125.5 L 66.7,139.4 L 61.3,140.3 L 52.4,139.4 L 52.4,123.8&quot;, &quot;M 52.4,144.7 L 58.0,145.2 L 71.0,168.1 L 57.1,171.2 L 52.4,169.4 L 52.4,144.7&quot;, &quot;M 60.8,81.7 L 108.9,96.2 L 78.6,102.8 L 60.8,99.1 L 60.8,81.7&quot;, &quot;M 61.2,184.4 L 67.1,191.3 L 61.6,193.9 L 61.2,184.4&quot;, &quot;M 63.8,175.3 L 76.7,172.4 L 86.0,174.7 L 88.8,184.6 L 74.9,188.5 L 63.8,175.3&quot;, &quot;M 67.5,144.7 L 69.2,144.4 L 121.5,156.2 L 89.5,169.9 L 80.6,167.8 L 67.5,144.7&quot;, &quot;M 68.4,78.1 L 118.0,70.2 L 133.1,70.2 L 140.5,82.6 L 118.9,93.3 L 68.4,78.1&quot;, &quot;M 69.5,196.9 L 75.4,194.1 L 93.5,189.0 L 112.8,196.9 L 69.5,196.9&quot;, &quot;M 76.8,140.6 L 94.1,128.1 L 120.3,126.0 L 131.0,131.2 L 128.8,152.2 L 76.8,140.6&quot;, &quot;M 84.0,107.1 L 115.0,100.4 L 116.9,121.0 L 94.0,122.9 L 87.5,116.7 L 84.0,107.1&quot;, &quot;M 95.3,174.0 L 129.3,159.4 L 139.4,182.8 L 120.9,193.8 L 98.3,184.6 L 95.3,174.0&quot;, &quot;M 124.1,97.7 L 146.7,86.4 L 158.0,89.4 L 166.5,119.6 L 136.6,127.1 L 126.4,122.0 L 124.1,97.7&quot;, &quot;M 126.1,198.3 L 146.2,186.4 L 168.1,188.4 L 176.8,199.0 L 126.1,199.0 L 126.1,198.3&quot;, &quot;M 138.5,158.4 L 196.2,163.6 L 172.2,182.0 L 169.7,183.4 L 148.4,181.3 L 138.5,158.4&quot;, &quot;M 138.5,148.8 L 140.3,131.8 L 171.7,124.0 L 198.8,131.0 L 138.5,148.8&quot;, &quot;M 142.1,153.5 L 206.3,134.6 L 209.5,157.9 L 203.9,159.1 L 142.1,153.5&quot;, &quot;M 142.9,70.2 L 195.7,70.2 L 170.9,84.6 L 163.0,85.0 L 149.7,81.5 L 142.9,70.2&quot;, &quot;M 167.6,90.0 L 172.4,89.7 L 229.5,102.0 L 234.0,115.7 L 209.5,128.1 L 176.0,119.4 L 167.6,90.0&quot;, &quot;M 176.9,186.7 L 177.2,186.5 L 218.9,192.2 L 215.1,199.0 L 187.0,199.0 L 176.9,186.7&quot;, &quot;M 181.3,86.1 L 208.7,70.2 L 231.8,70.2 L 236.5,92.1 L 231.6,96.9 L 181.3,86.1&quot;, &quot;M 183.6,182.1 L 207.4,163.9 L 212.6,162.7 L 228.7,180.0 L 222.2,187.3 L 183.6,182.1&quot;, &quot;M 215.3,132.1 L 240.3,119.5 L 253.9,121.9 L 259.2,141.6 L 244.0,154.1 L 218.7,156.9 L 215.3,132.1&quot;, &quot;M 222.2,161.8 L 246.8,159.0 L 286.1,163.6 L 286.1,177.3 L 259.3,180.6 L 237.1,177.7 L 222.2,161.8&quot;, &quot;M 224.9,199.0 L 229.2,191.3 L 236.4,183.0 L 254.8,185.4 L 255.6,199.0 L 224.9,199.0&quot;, &quot;M 238.6,100.6 L 244.5,94.8 L 258.5,92.3 L 286.1,97.7 L 286.1,114.8 L 259.6,117.4 L 258.9,117.4 L 243.2,114.6 L 238.6,100.6&quot;, &quot;M 241.2,70.2 L 267.1,70.2 L 277.6,76.8 L 256.2,87.3 L 245.3,89.2 L 241.2,70.2&quot;, &quot;M 254.5,154.6 L 265.4,145.7 L 286.1,152.5 L 286.1,158.3 L 254.5,154.6&quot;, &quot;M 264.1,185.3 L 286.1,182.6 L 286.1,199.0 L 265.0,199.0 L 264.1,185.3&quot;, &quot;M 265.3,129.0 L 286.1,146.1 L 286.1,146.5 L 268.3,140.6 L 265.3,129.0&quot;, &quot;M 267.6,88.6 L 285.8,79.7 L 286.1,79.7 L 286.1,92.2 L 267.6,88.6&quot;, &quot;M 267.8,121.8 L 286.1,120.1 L 286.1,136.9 L 267.8,121.8&quot;, &quot;M 279.5,70.2 L 286.1,70.2 L 286.1,74.3 L 279.5,70.2&quot;]}, &quot;Perimeter&quot;: {&quot;paths&quot;: [&quot;M 32.0,51.5 L 298.6,51.5 L 298.6,217.7 L 32.0,217.7 L 32.0,51.5&quot;]}}, &quot;face2&quot;: {&quot;Cuts&quot;: {&quot;paths&quot;: [&quot;M 328.1,68.4 L 338.1,68.4 L 334.6,73.4 L 330.5,73.9 L 328.1,73.2 L 328.1,68.4&quot;, &quot;M 328.1,93.7 L 330.8,92.9 L 337.2,96.6 L 328.1,105.3 L 328.1,93.7&quot;, &quot;M 328.1,115.5 L 358.0,127.9 L 356.9,134.9 L 353.7,138.3 L 328.1,147.7 L 328.1,115.5&quot;, &quot;M 328.1,153.9 L 356.5,143.5 L 364.0,147.9 L 382.8,175.6 L 378.0,178.0 L 328.1,185.4 L 328.1,153.9&quot;, &quot;M 328.1,190.7 L 378.3,183.3 L 393.7,196.1 L 394.4,197.2 L 328.1,197.2 L 328.1,190.7&quot;, &quot;M 332.9,111.0 L 345.8,98.6 L 373.6,97.1 L 380.6,99.0 L 381.7,99.5 L 384.0,108.2 L 362.1,123.1 L 332.9,111.0&quot;, &quot;M 334.8,78.6 L 338.0,78.3 L 351.9,79.7 L 366.4,92.3 L 344.8,93.5 L 336.2,88.5 L 334.8,78.6&quot;, &quot;M 344.4,73.7 L 348.1,68.4 L 363.2,68.4 L 353.0,74.6 L 344.4,73.7&quot;, &quot;M 360.6,77.7 L 375.8,68.4 L 376.5,68.4 L 378.2,92.6 L 377.6,92.5 L 360.6,77.7&quot;, &quot;M 362.9,139.7 L 364.1,138.4 L 431.4,143.5 L 431.1,145.1 L 397.6,151.7 L 370.8,144.5 L 362.9,139.7&quot;, &quot;M 366.5,133.4 L 367.4,127.7 L 390.5,112.0 L 442.5,122.4 L 443.7,129.4 L 433.9,138.5 L 366.5,133.4&quot;, &quot;M 376.5,151.7 L 392.9,156.2 L 395.4,172.2 L 391.0,173.1 L 376.5,151.7&quot;, &quot;M 385.8,68.4 L 407.7,81.0 L 401.7,86.9 L 387.6,93.9 L 385.8,68.4&quot;, &quot;M 386.4,180.7 L 390.7,178.6 L 401.2,176.5 L 444.2,175.9 L 445.2,176.4 L 399.4,191.5 L 386.4,180.7&quot;, &quot;M 391.0,99.1 L 406.3,91.6 L 442.1,100.7 L 441.8,116.8 L 393.2,107.1 L 391.0,99.1&quot;, &quot;M 398.7,68.4 L 442.1,68.4 L 414.3,77.4 L 398.7,68.4&quot;, &quot;M 402.3,156.2 L 432.1,150.4 L 440.2,170.8 L 404.7,171.3 L 402.3,156.2&quot;, &quot;M 403.6,196.1 L 446.5,182.0 L 448.1,197.2 L 404.2,197.2 L 403.6,196.1&quot;, &quot;M 412.0,87.4 L 416.9,82.5 L 455.0,70.2 L 459.9,76.3 L 444.5,95.6 L 412.0,87.4&quot;, &quot;M 440.3,146.8 L 441.0,142.1 L 450.4,133.3 L 480.0,140.5 L 495.9,153.6 L 464.4,170.8 L 452.1,172.9 L 450.2,171.9 L 440.3,146.8&quot;, &quot;M 451.1,116.8 L 451.5,99.6 L 466.9,80.3 L 487.4,88.8 L 482.4,108.5 L 451.1,116.8&quot;, &quot;M 451.8,122.4 L 486.8,113.1 L 511.5,118.9 L 514.5,121.4 L 482.4,135.5 L 452.9,128.2 L 451.8,122.4&quot;, &quot;M 455.4,177.7 L 466.6,175.8 L 533.1,191.5 L 539.4,197.2 L 457.5,197.2 L 455.4,177.7&quot;, &quot;M 463.8,68.4 L 561.7,68.4 L 561.7,73.3 L 521.1,84.0 L 493.8,85.0 L 468.8,74.7 L 463.8,68.4&quot;, &quot;M 475.1,172.2 L 503.8,156.6 L 506.5,156.6 L 526.2,161.6 L 530.9,185.4 L 475.1,172.2&quot;, &quot;M 489.4,139.0 L 521.3,125.0 L 526.0,126.3 L 504.6,151.4 L 504.5,151.4 L 489.4,139.0&quot;, &quot;M 491.8,108.7 L 496.5,90.0 L 517.3,89.3 L 515.4,108.8 L 512.0,113.4 L 491.8,108.7&quot;, &quot;M 513.8,152.8 L 534.9,128.0 L 538.9,128.2 L 561.7,138.4 L 561.7,146.7 L 530.3,156.9 L 513.8,152.8&quot;, &quot;M 519.9,116.5 L 523.7,111.2 L 556.3,102.6 L 538.0,123.0 L 533.4,122.7 L 524.0,119.9 L 519.9,116.5&quot;, &quot;M 525.1,105.1 L 526.8,88.2 L 561.7,79.0 L 561.7,95.5 L 525.1,105.1&quot;, &quot;M 535.6,161.2 L 561.7,152.7 L 561.7,165.1 L 544.4,191.9 L 540.9,188.6 L 535.6,161.2&quot;, &quot;M 546.6,125.0 L 561.7,108.2 L 561.7,131.8 L 546.6,125.0&quot;]}, &quot;Perimeter&quot;: {&quot;paths&quot;: [&quot;M 306.5,49.7 L 573.3,49.7 L 573.3,215.89999999999998 L 306.5,215.89999999999998 L 306.5,49.7&quot;]}}, &quot;face3&quot;: {&quot;Cuts&quot;: {&quot;paths&quot;: [&quot;M 52.6,267.4 L 58.4,259.7 L 67.2,276.5 L 52.6,279.1 L 52.6,267.4&quot;, &quot;M 52.6,291.6 L 56.4,297.8 L 52.6,300.7 L 52.6,291.6&quot;, &quot;M 52.6,309.5 L 63.3,301.3 L 99.3,307.9 L 52.6,323.3 L 52.6,309.5&quot;, &quot;M 52.6,329.3 L 105.2,312.0 L 102.2,319.2 L 80.4,345.4 L 52.6,332.8 L 52.6,329.3&quot;, &quot;M 52.6,339.4 L 78.8,351.4 L 79.1,351.6 L 67.6,372.5 L 52.6,379.2 L 52.6,339.4&quot;, &quot;M 56.0,384.3 L 72.6,376.9 L 113.5,384.3 L 56.0,384.3&quot;, &quot;M 57.7,283.6 L 73.7,280.8 L 74.6,280.8 L 86.4,281.9 L 109.1,296.4 L 105.9,303.7 L 65.2,296.2 L 57.7,283.6&quot;, &quot;M 65.9,255.5 L 75.4,255.5 L 72.5,268.1 L 65.9,255.5&quot;, &quot;M 77.4,372.4 L 87.8,353.5 L 113.4,352.8 L 133.1,353.7 L 143.2,360.3 L 133.5,382.5 L 77.4,372.4&quot;, &quot;M 80.1,276.1 L 84.8,255.5 L 101.8,255.5 L 98.4,264.5 L 86.3,276.6 L 80.1,276.1&quot;, &quot;M 88.3,348.4 L 104.0,329.4 L 108.2,347.8 L 88.3,348.4&quot;, &quot;M 94.5,279.1 L 104.5,269.1 L 141.7,282.4 L 115.0,292.3 L 94.5,279.1&quot;, &quot;M 108.1,264.2 L 111.4,255.5 L 184.3,255.5 L 183.2,264.4 L 150.2,279.3 L 108.1,264.2&quot;, &quot;M 111.4,320.2 L 114.3,313.4 L 141.6,324.4 L 141.7,325.5 L 131.8,348.5 L 117.6,347.8 L 111.4,320.2&quot;, &quot;M 114.2,306.8 L 118.3,297.3 L 148.7,286.0 L 162.1,315.4 L 146.6,320.1 L 114.6,307.2 L 114.2,306.8&quot;, &quot;M 140.5,350.6 L 149.4,329.8 L 190.1,343.3 L 190.5,343.7 L 173.5,355.8 L 150.3,357.0 L 140.5,350.6&quot;, &quot;M 142.4,384.3 L 152.0,362.1 L 174.3,360.9 L 186.0,366.6 L 202.3,378.8 L 204.7,384.3 L 142.4,384.3&quot;, &quot;M 151.5,324.5 L 169.1,319.1 L 186.2,317.5 L 188.5,336.7 L 151.5,324.5&quot;, &quot;M 156.9,282.9 L 186.2,269.7 L 201.1,307.5 L 188.8,312.0 L 171.0,313.7 L 156.9,282.9&quot;, &quot;M 182.3,357.9 L 198.4,346.5 L 204.1,346.1 L 230.5,352.0 L 190.4,361.8 L 182.3,357.9&quot;, &quot;M 192.5,265.0 L 193.7,255.5 L 286.2,255.5 L 286.2,263.8 L 268.3,281.1 L 193.9,266.2 L 193.7,266.1 L 192.5,265.0&quot;, &quot;M 195.4,315.7 L 206.8,311.5 L 218.8,314.3 L 225.0,318.6 L 201.9,341.1 L 198.7,341.3 L 198.4,340.8 L 195.4,315.7&quot;, &quot;M 196.7,365.9 L 229.7,357.8 L 206.8,373.5 L 196.7,365.9&quot;, &quot;M 197.6,274.4 L 246.3,296.5 L 220.8,309.2 L 210.3,306.8 L 197.6,274.4&quot;, &quot;M 211.5,342.2 L 231.9,322.3 L 278.6,346.8 L 277.8,347.2 L 244.4,349.5 L 243.7,349.4 L 211.5,342.2&quot;, &quot;M 211.7,378.4 L 246.6,354.5 L 272.8,352.7 L 259.5,373.6 L 247.9,384.3 L 214.3,384.3 L 211.7,378.4&quot;, &quot;M 216.1,276.1 L 265.6,286.1 L 265.2,291.5 L 254.4,293.5 L 216.1,276.1&quot;, &quot;M 228.2,312.5 L 255.8,298.7 L 268.4,296.3 L 279.0,302.6 L 233.1,316.0 L 228.2,312.5&quot;, &quot;M 240.4,319.6 L 286.2,306.3 L 286.2,343.7 L 240.4,319.6&quot;, &quot;M 258.8,384.3 L 265.2,378.4 L 280.8,384.3 L 258.8,384.3&quot;, &quot;M 269.3,373.7 L 283.7,351.2 L 286.2,350.0 L 286.2,380.1 L 269.3,373.7&quot;, &quot;M 274.5,292.3 L 275.0,285.0 L 286.2,274.2 L 286.2,299.3 L 274.5,292.3&quot;]}, &quot;Perimeter&quot;: {&quot;paths&quot;: [&quot;M 32.0,236.8 L 298.8,236.8 L 298.8,403.0 L 32.0,403.0 L 32.0,236.8&quot;]}}, &quot;face4&quot;: {&quot;Cuts&quot;: {&quot;paths&quot;: [&quot;M 327.4,263.6 L 368.9,280.2 L 327.4,309.8 L 327.4,263.6&quot;, &quot;M 327.4,319.7 L 346.2,327.6 L 327.4,345.8 L 327.4,319.7&quot;, &quot;M 327.4,359.5 L 360.2,358.6 L 336.4,373.4 L 332.1,374.0 L 327.4,372.2 L 327.4,359.5&quot;, &quot;M 329.3,258.0 L 385.7,255.1 L 417.3,255.1 L 407.3,275.7 L 402.1,278.1 L 377.2,277.2 L 329.3,258.0&quot;, &quot;M 329.5,354.3 L 354.3,330.1 L 356.9,330.6 L 364.0,353.3 L 329.5,354.3&quot;, &quot;M 331.9,315.1 L 377.7,282.4 L 399.8,283.2 L 407.2,303.7 L 384.0,322.3 L 361.3,326.0 L 354.5,324.6 L 331.9,315.1&quot;, &quot;M 334.8,383.9 L 335.0,383.1 L 336.7,383.9 L 334.8,383.9&quot;, &quot;M 339.4,378.3 L 339.5,378.2 L 366.7,379.7 L 365.4,383.9 L 350.5,383.9 L 339.4,378.3&quot;, &quot;M 348.6,373.6 L 371.1,359.6 L 385.2,364.6 L 370.1,374.7 L 348.6,373.6&quot;, &quot;M 366.4,330.6 L 385.5,327.5 L 404.4,339.2 L 412.0,357.1 L 401.2,361.5 L 393.7,361.4 L 373.8,354.4 L 366.4,330.6&quot;, &quot;M 374.8,383.9 L 376.5,378.5 L 394.4,366.5 L 399.0,366.6 L 407.2,383.9 L 374.8,383.9&quot;, &quot;M 392.9,324.3 L 413.4,307.9 L 430.1,314.2 L 423.1,330.0 L 409.6,334.7 L 392.9,324.3&quot;, &quot;M 408.0,365.1 L 419.0,360.7 L 436.5,360.2 L 451.6,364.0 L 460.7,383.9 L 416.8,383.9 L 408.0,365.1&quot;, &quot;M 408.8,281.7 L 412.9,279.8 L 463.2,284.4 L 475.0,291.6 L 475.1,291.8 L 453.1,304.3 L 434.8,309.7 L 416.4,302.8 L 408.8,281.7&quot;, &quot;M 414.0,339.2 L 427.4,334.6 L 443.3,339.1 L 433.9,355.1 L 420.9,355.5 L 414.0,339.2&quot;, &quot;M 417.3,275.0 L 427.0,255.1 L 496.5,255.1 L 463.5,279.2 L 417.3,275.0&quot;, &quot;M 432.6,330.3 L 438.1,317.9 L 440.0,318.8 L 452.2,332.0 L 447.9,334.6 L 432.6,330.3&quot;, &quot;M 442.5,313.3 L 456.1,309.3 L 467.6,312.3 L 465.4,313.9 L 445.2,314.5 L 442.5,313.3&quot;, &quot;M 443.1,356.2 L 453.0,339.1 L 459.7,335.0 L 475.0,335.4 L 501.7,343.0 L 485.5,351.8 L 455.6,359.4 L 443.1,356.2&quot;, &quot;M 451.1,319.5 L 465.8,319.1 L 470.7,322.2 L 471.3,330.2 L 460.7,329.9 L 451.1,319.5&quot;, &quot;M 461.1,363.6 L 485.3,357.5 L 501.2,383.9 L 470.3,383.9 L 461.1,363.6&quot;, &quot;M 463.9,305.6 L 479.4,296.8 L 487.6,304.1 L 474.4,308.4 L 463.9,305.6&quot;, &quot;M 471.6,281.9 L 508.2,255.1 L 544.2,255.1 L 517.6,279.6 L 480.6,287.3 L 471.6,281.9&quot;, &quot;M 473.8,316.3 L 477.9,313.2 L 488.0,309.9 L 487.0,313.5 L 476.1,317.8 L 473.8,316.3&quot;, &quot;M 480.1,322.5 L 488.8,319.1 L 498.3,336.2 L 480.8,331.3 L 480.1,322.5&quot;, &quot;M 484.9,291.9 L 517.1,285.2 L 522.9,304.3 L 496.9,302.5 L 484.9,291.9&quot;, &quot;M 493.5,354.7 L 510.8,345.2 L 515.5,345.1 L 536.4,367.6 L 517.2,383.9 L 511.1,383.9 L 493.5,354.7&quot;, &quot;M 496.1,314.8 L 498.0,307.8 L 526.8,309.8 L 529.2,310.7 L 519.2,338.4 L 516.3,340.0 L 510.5,340.1 L 510.1,339.9 L 496.1,314.8&quot;, &quot;M 524.0,343.0 L 525.5,342.2 L 556.6,340.7 L 556.6,365.7 L 544.8,365.3 L 524.0,343.0&quot;, &quot;M 525.6,282.2 L 555.1,255.1 L 561.1,255.1 L 561.1,298.8 L 557.8,302.9 L 535.2,306.7 L 532.8,305.8 L 525.6,282.2&quot;, &quot;M 528.3,383.9 L 544.2,370.4 L 555.9,370.9 L 552.5,383.9 L 528.3,383.9&quot;, &quot;M 529.3,336.9 L 538.4,311.5 L 556.6,308.5 L 556.6,335.5 L 529.3,336.9&quot;]}, &quot;Perimeter&quot;: {&quot;paths&quot;: [&quot;M 306.9,236.4 L 573.7,236.4 L 573.7,402.6 L 306.9,402.6 L 306.9,236.4&quot;]}}, &quot;face5&quot;: {&quot;Cuts&quot;: {&quot;paths&quot;: [&quot;M 240.9,584.0 L 234.4,571.6 L 234.4,529.0 L 257.7,555.1 L 261.3,562.7 L 261.1,563.5 L 240.9,584.0 L 240.9,584.0&quot;, &quot;M 248.2,584.0 L 264.4,567.5 L 302.9,571.9 L 305.1,584.0 L 248.2,584.0&quot;, &quot;M 310.3,584.0 L 307.9,570.4 L 312.5,565.7 L 333.0,580.7 L 331.5,584.0 L 310.3,584.0&quot;, &quot;M 337.1,584.0 L 338.2,581.7 L 344.9,578.2 L 348.4,584.0 L 337.1,584.0&quot;, &quot;M 354.5,584.0 L 348.7,574.5 L 351.6,566.4 L 363.2,564.4 L 363.2,577.3 L 355.3,584.0 L 354.5,584.0&quot;, &quot;M 336.4,576.8 L 315.5,561.5 L 320.0,552.6 L 339.0,557.6 L 346.7,564.8 L 343.7,573.0 L 336.4,576.8&quot;, &quot;M 304.1,566.8 L 266.9,562.6 L 278.8,542.4 L 284.3,538.6 L 315.0,544.8 L 315.9,549.2 L 310.1,560.8 L 304.1,566.8&quot;, &quot;M 350.6,561.3 L 343.6,554.8 L 351.1,542.3 L 363.2,542.5 L 363.2,559.2 L 350.6,561.3&quot;, &quot;M 264.2,556.9 L 262.4,552.8 L 257.3,534.2 L 265.5,527.2 L 273.9,540.6 L 264.2,556.9&quot;, &quot;M 339.1,552.3 L 320.8,547.5 L 319.8,542.7 L 321.1,538.2 L 328.8,523.8 L 338.4,524.9 L 346.6,539.6 L 339.1,552.3&quot;, &quot;M 254.5,543.8 L 234.4,521.2 L 234.4,520.4 L 245.1,520.7 L 251.9,534.3 L 254.5,543.8&quot;, &quot;M 315.3,539.6 L 286.9,533.8 L 289.3,523.9 L 293.4,520.5 L 315.8,538.1 L 315.3,539.6&quot;, &quot;M 361.4,537.3 L 351.1,537.1 L 343.7,523.9 L 353.9,520.4 L 361.4,537.3&quot;, &quot;M 277.6,537.0 L 268.4,522.1 L 264.6,512.7 L 273.2,513.3 L 284.1,523.3 L 281.5,534.3 L 277.6,537.0&quot;, &quot;M 317.9,533.3 L 296.6,516.5 L 300.2,509.6 L 322.3,514.2 L 324.6,520.8 L 317.9,533.3&quot;, &quot;M 255.2,529.2 L 250.2,519.4 L 260.0,515.1 L 263.1,522.5 L 255.2,529.2&quot;, &quot;M 363.2,528.8 L 358.3,517.7 L 363.2,512.4 L 363.2,528.8&quot;, &quot;M 339.7,519.9 L 329.3,518.6 L 327.0,511.9 L 330.8,497.4 L 331.6,496.6 L 346.4,496.4 L 361.5,506.6 L 353.8,515.0 L 339.7,519.9&quot;, &quot;M 287.1,519.0 L 278.1,510.8 L 287.6,501.9 L 292.7,501.0 L 295.9,506.7 L 291.3,515.6 L 287.1,519.0&quot;, &quot;M 246.2,515.6 L 234.4,515.3 L 234.4,497.4 L 254.3,490.3 L 259.6,509.6 L 246.2,515.6&quot;, &quot;M 322.4,509.0 L 300.5,504.4 L 296.8,497.7 L 300.2,482.6 L 325.5,497.3 L 322.4,509.0&quot;, &quot;M 273.3,508.1 L 268.6,507.8 L 277.4,497.8 L 282.0,500.1 L 273.3,508.1&quot;, &quot;M 263.8,505.5 L 258.8,487.2 L 261.4,482.2 L 266.7,482.9 L 273.7,494.3 L 263.8,505.5&quot;, &quot;M 363.2,501.6 L 350.4,492.9 L 363.2,462.9 L 363.2,501.6&quot;, &quot;M 286.8,496.8 L 278.7,492.6 L 272.4,482.2 L 292.7,477.5 L 292.7,477.5 L 294.1,478.0 L 295.6,479.5 L 291.9,495.9 L 286.8,496.8&quot;, &quot;M 328.1,492.9 L 303.7,478.7 L 331.1,464.4 L 328.1,492.8 L 328.1,492.9&quot;, &quot;M 235.0,491.8 L 247.8,455.2 L 247.9,455.2 L 257.2,479.2 L 254.2,484.9 L 235.0,491.8&quot;, &quot;M 333.4,491.4 L 336.7,460.7 L 339.9,455.2 L 360.9,455.2 L 345.5,491.3 L 333.4,491.4&quot;, &quot;M 234.4,478.0 L 234.4,455.2 L 242.4,455.2 L 234.4,478.0&quot;, &quot;M 268.2,477.9 L 261.9,477.0 L 253.5,455.2 L 275.2,455.2 L 288.3,473.3 L 268.2,477.9&quot;, &quot;M 298.9,475.4 L 298.5,475.0 L 304.3,456.7 L 305.5,455.2 L 334.0,455.2 L 332.3,458.0 L 298.9,475.4&quot;, &quot;M 295.1,468.6 L 293.8,458.1 L 298.5,458.1 L 295.1,468.6&quot;, &quot;M 289.6,466.3 L 281.6,455.2 L 287.1,455.2 L 288.4,456.6 L 289.6,466.3&quot;]}, &quot;Perimeter&quot;: {&quot;paths&quot;: [&quot;M 215.7,436.5 L 381.9,436.5 L 381.9,602.7 L 215.7,602.7 L 215.7,436.5&quot;]}}}}"></laserassistant></metadata><g data-name="face1" id="face1"><path d="M 77.807,51.476 L 77.813,51.479 L 77.819,51.483 L 77.823,51.489 L 77.825,51.496 L 77.825,56.475 L 112.775,56.475 L 112.775,51.5 L 112.776,51.493 L 112.779,51.487 L 112.783,51.481 L 112.789,51.477 L 112.796,51.475 L 147.8,51.475 L 147.807,51.476 L 147.813,51.479 L 147.819,51.483 L 147.823,51.489 L 147.825,51.496 L 147.825,56.475 L 182.775,56.475 L 182.775,51.5 L 182.776,51.493 L 182.779,51.487 L 182.783,51.481 L 182.789,51.477 L 182.796,51.475 L 217.8,51.475 L 217.807,51.476 L 217.813,51.479 L 217.819,51.483 L 217.823,51.489 L 217.825,51.496 L 217.825,56.475 L 252.775,56.475 L 252.775,51.5 L 252.776,51.493 L 252.779,51.487 L 252.783,51.481 L 252.789,51.477 L 252.796,51.475 L 298.6,51.475 L 298.607,51.476 L 298.613,51.479 L 298.619,51.483 L 298.623,51.489 L 298.625,51.496 L 298.625,217.7 L 298.624,217.707 L 298.621,217.713 L 298.617,217.719 L 298.611,217.723 L 298.604,217.725 L 252.8,217.725 L 252.793,217.724 L 252.787,217.721 L 252.781,217.717 L 252.777,217.711 L 252.775,217.704 L 252.775,212.725 L 217.825,212.725 L 217.825,217.7 L 217.824,217.707 L 217.821,217.713 L 217.817,217.719 L 217.811,217.723 L 217.804,217.725 L 182.8,217.725 L 182.793,217.724 L 182.787,217.721 L 182.781,217.717 L 182.777,217.711 L 182.775,217.704 L 182.775,212.725 L 147.825,212.725 L 147.825,217.7 L 147.824,217.707 L 147.821,217.713 L 147.817,217.719 L 147.811,217.723 L 147.804,217.725 L 112.8,217.725 L 112.793,217.724 L 112.787,217.721 L 112.781,217.717 L 112.777,217.711 L 112.775,217.704 L 112.775,212.725 L 77.824,212.725 L 77.824,217.7 L 77.823,217.707 L 77.82,217.713 L 77.816,217.719 L 77.81,217.723 L 77.803,217.725 L 32.0,217.725 L 31.993,217.724 L 31.987,217.721 L 31.981,217.717 L 31.977,217.711 L 31.975,217.704 L 31.975,193.2 L 31.976,193.193 L 31.979,193.187 L 31.983,193.181 L 31.989,193.177 L 31.996,193.175 L 36.975,193.175 L 36.975,169.824 L 32.0,169.824 L 31.993,169.823 L 31.987,169.82 L 31.981,169.816 L 31.977,169.81 L 31.975,169.803 L 31.975,146.299 L 31.976,146.292 L 31.979,146.286 L 31.983,146.28 L 31.989,146.276 L 31.996,146.274 L 36.975,146.274 L 36.975,122.924 L 32.0,122.924 L 31.993,122.923 L 31.987,122.92 L 31.981,122.916 L 31.977,122.91 L 31.975,122.903 L 31.975,99.399 L 31.976,99.392 L 31.979,99.386 L 31.983,99.38 L 31.989,99.376 L 31.996,99.374 L 36.975,99.374 L 36.975,76.024 L 32.0,76.024 L 31.993,76.023 L 31.987,76.02 L 31.981,76.016 L 31.977,76.01 L 31.975,76.003 L 31.975,51.5 L 31.976,51.493 L 31.979,51.487 L 31.983,51.481 L 31.989,51.477 L 31.996,51.475 L 77.8,51.475 Z M 264.127,185.322 L 265.023,198.975 L 286.075,198.975 L 286.075,182.628 Z M 229.222,191.312 L 224.943,198.975 L 255.573,198.975 L 254.776,185.422 L 236.41,183.027 Z M 176.937,186.706 L 187.012,198.975 L 215.085,198.975 L 218.86,192.22 L 177.206,186.526 Z M 126.125,198.315 L 126.125,198.975 L 176.747,198.975 L 168.088,188.424 L 146.207,186.426 Z M 75.411,194.123 L 69.612,196.875 L 112.674,196.875 L 93.499,189.026 Z M 61.623,193.861 L 67.06,191.291 L 61.228,184.471 Z M 95.33,174.014 L 98.321,184.582 L 120.898,193.772 L 139.368,182.79 L 129.287,159.433 Z M 63.845,175.315 L 74.909,188.472 L 88.769,184.583 L 85.98,174.72 L 76.699,172.425 Z M 207.411,163.923 L 183.663,182.083 L 222.19,187.273 L 228.666,180.0 L 212.592,162.727 Z M 148.417,181.276 L 169.695,183.374 L 172.188,181.978 L 196.134,163.619 L 138.54,158.429 Z M 222.252,161.819 L 237.112,177.676 L 259.3,180.575 L 286.075,177.278 L 286.075,163.622 L 246.8,159.025 Z M 52.425,169.383 L 57.102,171.174 L 70.962,168.083 L 57.985,145.224 L 52.425,144.727 Z M 67.539,144.719 L 80.617,167.779 L 89.497,169.874 L 121.419,156.207 L 69.201,144.426 Z M 142.233,153.487 L 203.9,159.075 L 209.472,157.881 L 206.279,134.632 Z M 254.561,154.582 L 286.075,158.272 L 286.075,152.518 L 265.405,145.728 Z M 215.327,132.114 L 218.722,156.872 L 243.99,154.076 L 259.172,141.591 L 253.88,121.922 L 240.303,119.526 Z M 94.109,128.124 L 76.859,140.588 L 128.778,152.17 L 130.973,131.214 L 120.296,126.025 Z M 140.323,131.82 L 138.529,148.765 L 198.707,131.001 L 171.7,124.026 Z M 268.32,140.58 L 286.075,146.465 L 286.075,146.112 L 265.343,129.068 Z M 52.425,123.822 L 52.425,139.377 L 61.299,140.275 L 66.691,139.376 L 85.861,125.497 L 80.692,120.526 Z M 267.863,121.819 L 286.075,136.847 L 286.075,120.128 Z M 167.633,90.023 L 176.02,119.38 L 209.497,128.074 L 233.969,115.688 L 229.48,102.021 L 172.4,89.725 Z M 124.127,97.714 L 126.424,121.984 L 136.603,127.074 L 166.469,119.582 L 157.98,89.42 L 146.702,86.426 Z M 84.033,107.118 L 87.521,116.686 L 94.009,122.874 L 116.873,120.977 L 114.978,100.43 Z M 52.425,104.919 L 52.425,118.472 L 77.566,115.579 L 74.582,107.521 L 56.502,103.725 Z M 244.512,94.823 L 238.629,100.607 L 243.219,114.578 L 258.903,117.375 L 259.598,117.375 L 286.075,114.777 L 286.075,97.721 L 258.499,92.326 Z M 60.825,99.08 L 78.6,102.775 L 108.801,96.196 L 60.825,81.734 Z M 208.708,70.225 L 181.369,86.09 L 231.592,96.873 L 236.473,92.092 L 231.78,70.225 Z M 118.004,70.225 L 68.512,78.108 L 118.898,93.273 L 140.465,82.59 L 133.086,70.225 Z M 285.805,79.725 L 267.678,88.589 L 286.075,92.169 L 286.075,79.725 Z M 241.23,70.225 L 245.319,89.171 L 256.195,87.275 L 277.549,76.797 L 267.093,70.225 Z M 142.944,70.225 L 149.716,81.479 L 163.002,84.975 L 170.892,84.575 L 195.606,70.225 Z M 279.587,70.225 L 286.075,74.255 L 286.075,70.225 Z"></path></g><g data-name="face2" id="face2"><path d="M 387.407,49.676 L 387.413,49.679 L 387.419,49.683 L 387.423,49.689 L 387.425,49.696 L 387.425,54.675 L 422.375,54.675 L 422.375,49.7 L 422.376,49.693 L 422.379,49.687 L 422.383,49.681 L 422.389,49.677 L 422.396,49.675 L 457.4,49.675 L 457.407,49.676 L 457.413,49.679 L 457.419,49.683 L 457.423,49.689 L 457.425,49.696 L 457.425,54.675 L 492.375,54.675 L 492.375,49.7 L 492.376,49.693 L 492.379,49.687 L 492.383,49.681 L 492.389,49.677 L 492.396,49.675 L 527.4,49.675 L 527.407,49.676 L 527.413,49.679 L 527.419,49.683 L 527.423,49.689 L 527.425,49.696 L 527.425,54.675 L 573.3,54.675 L 573.307,54.676 L 573.313,54.679 L 573.319,54.683 L 573.323,54.689 L 573.325,54.696 L 573.325,210.899 L 573.324,210.906 L 573.321,210.912 L 573.317,210.918 L 573.311,210.922 L 573.304,210.924 L 527.425,210.924 L 527.425,215.899 L 527.424,215.906 L 527.421,215.912 L 527.417,215.918 L 527.411,215.922 L 527.404,215.924 L 492.4,215.924 L 492.393,215.923 L 492.387,215.92 L 492.381,215.916 L 492.377,215.91 L 492.375,215.903 L 492.375,210.924 L 457.425,210.924 L 457.425,215.899 L 457.424,215.906 L 457.421,215.912 L 457.417,215.918 L 457.411,215.922 L 457.404,215.924 L 422.4,215.924 L 422.393,215.923 L 422.387,215.92 L 422.381,215.916 L 422.377,215.91 L 422.375,215.903 L 422.375,210.925 L 387.425,210.925 L 387.425,215.899 L 387.424,215.906 L 387.421,215.912 L 387.417,215.918 L 387.411,215.922 L 387.404,215.924 L 352.4,215.924 L 352.393,215.923 L 352.387,215.92 L 352.381,215.916 L 352.377,215.91 L 352.375,215.903 L 352.375,210.925 L 306.5,210.925 L 306.493,210.924 L 306.487,210.921 L 306.481,210.917 L 306.477,210.911 L 306.475,210.904 L 306.475,191.399 L 306.476,191.392 L 306.479,191.386 L 306.483,191.38 L 306.489,191.376 L 306.496,191.374 L 311.475,191.374 L 311.475,168.025 L 306.5,168.025 L 306.493,168.024 L 306.487,168.021 L 306.481,168.017 L 306.477,168.011 L 306.475,168.004 L 306.475,144.5 L 306.476,144.493 L 306.479,144.487 L 306.483,144.481 L 306.489,144.477 L 306.496,144.475 L 311.475,144.475 L 311.475,121.124 L 306.5,121.124 L 306.493,121.123 L 306.487,121.12 L 306.481,121.116 L 306.477,121.11 L 306.475,121.103 L 306.475,97.599 L 306.476,97.592 L 306.479,97.586 L 306.483,97.58 L 306.489,97.576 L 306.496,97.574 L 311.475,97.574 L 311.475,74.224 L 306.5,74.224 L 306.493,74.223 L 306.487,74.22 L 306.481,74.216 L 306.477,74.21 L 306.475,74.203 L 306.475,54.7 L 306.476,54.693 L 306.479,54.687 L 306.483,54.681 L 306.489,54.677 L 306.496,54.675 L 352.375,54.675 L 352.375,49.7 L 352.376,49.693 L 352.379,49.687 L 352.383,49.681 L 352.389,49.677 L 352.396,49.675 L 387.4,49.675 Z M 455.428,177.721 L 457.523,197.175 L 539.334,197.175 L 533.087,191.522 L 466.601,175.826 Z M 403.637,196.115 L 404.215,197.175 L 448.072,197.175 L 446.478,182.034 Z M 328.125,190.722 L 328.125,197.175 L 394.355,197.175 L 393.681,196.117 L 378.293,183.327 Z M 535.629,161.217 L 540.924,188.588 L 544.395,191.861 L 561.675,165.092 L 561.675,152.735 Z M 401.205,176.525 L 390.705,178.625 L 386.445,180.705 L 399.405,191.472 L 445.135,176.395 L 444.195,175.925 Z M 328.125,153.917 L 328.125,185.371 L 377.995,177.975 L 382.763,175.591 L 363.983,147.919 L 356.497,143.528 Z M 503.806,156.625 L 475.169,172.191 L 530.867,185.367 L 526.178,161.62 L 506.498,156.625 Z M 391.012,173.073 L 395.371,172.181 L 392.877,156.22 L 376.559,151.742 Z M 441.024,142.112 L 440.326,146.798 L 450.219,171.882 L 452.104,172.874 L 464.392,170.776 L 495.856,153.596 L 479.988,140.523 L 450.407,133.327 Z M 402.329,156.22 L 404.722,171.275 L 440.164,170.776 L 432.085,150.429 Z M 513.844,152.786 L 530.298,156.874 L 561.675,146.682 L 561.675,138.416 L 538.894,128.224 L 534.911,128.026 Z M 362.939,139.695 L 370.81,144.477 L 397.599,151.674 L 431.078,145.078 L 431.37,143.523 L 364.11,138.426 Z M 489.447,139.007 L 504.509,151.375 L 504.589,151.375 L 525.956,126.314 L 521.301,125.026 Z M 328.125,147.665 L 353.686,138.279 L 356.876,134.889 L 357.972,127.916 L 328.125,115.538 Z M 367.423,127.715 L 366.529,133.377 L 433.891,138.474 L 443.673,129.391 L 442.478,122.422 L 390.505,112.027 Z M 451.829,122.418 L 452.922,128.179 L 482.397,135.474 L 514.453,121.393 L 511.488,118.923 L 486.8,113.125 Z M 546.642,124.991 L 561.675,131.761 L 561.675,108.266 Z M 345.81,98.625 L 332.945,110.991 L 362.097,123.072 L 383.971,108.189 L 381.679,99.518 L 380.591,99.023 L 373.597,97.125 Z M 523.715,111.222 L 519.934,116.496 L 524.012,119.877 L 533.404,122.675 L 537.989,122.974 L 556.225,102.645 Z M 391.029,99.113 L 393.22,107.078 L 441.776,116.769 L 442.075,100.719 L 406.303,91.626 Z M 451.525,99.61 L 451.126,116.768 L 482.38,108.48 L 487.371,88.815 L 466.908,80.331 Z M 496.519,90.024 L 491.83,108.682 L 511.989,113.372 L 515.376,108.791 L 517.271,89.326 Z M 328.125,93.719 L 328.125,105.242 L 337.158,96.605 L 330.796,92.927 Z M 526.823,88.219 L 525.129,105.067 L 561.675,95.481 L 561.675,79.032 Z M 416.914,82.522 L 412.049,87.387 L 444.49,95.572 L 459.868,76.299 L 454.992,70.229 Z M 387.622,93.861 L 401.683,86.881 L 407.659,81.005 L 385.828,68.445 Z M 334.829,78.622 L 336.223,88.484 L 344.807,93.475 L 366.337,92.278 L 351.89,79.724 L 337.999,78.325 Z M 375.806,68.425 L 360.642,77.703 L 377.61,92.476 L 378.173,92.57 L 376.477,68.425 Z M 463.853,68.425 L 468.817,74.68 L 493.805,84.975 L 521.098,83.975 L 561.675,73.281 L 561.675,68.425 Z M 398.793,68.425 L 414.303,77.373 L 441.941,68.425 Z M 348.112,68.425 L 344.444,73.679 L 352.995,74.574 L 363.111,68.425 Z M 328.125,68.425 L 328.125,73.181 L 330.502,73.874 L 334.587,73.376 L 338.053,68.425 Z"></path></g><g data-name="face3" id="face3"><path d="M 112.907,236.776 L 112.913,236.779 L 112.919,236.783 L 112.923,236.789 L 112.925,236.796 L 112.925,241.775 L 147.875,241.775 L 147.875,236.8 L 147.876,236.793 L 147.879,236.787 L 147.883,236.781 L 147.889,236.777 L 147.896,236.775 L 182.9,236.775 L 182.907,236.776 L 182.913,236.779 L 182.919,236.783 L 182.923,236.789 L 182.925,236.796 L 182.925,241.775 L 217.875,241.775 L 217.875,236.8 L 217.876,236.793 L 217.879,236.787 L 217.883,236.781 L 217.889,236.777 L 217.896,236.775 L 252.9,236.775 L 252.907,236.776 L 252.913,236.779 L 252.919,236.783 L 252.923,236.789 L 252.925,236.796 L 252.925,241.775 L 298.8,241.775 L 298.807,241.776 L 298.813,241.779 L 298.819,241.783 L 298.823,241.789 L 298.825,241.796 L 298.825,398.0 L 298.824,398.007 L 298.821,398.013 L 298.817,398.019 L 298.811,398.023 L 298.804,398.025 L 252.924,398.025 L 252.924,403.0 L 252.923,403.007 L 252.92,403.013 L 252.916,403.019 L 252.91,403.023 L 252.903,403.025 L 217.899,403.025 L 217.892,403.024 L 217.886,403.021 L 217.88,403.017 L 217.876,403.011 L 217.874,403.004 L 217.874,398.025 L 182.924,398.025 L 182.924,403.0 L 182.923,403.007 L 182.92,403.013 L 182.916,403.019 L 182.91,403.023 L 182.903,403.025 L 147.899,403.025 L 147.892,403.024 L 147.886,403.021 L 147.88,403.017 L 147.876,403.011 L 147.874,403.004 L 147.874,398.025 L 112.924,398.025 L 112.924,403.0 L 112.923,403.007 L 112.92,403.013 L 112.916,403.019 L 112.91,403.023 L 112.903,403.025 L 77.899,403.025 L 77.892,403.024 L 77.886,403.021 L 77.88,403.017 L 77.876,403.011 L 77.874,403.004 L 77.874,398.025 L 32.0,398.025 L 31.993,398.024 L 31.987,398.021 L 31.981,398.017 L 31.977,398.011 L 31.975,398.004 L 31.975,378.5 L 31.976,378.493 L 31.979,378.487 L 31.983,378.481 L 31.989,378.477 L 31.996,378.475 L 36.975,378.475 L 36.975,355.125 L 32.0,355.125 L 31.993,355.124 L 31.987,355.121 L 31.981,355.117 L 31.977,355.111 L 31.975,355.104 L 31.975,331.6 L 31.976,331.593 L 31.979,331.587 L 31.983,331.581 L 31.989,331.577 L 31.996,331.575 L 36.975,331.575 L 36.975,308.225 L 32.0,308.225 L 31.993,308.224 L 31.987,308.221 L 31.981,308.217 L 31.977,308.211 L 31.975,308.204 L 31.975,284.7 L 31.976,284.693 L 31.979,284.687 L 31.983,284.681 L 31.989,284.677 L 31.996,284.675 L 36.975,284.675 L 36.975,261.323 L 32.0,261.323 L 31.993,261.322 L 31.987,261.319 L 31.981,261.315 L 31.977,261.309 L 31.975,261.302 L 31.975,241.8 L 31.976,241.793 L 31.979,241.787 L 31.983,241.781 L 31.989,241.777 L 31.996,241.775 L 77.875,241.775 L 77.875,236.8 L 77.876,236.793 L 77.879,236.787 L 77.883,236.781 L 77.889,236.777 L 77.896,236.775 L 112.9,236.775 Z M 258.864,384.275 L 280.664,384.275 L 265.206,378.429 Z M 246.609,354.525 L 211.731,378.409 L 214.316,384.275 L 247.891,384.275 L 259.481,373.584 L 272.753,352.728 Z M 152.017,362.124 L 142.438,384.275 L 204.662,384.275 L 202.28,378.816 L 185.985,366.62 L 174.296,360.925 Z M 56.118,384.275 L 113.22,384.275 L 72.603,376.926 Z M 87.815,353.525 L 77.439,372.381 L 133.485,382.472 L 143.168,360.31 L 133.092,353.725 L 113.4,352.825 Z M 283.716,351.221 L 269.337,373.688 L 286.175,380.064 L 286.175,350.04 Z M 52.625,379.161 L 67.582,372.481 L 79.067,351.608 L 78.786,351.421 L 52.625,339.439 Z M 196.757,365.912 L 206.8,373.469 L 229.573,357.857 Z M 198.407,346.525 L 182.349,357.895 L 190.404,361.774 L 230.392,352.001 L 204.1,346.125 Z M 140.531,350.59 L 150.307,356.975 L 173.493,355.775 L 190.461,343.697 L 190.086,343.322 L 149.414,329.831 Z M 211.55,342.186 L 243.704,349.376 L 243.704,349.375 L 244.402,349.475 L 277.795,347.175 L 278.546,346.8 L 231.904,322.33 Z M 111.426,320.203 L 117.62,347.776 L 131.784,348.474 L 141.674,325.496 L 141.576,324.417 L 114.314,313.432 Z M 88.354,348.373 L 108.169,347.776 L 103.987,329.455 Z M 52.625,329.318 L 52.625,332.784 L 80.393,345.369 L 102.178,319.188 L 105.156,312.041 Z M 240.467,319.607 L 286.175,343.659 L 286.175,306.333 Z M 195.427,315.716 L 198.425,340.793 L 198.713,341.274 L 201.89,341.076 L 224.961,318.604 L 218.788,314.323 L 206.802,311.526 Z M 169.105,319.125 L 151.583,324.501 L 188.47,336.664 L 186.178,317.527 Z M 52.625,309.512 L 52.625,323.265 L 99.198,307.907 L 63.306,301.327 Z M 118.319,297.319 L 114.23,306.794 L 114.616,307.18 L 146.601,320.074 L 162.065,315.384 L 148.687,286.031 Z M 255.805,298.725 L 228.248,312.504 L 233.105,315.973 L 278.938,302.592 L 268.396,296.327 Z M 156.933,282.913 L 171.015,313.673 L 188.796,311.975 L 201.068,307.486 L 186.187,269.734 Z M 210.318,306.779 L 220.797,309.174 L 246.242,296.501 L 197.645,274.448 Z M 57.74,283.619 L 65.215,296.177 L 105.885,303.671 L 109.069,296.409 L 86.392,281.924 L 74.598,280.825 L 73.704,280.825 Z M 52.625,300.649 L 56.367,297.794 L 52.625,291.688 Z M 275.024,285.011 L 274.526,292.287 L 286.175,299.256 L 286.175,274.259 Z M 254.403,293.474 L 265.176,291.478 L 265.573,286.121 L 216.312,276.169 Z M 94.54,279.096 L 115.004,292.272 L 141.627,282.401 L 104.507,269.129 Z M 193.722,255.525 L 192.527,264.991 L 193.715,266.08 L 193.905,266.175 L 268.293,281.073 L 286.175,263.79 L 286.175,255.525 Z M 111.417,255.525 L 108.132,264.185 L 150.199,279.273 L 183.177,264.383 L 184.272,255.525 Z M 52.625,267.408 L 52.625,279.07 L 67.162,276.481 L 58.396,259.747 Z M 84.82,255.525 L 80.131,276.077 L 86.29,276.574 L 98.379,264.485 L 101.764,255.525 Z M 65.941,255.525 L 72.491,268.029 L 75.369,255.525 Z"></path></g><g data-name="face4" id="face4"><path d="M 352.807,236.376 L 352.813,236.379 L 352.819,236.383 L 352.823,236.389 L 352.825,236.396 L 352.825,241.375 L 387.775,241.375 L 387.775,236.4 L 387.776,236.393 L 387.779,236.387 L 387.783,236.381 L 387.789,236.377 L 387.796,236.375 L 422.8,236.375 L 422.807,236.376 L 422.813,236.379 L 422.819,236.383 L 422.823,236.389 L 422.825,236.396 L 422.825,241.375 L 457.775,241.375 L 457.775,236.4 L 457.776,236.393 L 457.779,236.387 L 457.783,236.381 L 457.789,236.377 L 457.796,236.375 L 492.8,236.375 L 492.807,236.376 L 492.813,236.379 L 492.819,236.383 L 492.823,236.389 L 492.825,236.396 L 492.825,241.375 L 527.775,241.375 L 527.775,236.4 L 527.776,236.393 L 527.779,236.387 L 527.783,236.381 L 527.789,236.377 L 527.796,236.375 L 573.7,236.375 L 573.707,236.376 L 573.713,236.379 L 573.719,236.383 L 573.723,236.389 L 573.725,236.396 L 573.725,402.6 L 573.724,402.607 L 573.721,402.613 L 573.717,402.619 L 573.711,402.623 L 573.704,402.625 L 527.8,402.625 L 527.793,402.624 L 527.787,402.621 L 527.781,402.617 L 527.777,402.611 L 527.775,402.604 L 527.775,397.625 L 492.824,397.625 L 492.824,402.6 L 492.823,402.607 L 492.82,402.613 L 492.816,402.619 L 492.81,402.623 L 492.803,402.625 L 457.799,402.625 L 457.792,402.624 L 457.786,402.621 L 457.78,402.617 L 457.776,402.611 L 457.774,402.604 L 457.774,397.625 L 422.824,397.625 L 422.824,402.6 L 422.823,402.607 L 422.82,402.613 L 422.816,402.619 L 422.81,402.623 L 422.803,402.625 L 387.799,402.625 L 387.792,402.624 L 387.786,402.621 L 387.78,402.617 L 387.776,402.611 L 387.774,402.604 L 387.774,397.625 L 352.824,397.625 L 352.824,402.6 L 352.823,402.607 L 352.82,402.613 L 352.816,402.619 L 352.81,402.623 L 352.803,402.625 L 306.9,402.625 L 306.893,402.624 L 306.887,402.621 L 306.881,402.617 L 306.877,402.611 L 306.875,402.604 L 306.875,378.1 L 306.876,378.093 L 306.879,378.087 L 306.883,378.081 L 306.889,378.077 L 306.896,378.075 L 311.875,378.075 L 311.875,354.725 L 306.9,354.725 L 306.893,354.724 L 306.887,354.721 L 306.881,354.717 L 306.877,354.711 L 306.875,354.704 L 306.875,331.2 L 306.876,331.193 L 306.879,331.187 L 306.883,331.181 L 306.889,331.177 L 306.896,331.175 L 311.875,331.175 L 311.875,307.825 L 306.9,307.825 L 306.893,307.824 L 306.887,307.821 L 306.881,307.817 L 306.877,307.811 L 306.875,307.804 L 306.875,284.3 L 306.876,284.293 L 306.879,284.287 L 306.883,284.281 L 306.889,284.277 L 306.896,284.275 L 311.875,284.275 L 311.875,260.924 L 306.9,260.924 L 306.893,260.923 L 306.887,260.92 L 306.881,260.916 L 306.877,260.91 L 306.875,260.903 L 306.875,236.4 L 306.876,236.393 L 306.879,236.387 L 306.883,236.381 L 306.889,236.377 L 306.896,236.375 L 352.8,236.375 Z M 528.368,383.875 L 552.481,383.875 L 555.868,370.924 L 544.208,370.425 Z M 510.807,345.225 L 493.535,354.71 L 511.114,383.875 L 517.191,383.875 L 536.364,367.598 L 515.49,345.125 Z M 461.135,363.617 L 470.316,383.875 L 501.156,383.875 L 485.288,357.528 Z M 419.004,360.725 L 408.034,365.113 L 416.816,383.875 L 460.661,383.875 L 451.582,364.021 L 436.498,360.225 Z M 376.521,378.516 L 374.834,383.875 L 407.16,383.875 L 398.983,366.625 L 394.408,366.525 Z M 339.442,378.294 L 350.505,383.875 L 365.382,383.875 L 366.667,379.723 L 339.51,378.226 Z M 334.832,383.875 L 336.587,383.875 L 335.017,383.136 Z M 348.68,373.579 L 370.093,374.675 L 385.144,364.607 L 371.102,359.628 Z M 327.425,359.524 L 327.425,372.183 L 332.102,373.974 L 336.392,373.376 L 360.109,358.628 Z M 525.507,342.225 L 524.04,343.007 L 544.811,365.275 L 556.575,365.674 L 556.575,340.726 Z M 366.433,330.62 L 373.82,354.38 L 393.705,361.375 L 401.196,361.475 L 411.967,357.087 L 404.38,339.217 L 385.496,327.526 Z M 453.02,339.117 L 443.139,356.184 L 455.6,359.374 L 485.49,351.777 L 501.634,343.007 L 474.996,335.425 L 459.706,335.025 Z M 414.034,339.215 L 420.916,355.474 L 433.885,355.075 L 443.262,339.115 L 427.401,334.626 Z M 329.563,354.273 L 363.966,353.276 L 356.881,330.622 L 354.307,330.127 Z M 327.425,345.741 L 346.156,327.609 L 327.425,319.738 Z M 496.127,314.797 L 510.119,339.882 L 510.505,340.075 L 516.292,339.975 L 519.179,338.383 L 529.168,310.714 L 526.796,309.825 L 498.019,307.826 Z M 538.419,311.523 L 529.337,336.873 L 556.575,335.476 L 556.575,308.53 Z M 480.126,322.516 L 480.824,331.281 L 498.249,336.16 L 488.789,319.131 Z M 392.944,324.298 L 409.602,334.672 L 423.082,329.98 L 430.066,314.214 L 413.405,307.928 Z M 432.635,330.284 L 447.897,334.573 L 452.161,331.995 L 439.986,318.822 L 438.112,317.934 Z M 451.155,319.524 L 460.711,329.875 L 471.273,330.174 L 470.676,322.214 L 465.794,319.125 Z M 331.951,315.094 L 354.51,324.577 L 361.298,325.975 L 383.989,322.276 L 407.17,303.691 L 399.782,283.224 L 377.708,282.425 Z M 477.911,313.223 L 473.844,316.298 L 476.103,317.772 L 486.979,313.482 L 487.963,309.939 Z M 442.572,313.305 L 445.205,314.475 L 465.392,313.875 L 467.543,312.311 L 456.101,309.326 Z M 327.425,309.751 L 368.849,280.206 L 327.425,263.637 Z M 408.832,281.713 L 416.42,302.781 L 434.8,309.674 L 453.09,304.277 L 475.067,291.79 L 474.981,291.617 L 463.193,284.425 L 412.905,279.826 Z M 463.965,305.592 L 474.398,308.374 L 487.55,304.09 L 479.396,296.831 Z M 555.109,255.125 L 525.628,282.208 L 532.82,305.781 L 535.201,306.674 L 557.787,302.877 L 561.075,298.791 L 561.075,255.125 Z M 484.954,291.914 L 496.911,302.476 L 522.866,304.272 L 517.083,285.229 Z M 508.208,255.125 L 471.645,281.898 L 480.605,287.274 L 517.588,279.577 L 544.136,255.125 Z M 427.015,255.125 L 417.338,274.978 L 463.493,279.174 L 496.423,255.125 Z M 385.701,255.125 L 329.414,258.019 L 377.204,277.175 L 402.095,278.075 L 407.282,275.681 L 417.261,255.125 Z"></path></g><g data-name="face5" id="face5"><path d="M 357.407,436.476 L 357.413,436.479 L 357.419,436.483 L 357.423,436.489 L 357.425,436.496 L 357.425,441.475 L 376.9,441.475 L 376.907,441.476 L 376.913,441.479 L 376.919,441.483 L 376.923,441.489 L 376.925,441.496 L 376.925,460.975 L 381.9,460.975 L 381.907,460.976 L 381.913,460.979 L 381.919,460.983 L 381.923,460.989 L 381.925,460.996 L 381.925,484.4 L 381.924,484.407 L 381.921,484.413 L 381.917,484.419 L 381.911,484.423 L 381.904,484.425 L 376.925,484.425 L 376.925,507.875 L 381.9,507.875 L 381.907,507.876 L 381.913,507.879 L 381.919,507.883 L 381.923,507.889 L 381.925,507.896 L 381.925,531.3 L 381.924,531.307 L 381.921,531.313 L 381.917,531.319 L 381.911,531.323 L 381.904,531.325 L 376.925,531.325 L 376.925,554.775 L 381.9,554.775 L 381.907,554.776 L 381.913,554.779 L 381.919,554.783 L 381.923,554.789 L 381.925,554.796 L 381.925,578.2 L 381.924,578.207 L 381.921,578.213 L 381.917,578.219 L 381.911,578.223 L 381.904,578.225 L 376.925,578.225 L 376.925,597.7 L 376.924,597.707 L 376.921,597.713 L 376.917,597.719 L 376.911,597.723 L 376.904,597.725 L 357.425,597.725 L 357.425,602.7 L 357.424,602.707 L 357.421,602.713 L 357.417,602.719 L 357.411,602.723 L 357.404,602.725 L 334.0,602.725 L 333.993,602.724 L 333.987,602.721 L 333.981,602.717 L 333.977,602.711 L 333.975,602.704 L 333.975,597.725 L 310.525,597.725 L 310.525,602.7 L 310.524,602.707 L 310.521,602.713 L 310.517,602.719 L 310.511,602.723 L 310.504,602.725 L 287.099,602.725 L 287.092,602.724 L 287.086,602.721 L 287.08,602.717 L 287.076,602.711 L 287.074,602.704 L 287.074,597.725 L 263.624,597.725 L 263.624,602.7 L 263.623,602.707 L 263.62,602.713 L 263.616,602.719 L 263.61,602.723 L 263.603,602.725 L 240.199,602.725 L 240.192,602.724 L 240.186,602.721 L 240.18,602.717 L 240.176,602.711 L 240.174,602.704 L 240.174,597.725 L 220.7,597.725 L 220.693,597.724 L 220.687,597.721 L 220.681,597.717 L 220.677,597.711 L 220.675,597.704 L 220.675,578.225 L 215.7,578.225 L 215.693,578.224 L 215.687,578.221 L 215.681,578.217 L 215.677,578.211 L 215.675,578.204 L 215.675,554.8 L 215.676,554.793 L 215.679,554.787 L 215.683,554.781 L 215.689,554.777 L 215.696,554.775 L 220.675,554.775 L 220.675,531.325 L 215.7,531.325 L 215.693,531.324 L 215.687,531.321 L 215.681,531.317 L 215.677,531.311 L 215.675,531.304 L 215.675,507.9 L 215.676,507.893 L 215.679,507.887 L 215.683,507.881 L 215.689,507.877 L 215.696,507.875 L 220.675,507.875 L 220.675,484.425 L 215.7,484.425 L 215.693,484.424 L 215.687,484.421 L 215.681,484.417 L 215.677,484.411 L 215.675,484.404 L 215.675,461.0 L 215.676,460.993 L 215.679,460.987 L 215.683,460.981 L 215.689,460.977 L 215.696,460.975 L 220.675,460.975 L 220.675,441.5 L 220.676,441.493 L 220.679,441.487 L 220.683,441.481 L 220.689,441.477 L 220.696,441.475 L 240.175,441.475 L 240.175,436.5 L 240.176,436.493 L 240.179,436.487 L 240.183,436.481 L 240.189,436.477 L 240.196,436.475 L 357.4,436.475 Z M 351.619,566.422 L 348.728,574.498 L 354.514,583.975 L 355.291,583.975 L 363.175,577.289 L 363.175,564.43 Z M 338.22,581.718 L 337.14,583.975 L 348.356,583.975 L 344.891,578.233 Z M 307.927,570.408 L 310.321,583.975 L 331.484,583.975 L 332.969,580.708 L 312.503,565.733 Z M 248.26,583.975 L 305.07,583.975 L 302.878,571.923 L 264.41,567.526 Z M 234.425,571.594 L 240.906,583.958 L 261.078,563.486 L 261.274,562.704 L 257.679,555.114 L 234.425,529.066 Z M 315.532,561.492 L 336.402,576.771 L 343.68,572.982 L 346.671,564.807 L 338.988,557.622 L 320.013,552.629 Z M 278.82,542.417 L 266.942,562.579 L 304.09,566.774 L 310.082,560.782 L 315.874,549.196 L 314.979,544.822 L 284.305,538.627 Z M 343.632,554.795 L 350.607,561.273 L 363.175,559.179 L 363.175,542.525 L 351.114,542.325 Z M 257.328,534.209 L 262.423,552.79 L 264.204,556.846 L 273.871,540.6 L 265.494,527.237 Z M 321.123,538.21 L 319.825,542.702 L 320.821,547.48 L 339.087,552.271 L 346.571,539.599 L 338.384,524.924 L 328.814,523.826 Z M 234.425,521.19 L 254.447,543.702 L 251.876,534.307 L 245.085,520.725 L 234.425,520.426 Z M 289.322,523.914 L 286.93,533.781 L 315.283,539.571 L 315.77,538.109 L 293.4,520.532 Z M 343.737,523.914 L 351.115,537.075 L 361.361,537.274 L 353.886,520.431 Z M 268.421,522.087 L 277.607,536.964 L 281.478,534.284 L 284.073,523.307 L 273.19,513.323 L 264.638,512.728 Z M 296.632,516.493 L 317.892,533.262 L 324.573,520.797 L 322.281,514.221 L 300.214,509.628 Z M 250.234,519.412 L 255.208,529.161 L 263.07,522.493 L 259.987,515.133 Z M 358.329,517.705 L 363.175,528.681 L 363.175,512.464 Z M 331.611,496.625 L 330.822,497.414 L 327.026,511.898 L 329.319,518.577 L 339.697,519.874 L 353.787,514.978 L 361.462,506.605 L 346.392,496.425 Z M 287.611,501.924 L 278.136,510.8 L 287.101,518.967 L 291.281,515.584 L 295.872,506.701 L 292.687,501.028 Z M 234.425,497.418 L 234.425,515.275 L 246.195,515.575 L 259.57,509.586 L 254.283,490.333 Z M 296.826,497.695 L 300.517,504.378 L 322.382,508.971 L 325.471,497.313 L 300.216,482.639 Z M 268.653,507.778 L 273.291,508.074 L 281.957,500.106 L 277.407,497.831 Z M 258.827,487.203 L 263.812,505.448 L 273.669,494.297 L 266.685,482.923 L 261.413,482.227 Z M 350.431,492.891 L 363.175,501.552 L 363.175,463.023 Z M 272.439,482.216 L 278.717,492.581 L 286.804,496.774 L 291.88,495.878 L 295.573,479.509 L 294.086,478.022 L 292.698,477.526 Z M 303.752,478.701 L 328.075,492.856 L 328.075,492.797 L 331.07,464.444 Z M 247.818,455.225 L 235.041,491.758 L 254.183,484.879 L 257.173,479.198 L 247.883,455.225 Z M 339.915,455.225 L 336.724,460.709 L 333.428,491.375 L 345.483,491.275 L 360.862,455.225 Z M 253.536,455.225 L 261.917,476.977 L 268.201,477.875 L 288.258,473.284 L 275.187,455.225 Z M 234.425,455.225 L 234.425,477.852 L 242.364,455.225 Z M 305.513,455.225 L 304.322,456.713 L 298.529,474.993 L 298.905,475.369 L 332.283,457.981 L 333.956,455.225 Z M 293.828,458.125 L 295.111,468.484 L 298.465,458.125 Z M 281.649,455.225 L 289.563,466.206 L 288.376,456.61 L 287.089,455.225 Z M 310.525,436.525 L 310.525,441.475 L 333.975,441.475 L 333.975,436.525 Z M 263.624,436.525 L 263.624,441.475 L 287.075,441.475 L 287.075,436.525 Z"></path></g></svg>