<svg data-name="Layer 1" style="fill:none;stroke:#ff0000;stroke-linejoin:round;stroke-width:0.1px;stroke-linecap:round;stroke-opacity:0.5" viewBox="0 0 1366 768" xmlns="http://www.w3.org/2000/svg"><metadata><laserassistant model="{&quot;attrib&quot;: {&quot;data-name&quot;: &quot;Layer 1&quot;, &quot;viewBox&quot;: &quot;0 0 1366 768&quot;, &quot;xmlns&quot;: &quot;http://www.w3.org/2000/svg&quot;, &quot;style&quot;: &quot;fill:none;stroke:#ff0000;stroke-linejoin:round;stroke-width:0.1px;stroke-linecap:round;stroke-opacity:0.5&quot;}, &quot;edge_data&quot;: {&quot;edges&quot;: [{&quot;d&quot;: &quot;M 32.0 51.5027 L 298.6393 51.5027&quot;, &quot;edge&quot;: 1, &quot;face&quot;: &quot;face1&quot;}, {&quot;d&quot;: &quot;M 298.6393 51.5027 L 298.6393 217.7078&quot;, &quot;edge&quot;: 2, &quot;face&quot;: &quot;face1&quot;}, {&quot;d&quot;: &quot;M 298.6393 217.7078 L 32.0 217.7078&quot;, &quot;edge&quot;: 3, &quot;face&quot;: &quot;face1&quot;}, {&quot;d&quot;: &quot;M 32.0 217.7078 L 32.0 51.502700000000004&quot;, &quot;edge&quot;: 4, &quot;face&quot;: &quot;face1&quot;}, {&quot;d&quot;: &quot;M 306.5016 49.7185 L 573.2633000000001 49.7185&quot;, &quot;edge&quot;: 5, &quot;face&quot;: &quot;face2&quot;}, {&quot;d&quot;: &quot;M 573.2633000000001 49.7185 L 573.2633000000001 215.9207&quot;, &quot;edge&quot;: 6, &quot;face&quot;: &quot;face2&quot;}, {&quot;d&quot;: &quot;M 573.2633000000001 215.9207 L 306.5016 215.9207&quot;, &quot;edge&quot;: 7, &quot;face&quot;: &quot;face2&quot;}, {&quot;d&quot;: &quot;M 306.5016 215.9207 L 306.5016 49.718500000000006&quot;, &quot;edge&quot;: 8, &quot;face&quot;: &quot;face2&quot;}, {&quot;d&quot;: &quot;M 583.9108 51.5027 L 850.6735 51.5027&quot;, &quot;edge&quot;: 9, &quot;face&quot;: &quot;face3&quot;}, {&quot;d&quot;: &quot;M 850.6735 51.5027 L 850.6735 217.7078&quot;, &quot;edge&quot;: 10, &quot;face&quot;: &quot;face3&quot;}, {&quot;d&quot;: &quot;M 850.6735 217.7078 L 583.9108 217.7078&quot;, &quot;edge&quot;: 11, &quot;face&quot;: &quot;face3&quot;}, {&quot;d&quot;: &quot;M 583.9108 217.7078 L 583.9108 51.502700000000004&quot;, &quot;edge&quot;: 12, &quot;face&quot;: &quot;face3&quot;}, {&quot;d&quot;: &quot;M 877.3262 51.4783 L 1144.0884 51.4783&quot;, &quot;edge&quot;: 13, &quot;face&quot;: &quot;face4&quot;}, {&quot;d&quot;: &quot;M 1144.0884 51.4783 L 1144.0884 217.70579999999998&quot;, &quot;edge&quot;: 14, &quot;face&quot;: &quot;face4&quot;}, {&quot;d&quot;: &quot;M 1144.0884 217.70579999999998 L 877.3262 217.70579999999998&quot;, &quot;edge&quot;: 15, &quot;face&quot;: &quot;face4&quot;}, {&quot;d&quot;: &quot;M 877.3262 217.70579999999998 L 877.3262 51.47829999999999&quot;, &quot;edge&quot;: 16, &quot;face&quot;: &quot;face4&quot;}, {&quot;d&quot;: &quot;M 1163.2457 51.4783 L 1329.4497999999999 51.4783&quot;, &quot;edge&quot;: 17, &quot;face&quot;: &quot;face5&quot;}, {&quot;d&quot;: &quot;M 1329.4497999999999 51.4783 L 1329.4497999999999 217.6824&quot;, &quot;edge&quot;: 18, &quot;face&quot;: &quot;face5&quot;}, {&quot;d&quot;: &quot;M 1329.4497999999999 217.6824 L 1163.2457 217.6824&quot;, &quot;edge&quot;: 19, &quot;face&quot;: &quot;face5&quot;}, {&quot;d&quot;: &quot;M 1163.2457 217.6824 L 1163.2457 51.47829999999999&quot;, &quot;edge&quot;: 20, &quot;face&quot;: &quot;face5&quot;}], &quot;viewBox&quot;: &quot;0 0 1366 768&quot;}, &quot;joint_index&quot;: 9, &quot;joints&quot;: {&quot;Joint1&quot;: {&quot;edge_a&quot;: {&quot;d&quot;: &quot;M 298.6393 217.7078 L 32.0 217.7078&quot;, &quot;edge&quot;: 3, &quot;face&quot;: &quot;face1&quot;}, &quot;edge_b&quot;: {&quot;d&quot;: &quot;M 306.5016 49.7185 L 573.2633000000001 49.7185&quot;, &quot;edge&quot;: 5, &quot;face&quot;: &quot;face2&quot;}, &quot;joint_parameters&quot;: {&quot;joint_type&quot;: &quot;Box&quot;, &quot;fit&quot;: &quot;Clearance&quot;, &quot;tabsize&quot;: 33.2, &quot;tabspace&quot;: 33.2, &quot;tabnum&quot;: 2}}, &quot;Joint2&quot;: {&quot;edge_a&quot;: {&quot;d&quot;: &quot;M 583.9108 51.5027 L 850.6735 51.5027&quot;, &quot;edge&quot;: 9, &quot;face&quot;: &quot;face3&quot;}, &quot;edge_b&quot;: {&quot;d&quot;: &quot;M 573.2633000000001 215.9207 L 306.5016 215.9207&quot;, &quot;edge&quot;: 7, &quot;face&quot;: &quot;face2&quot;}, &quot;joint_parameters&quot;: {&quot;joint_type&quot;: &quot;Box&quot;, &quot;fit&quot;: &quot;Clearance&quot;, &quot;tabsize&quot;: 33.2, &quot;tabspace&quot;: 33.2, &quot;tabnum&quot;: 2}}, &quot;Joint3&quot;: {&quot;edge_a&quot;: {&quot;d&quot;: &quot;M 850.6735 217.7078 L 583.9108 217.7078&quot;, &quot;edge&quot;: 11, &quot;face&quot;: &quot;face3&quot;}, &quot;edge_b&quot;: {&quot;d&quot;: &quot;M 877.3262 51.4783 L 1144.0884 51.4783&quot;, &quot;edge&quot;: 13, &quot;face&quot;: &quot;face4&quot;}, &quot;joint_parameters&quot;: {&quot;joint_type&quot;: &quot;Box&quot;, &quot;fit&quot;: &quot;Clearance&quot;, &quot;tabsize&quot;: 33.2, &quot;tabspace&quot;: 33.2, &quot;tabnum&quot;: 2}}, &quot;Joint4&quot;: {&quot;edge_a&quot;: {&quot;d&quot;: &quot;M 32.0 51.5027 L 298.6393 51.5027&quot;, &quot;edge&quot;: 1, &quot;face&quot;: &quot;face1&quot;}, &quot;edge_b&quot;: {&quot;d&quot;: &quot;M 1144.0884 217.70579999999998 L 877.3262 217.70579999999998&quot;, &quot;edge&quot;: 15, &quot;face&quot;: &quot;face4&quot;}, &quot;joint_parameters&quot;: {&quot;joint_type&quot;: &quot;Box&quot;, &quot;fit&quot;: &quot;Clearance&quot;, &quot;tabsize&quot;: 33.2, &quot;tabspace&quot;: 33.2, &quot;tabnum&quot;: 2}}, &quot;Joint5&quot;: {&quot;edge_a&quot;: {&quot;d&quot;: &quot;M 1144.0884 51.4783 L 1144.0884 217.70579999999998&quot;, &quot;edge&quot;: 14, &quot;face&quot;: &quot;face4&quot;}, &quot;edge_b&quot;: {&quot;d&quot;: &quot;M 1163.2457 217.6824 L 1163.2457 51.47829999999999&quot;, &quot;edge&quot;: 20, &quot;face&quot;: &quot;face5&quot;}, &quot;joint_parameters&quot;: {&quot;joint_type&quot;: &quot;Box&quot;, &quot;fit&quot;: &quot;Clearance&quot;, &quot;tabsize&quot;: 33.2, &quot;tabspace&quot;: 33.2, &quot;tabnum&quot;: 2}}, &quot;Joint6&quot;: {&quot;edge_a&quot;: {&quot;d&quot;: &quot;M 850.6735 51.5027 L 850.6735 217.7078&quot;, &quot;edge&quot;: 10, &quot;face&quot;: &quot;face3&quot;}, &quot;edge_b&quot;: {&quot;d&quot;: &quot;M 1163.2457 51.4783 L 1329.4497999999999 51.4783&quot;, &quot;edge&quot;: 17, &quot;face&quot;: &quot;face5&quot;}, &quot;joint_parameters&quot;: {&quot;joint_type&quot;: &quot;Box&quot;, &quot;fit&quot;: &quot;Clearance&quot;, &quot;tabsize&quot;: 33.2, &quot;tabspace&quot;: 33.2, &quot;tabnum&quot;: 2}}, &quot;Joint7&quot;: {&quot;edge_a&quot;: {&quot;d&quot;: &quot;M 573.2633000000001 49.7185 L 573.2633000000001 215.9207&quot;, &quot;edge&quot;: 6, &quot;face&quot;: &quot;face2&quot;}, &quot;edge_b&quot;: {&quot;d&quot;: &quot;M 1329.4497999999999 51.4783 L 1329.4497999999999 217.6824&quot;, &quot;edge&quot;: 18, &quot;face&quot;: &quot;face5&quot;}, &quot;joint_parameters&quot;: {&quot;joint_type&quot;: &quot;Box&quot;, &quot;fit&quot;: &quot;Clearance&quot;, &quot;tabsize&quot;: 33.2, &quot;tabspace&quot;: 33.2, &quot;tabnum&quot;: 2}}, &quot;Joint8&quot;: {&quot;edge_a&quot;: {&quot;d&quot;: &quot;M 298.6393 51.5027 L 298.6393 217.7078&quot;, &quot;edge&quot;: 2, &quot;face&quot;: &quot;face1&quot;}, &quot;edge_b&quot;: {&quot;d&quot;: &quot;M 1329.4497999999999 217.6824 L 1163.2457 217.6824&quot;, &quot;edge&quot;: 19, &quot;face&quot;: &quot;face5&quot;}, &quot;joint_parameters&quot;: {&quot;joint_type&quot;: &quot;Box&quot;, &quot;fit&quot;: &quot;Clearance&quot;, &quot;tabsize&quot;: 33.2, &quot;tabspace&quot;: 33.2, &quot;tabnum&quot;: 2}}}, &quot;tree&quot;: {&quot;face1&quot;: {&quot;Cuts&quot;: {&quot;paths&quot;: [&quot;M 52.445,104.921 L 56.512,103.684 L 74.594,107.458 L 77.584,115.6 L 52.445,118.483 L 52.445,104.921 L 52.445,104.921&quot;, &quot;M 52.445,123.755 L 80.738,120.51 L 85.947,125.483 L 66.65,139.436 L 61.348,140.274 L 52.445,139.446 L 52.445,123.755 L 52.445,123.755&quot;, &quot;M 52.445,144.678 L 58.006,145.196 L 71.02,168.141 L 57.141,171.245 L 52.445,169.389 L 52.445,144.678 L 52.445,144.678&quot;, &quot;M 60.811,81.704 L 108.865,96.173 L 78.611,102.782 L 60.811,99.071 L 60.811,81.704 L 60.811,81.704&quot;, &quot;M 61.231,184.376 L 67.07,191.294 L 61.604,193.946 L 61.231,184.376 L 61.231,184.376&quot;, &quot;M 63.846,175.292 L 76.695,172.432 L 86.018,174.673 L 88.844,184.555 L 74.943,188.46 L 63.846,175.292 L 63.846,175.292&quot;, &quot;M 67.514,144.655 L 69.174,144.397 L 121.529,156.159 L 89.545,169.907 L 80.598,167.755 L 67.514,144.655 L 67.514,144.655&quot;, &quot;M 68.356,78.083 L 117.977,70.186 L 133.051,70.186 L 140.475,82.567 L 118.865,93.3 L 68.356,78.083 L 68.356,78.083&quot;, &quot;M 69.547,196.95 L 75.41,194.116 L 93.516,189.026 L 112.791,196.95 L 69.547,196.95 L 69.547,196.95&quot;, &quot;M 76.836,140.571 L 94.078,128.073 L 120.315,125.96 L 130.99,131.204 L 128.793,152.243 L 76.836,140.571 L 76.836,140.571&quot;, &quot;M 84.008,107.149 L 114.963,100.385 L 116.902,121.012 L 93.984,122.868 L 87.537,116.696 L 84.008,107.149 L 84.008,107.149&quot;, &quot;M 95.293,173.977 L 129.285,159.38 L 139.4,182.841 L 120.873,193.844 L 98.307,184.569 L 95.293,173.977 L 95.293,173.977&quot;, &quot;M 124.074,97.655 L 146.69,86.419 L 157.951,89.395 L 166.547,119.634 L 136.621,127.092 L 126.363,122.03 L 124.074,97.655 L 124.074,97.655&quot;, &quot;M 126.131,198.301 L 146.246,186.358 L 168.066,188.434 L 176.768,199.024 L 126.147,199.024 L 126.131,198.301 L 126.131,198.301&quot;, &quot;M 138.49,158.401 L 196.242,163.581 L 172.225,181.966 L 169.703,183.358 L 148.371,181.335 L 138.49,158.401 L 138.49,158.401&quot;, &quot;M 138.512,148.751 L 140.287,131.821 L 171.688,124.001 L 198.765,130.983 L 138.512,148.751 L 138.512,148.751&quot;, &quot;M 142.111,153.518 L 206.311,134.591 L 209.512,157.872 L 203.904,159.057 L 142.111,153.518 L 142.111,153.518&quot;, &quot;M 142.912,70.186 L 195.744,70.186 L 170.892,84.602 L 163.02,85.04 L 149.703,81.509 L 142.912,70.186 L 142.912,70.186&quot;, &quot;M 167.6,89.962 L 172.436,89.704 L 229.533,102.022 L 234.019,115.665 L 209.464,128.059 L 175.986,119.415 L 167.6,89.962 L 167.6,89.962&quot;, &quot;M 176.897,186.68 L 177.225,186.499 L 218.902,192.182 L 215.078,199.024 L 187.033,199.024 L 176.897,186.68 L 176.897,186.68&quot;, &quot;M 181.266,86.071 L 208.656,70.186 L 231.782,70.186 L 236.518,92.089 L 231.589,96.946 L 181.266,86.071 L 181.266,86.071&quot;, &quot;M 183.602,182.069 L 207.408,163.85 L 212.642,162.743 L 228.667,180.02 L 222.244,187.339 L 183.602,182.069 L 183.602,182.069&quot;, &quot;M 215.305,132.106 L 240.256,119.518 L 253.946,121.94 L 259.156,141.6 L 243.994,154.059 L 218.717,156.893 L 215.305,132.106 L 215.305,132.106&quot;, &quot;M 222.221,161.764 L 246.75,159.02 L 286.07,163.618 L 286.07,177.27 L 259.344,180.639 L 237.055,177.739 L 222.221,161.764 L 222.221,161.764&quot;, &quot;M 224.856,199.024 L 229.184,191.28 L 236.448,182.969 L 254.764,185.354 L 255.633,199.024 L 224.856,199.024 L 224.856,199.024&quot;, &quot;M 238.574,100.592 L 244.508,94.755 L 258.455,92.333 L 286.07,97.719 L 286.07,114.839 L 259.576,117.403 L 258.853,117.403 L 243.199,114.635 L 238.574,100.592 L 238.574,100.592&quot;, &quot;M 241.201,70.186 L 267.127,70.186 L 277.589,76.807 L 256.213,87.321 L 245.326,89.202 L 241.201,70.186 L 241.201,70.186&quot;, &quot;M 254.531,154.639 L 265.441,145.671 L 286.07,152.475 L 286.07,158.333 L 254.531,154.639 L 254.531,154.639&quot;, &quot;M 264.132,185.329 L 286.069,182.561 L 286.07,199.022 L 265.002,199.022 L 264.132,185.329 L 264.132,185.329&quot;, &quot;M 265.254,128.987 L 286.07,146.12 L 286.07,146.454 L 268.338,140.622 L 265.254,128.987 L 265.254,128.987&quot;, &quot;M 267.566,88.635 L 285.813,79.655 L 286.07,79.659 L 286.07,92.243 L 267.566,88.635 L 267.566,88.635&quot;, &quot;M 267.824,121.837 L 286.07,120.067 L 286.07,136.874 L 267.824,121.837 L 267.824,121.837&quot;, &quot;M 279.506,70.186 L 286.069,70.186 L 286.069,74.339 L 279.506,70.186 L 279.506,70.186&quot;]}, &quot;Perimeter&quot;: {&quot;paths&quot;: [&quot;M 32.0,51.5027 L 298.6393,51.5027 L 298.6393,217.7078 L 32.0,217.7078 L 32.0,51.5027&quot;]}}, &quot;face2&quot;: {&quot;Cuts&quot;: {&quot;paths&quot;: [&quot;M 328.071,68.4 L 338.104,68.4 L 334.588,73.412 L 330.454,73.863 L 328.071,73.244 L 328.071,68.4 L 328.071,68.4&quot;, &quot;M 328.071,93.72 L 330.803,92.855 L 337.182,96.564 L 328.071,105.277 L 328.071,93.72 L 328.071,93.72&quot;, &quot;M 328.071,115.478 L 357.999,127.859 L 356.922,134.855 L 353.7,138.334 L 328.071,147.734 L 328.071,115.478 L 328.071,115.478&quot;, &quot;M 328.071,153.945 L 356.548,143.5 L 363.954,147.945 L 382.785,175.619 L 378.02,177.99 L 328.071,185.412 L 328.071,153.945 L 328.071,153.945&quot;, &quot;M 328.071,190.746 L 378.276,183.285 L 393.718,196.066 L 394.397,197.24 L 328.071,197.24 L 328.071,190.746 L 328.071,190.746&quot;, &quot;M 332.86,111.021 L 345.825,98.613 L 373.557,97.119 L 380.613,99.025 L 381.687,99.502 L 384.022,108.224 L 362.063,123.105 L 332.86,111.021 L 332.86,111.021&quot;, &quot;M 334.821,78.642 L 338.022,78.295 L 351.876,79.726 L 366.382,92.326 L 344.798,93.484 L 336.175,88.486 L 334.821,78.642 L 334.821,78.642&quot;, &quot;M 344.424,73.695 L 348.139,68.4 L 363.159,68.4 L 353.02,74.585 L 344.424,73.695 L 344.424,73.695&quot;, &quot;M 360.568,77.663 L 375.756,68.4 L 376.46,68.4 L 378.183,92.636 L 377.646,92.494 L 360.568,77.663 L 360.568,77.663&quot;, &quot;M 362.903,139.713 L 364.141,138.384 L 431.378,143.5 L 431.146,145.136 L 397.573,151.681 L 370.8,144.467 L 362.903,139.713 L 362.903,139.713&quot;, &quot;M 366.526,133.373 L 367.389,127.654 L 390.472,112.0 L 442.475,122.435 L 443.714,129.406 L 433.948,138.502 L 366.526,133.373 L 366.526,133.373&quot;, &quot;M 376.501,151.746 L 392.878,156.164 L 395.424,172.218 L 391.033,173.082 L 376.501,151.746 L 376.501,151.746&quot;, &quot;M 385.823,68.413 L 407.69,81.039 L 401.732,86.927 L 387.622,93.886 L 385.823,68.413 L 385.823,68.413&quot;, &quot;M 386.428,180.748 L 390.727,178.609 L 401.242,176.535 L 444.204,175.916 L 445.163,176.392 L 399.397,191.492 L 386.428,180.748 L 386.428,180.748&quot;, &quot;M 391.033,99.115 L 406.265,91.592 L 442.125,100.65 L 441.751,116.804 L 393.158,107.066 L 391.033,99.115 L 391.033,99.115&quot;, &quot;M 398.719,68.4 L 442.129,68.4 L 414.277,77.367 L 398.719,68.4 L 398.719,68.4&quot;, &quot;M 402.269,156.242 L 432.126,150.431 L 440.211,170.814 L 404.675,171.33 L 402.269,156.242 L 402.269,156.242&quot;, &quot;M 403.578,196.131 L 446.517,181.97 L 448.131,197.238 L 404.219,197.238 L 403.578,196.131 L 403.578,196.131&quot;, &quot;M 411.989,87.365 L 416.917,82.509 L 455.022,70.23 L 459.905,76.323 L 444.486,95.572 L 411.989,87.365 L 411.989,87.365&quot;, &quot;M 440.255,146.849 L 440.958,142.095 L 450.42,133.285 L 479.995,140.511 L 495.883,153.627 L 464.389,170.828 L 452.055,172.875 L 450.21,171.949 L 440.255,146.849 L 440.255,146.849&quot;, &quot;M 451.096,116.843 L 451.495,99.566 L 466.937,80.33 L 487.403,88.758 L 482.379,108.533 L 451.096,116.843 L 451.096,116.843&quot;, &quot;M 451.844,122.371 L 486.772,113.082 L 511.535,118.879 L 514.548,121.353 L 482.401,135.461 L 452.895,128.246 L 451.844,122.371 L 451.844,122.371&quot;, &quot;M 455.443,177.681 L 466.563,175.826 L 533.122,191.531 L 539.384,197.24 L 457.506,197.24 L 455.443,177.681 L 455.443,177.681&quot;, &quot;M 463.779,68.4 L 561.694,68.4 L 561.694,73.287 L 521.067,83.978 L 493.803,84.968 L 468.806,74.662 L 463.779,68.4 L 463.779,68.4&quot;, &quot;M 475.09,172.23 L 503.777,156.578 L 506.49,156.629 L 526.229,161.576 L 530.858,185.384 L 475.09,172.23 L 475.09,172.23&quot;, &quot;M 489.364,138.99 L 521.325,124.961 L 525.973,126.326 L 504.644,151.437 L 504.458,151.425 L 489.364,138.99 L 489.364,138.99&quot;, &quot;M 491.77,108.662 L 496.491,90.045 L 517.329,89.285 L 515.391,108.765 L 512.049,113.404 L 491.77,108.662 L 491.77,108.662&quot;, &quot;M 513.801,152.802 L 534.899,127.963 L 538.893,128.195 L 561.694,138.4 L 561.694,146.672 L 530.318,156.937 L 513.801,152.802 L 513.801,152.802&quot;, &quot;M 519.901,116.509 L 523.708,111.199 L 556.252,102.607 L 537.981,122.965 L 533.426,122.705 L 524.034,119.935 L 519.901,116.509 L 519.901,116.509&quot;, &quot;M 525.108,105.119 L 526.79,88.189 L 561.694,79.006 L 561.694,95.47 L 525.108,105.119 L 525.108,105.119&quot;, &quot;M 535.575,161.203 L 561.694,152.668 L 561.694,165.064 L 544.428,191.867 L 540.878,188.633 L 535.575,161.203 L 535.575,161.203&quot;, &quot;M 546.58,125.011 L 561.694,108.152 L 561.694,131.769 L 546.58,125.011 L 546.58,125.011&quot;]}, &quot;Perimeter&quot;: {&quot;paths&quot;: [&quot;M 306.5016,49.7185 L 573.2633000000001,49.7185 L 573.2633000000001,215.9207 L 306.5016,215.9207 L 306.5016,49.7185&quot;]}}, &quot;face3&quot;: {&quot;Cuts&quot;: {&quot;paths&quot;: [&quot;M 604.48,82.122 L 610.251,74.426 L 619.058,91.239 L 604.48,93.831 L 604.48,82.122 L 604.48,82.122&quot;, &quot;M 604.48,106.307 L 608.241,112.55 L 604.48,115.421 L 604.48,106.307 L 604.48,106.307&quot;, &quot;M 604.48,124.221 L 615.204,116.028 L 651.183,122.598 L 604.48,137.997 L 604.48,124.221 L 604.48,124.221&quot;, &quot;M 604.48,144.018 L 657.116,126.669 L 654.032,133.884 L 632.306,160.155 L 604.48,147.469 L 604.48,144.018 L 604.48,144.018&quot;, &quot;M 604.48,154.139 L 630.646,166.069 L 630.974,166.3 L 619.433,187.223 L 604.48,193.889 L 604.48,154.139 L 604.48,154.139&quot;, &quot;M 607.868,199.024 L 624.456,191.63 L 665.382,199.024 L 607.868,199.024 L 607.868,199.024&quot;, &quot;M 609.526,98.337 L 625.554,95.479 L 626.511,95.464 L 638.239,96.573 L 660.972,111.118 L 657.817,118.385 L 617.12,110.952 L 609.526,98.337 L 609.526,98.337&quot;, &quot;M 617.753,70.186 L 627.245,70.186 L 624.386,82.839 L 617.753,70.186 L 617.753,70.186&quot;, &quot;M 629.269,187.081 L 639.663,168.245 L 665.29,167.512 L 684.964,168.426 L 695.058,175.036 L 685.407,197.233 L 629.269,187.081 L 629.269,187.081&quot;, &quot;M 632.001,90.762 L 636.651,70.186 L 653.679,70.186 L 650.271,79.217 L 638.216,91.342 L 632.001,90.762 L 632.001,90.762&quot;, &quot;M 640.179,163.065 L 655.901,144.063 L 660.036,162.501 L 640.179,163.065 L 640.179,163.065&quot;, &quot;M 646.37,93.854 L 656.368,83.766 L 693.608,97.077 L 666.905,106.997 L 646.37,93.854 L 646.37,93.854&quot;, &quot;M 659.942,78.895 L 663.23,70.186 L 736.183,70.186 L 735.054,79.089 L 702.087,93.969 L 659.942,78.895 L 659.942,78.895&quot;, &quot;M 663.237,134.876 L 666.134,128.087 L 693.491,139.141 L 693.538,140.186 L 683.679,163.208 L 669.429,162.551 L 663.237,134.876 L 663.237,134.876&quot;, &quot;M 666.04,121.528 L 670.177,112.009 L 700.546,100.721 L 713.934,130.057 L 698.468,134.76 L 666.507,121.864 L 666.04,121.528 L 666.04,121.528&quot;, &quot;M 692.394,165.282 L 701.317,144.487 L 741.991,157.966 L 742.366,158.389 L 725.358,170.473 L 702.159,171.675 L 692.394,165.282 L 692.394,165.282&quot;, &quot;M 694.23,199.024 L 703.911,176.76 L 726.198,175.602 L 737.903,181.337 L 754.163,193.522 L 756.538,199.024 L 694.23,199.024 L 694.23,199.024&quot;, &quot;M 703.351,139.167 L 720.942,133.819 L 738.091,132.157 L 740.357,151.419 L 703.351,139.167 L 703.351,139.167&quot;, &quot;M 708.771,97.63 L 738.067,84.399 L 752.925,122.161 L 740.659,126.682 L 722.835,128.409 L 708.771,97.63 L 708.771,97.63&quot;, &quot;M 734.189,172.614 L 750.308,161.159 L 756.009,160.839 L 782.339,166.7 L 742.226,176.544 L 734.189,172.614 L 734.189,172.614&quot;, &quot;M 744.351,79.747 L 745.566,70.186 L 838.105,70.186 L 838.105,78.532 L 820.163,95.85 L 745.776,80.907 L 745.566,80.854 L 744.351,79.747 L 744.351,79.747&quot;, &quot;M 747.273,130.444 L 758.673,126.245 L 770.704,129.026 L 776.872,133.317 L 753.79,155.788 L 750.612,155.967 L 750.239,155.516 L 747.273,130.444 L 747.273,130.444&quot;, &quot;M 748.581,180.628 L 781.591,172.536 L 758.673,188.19 L 748.581,180.628 L 748.581,180.628&quot;, &quot;M 749.468,89.126 L 798.155,111.223 L 772.714,123.913 L 762.2,121.479 L 749.468,89.126 L 749.468,89.126&quot;, &quot;M 763.368,156.921 L 783.81,137.016 L 830.442,161.522 L 829.648,161.882 L 796.286,164.2 L 795.608,164.11 L 763.368,156.921 L 763.368,156.921&quot;, &quot;M 763.603,193.059 L 798.46,169.239 L 824.694,167.409 L 811.355,188.305 L 799.786,199.024 L 766.177,199.024 L 763.603,193.059 L 763.603,193.059&quot;, &quot;M 767.972,90.852 L 817.476,100.798 L 817.103,106.171 L 806.239,108.233 L 767.972,90.852 L 767.972,90.852&quot;, &quot;M 780.026,127.21 L 807.71,113.399 L 820.302,111.003 L 830.909,117.266 L 784.956,130.663 L 780.026,127.21 L 780.026,127.21&quot;, &quot;M 792.292,134.348 L 838.105,120.997 L 838.105,158.434 L 792.292,134.348 L 792.292,134.348&quot;, &quot;M 810.655,199.024 L 817.079,193.071 L 832.657,199.024 L 810.655,199.024 L 810.655,199.024&quot;, &quot;M 821.214,188.395 L 835.583,165.876 L 838.105,164.723 L 838.105,194.844 L 821.214,188.395 L 821.214,188.395&quot;, &quot;M 826.401,107.048 L 826.89,99.755 L 838.105,88.93 L 838.105,113.958 L 826.401,107.048 L 826.401,107.048&quot;]}, &quot;Perimeter&quot;: {&quot;paths&quot;: [&quot;M 583.9108,51.5027 L 850.6735,51.5027 L 850.6735,217.7078 L 583.9108,217.7078 L 583.9108,51.5027&quot;]}}, &quot;face4&quot;: {&quot;Cuts&quot;: {&quot;paths&quot;: [&quot;M 897.896,78.721 L 939.339,95.321 L 897.896,124.93 L 897.896,78.721 L 897.896,78.721&quot;, &quot;M 897.896,134.809 L 916.609,142.671 L 897.896,160.911 L 897.896,134.809 L 897.896,134.809&quot;, &quot;M 897.896,174.62 L 930.695,173.706 L 906.865,188.471 L 902.589,189.155 L 897.896,187.26 L 897.896,174.62 L 897.896,174.62&quot;, &quot;M 899.787,73.096 L 956.162,70.184 L 987.773,70.184 L 977.769,90.76 L 972.584,93.221 L 947.634,92.266 L 899.787,73.096 L 899.787,73.096&quot;, &quot;M 899.927,169.403 L 924.761,145.196 L 927.378,145.749 L 934.433,168.425 L 899.927,169.403 L 899.927,169.403&quot;, &quot;M 902.31,130.184 L 948.123,97.46 L 970.271,98.309 L 977.677,118.846 L 954.502,137.426 L 931.746,141.149 L 924.949,139.706 L 902.31,130.184 L 902.31,130.184&quot;, &quot;M 905.216,199.024 L 905.464,198.161 L 907.152,199.024 L 905.216,199.024 L 905.216,199.024&quot;, &quot;M 909.855,193.368 L 909.904,193.354 L 937.119,194.823 L 935.828,199.022 L 920.921,199.022 L 909.855,193.368 L 909.855,193.368&quot;, &quot;M 919.039,188.665 L 941.582,174.698 L 955.693,179.671 L 940.554,189.837 L 919.039,188.665 L 919.039,188.665&quot;, &quot;M 936.839,145.698 L 955.904,142.579 L 974.849,154.303 L 982.49,172.251 L 971.648,176.592 L 964.103,176.489 L 944.246,169.493 L 936.839,145.698 L 936.839,145.698&quot;, &quot;M 945.296,199.024 L 946.957,193.637 L 964.804,181.655 L 969.476,181.719 L 977.613,199.024 L 945.296,199.024 L 945.296,199.024&quot;, &quot;M 963.332,139.436 L 983.845,122.981 L 1000.574,129.282 L 993.56,145.132 L 980.013,149.768 L 963.332,139.436 L 963.332,139.436&quot;, &quot;M 978.449,180.253 L 989.406,175.858 L 1006.974,175.266 L 1022.089,179.13 L 1031.113,199.022 L 987.275,199.022 L 978.449,180.253 L 978.449,180.253&quot;, &quot;M 979.265,96.854 L 983.308,94.934 L 1033.607,99.546 L 1045.429,106.671 L 1045.523,106.917 L 1023.586,119.438 L 1005.291,124.825 L 986.836,117.88 L 979.265,96.854 L 979.265,96.854&quot;, &quot;M 984.474,154.303 L 997.863,149.717 L 1013.703,154.202 L 1004.357,170.176 L 991.39,170.628 L 984.474,154.303 L 984.474,154.303&quot;, &quot;M 987.748,90.128 L 997.441,70.184 L 1066.986,70.184 L 1033.959,94.354 L 987.748,90.128 L 987.748,90.128&quot;, &quot;M 1003.048,145.401 L 1008.515,133.018 L 1010.455,133.882 L 1022.603,147.114 L 1018.304,149.717 L 1003.048,145.401 L 1003.048,145.401&quot;, &quot;M 1013.002,128.382 L 1026.552,124.387 L 1038.046,127.387 L 1035.875,129.038 L 1015.687,129.565 L 1013.002,128.382 L 1013.002,128.382&quot;, &quot;M 1013.515,171.272 L 1023.49,154.227 L 1030.171,150.155 L 1045.451,150.542 L 1072.107,158.118 L 1055.92,166.917 L 1026.084,174.479 L 1013.515,171.272 L 1013.515,171.272&quot;, &quot;M 1021.529,134.579 L 1036.269,134.19 L 1041.154,137.335 L 1041.785,145.286 L 1031.13,145.014 L 1021.529,134.579 L 1021.529,134.579&quot;, &quot;M 1031.552,178.757 L 1055.777,172.626 L 1071.683,199.024 L 1040.75,199.024 L 1031.552,178.757 L 1031.552,178.757&quot;, &quot;M 1034.355,120.716 L 1049.82,111.889 L 1058.045,119.169 L 1044.892,123.46 L 1034.355,120.716 L 1034.355,120.716&quot;, &quot;M 1042.064,96.983 L 1078.687,70.184 L 1114.664,70.184 L 1088.019,94.716 L 1051.06,102.421 L 1042.064,96.983 L 1042.064,96.983&quot;, &quot;M 1044.259,131.421 L 1048.324,128.329 L 1058.418,125.03 L 1057.484,128.573 L 1046.527,132.864 L 1044.259,131.421 L 1044.259,131.421&quot;, &quot;M 1050.546,137.62 L 1059.259,134.204 L 1068.767,151.352 L 1051.246,146.38 L 1050.546,137.62 L 1050.546,137.62&quot;, &quot;M 1055.359,107.032 L 1087.55,100.321 L 1093.392,119.413 L 1067.318,117.622 L 1055.359,107.032 L 1055.359,107.032&quot;, &quot;M 1063.931,169.776 L 1081.267,160.346 L 1085.916,160.243 L 1106.847,182.675 L 1087.617,199.024 L 1081.546,199.024 L 1063.931,169.776 L 1063.931,169.776&quot;, &quot;M 1066.595,129.862 L 1068.441,122.88 L 1097.295,124.862 L 1099.677,125.764 L 1089.677,153.555 L 1086.802,155.065 L 1080.964,155.194 L 1080.519,154.973 L 1066.595,129.862 L 1066.595,129.862&quot;, &quot;M 1094.49,158.13 L 1095.986,157.344 L 1127.035,155.811 L 1127.035,180.858 L 1115.212,180.368 L 1094.49,158.13 L 1094.49,158.13&quot;, &quot;M 1096.101,97.331 L 1125.589,70.184 L 1131.519,70.184 L 1131.519,113.899 L 1128.271,118.036 L 1105.634,121.784 L 1103.296,120.895 L 1096.101,97.331 L 1096.101,97.331&quot;, &quot;M 1098.763,199.024 L 1114.675,185.495 L 1126.378,185.997 L 1122.994,199.024 L 1098.763,199.024 L 1098.763,199.024&quot;, &quot;M 1099.769,151.985 L 1108.88,126.653 L 1127.035,123.639 L 1127.035,150.645 L 1099.769,151.985 L 1099.769,151.985&quot;]}, &quot;Perimeter&quot;: {&quot;paths&quot;: [&quot;M 877.3262,51.4783 L 1144.0884,51.4783 L 1144.0884,217.70579999999998 L 877.3262,217.70579999999998 L 877.3262,51.4783&quot;]}}, &quot;face5&quot;: {&quot;Cuts&quot;: {&quot;paths&quot;: [&quot;M 1188.414,199.0 L 1181.928,186.584 L 1181.928,143.937 L 1205.287,170.062 L 1208.805,177.689 L 1208.637,178.488 L 1188.473,199.0 L 1188.414,199.0 L 1188.414,199.0&quot;, &quot;M 1195.703,199.0 L 1211.961,182.457 L 1250.43,186.851 L 1252.602,199.0 L 1195.703,199.0 L 1195.703,199.0&quot;, &quot;M 1257.839,199.0 L 1255.403,185.369 L 1260.003,180.691 L 1280.541,195.675 L 1279.02,199.0 L 1257.839,199.0 L 1257.839,199.0&quot;, &quot;M 1284.691,199.0 L 1285.744,196.693 L 1292.431,193.175 L 1295.971,199.0 L 1284.691,199.0 L 1284.691,199.0&quot;, &quot;M 1302.002,199.0 L 1296.22,189.492 L 1299.194,181.336 L 1310.766,179.361 L 1310.766,192.275 L 1302.809,199.0 L 1302.002,199.0 L 1302.002,199.0&quot;, &quot;M 1283.994,191.799 L 1263.016,176.492 L 1267.527,167.511 L 1286.57,172.576 L 1294.287,179.763 L 1291.285,187.959 L 1283.994,191.799 L 1283.994,191.799&quot;, &quot;M 1251.679,181.8 L 1214.409,177.549 L 1226.351,157.361 L 1231.839,153.545 L 1262.515,159.73 L 1263.456,164.136 L 1257.607,175.783 L 1251.679,181.8 L 1251.679,181.8&quot;, &quot;M 1298.101,176.299 L 1291.118,169.793 L 1298.603,157.23 L 1310.765,157.498 L 1310.765,174.136 L 1298.101,176.299 L 1298.101,176.299&quot;, &quot;M 1211.793,171.842 L 1209.912,167.744 L 1204.796,149.177 L 1213.082,142.17 L 1221.403,155.593 L 1211.793,171.842 L 1211.793,171.842&quot;, &quot;M 1286.621,167.267 L 1268.365,162.41 L 1267.348,157.642 L 1268.673,153.16 L 1276.352,138.742 L 1285.899,139.863 L 1294.182,154.578 L 1286.621,167.267 L 1286.621,167.267&quot;, &quot;M 1202.08,158.752 L 1181.928,136.201 L 1181.928,135.398 L 1192.623,135.65 L 1199.462,149.217 L 1202.08,158.752 L 1202.08,158.752&quot;, &quot;M 1262.888,154.55 L 1234.405,148.804 L 1236.827,138.859 L 1240.96,135.496 L 1263.314,153.095 L 1262.888,154.55 L 1262.888,154.55&quot;, &quot;M 1308.896,152.297 L 1298.681,152.078 L 1291.258,138.884 L 1301.452,135.353 L 1308.896,152.297 L 1308.896,152.297&quot;, &quot;M 1225.179,151.91 L 1215.993,137.08 L 1212.167,127.701 L 1220.761,128.256 L 1231.671,138.265 L 1229.005,149.242 L 1225.179,151.91 L 1225.179,151.91&quot;, &quot;M 1265.453,148.224 L 1244.194,131.488 L 1247.723,124.584 L 1269.846,129.183 L 1272.1,135.74 L 1265.453,148.224 L 1265.453,148.224&quot;, &quot;M 1202.711,144.193 L 1197.764,134.375 L 1207.58,130.058 L 1210.606,137.506 L 1202.711,144.193 L 1202.711,144.193&quot;, &quot;M 1310.765,143.758 L 1305.881,132.648 L 1310.765,127.32 L 1310.765,143.758 L 1310.765,143.758&quot;, &quot;M 1287.226,134.826 L 1276.804,133.601 L 1274.497,126.851 L 1278.297,112.357 L 1279.122,111.57 L 1293.925,111.377 L 1309.013,121.595 L 1301.386,129.929 L 1287.226,134.826 L 1287.226,134.826&quot;, &quot;M 1234.634,134.002 L 1225.616,125.73 L 1235.151,116.879 L 1240.239,115.912 L 1243.421,121.697 L 1238.886,130.549 L 1234.634,134.002 L 1234.634,134.002&quot;, &quot;M 1193.716,130.523 L 1181.927,130.238 L 1181.927,112.398 L 1201.834,105.271 L 1207.181,124.595 L 1193.716,130.523 L 1193.716,130.523&quot;, &quot;M 1269.937,123.925 L 1248.006,119.379 L 1244.324,112.666 L 1247.712,97.605 L 1273.003,112.24 L 1269.937,123.925 L 1269.937,123.925&quot;, &quot;M 1220.877,123.076 L 1216.147,122.779 L 1224.985,112.717 L 1229.496,115.088 L 1220.877,123.076 L 1220.877,123.076&quot;, &quot;M 1211.38,120.41 L 1206.343,102.191 L 1208.985,97.14 L 1214.267,97.888 L 1221.211,109.226 L 1211.38,120.41 L 1211.38,120.41&quot;, &quot;M 1310.765,116.547 L 1297.919,107.847 L 1310.765,77.886 L 1310.765,116.547 L 1310.765,116.547&quot;, &quot;M 1234.339,111.802 L 1226.222,107.55 L 1219.899,97.205 L 1240.214,92.504 L 1240.227,92.504 L 1241.694,92.967 L 1243.151,94.422 L 1239.453,110.836 L 1234.339,111.802 L 1234.339,111.802&quot;, &quot;M 1275.619,107.808 L 1251.242,93.703 L 1278.645,79.375 L 1275.631,107.795 L 1275.619,107.808 L 1275.619,107.808&quot;, &quot;M 1182.573,106.713 L 1195.384,70.162 L 1195.48,70.162 L 1204.72,94.177 L 1201.769,99.834 L 1182.573,106.713 L 1182.573,106.713&quot;, &quot;M 1280.964,106.392 L 1284.211,75.689 L 1287.483,70.164 L 1308.464,70.164 L 1292.998,106.236 L 1280.964,106.392 L 1280.964,106.392&quot;, &quot;M 1181.928,92.941 L 1181.928,70.162 L 1189.92,70.162 L 1181.928,92.941 L 1181.928,92.941&quot;, &quot;M 1215.722,92.888 L 1209.411,92.0 L 1201.005,70.162 L 1222.726,70.162 L 1235.859,88.213 L 1215.722,92.888 L 1215.722,92.888&quot;, &quot;M 1246.423,90.402 L 1246.024,90.004 L 1251.86,71.656 L 1253.061,70.162 L 1281.502,70.162 L 1279.868,72.92 L 1246.423,90.402 L 1246.423,90.402&quot;, &quot;M 1242.648,83.574 L 1241.347,73.011 L 1246.011,73.011 L 1242.648,83.574 L 1242.648,83.574&quot;, &quot;M 1237.16,81.217 L 1229.119,70.162 L 1234.695,70.162 L 1235.973,71.554 L 1237.16,81.217 L 1237.16,81.217&quot;]}, &quot;Perimeter&quot;: {&quot;paths&quot;: [&quot;M 1163.2457,51.4783 L 1329.4497999999999,51.4783 L 1329.4497999999999,217.6824 L 1163.2457,217.6824 L 1163.2457,51.4783&quot;]}}}}"></laserassistant></metadata><g data-name="face1" id="face1"><path d="M 115.542,51.233 L 115.565,51.236 L 115.588,51.241 L 115.61,51.248 L 115.632,51.257 L 115.652,51.267 L 115.672,51.28 L 115.691,51.294 L 115.708,51.309 L 115.724,51.326 L 115.738,51.344 L 115.751,51.364 L 115.762,51.384 L 115.771,51.405 L 115.779,51.427 L 115.784,51.45 L 115.787,51.473 L 115.789,51.502 L 115.789,54.332 L 148.449,54.332 L 148.449,51.502 L 148.45,51.479 L 148.453,51.456 L 148.458,51.433 L 148.465,51.411 L 148.474,51.389 L 148.484,51.369 L 148.497,51.349 L 148.511,51.33 L 148.526,51.313 L 148.543,51.297 L 148.561,51.283 L 148.581,51.27 L 148.601,51.259 L 148.622,51.25 L 148.644,51.242 L 148.667,51.237 L 148.69,51.234 L 148.719,51.232 L 181.919,51.232 L 181.942,51.233 L 181.965,51.236 L 181.988,51.241 L 182.01,51.248 L 182.032,51.257 L 182.052,51.267 L 182.072,51.28 L 182.091,51.294 L 182.108,51.309 L 182.124,51.326 L 182.138,51.344 L 182.151,51.364 L 182.162,51.384 L 182.171,51.405 L 182.179,51.427 L 182.184,51.45 L 182.187,51.473 L 182.189,51.502 L 182.189,54.332 L 214.849,54.332 L 214.849,51.502 L 214.85,51.479 L 214.853,51.456 L 214.858,51.433 L 214.865,51.411 L 214.874,51.389 L 214.884,51.369 L 214.897,51.349 L 214.911,51.33 L 214.926,51.313 L 214.943,51.297 L 214.961,51.283 L 214.981,51.27 L 215.001,51.259 L 215.022,51.25 L 215.044,51.242 L 215.067,51.237 L 215.09,51.234 L 215.119,51.232 L 298.639,51.232 L 298.662,51.233 L 298.685,51.236 L 298.708,51.241 L 298.73,51.248 L 298.752,51.257 L 298.772,51.267 L 298.792,51.28 L 298.811,51.294 L 298.828,51.309 L 298.844,51.326 L 298.858,51.344 L 298.871,51.364 L 298.882,51.384 L 298.891,51.405 L 298.899,51.427 L 298.904,51.45 L 298.907,51.473 L 298.909,51.502 L 298.909,84.805 L 298.908,84.828 L 298.905,84.851 L 298.9,84.874 L 298.893,84.896 L 298.884,84.918 L 298.874,84.938 L 298.861,84.958 L 298.847,84.977 L 298.832,84.994 L 298.815,85.01 L 298.797,85.024 L 298.777,85.037 L 298.757,85.048 L 298.736,85.057 L 298.714,85.065 L 298.691,85.07 L 298.668,85.073 L 298.639,85.075 L 295.809,85.075 L 295.809,117.735 L 298.639,117.735 L 298.662,117.736 L 298.685,117.739 L 298.708,117.744 L 298.73,117.751 L 298.752,117.76 L 298.772,117.77 L 298.792,117.783 L 298.811,117.797 L 298.828,117.812 L 298.844,117.829 L 298.858,117.847 L 298.871,117.867 L 298.882,117.887 L 298.891,117.908 L 298.899,117.93 L 298.904,117.953 L 298.907,117.976 L 298.909,118.005 L 298.909,151.205 L 298.908,151.228 L 298.905,151.251 L 298.9,151.274 L 298.893,151.296 L 298.884,151.318 L 298.874,151.338 L 298.861,151.358 L 298.847,151.377 L 298.832,151.394 L 298.815,151.41 L 298.797,151.424 L 298.777,151.437 L 298.757,151.448 L 298.736,151.457 L 298.714,151.465 L 298.691,151.47 L 298.668,151.473 L 298.639,151.475 L 295.809,151.475 L 295.809,184.135 L 298.639,184.135 L 298.662,184.136 L 298.685,184.139 L 298.708,184.144 L 298.73,184.151 L 298.752,184.16 L 298.772,184.17 L 298.792,184.183 L 298.811,184.197 L 298.828,184.212 L 298.844,184.229 L 298.858,184.247 L 298.871,184.267 L 298.882,184.287 L 298.891,184.308 L 298.899,184.33 L 298.904,184.353 L 298.907,184.376 L 298.909,184.405 L 298.909,217.707 L 298.908,217.73 L 298.905,217.753 L 298.9,217.776 L 298.893,217.798 L 298.884,217.82 L 298.874,217.84 L 298.861,217.86 L 298.847,217.879 L 298.832,217.896 L 298.815,217.912 L 298.797,217.926 L 298.777,217.939 L 298.757,217.95 L 298.736,217.959 L 298.714,217.967 L 298.691,217.972 L 298.668,217.975 L 298.639,217.977 L 215.119,217.977 L 215.096,217.976 L 215.073,217.973 L 215.05,217.968 L 215.028,217.961 L 215.006,217.952 L 214.986,217.942 L 214.966,217.929 L 214.947,217.915 L 214.93,217.9 L 214.914,217.883 L 214.9,217.865 L 214.887,217.845 L 214.876,217.825 L 214.867,217.804 L 214.859,217.782 L 214.854,217.759 L 214.851,217.736 L 214.849,217.707 L 214.849,214.877 L 182.189,214.877 L 182.189,217.707 L 182.188,217.73 L 182.185,217.753 L 182.18,217.776 L 182.173,217.798 L 182.164,217.82 L 182.154,217.84 L 182.141,217.86 L 182.127,217.879 L 182.112,217.896 L 182.095,217.912 L 182.077,217.926 L 182.057,217.939 L 182.037,217.95 L 182.016,217.959 L 181.994,217.967 L 181.971,217.972 L 181.948,217.975 L 181.919,217.977 L 148.719,217.977 L 148.696,217.976 L 148.673,217.973 L 148.65,217.968 L 148.628,217.961 L 148.606,217.952 L 148.586,217.942 L 148.566,217.929 L 148.547,217.915 L 148.53,217.9 L 148.514,217.883 L 148.5,217.865 L 148.487,217.845 L 148.476,217.825 L 148.467,217.804 L 148.459,217.782 L 148.454,217.759 L 148.451,217.736 L 148.449,217.707 L 148.449,214.877 L 115.789,214.877 L 115.789,217.707 L 115.788,217.73 L 115.785,217.753 L 115.78,217.776 L 115.773,217.798 L 115.764,217.82 L 115.754,217.84 L 115.741,217.86 L 115.727,217.879 L 115.712,217.896 L 115.695,217.912 L 115.677,217.926 L 115.657,217.939 L 115.637,217.95 L 115.616,217.959 L 115.594,217.967 L 115.571,217.972 L 115.548,217.975 L 115.519,217.977 L 32.0,217.977 L 31.977,217.976 L 31.954,217.973 L 31.931,217.968 L 31.909,217.961 L 31.887,217.952 L 31.867,217.942 L 31.847,217.929 L 31.828,217.915 L 31.811,217.9 L 31.795,217.883 L 31.781,217.865 L 31.768,217.845 L 31.757,217.825 L 31.748,217.804 L 31.74,217.782 L 31.735,217.759 L 31.732,217.736 L 31.73,217.707 L 31.73,51.502 L 31.731,51.479 L 31.734,51.456 L 31.739,51.433 L 31.746,51.411 L 31.755,51.389 L 31.765,51.369 L 31.778,51.349 L 31.792,51.33 L 31.807,51.313 L 31.824,51.297 L 31.842,51.283 L 31.862,51.27 L 31.882,51.259 L 31.903,51.25 L 31.925,51.242 L 31.948,51.237 L 31.971,51.234 L 32.0,51.232 L 115.519,51.232 Z M 229.407,191.435 L 225.317,198.754 L 255.346,198.754 L 254.509,185.593 L 236.556,183.256 Z M 187.161,198.754 L 214.919,198.754 L 218.472,192.396 L 177.334,186.787 Z M 126.404,198.453 L 126.411,198.754 L 176.197,198.754 L 167.929,188.692 L 146.308,186.635 Z M 264.417,185.565 L 265.255,198.752 L 285.8,198.752 L 285.799,182.867 Z M 75.506,194.369 L 70.726,196.68 L 111.423,196.68 L 93.499,189.311 Z M 95.618,174.131 L 98.531,184.369 L 120.851,193.543 L 139.058,182.73 L 129.144,159.735 Z M 61.858,193.523 L 66.64,191.202 L 61.532,185.15 Z M 64.34,175.459 L 75.037,188.153 L 88.509,184.368 L 85.801,174.899 L 76.693,172.71 Z M 207.523,164.102 L 184.281,181.889 L 222.137,187.052 L 228.303,180.025 L 212.548,163.039 Z M 148.556,181.081 L 169.647,183.081 L 172.076,181.74 L 195.528,163.788 L 138.917,158.71 Z M 222.783,161.972 L 237.187,177.484 L 259.345,180.367 L 285.8,177.032 L 285.8,163.858 L 246.749,159.291 Z M 52.715,169.206 L 57.164,170.964 L 70.605,167.958 L 57.841,145.452 L 52.715,144.974 Z M 67.942,144.862 L 80.775,167.519 L 89.521,169.623 L 120.658,156.24 L 69.166,144.672 Z M 143.548,153.376 L 203.888,158.784 L 209.211,157.66 L 206.087,134.939 Z M 255.192,154.445 L 285.8,158.03 L 285.8,152.67 L 265.498,145.974 Z M 215.598,132.261 L 218.948,156.596 L 243.884,153.8 L 258.851,141.501 L 253.729,122.176 L 240.297,119.8 Z M 94.175,128.336 L 77.478,140.439 L 128.555,151.913 L 130.702,131.363 L 120.263,126.235 Z M 140.536,132.037 L 138.823,148.378 L 197.752,131.0 L 171.688,124.279 Z M 268.562,140.412 L 285.465,145.971 L 265.73,129.728 Z M 52.715,123.996 L 52.715,139.2 L 61.339,140.002 L 66.545,139.179 L 85.526,125.454 L 80.644,120.792 Z M 268.498,122.043 L 285.8,136.302 L 285.8,120.365 Z M 167.953,90.214 L 176.204,119.193 L 209.433,127.772 L 233.69,115.528 L 229.326,102.254 L 172.415,89.976 Z M 124.36,97.814 L 126.618,121.855 L 136.651,126.806 L 166.211,119.44 L 157.733,89.617 L 146.719,86.706 Z M 84.369,107.347 L 87.768,116.543 L 94.083,122.589 L 116.607,120.765 L 114.723,100.714 Z M 52.715,105.121 L 52.715,118.18 L 77.213,115.371 L 74.393,107.691 L 56.525,103.962 Z M 244.636,95.007 L 238.882,100.667 L 243.404,114.397 L 258.877,117.133 L 259.56,117.133 L 285.8,114.594 L 285.8,97.941 L 258.451,92.608 Z M 61.081,98.852 L 78.608,102.506 L 107.789,96.131 L 61.081,82.068 Z M 208.729,70.456 L 182.005,85.954 L 231.503,96.651 L 236.223,92.001 L 231.564,70.456 Z M 118.0,70.456 L 69.564,78.164 L 118.841,93.01 L 140.093,82.455 L 132.898,70.456 Z M 268.404,88.523 L 285.8,91.915 L 285.8,79.962 Z M 241.536,70.456 L 245.535,88.892 L 256.13,87.061 L 277.038,76.777 L 267.049,70.456 Z M 143.389,70.456 L 149.879,81.276 L 163.046,84.768 L 170.813,84.336 L 194.74,70.456 Z M 280.437,70.456 L 285.799,73.849 L 285.799,70.456 Z"></path></g><g data-name="face2" id="face2"><path d="M 423.305,49.449 L 423.328,49.452 L 423.351,49.457 L 423.373,49.464 L 423.395,49.473 L 423.415,49.483 L 423.435,49.496 L 423.454,49.51 L 423.471,49.525 L 423.487,49.542 L 423.501,49.56 L 423.514,49.58 L 423.525,49.6 L 423.534,49.621 L 423.542,49.643 L 423.547,49.666 L 423.55,49.689 L 423.552,49.718 L 423.552,52.548 L 456.212,52.548 L 456.212,49.718 L 456.213,49.695 L 456.216,49.672 L 456.221,49.649 L 456.228,49.627 L 456.237,49.605 L 456.247,49.585 L 456.26,49.565 L 456.274,49.546 L 456.289,49.529 L 456.306,49.513 L 456.324,49.499 L 456.344,49.486 L 456.364,49.475 L 456.385,49.466 L 456.407,49.458 L 456.43,49.453 L 456.453,49.45 L 456.482,49.448 L 489.682,49.448 L 489.705,49.449 L 489.728,49.452 L 489.751,49.457 L 489.773,49.464 L 489.795,49.473 L 489.815,49.483 L 489.835,49.496 L 489.854,49.51 L 489.871,49.525 L 489.887,49.542 L 489.901,49.56 L 489.914,49.58 L 489.925,49.6 L 489.934,49.621 L 489.942,49.643 L 489.947,49.666 L 489.95,49.689 L 489.952,49.718 L 489.952,52.548 L 573.263,52.548 L 573.286,52.549 L 573.309,52.552 L 573.332,52.557 L 573.354,52.564 L 573.376,52.573 L 573.396,52.583 L 573.416,52.596 L 573.435,52.61 L 573.452,52.625 L 573.468,52.642 L 573.482,52.66 L 573.495,52.68 L 573.506,52.7 L 573.515,52.721 L 573.523,52.743 L 573.528,52.766 L 573.531,52.789 L 573.533,52.818 L 573.533,83.019 L 573.532,83.042 L 573.529,83.065 L 573.524,83.088 L 573.517,83.11 L 573.508,83.132 L 573.498,83.152 L 573.485,83.172 L 573.471,83.191 L 573.456,83.208 L 573.439,83.224 L 573.421,83.238 L 573.401,83.251 L 573.381,83.262 L 573.36,83.271 L 573.338,83.279 L 573.315,83.284 L 573.292,83.287 L 573.263,83.289 L 570.433,83.289 L 570.433,115.949 L 573.263,115.949 L 573.286,115.95 L 573.309,115.953 L 573.332,115.958 L 573.354,115.965 L 573.376,115.974 L 573.396,115.984 L 573.416,115.997 L 573.435,116.011 L 573.452,116.026 L 573.468,116.043 L 573.482,116.061 L 573.495,116.081 L 573.506,116.101 L 573.515,116.122 L 573.523,116.144 L 573.528,116.167 L 573.531,116.19 L 573.533,116.219 L 573.533,149.419 L 573.532,149.442 L 573.529,149.465 L 573.524,149.488 L 573.517,149.51 L 573.508,149.532 L 573.498,149.552 L 573.485,149.572 L 573.471,149.591 L 573.456,149.608 L 573.439,149.624 L 573.421,149.638 L 573.401,149.651 L 573.381,149.662 L 573.36,149.671 L 573.338,149.679 L 573.315,149.684 L 573.292,149.687 L 573.263,149.689 L 570.433,149.689 L 570.433,182.349 L 573.263,182.349 L 573.286,182.35 L 573.309,182.353 L 573.332,182.358 L 573.354,182.365 L 573.376,182.374 L 573.396,182.384 L 573.416,182.397 L 573.435,182.411 L 573.452,182.426 L 573.468,182.443 L 573.482,182.461 L 573.495,182.481 L 573.506,182.501 L 573.515,182.522 L 573.523,182.544 L 573.528,182.567 L 573.531,182.59 L 573.533,182.619 L 573.533,212.82 L 573.532,212.843 L 573.529,212.866 L 573.524,212.889 L 573.517,212.911 L 573.508,212.933 L 573.498,212.953 L 573.485,212.973 L 573.471,212.992 L 573.456,213.009 L 573.439,213.025 L 573.421,213.039 L 573.401,213.052 L 573.381,213.063 L 573.36,213.072 L 573.338,213.08 L 573.315,213.085 L 573.292,213.088 L 573.263,213.09 L 489.952,213.09 L 489.952,215.92 L 489.951,215.943 L 489.948,215.966 L 489.943,215.989 L 489.936,216.011 L 489.927,216.033 L 489.917,216.053 L 489.904,216.073 L 489.89,216.092 L 489.875,216.109 L 489.858,216.125 L 489.84,216.139 L 489.82,216.152 L 489.8,216.163 L 489.779,216.172 L 489.757,216.18 L 489.734,216.185 L 489.711,216.188 L 489.682,216.19 L 456.482,216.19 L 456.459,216.189 L 456.436,216.186 L 456.413,216.181 L 456.391,216.174 L 456.369,216.165 L 456.349,216.155 L 456.329,216.142 L 456.31,216.128 L 456.293,216.113 L 456.277,216.096 L 456.263,216.078 L 456.25,216.058 L 456.239,216.038 L 456.23,216.017 L 456.222,215.995 L 456.217,215.972 L 456.214,215.949 L 456.212,215.92 L 456.212,213.09 L 423.552,213.09 L 423.552,215.92 L 423.551,215.943 L 423.548,215.966 L 423.543,215.989 L 423.536,216.011 L 423.527,216.033 L 423.517,216.053 L 423.504,216.073 L 423.49,216.092 L 423.475,216.109 L 423.458,216.125 L 423.44,216.139 L 423.42,216.152 L 423.4,216.163 L 423.379,216.172 L 423.357,216.18 L 423.334,216.185 L 423.311,216.188 L 423.282,216.19 L 390.082,216.19 L 390.059,216.189 L 390.036,216.186 L 390.013,216.181 L 389.991,216.174 L 389.969,216.165 L 389.949,216.155 L 389.929,216.142 L 389.91,216.128 L 389.893,216.113 L 389.877,216.096 L 389.863,216.078 L 389.85,216.058 L 389.839,216.038 L 389.83,216.017 L 389.822,215.995 L 389.817,215.972 L 389.814,215.949 L 389.812,215.92 L 389.812,213.09 L 306.501,213.09 L 306.478,213.089 L 306.455,213.086 L 306.432,213.081 L 306.41,213.074 L 306.388,213.065 L 306.368,213.055 L 306.348,213.042 L 306.329,213.028 L 306.312,213.013 L 306.296,212.996 L 306.282,212.978 L 306.269,212.958 L 306.258,212.938 L 306.249,212.917 L 306.241,212.895 L 306.236,212.872 L 306.233,212.849 L 306.231,212.82 L 306.231,52.817 L 306.232,52.794 L 306.235,52.771 L 306.24,52.748 L 306.247,52.726 L 306.256,52.704 L 306.266,52.684 L 306.279,52.664 L 306.293,52.645 L 306.308,52.628 L 306.325,52.612 L 306.343,52.598 L 306.363,52.585 L 306.383,52.574 L 306.404,52.565 L 306.426,52.557 L 306.449,52.552 L 306.472,52.549 L 306.495,52.547 L 306.518,52.548 L 389.812,52.548 L 389.812,49.718 L 389.813,49.695 L 389.816,49.672 L 389.821,49.649 L 389.828,49.627 L 389.837,49.605 L 389.847,49.585 L 389.86,49.565 L 389.874,49.546 L 389.889,49.529 L 389.906,49.513 L 389.924,49.499 L 389.944,49.486 L 389.964,49.475 L 389.985,49.466 L 390.007,49.458 L 390.03,49.453 L 390.053,49.45 L 390.082,49.448 L 423.282,49.448 Z M 455.739,177.905 L 457.749,196.97 L 538.686,196.97 L 532.991,191.778 L 466.552,176.101 Z M 328.341,190.979 L 328.341,196.97 L 393.929,196.97 L 393.508,196.243 L 378.197,183.57 Z M 403.978,196.283 L 404.375,196.968 L 447.83,196.968 L 446.283,182.331 Z M 535.885,161.386 L 541.126,188.493 L 544.374,191.452 L 561.424,164.985 L 561.424,153.041 Z M 401.27,176.805 L 390.815,178.867 L 386.92,180.805 L 399.454,191.189 L 444.454,176.342 L 444.142,176.187 Z M 328.341,154.133 L 328.341,185.099 L 377.938,177.729 L 382.388,175.515 L 363.765,148.147 L 356.519,143.798 Z M 475.839,172.129 L 530.513,185.025 L 525.997,161.796 L 506.454,156.898 L 503.843,156.849 Z M 391.156,172.783 L 395.116,172.003 L 392.638,156.379 L 377.135,152.197 Z M 441.211,142.229 L 440.533,146.816 L 450.423,171.754 L 452.098,172.595 L 464.299,170.57 L 495.404,153.581 L 479.871,140.758 L 450.498,133.582 Z M 402.577,156.457 L 404.905,171.057 L 439.815,170.55 L 431.957,150.739 Z M 514.289,152.646 L 530.308,156.656 L 561.424,146.476 L 561.424,138.574 L 538.831,128.462 L 535.018,128.241 Z M 363.327,139.654 L 370.905,144.215 L 397.583,151.404 L 430.906,144.908 L 431.071,143.747 L 364.251,138.663 Z M 489.874,139.061 L 504.54,151.142 L 525.498,126.468 L 521.343,125.248 Z M 328.341,147.348 L 353.546,138.103 L 356.667,134.733 L 357.7,128.027 L 328.341,115.881 Z M 367.638,127.811 L 366.836,133.126 L 433.85,138.224 L 443.422,129.308 L 442.241,122.664 L 390.529,112.287 Z M 452.154,122.568 L 453.13,128.026 L 482.376,135.177 L 514.037,121.283 L 511.413,119.128 L 486.776,113.36 Z M 547.028,124.916 L 561.424,131.353 L 561.424,108.857 Z M 345.939,98.878 L 333.346,110.93 L 362.031,122.8 L 383.711,108.108 L 381.459,99.697 L 380.521,99.28 L 373.529,97.391 Z M 523.869,111.435 L 520.266,116.461 L 524.164,119.692 L 533.47,122.437 L 537.867,122.688 L 555.448,103.098 Z M 451.763,99.664 L 451.374,116.49 L 482.156,108.313 L 487.083,88.919 L 467.021,80.657 Z M 391.351,99.259 L 393.376,106.834 L 441.488,116.476 L 441.85,100.859 L 406.295,91.878 Z M 496.703,90.308 L 492.1,108.462 L 511.935,113.1 L 515.128,108.667 L 517.028,89.566 Z M 527.04,88.402 L 525.415,104.759 L 561.424,95.262 L 561.424,79.356 Z M 328.341,93.917 L 328.341,104.645 L 336.736,96.617 L 330.77,93.148 Z M 417.061,82.746 L 412.52,87.221 L 444.384,95.267 L 459.559,76.323 L 454.927,70.544 Z M 387.863,93.467 L 401.572,86.705 L 407.248,81.096 L 386.128,68.901 Z M 335.126,78.88 L 336.424,88.318 L 344.864,93.21 L 365.701,92.092 L 351.764,79.986 L 338.018,78.567 Z M 375.833,68.67 L 361.024,77.702 L 377.776,92.249 L 377.887,92.279 L 376.209,68.67 Z M 464.342,68.67 L 468.973,74.438 L 493.852,84.696 L 521.028,83.709 L 561.424,73.079 L 561.424,68.67 Z M 399.728,68.67 L 414.308,77.073 L 440.409,68.67 Z M 348.279,68.67 L 344.909,73.473 L 352.958,74.307 L 362.198,68.67 Z M 328.341,68.67 L 328.341,73.035 L 330.474,73.59 L 334.437,73.157 L 337.585,68.67 Z"></path></g><g data-name="face3" id="face3"><path d="M 667.515,51.233 L 667.538,51.236 L 667.561,51.241 L 667.583,51.248 L 667.605,51.257 L 667.625,51.267 L 667.645,51.28 L 667.664,51.294 L 667.681,51.309 L 667.697,51.326 L 667.711,51.344 L 667.724,51.364 L 667.735,51.384 L 667.744,51.405 L 667.752,51.427 L 667.757,51.45 L 667.76,51.473 L 667.762,51.502 L 667.762,54.332 L 700.422,54.332 L 700.422,51.502 L 700.423,51.479 L 700.426,51.456 L 700.431,51.433 L 700.438,51.411 L 700.447,51.389 L 700.457,51.369 L 700.47,51.349 L 700.484,51.33 L 700.499,51.313 L 700.516,51.297 L 700.534,51.283 L 700.554,51.27 L 700.574,51.259 L 700.595,51.25 L 700.617,51.242 L 700.64,51.237 L 700.663,51.234 L 700.692,51.232 L 733.892,51.232 L 733.915,51.233 L 733.938,51.236 L 733.961,51.241 L 733.983,51.248 L 734.005,51.257 L 734.025,51.267 L 734.045,51.28 L 734.064,51.294 L 734.081,51.309 L 734.097,51.326 L 734.111,51.344 L 734.124,51.364 L 734.135,51.384 L 734.144,51.405 L 734.152,51.427 L 734.157,51.45 L 734.16,51.473 L 734.162,51.502 L 734.162,54.332 L 766.822,54.332 L 766.822,51.502 L 766.823,51.479 L 766.826,51.456 L 766.831,51.433 L 766.838,51.411 L 766.847,51.389 L 766.857,51.369 L 766.87,51.349 L 766.884,51.33 L 766.899,51.313 L 766.916,51.297 L 766.934,51.283 L 766.954,51.27 L 766.974,51.259 L 766.995,51.25 L 767.017,51.242 L 767.04,51.237 L 767.063,51.234 L 767.092,51.232 L 850.673,51.232 L 850.696,51.233 L 850.719,51.236 L 850.742,51.241 L 850.764,51.248 L 850.786,51.257 L 850.806,51.267 L 850.826,51.28 L 850.845,51.294 L 850.862,51.309 L 850.878,51.326 L 850.892,51.344 L 850.905,51.364 L 850.916,51.384 L 850.925,51.405 L 850.933,51.427 L 850.938,51.45 L 850.941,51.473 L 850.943,51.502 L 850.943,84.805 L 850.942,84.828 L 850.939,84.851 L 850.934,84.874 L 850.927,84.896 L 850.918,84.918 L 850.908,84.938 L 850.895,84.958 L 850.881,84.977 L 850.866,84.994 L 850.849,85.01 L 850.831,85.024 L 850.811,85.037 L 850.791,85.048 L 850.77,85.057 L 850.748,85.065 L 850.725,85.07 L 850.702,85.073 L 850.673,85.075 L 847.843,85.075 L 847.843,117.735 L 850.673,117.735 L 850.696,117.736 L 850.719,117.739 L 850.742,117.744 L 850.764,117.751 L 850.786,117.76 L 850.806,117.77 L 850.826,117.783 L 850.845,117.797 L 850.862,117.812 L 850.878,117.829 L 850.892,117.847 L 850.905,117.867 L 850.916,117.887 L 850.925,117.908 L 850.933,117.93 L 850.938,117.953 L 850.941,117.976 L 850.943,118.005 L 850.943,151.205 L 850.942,151.228 L 850.939,151.251 L 850.934,151.274 L 850.927,151.296 L 850.918,151.318 L 850.908,151.338 L 850.895,151.358 L 850.881,151.377 L 850.866,151.394 L 850.849,151.41 L 850.831,151.424 L 850.811,151.437 L 850.791,151.448 L 850.77,151.457 L 850.748,151.465 L 850.725,151.47 L 850.702,151.473 L 850.673,151.475 L 847.843,151.475 L 847.843,184.135 L 850.673,184.135 L 850.696,184.136 L 850.719,184.139 L 850.742,184.144 L 850.764,184.151 L 850.786,184.16 L 850.806,184.17 L 850.826,184.183 L 850.845,184.197 L 850.862,184.212 L 850.878,184.229 L 850.892,184.247 L 850.905,184.267 L 850.916,184.287 L 850.925,184.308 L 850.933,184.33 L 850.938,184.353 L 850.941,184.376 L 850.943,184.405 L 850.943,217.707 L 850.942,217.73 L 850.939,217.753 L 850.934,217.776 L 850.927,217.798 L 850.918,217.82 L 850.908,217.84 L 850.895,217.86 L 850.881,217.879 L 850.866,217.896 L 850.849,217.912 L 850.831,217.926 L 850.811,217.939 L 850.791,217.95 L 850.77,217.959 L 850.748,217.967 L 850.725,217.972 L 850.702,217.975 L 850.673,217.977 L 767.092,217.977 L 767.069,217.976 L 767.046,217.973 L 767.023,217.968 L 767.001,217.961 L 766.979,217.952 L 766.959,217.942 L 766.939,217.929 L 766.92,217.915 L 766.903,217.9 L 766.887,217.883 L 766.873,217.865 L 766.86,217.845 L 766.849,217.825 L 766.84,217.804 L 766.832,217.782 L 766.827,217.759 L 766.824,217.736 L 766.822,217.707 L 766.822,214.877 L 734.162,214.877 L 734.162,217.707 L 734.161,217.73 L 734.158,217.753 L 734.153,217.776 L 734.146,217.798 L 734.137,217.82 L 734.127,217.84 L 734.114,217.86 L 734.1,217.879 L 734.085,217.896 L 734.068,217.912 L 734.05,217.926 L 734.03,217.939 L 734.01,217.95 L 733.989,217.959 L 733.967,217.967 L 733.944,217.972 L 733.921,217.975 L 733.892,217.977 L 700.692,217.977 L 700.669,217.976 L 700.646,217.973 L 700.623,217.968 L 700.601,217.961 L 700.579,217.952 L 700.559,217.942 L 700.539,217.929 L 700.52,217.915 L 700.503,217.9 L 700.487,217.883 L 700.473,217.865 L 700.46,217.845 L 700.449,217.825 L 700.44,217.804 L 700.432,217.782 L 700.427,217.759 L 700.424,217.736 L 700.422,217.707 L 700.422,214.877 L 667.762,214.877 L 667.762,217.707 L 667.761,217.73 L 667.758,217.753 L 667.753,217.776 L 667.746,217.798 L 667.737,217.82 L 667.727,217.84 L 667.714,217.86 L 667.7,217.879 L 667.685,217.896 L 667.668,217.912 L 667.65,217.926 L 667.63,217.939 L 667.61,217.95 L 667.589,217.959 L 667.567,217.967 L 667.544,217.972 L 667.521,217.975 L 667.492,217.977 L 583.91,217.977 L 583.887,217.976 L 583.864,217.973 L 583.841,217.968 L 583.819,217.961 L 583.797,217.952 L 583.777,217.942 L 583.757,217.929 L 583.738,217.915 L 583.721,217.9 L 583.705,217.883 L 583.691,217.865 L 583.678,217.845 L 583.667,217.825 L 583.658,217.804 L 583.65,217.782 L 583.645,217.759 L 583.642,217.736 L 583.64,217.707 L 583.64,51.502 L 583.641,51.479 L 583.644,51.456 L 583.649,51.433 L 583.656,51.411 L 583.665,51.389 L 583.675,51.369 L 583.688,51.349 L 583.702,51.33 L 583.717,51.313 L 583.734,51.297 L 583.752,51.283 L 583.772,51.27 L 583.792,51.259 L 583.813,51.25 L 583.835,51.242 L 583.858,51.237 L 583.881,51.234 L 583.91,51.232 L 667.492,51.232 Z M 811.344,198.754 L 831.195,198.754 L 817.14,193.383 Z M 798.552,169.503 L 763.939,193.156 L 766.355,198.754 L 799.68,198.754 L 811.146,188.13 L 824.178,167.715 Z M 704.092,177.021 L 694.642,198.754 L 756.127,198.754 L 753.943,193.695 L 737.76,181.567 L 726.143,175.876 Z M 609.138,198.754 L 662.367,198.754 L 624.49,191.911 Z M 639.824,168.511 L 629.687,186.882 L 685.244,196.929 L 694.719,175.137 L 684.878,168.693 L 665.285,167.782 Z M 835.768,166.089 L 821.62,188.261 L 837.835,194.452 L 837.835,165.144 Z M 604.75,193.473 L 619.241,187.012 L 630.621,166.382 L 630.513,166.305 L 604.75,154.559 Z M 749.2,180.754 L 758.68,187.858 L 780.211,173.152 Z M 750.4,161.425 L 734.716,172.57 L 742.258,176.258 L 781.153,166.713 L 755.986,161.111 Z M 692.731,165.18 L 702.233,171.4 L 725.267,170.207 L 741.965,158.343 L 741.837,158.199 L 701.467,144.821 Z M 763.914,156.766 L 795.657,163.844 L 796.298,163.929 L 829.58,161.616 L 829.828,161.504 L 783.857,137.346 Z M 663.519,134.902 L 669.647,162.29 L 683.505,162.929 L 693.265,140.138 L 693.229,139.326 L 666.278,128.435 Z M 640.767,162.778 L 659.701,162.24 L 655.758,144.659 Z M 604.75,144.213 L 604.75,147.295 L 632.23,159.823 L 653.8,133.742 L 656.633,127.112 Z M 793.01,134.42 L 837.835,157.987 L 837.835,121.357 Z M 747.566,130.622 L 750.498,155.405 L 750.733,155.689 L 753.675,155.524 L 776.45,133.352 L 770.592,129.277 L 758.69,126.526 Z M 720.993,134.086 L 704.242,139.178 L 740.039,151.03 L 737.854,132.452 Z M 604.75,124.355 L 604.75,137.624 L 650.092,122.674 L 615.273,116.316 Z M 670.38,112.222 L 666.375,121.436 L 666.64,121.627 L 698.48,134.474 L 713.56,129.888 L 700.404,101.062 Z M 807.8,113.656 L 780.553,127.249 L 785.005,130.368 L 830.235,117.181 L 820.253,111.287 Z M 709.13,97.764 L 723.001,128.119 L 740.601,126.416 L 752.573,122.003 L 737.92,84.762 Z M 762.399,121.248 L 772.679,123.628 L 797.526,111.234 L 749.963,89.648 Z M 625.581,95.749 L 609.959,98.534 L 617.288,110.708 L 657.654,118.08 L 660.632,111.221 L 638.149,96.836 L 626.499,95.734 Z M 604.75,114.875 L 607.885,112.482 L 604.75,107.278 Z M 827.152,99.878 L 826.681,106.9 L 837.835,113.485 L 837.835,89.566 Z M 806.274,107.952 L 816.848,105.945 L 817.191,101.016 L 770.232,91.582 Z M 646.797,93.807 L 666.937,106.697 L 692.82,97.082 L 656.439,84.078 Z M 745.804,70.456 L 744.637,79.642 L 745.698,80.609 L 745.834,80.643 L 820.077,95.557 L 837.835,78.417 L 837.835,70.456 Z M 663.417,70.456 L 660.292,78.734 L 702.075,93.678 L 734.805,78.905 L 735.876,70.456 Z M 604.75,82.212 L 604.75,93.509 L 618.648,91.038 L 610.211,74.93 Z M 636.867,70.456 L 632.332,90.522 L 638.115,91.061 L 650.038,79.069 L 653.288,70.456 Z M 618.199,70.456 L 624.284,82.064 L 626.907,70.456 Z"></path></g><g data-name="face4" id="face4"><path d="M 994.13,51.209 L 994.153,51.212 L 994.176,51.217 L 994.198,51.224 L 994.22,51.233 L 994.24,51.243 L 994.26,51.256 L 994.279,51.27 L 994.296,51.285 L 994.312,51.302 L 994.326,51.32 L 994.339,51.34 L 994.35,51.36 L 994.359,51.381 L 994.367,51.403 L 994.372,51.426 L 994.375,51.449 L 994.377,51.478 L 994.377,54.308 L 1027.037,54.308 L 1027.037,51.478 L 1027.038,51.455 L 1027.041,51.432 L 1027.046,51.409 L 1027.053,51.387 L 1027.062,51.365 L 1027.072,51.345 L 1027.085,51.325 L 1027.099,51.306 L 1027.114,51.289 L 1027.131,51.273 L 1027.149,51.259 L 1027.169,51.246 L 1027.189,51.235 L 1027.21,51.226 L 1027.232,51.218 L 1027.255,51.213 L 1027.278,51.21 L 1027.307,51.208 L 1060.507,51.208 L 1060.53,51.209 L 1060.553,51.212 L 1060.576,51.217 L 1060.598,51.224 L 1060.62,51.233 L 1060.64,51.243 L 1060.66,51.256 L 1060.679,51.27 L 1060.696,51.285 L 1060.712,51.302 L 1060.726,51.32 L 1060.739,51.34 L 1060.75,51.36 L 1060.759,51.381 L 1060.767,51.403 L 1060.772,51.426 L 1060.775,51.449 L 1060.777,51.478 L 1060.777,54.308 L 1144.088,54.308 L 1144.111,54.309 L 1144.134,54.312 L 1144.157,54.317 L 1144.179,54.324 L 1144.201,54.333 L 1144.221,54.343 L 1144.241,54.356 L 1144.26,54.37 L 1144.277,54.385 L 1144.293,54.402 L 1144.307,54.42 L 1144.32,54.44 L 1144.331,54.46 L 1144.34,54.481 L 1144.348,54.503 L 1144.353,54.526 L 1144.356,54.549 L 1144.358,54.578 L 1144.358,84.792 L 1144.357,84.815 L 1144.354,84.838 L 1144.349,84.861 L 1144.342,84.883 L 1144.333,84.905 L 1144.323,84.925 L 1144.31,84.945 L 1144.296,84.964 L 1144.281,84.981 L 1144.264,84.997 L 1144.246,85.011 L 1144.226,85.024 L 1144.206,85.035 L 1144.185,85.044 L 1144.163,85.052 L 1144.14,85.057 L 1144.117,85.06 L 1144.088,85.062 L 1141.258,85.062 L 1141.258,117.722 L 1144.088,117.722 L 1144.111,117.723 L 1144.134,117.726 L 1144.157,117.731 L 1144.179,117.738 L 1144.201,117.747 L 1144.221,117.757 L 1144.241,117.77 L 1144.26,117.784 L 1144.277,117.799 L 1144.293,117.816 L 1144.307,117.834 L 1144.32,117.854 L 1144.331,117.874 L 1144.34,117.895 L 1144.348,117.917 L 1144.353,117.94 L 1144.356,117.963 L 1144.358,117.992 L 1144.358,151.192 L 1144.357,151.215 L 1144.354,151.238 L 1144.349,151.261 L 1144.342,151.283 L 1144.333,151.305 L 1144.323,151.325 L 1144.31,151.345 L 1144.296,151.364 L 1144.281,151.381 L 1144.264,151.397 L 1144.246,151.411 L 1144.226,151.424 L 1144.206,151.435 L 1144.185,151.444 L 1144.163,151.452 L 1144.14,151.457 L 1144.117,151.46 L 1144.088,151.462 L 1141.258,151.462 L 1141.258,184.122 L 1144.088,184.122 L 1144.111,184.123 L 1144.134,184.126 L 1144.157,184.131 L 1144.179,184.138 L 1144.201,184.147 L 1144.221,184.157 L 1144.241,184.17 L 1144.26,184.184 L 1144.277,184.199 L 1144.293,184.216 L 1144.307,184.234 L 1144.32,184.254 L 1144.331,184.274 L 1144.34,184.295 L 1144.348,184.317 L 1144.353,184.34 L 1144.356,184.363 L 1144.358,184.392 L 1144.358,214.605 L 1144.357,214.628 L 1144.354,214.651 L 1144.349,214.674 L 1144.342,214.696 L 1144.333,214.718 L 1144.323,214.738 L 1144.31,214.758 L 1144.296,214.777 L 1144.281,214.794 L 1144.264,214.81 L 1144.246,214.824 L 1144.226,214.837 L 1144.206,214.848 L 1144.185,214.857 L 1144.163,214.865 L 1144.14,214.87 L 1144.117,214.873 L 1144.088,214.875 L 1060.777,214.875 L 1060.777,217.705 L 1060.776,217.728 L 1060.773,217.751 L 1060.768,217.774 L 1060.761,217.796 L 1060.752,217.818 L 1060.742,217.838 L 1060.729,217.858 L 1060.715,217.877 L 1060.7,217.894 L 1060.683,217.91 L 1060.665,217.924 L 1060.645,217.937 L 1060.625,217.948 L 1060.604,217.957 L 1060.582,217.965 L 1060.559,217.97 L 1060.536,217.973 L 1060.507,217.975 L 1027.307,217.975 L 1027.284,217.974 L 1027.261,217.971 L 1027.238,217.966 L 1027.216,217.959 L 1027.194,217.95 L 1027.174,217.94 L 1027.154,217.927 L 1027.135,217.913 L 1027.118,217.898 L 1027.102,217.881 L 1027.088,217.863 L 1027.075,217.843 L 1027.064,217.823 L 1027.055,217.802 L 1027.047,217.78 L 1027.042,217.757 L 1027.039,217.734 L 1027.037,217.705 L 1027.037,214.875 L 994.377,214.875 L 994.377,217.705 L 994.376,217.728 L 994.373,217.751 L 994.368,217.774 L 994.361,217.796 L 994.352,217.818 L 994.342,217.838 L 994.329,217.858 L 994.315,217.877 L 994.3,217.894 L 994.283,217.91 L 994.265,217.924 L 994.245,217.937 L 994.225,217.948 L 994.204,217.957 L 994.182,217.965 L 994.159,217.97 L 994.136,217.973 L 994.107,217.975 L 960.907,217.975 L 960.884,217.974 L 960.861,217.971 L 960.838,217.966 L 960.816,217.959 L 960.794,217.95 L 960.774,217.94 L 960.754,217.927 L 960.735,217.913 L 960.718,217.898 L 960.702,217.881 L 960.688,217.863 L 960.675,217.843 L 960.664,217.823 L 960.655,217.802 L 960.647,217.78 L 960.642,217.757 L 960.639,217.734 L 960.637,217.705 L 960.637,214.875 L 877.326,214.875 L 877.303,214.874 L 877.28,214.871 L 877.257,214.866 L 877.235,214.859 L 877.213,214.85 L 877.193,214.84 L 877.173,214.827 L 877.154,214.813 L 877.137,214.798 L 877.121,214.781 L 877.107,214.763 L 877.094,214.743 L 877.083,214.723 L 877.074,214.702 L 877.066,214.68 L 877.061,214.657 L 877.058,214.634 L 877.056,214.605 L 877.056,54.578 L 877.057,54.555 L 877.06,54.532 L 877.065,54.509 L 877.072,54.487 L 877.081,54.465 L 877.091,54.445 L 877.104,54.425 L 877.118,54.406 L 877.133,54.389 L 877.15,54.373 L 877.168,54.359 L 877.188,54.346 L 877.208,54.335 L 877.229,54.326 L 877.251,54.318 L 877.274,54.313 L 877.297,54.31 L 877.326,54.308 L 960.637,54.308 L 960.637,51.478 L 960.638,51.455 L 960.641,51.432 L 960.646,51.409 L 960.653,51.387 L 960.662,51.365 L 960.672,51.345 L 960.685,51.325 L 960.699,51.306 L 960.714,51.289 L 960.731,51.273 L 960.749,51.259 L 960.769,51.246 L 960.789,51.235 L 960.81,51.226 L 960.832,51.218 L 960.855,51.213 L 960.878,51.21 L 960.907,51.208 L 994.107,51.208 Z M 1099.498,198.754 L 1122.785,198.754 L 1126.033,186.253 L 1114.769,185.77 Z M 1081.338,160.615 L 1064.307,169.878 L 1081.698,198.754 L 1087.517,198.754 L 1106.457,182.652 L 1085.802,160.516 Z M 1031.93,178.94 L 1040.924,198.754 L 1071.206,198.754 L 1055.65,172.937 Z M 947.187,193.807 L 945.662,198.754 L 977.188,198.754 L 969.304,181.987 L 964.884,181.926 Z M 905.574,198.754 L 906.031,198.754 L 905.633,198.55 Z M 989.464,176.126 L 978.815,180.398 L 987.446,198.752 L 1030.694,198.752 L 1021.896,179.36 L 1006.944,175.537 Z M 920.985,198.752 L 935.629,198.752 L 936.759,195.074 L 911.074,193.688 Z M 919.913,188.442 L 940.479,189.562 L 955.095,179.747 L 941.614,174.996 Z M 898.166,174.883 L 898.166,187.078 L 902.619,188.876 L 906.769,188.212 L 929.701,174.004 Z M 1096.059,157.611 L 1094.929,158.205 L 1115.334,180.103 L 1126.765,180.576 L 1126.765,156.095 Z M 937.189,145.914 L 944.464,169.283 L 964.152,176.22 L 971.597,176.321 L 982.134,172.103 L 974.635,154.488 L 955.847,142.862 Z M 1023.688,154.424 L 1013.929,171.099 L 1026.085,174.2 L 1055.822,166.663 L 1071.396,158.197 L 1045.409,150.811 L 1030.245,150.427 Z M 984.836,154.464 L 991.566,170.352 L 1004.199,169.911 L 1013.294,154.367 L 997.869,150.0 Z M 900.61,169.113 L 934.069,168.165 L 927.167,145.98 L 924.846,145.49 Z M 898.166,160.272 L 916.129,142.763 L 898.166,135.216 Z M 1066.884,129.826 L 1080.714,154.768 L 1081.025,154.923 L 1086.732,154.796 L 1089.459,153.364 L 1099.333,125.923 L 1097.234,125.128 L 1068.645,123.164 Z M 1109.08,126.893 L 1100.16,151.695 L 1126.765,150.388 L 1126.765,123.957 Z M 1050.831,137.798 L 1051.5,146.171 L 1068.216,150.915 L 1059.137,134.541 Z M 963.799,139.408 L 980.048,149.471 L 993.361,144.915 L 1000.211,129.434 L 983.894,123.288 Z M 1003.421,145.226 L 1018.264,149.425 L 1022.181,147.054 L 1010.294,134.106 L 1008.652,133.375 Z M 1022.13,134.833 L 1031.252,144.747 L 1041.492,145.008 L 1040.896,137.49 L 1036.193,134.462 Z M 902.861,130.123 L 925.032,139.448 L 931.753,140.875 L 954.387,137.172 L 977.357,118.756 L 970.079,98.572 L 948.205,97.734 Z M 1048.45,128.572 L 1044.731,131.401 L 1046.557,132.563 L 1057.258,128.372 L 1058.03,125.441 Z M 1013.786,128.432 L 1015.74,129.293 L 1035.781,128.77 L 1037.441,127.508 L 1026.555,124.667 Z M 979.602,96.993 L 987.047,117.671 L 1005.302,124.54 L 1023.481,119.188 L 1045.151,106.818 L 1033.522,99.809 L 983.357,95.21 Z M 898.166,124.405 L 938.78,95.388 L 898.166,79.12 Z M 1035.064,120.622 L 1044.882,123.179 L 1057.513,119.058 L 1049.786,112.219 Z M 1125.695,70.454 L 1096.409,97.415 L 1103.516,120.69 L 1105.662,121.506 L 1128.123,117.787 L 1131.249,113.806 L 1131.249,70.454 Z M 1055.94,107.186 L 1067.428,117.359 L 1093.019,119.117 L 1087.364,100.635 Z M 1078.775,70.454 L 1042.55,96.961 L 1051.109,102.135 L 1087.89,94.467 L 1113.972,70.454 Z M 997.61,70.454 L 988.162,89.895 L 1033.882,94.076 L 1066.16,70.454 Z M 956.176,70.454 L 901.029,73.303 L 947.691,91.998 L 972.528,92.948 L 977.568,90.557 L 987.341,70.454 Z"></path></g><g data-name="face5" id="face5"><path d="M 1229.77,51.209 L 1229.793,51.212 L 1229.816,51.217 L 1229.838,51.224 L 1229.86,51.233 L 1229.88,51.243 L 1229.9,51.256 L 1229.919,51.27 L 1229.936,51.285 L 1229.952,51.302 L 1229.966,51.32 L 1229.979,51.34 L 1229.99,51.36 L 1229.999,51.381 L 1230.007,51.403 L 1230.012,51.426 L 1230.015,51.449 L 1230.017,51.478 L 1230.017,54.308 L 1262.677,54.308 L 1262.677,51.478 L 1262.678,51.455 L 1262.681,51.432 L 1262.686,51.409 L 1262.693,51.387 L 1262.702,51.365 L 1262.712,51.345 L 1262.725,51.325 L 1262.739,51.306 L 1262.754,51.289 L 1262.771,51.273 L 1262.789,51.259 L 1262.809,51.246 L 1262.829,51.235 L 1262.85,51.226 L 1262.872,51.218 L 1262.895,51.213 L 1262.918,51.21 L 1262.947,51.208 L 1296.147,51.208 L 1296.17,51.209 L 1296.193,51.212 L 1296.216,51.217 L 1296.238,51.224 L 1296.26,51.233 L 1296.28,51.243 L 1296.3,51.256 L 1296.319,51.27 L 1296.336,51.285 L 1296.352,51.302 L 1296.366,51.32 L 1296.379,51.34 L 1296.39,51.36 L 1296.399,51.381 L 1296.407,51.403 L 1296.412,51.426 L 1296.415,51.449 L 1296.417,51.478 L 1296.417,54.308 L 1326.349,54.308 L 1326.372,54.309 L 1326.395,54.312 L 1326.418,54.317 L 1326.44,54.324 L 1326.462,54.333 L 1326.482,54.343 L 1326.502,54.356 L 1326.521,54.37 L 1326.538,54.385 L 1326.554,54.402 L 1326.568,54.42 L 1326.581,54.44 L 1326.592,54.46 L 1326.601,54.481 L 1326.609,54.503 L 1326.614,54.526 L 1326.617,54.549 L 1326.619,54.578 L 1326.619,84.51 L 1329.449,84.51 L 1329.472,84.511 L 1329.495,84.514 L 1329.518,84.519 L 1329.54,84.526 L 1329.562,84.535 L 1329.582,84.545 L 1329.602,84.558 L 1329.621,84.572 L 1329.638,84.587 L 1329.654,84.604 L 1329.668,84.622 L 1329.681,84.642 L 1329.692,84.662 L 1329.701,84.683 L 1329.709,84.705 L 1329.714,84.728 L 1329.717,84.751 L 1329.719,84.78 L 1329.719,117.98 L 1329.718,118.003 L 1329.715,118.026 L 1329.71,118.049 L 1329.703,118.071 L 1329.694,118.093 L 1329.684,118.113 L 1329.671,118.133 L 1329.657,118.152 L 1329.642,118.169 L 1329.625,118.185 L 1329.607,118.199 L 1329.587,118.212 L 1329.567,118.223 L 1329.546,118.232 L 1329.524,118.24 L 1329.501,118.245 L 1329.478,118.248 L 1329.449,118.25 L 1326.619,118.25 L 1326.619,150.91 L 1329.449,150.91 L 1329.472,150.911 L 1329.495,150.914 L 1329.518,150.919 L 1329.54,150.926 L 1329.562,150.935 L 1329.582,150.945 L 1329.602,150.958 L 1329.621,150.972 L 1329.638,150.987 L 1329.654,151.004 L 1329.668,151.022 L 1329.681,151.042 L 1329.692,151.062 L 1329.701,151.083 L 1329.709,151.105 L 1329.714,151.128 L 1329.717,151.151 L 1329.719,151.18 L 1329.719,184.38 L 1329.718,184.403 L 1329.715,184.426 L 1329.71,184.449 L 1329.703,184.471 L 1329.694,184.493 L 1329.684,184.513 L 1329.671,184.533 L 1329.657,184.552 L 1329.642,184.569 L 1329.625,184.585 L 1329.607,184.599 L 1329.587,184.612 L 1329.567,184.623 L 1329.546,184.632 L 1329.524,184.64 L 1329.501,184.645 L 1329.478,184.648 L 1329.449,184.65 L 1326.619,184.65 L 1326.619,214.582 L 1326.618,214.605 L 1326.615,214.628 L 1326.61,214.651 L 1326.603,214.673 L 1326.594,214.695 L 1326.584,214.715 L 1326.571,214.735 L 1326.557,214.754 L 1326.542,214.771 L 1326.525,214.787 L 1326.507,214.801 L 1326.487,214.814 L 1326.467,214.825 L 1326.446,214.834 L 1326.424,214.842 L 1326.401,214.847 L 1326.378,214.85 L 1326.349,214.852 L 1296.417,214.852 L 1296.417,217.682 L 1296.416,217.705 L 1296.413,217.728 L 1296.408,217.751 L 1296.401,217.773 L 1296.392,217.795 L 1296.382,217.815 L 1296.369,217.835 L 1296.355,217.854 L 1296.34,217.871 L 1296.323,217.887 L 1296.305,217.901 L 1296.285,217.914 L 1296.265,217.925 L 1296.244,217.934 L 1296.222,217.942 L 1296.199,217.947 L 1296.176,217.95 L 1296.147,217.952 L 1262.947,217.952 L 1262.924,217.951 L 1262.901,217.948 L 1262.878,217.943 L 1262.856,217.936 L 1262.834,217.927 L 1262.814,217.917 L 1262.794,217.904 L 1262.775,217.89 L 1262.758,217.875 L 1262.742,217.858 L 1262.728,217.84 L 1262.715,217.82 L 1262.704,217.8 L 1262.695,217.779 L 1262.687,217.757 L 1262.682,217.734 L 1262.679,217.711 L 1262.677,217.682 L 1262.677,214.852 L 1230.017,214.852 L 1230.017,217.682 L 1230.016,217.705 L 1230.013,217.728 L 1230.008,217.751 L 1230.001,217.773 L 1229.992,217.795 L 1229.982,217.815 L 1229.969,217.835 L 1229.955,217.854 L 1229.94,217.871 L 1229.923,217.887 L 1229.905,217.901 L 1229.885,217.914 L 1229.865,217.925 L 1229.844,217.934 L 1229.822,217.942 L 1229.799,217.947 L 1229.776,217.95 L 1229.747,217.952 L 1196.547,217.952 L 1196.524,217.951 L 1196.501,217.948 L 1196.478,217.943 L 1196.456,217.936 L 1196.434,217.927 L 1196.414,217.917 L 1196.394,217.904 L 1196.375,217.89 L 1196.358,217.875 L 1196.342,217.858 L 1196.328,217.84 L 1196.315,217.82 L 1196.304,217.8 L 1196.295,217.779 L 1196.287,217.757 L 1196.282,217.734 L 1196.279,217.711 L 1196.277,217.682 L 1196.277,214.852 L 1166.345,214.852 L 1166.322,214.851 L 1166.299,214.848 L 1166.276,214.843 L 1166.254,214.836 L 1166.232,214.827 L 1166.212,214.817 L 1166.192,214.804 L 1166.173,214.79 L 1166.156,214.775 L 1166.14,214.758 L 1166.126,214.74 L 1166.113,214.72 L 1166.102,214.7 L 1166.093,214.679 L 1166.085,214.657 L 1166.08,214.634 L 1166.077,214.611 L 1166.075,214.582 L 1166.075,184.65 L 1163.245,184.65 L 1163.222,184.649 L 1163.199,184.646 L 1163.176,184.641 L 1163.154,184.634 L 1163.132,184.625 L 1163.112,184.615 L 1163.092,184.602 L 1163.073,184.588 L 1163.056,184.573 L 1163.04,184.556 L 1163.026,184.538 L 1163.013,184.518 L 1163.002,184.498 L 1162.993,184.477 L 1162.985,184.455 L 1162.98,184.432 L 1162.977,184.409 L 1162.975,184.38 L 1162.975,151.18 L 1162.976,151.157 L 1162.979,151.134 L 1162.984,151.111 L 1162.991,151.089 L 1163.0,151.067 L 1163.01,151.047 L 1163.023,151.027 L 1163.037,151.008 L 1163.052,150.991 L 1163.069,150.975 L 1163.087,150.961 L 1163.107,150.948 L 1163.127,150.937 L 1163.148,150.928 L 1163.17,150.92 L 1163.193,150.915 L 1163.216,150.912 L 1163.245,150.91 L 1166.075,150.91 L 1166.075,118.25 L 1163.245,118.25 L 1163.222,118.249 L 1163.199,118.246 L 1163.176,118.241 L 1163.154,118.234 L 1163.132,118.225 L 1163.112,118.215 L 1163.092,118.202 L 1163.073,118.188 L 1163.056,118.173 L 1163.04,118.156 L 1163.026,118.138 L 1163.013,118.118 L 1163.002,118.098 L 1162.993,118.077 L 1162.985,118.055 L 1162.98,118.032 L 1162.977,118.009 L 1162.975,117.98 L 1162.975,84.78 L 1162.976,84.757 L 1162.979,84.734 L 1162.984,84.711 L 1162.991,84.689 L 1163.0,84.667 L 1163.01,84.647 L 1163.023,84.627 L 1163.037,84.608 L 1163.052,84.591 L 1163.069,84.575 L 1163.087,84.561 L 1163.107,84.548 L 1163.127,84.537 L 1163.148,84.528 L 1163.17,84.52 L 1163.193,84.515 L 1163.216,84.512 L 1163.245,84.51 L 1166.075,84.51 L 1166.075,54.578 L 1166.076,54.555 L 1166.079,54.532 L 1166.084,54.509 L 1166.091,54.487 L 1166.1,54.465 L 1166.11,54.445 L 1166.123,54.425 L 1166.137,54.406 L 1166.152,54.389 L 1166.169,54.373 L 1166.187,54.359 L 1166.207,54.346 L 1166.227,54.335 L 1166.248,54.326 L 1166.27,54.318 L 1166.293,54.313 L 1166.316,54.31 L 1166.345,54.308 L 1196.277,54.308 L 1196.277,51.478 L 1196.278,51.455 L 1196.281,51.432 L 1196.286,51.409 L 1196.293,51.387 L 1196.302,51.365 L 1196.312,51.345 L 1196.325,51.325 L 1196.339,51.306 L 1196.354,51.289 L 1196.371,51.273 L 1196.389,51.259 L 1196.409,51.246 L 1196.429,51.235 L 1196.45,51.226 L 1196.472,51.218 L 1196.495,51.213 L 1196.518,51.21 L 1196.547,51.208 L 1229.747,51.208 Z M 1299.394,181.576 L 1296.518,189.463 L 1302.154,198.73 L 1302.711,198.73 L 1310.496,192.15 L 1310.496,179.681 Z M 1285.952,196.889 L 1285.111,198.73 L 1295.491,198.73 L 1292.332,193.532 Z M 1255.693,185.459 L 1258.065,198.73 L 1278.846,198.73 L 1280.204,195.763 L 1260.032,181.046 Z M 1196.347,198.73 L 1252.279,198.73 L 1250.199,187.096 L 1212.062,182.74 Z M 1182.198,186.518 L 1188.502,198.585 L 1208.389,178.355 L 1208.523,177.721 L 1205.059,170.212 L 1182.198,144.644 Z M 1263.36,176.409 L 1284.017,191.482 L 1291.067,187.769 L 1293.971,179.838 L 1286.435,172.819 L 1267.669,167.828 Z M 1226.552,157.55 L 1214.853,177.328 L 1251.579,181.517 L 1257.385,175.625 L 1263.172,164.1 L 1262.288,159.96 L 1231.899,153.833 Z M 1291.462,169.744 L 1298.188,176.01 L 1310.495,173.908 L 1310.495,157.762 L 1298.754,157.503 Z M 1205.102,149.271 L 1210.166,167.651 L 1211.823,171.261 L 1221.088,155.596 L 1213.018,142.578 Z M 1268.925,153.261 L 1267.626,157.653 L 1268.594,162.192 L 1286.493,166.954 L 1293.87,154.574 L 1285.732,140.115 L 1276.503,139.031 Z M 1182.198,136.098 L 1201.516,157.716 L 1199.21,149.317 L 1192.455,135.916 L 1182.198,135.675 Z M 1237.068,139.01 L 1234.734,148.595 L 1262.699,154.236 L 1263.004,153.194 L 1240.962,135.841 Z M 1291.651,139.033 L 1298.84,151.811 L 1308.479,152.018 L 1301.305,135.689 Z M 1216.234,136.955 L 1225.259,151.526 L 1228.767,149.08 L 1231.371,138.357 L 1220.648,128.519 L 1212.58,127.998 Z M 1244.535,131.413 L 1265.367,147.812 L 1271.807,135.717 L 1269.641,129.416 L 1247.87,124.89 Z M 1198.133,134.508 L 1202.798,143.765 L 1210.282,137.426 L 1207.434,130.417 Z M 1306.199,132.7 L 1310.495,142.473 L 1310.495,128.014 Z M 1279.231,111.839 L 1278.539,112.499 L 1274.778,126.841 L 1277.004,133.353 L 1287.196,134.551 L 1301.233,129.696 L 1308.603,121.644 L 1293.844,111.648 Z M 1235.279,117.129 L 1226.015,125.729 L 1234.645,133.645 L 1238.672,130.374 L 1243.115,121.702 L 1240.096,116.214 Z M 1182.197,112.588 L 1182.197,129.974 L 1193.663,130.252 L 1206.859,124.442 L 1201.651,105.623 Z M 1244.61,112.625 L 1248.183,119.14 L 1269.741,123.609 L 1272.69,112.371 L 1247.894,98.023 Z M 1216.712,122.544 L 1220.778,122.8 L 1229.032,115.149 L 1225.047,113.055 Z M 1206.631,102.222 L 1211.507,119.857 L 1220.877,109.197 L 1214.103,98.137 L 1209.136,97.434 Z M 1298.255,107.748 L 1310.495,116.038 L 1310.495,79.2 Z M 1220.324,97.384 L 1226.413,107.346 L 1234.381,111.52 L 1239.229,110.604 L 1242.855,94.508 L 1241.549,93.204 L 1240.212,92.782 Z M 1251.802,93.715 L 1275.405,107.372 L 1278.324,79.847 Z M 1183.015,106.268 L 1201.579,99.616 L 1204.424,94.161 L 1195.442,70.814 Z M 1287.637,70.434 L 1284.474,75.775 L 1281.265,106.118 L 1292.819,105.968 L 1308.055,70.434 Z M 1201.398,70.432 L 1209.606,91.755 L 1215.709,92.614 L 1235.401,88.042 L 1222.589,70.432 Z M 1182.198,70.432 L 1182.198,91.356 L 1189.539,70.432 Z M 1253.19,70.432 L 1252.102,71.785 L 1246.331,89.929 L 1246.474,90.071 L 1279.675,72.717 L 1281.028,70.432 Z M 1241.652,73.281 L 1242.765,82.317 L 1245.642,73.281 Z M 1229.649,70.432 L 1236.765,80.215 L 1235.716,71.673 L 1234.576,70.432 Z"></path></g></svg>