<svg id="Layer_1" data-name="Layer 1" xmlns="http://www.w3.org/2000/svg" viewBox="0 0 1366 768"><polygon points="52.445 104.921 56.512 103.684 74.594 107.458 77.584 115.6 52.445 118.483 52.445 104.921" style="fill:none;stroke:red;stroke-width:0.25px"/><polygon points="52.445 123.755 80.738 120.51 85.947 125.483 66.65 139.436 61.348 140.274 52.445 139.446 52.445 123.755" style="fill:none;stroke:red;stroke-width:0.25px"/><polygon points="52.445 144.678 58.006 145.196 71.02 168.141 57.141 171.245 52.445 169.389 52.445 144.678" style="fill:none;stroke:red;stroke-width:0.25px"/><polygon points="60.811 81.704 108.865 96.173 78.611 102.782 60.811 99.071 60.811 81.704" style="fill:none;stroke:red;stroke-width:0.25px"/><polygon points="61.231 184.376 67.07 191.294 61.604 193.946 61.231 184.376" style="fill:none;stroke:red;stroke-width:0.25px"/><polygon points="63.846 175.292 76.695 172.432 86.018 174.673 88.844 184.555 74.943 188.46 63.846 175.292" style="fill:none;stroke:red;stroke-width:0.25px"/><polygon points="67.514 144.655 69.174 144.397 121.529 156.159 89.545 169.907 80.598 167.755 67.514 144.655" style="fill:none;stroke:red;stroke-width:0.25px"/><polygon points="68.356 78.083 117.977 70.186 133.051 70.186 140.475 82.567 118.865 93.3 68.356 78.083" style="fill:none;stroke:red;stroke-width:0.25px"/><polygon points="69.547 196.95 75.41 194.116 93.516 189.026 112.791 196.95 69.547 196.95" style="fill:none;stroke:red;stroke-width:0.25px"/><polygon points="76.836 140.571 94.078 128.073 120.315 125.96 130.99 131.204 128.793 152.243 76.836 140.571" style="fill:none;stroke:red;stroke-width:0.25px"/><polygon points="84.008 107.149 114.963 100.385 116.902 121.012 93.984 122.868 87.537 116.696 84.008 107.149" style="fill:none;stroke:red;stroke-width:0.25px"/><polygon points="95.293 173.977 129.285 159.38 139.4 182.841 120.873 193.844 98.307 184.569 95.293 173.977" style="fill:none;stroke:red;stroke-width:0.25px"/><polygon points="124.074 97.655 146.69 86.419 157.951 89.395 166.547 119.634 136.621 127.092 126.363 122.03 124.074 97.655" style="fill:none;stroke:red;stroke-width:0.25px"/><polygon points="126.131 198.301 146.246 186.358 168.066 188.434 176.768 199.024 126.147 199.024 126.131 198.301" style="fill:none;stroke:red;stroke-width:0.25px"/><polygon points="138.49 158.401 196.242 163.581 172.225 181.966 169.703 183.358 148.371 181.335 138.49 158.401" style="fill:none;stroke:red;stroke-width:0.25px"/><polygon points="138.512 148.751 140.287 131.821 171.688 124.001 198.765 130.983 138.512 148.751" style="fill:none;stroke:red;stroke-width:0.25px"/><polygon points="142.111 153.518 206.311 134.591 209.512 157.872 203.904 159.057 142.111 153.518" style="fill:none;stroke:red;stroke-width:0.25px"/><polygon points="142.912 70.186 195.744 70.186 170.892 84.602 163.02 85.04 149.703 81.509 142.912 70.186" style="fill:none;stroke:red;stroke-width:0.25px"/><polygon points="167.6 89.962 172.436 89.704 229.533 102.022 234.019 115.665 209.464 128.059 175.986 119.415 167.6 89.962" style="fill:none;stroke:red;stroke-width:0.25px"/><polygon points="176.897 186.68 177.225 186.499 218.902 192.182 215.078 199.024 187.033 199.024 176.897 186.68" style="fill:none;stroke:red;stroke-width:0.25px"/><polygon points="181.266 86.071 208.656 70.186 231.782 70.186 236.518 92.089 231.589 96.946 181.266 86.071" style="fill:none;stroke:red;stroke-width:0.25px"/><polygon points="183.602 182.069 207.408 163.85 212.642 162.743 228.667 180.02 222.244 187.339 183.602 182.069" style="fill:none;stroke:red;stroke-width:0.25px"/><polygon points="215.305 132.106 240.256 119.518 253.946 121.94 259.156 141.6 243.994 154.059 218.717 156.893 215.305 132.106" style="fill:none;stroke:red;stroke-width:0.25px"/><polygon points="222.221 161.764 246.75 159.02 286.07 163.618 286.07 177.27 259.344 180.639 237.055 177.739 222.221 161.764" style="fill:none;stroke:red;stroke-width:0.25px"/><polygon points="224.856 199.024 229.184 191.28 236.448 182.969 254.764 185.354 255.633 199.024 224.856 199.024" style="fill:none;stroke:red;stroke-width:0.25px"/><polygon points="238.574 100.592 244.508 94.755 258.455 92.333 286.07 97.719 286.07 114.839 259.576 117.403 258.853 117.403 243.199 114.635 238.574 100.592" style="fill:none;stroke:red;stroke-width:0.25px"/><polygon points="241.201 70.186 267.127 70.186 277.589 76.807 256.213 87.321 245.326 89.202 241.201 70.186" style="fill:none;stroke:red;stroke-width:0.25px"/><polygon points="254.531 154.639 265.441 145.671 286.07 152.475 286.07 158.333 254.531 154.639" style="fill:none;stroke:red;stroke-width:0.25px"/><polygon points="264.132 185.329 286.069 182.561 286.07 199.022 265.002 199.022 264.132 185.329" style="fill:none;stroke:red;stroke-width:0.25px"/><polygon points="265.254 128.987 286.07 146.12 286.07 146.454 268.338 140.622 265.254 128.987" style="fill:none;stroke:red;stroke-width:0.25px"/><polygon points="267.566 88.635 285.813 79.655 286.07 79.659 286.07 92.243 267.566 88.635" style="fill:none;stroke:red;stroke-width:0.25px"/><polygon points="267.824 121.837 286.07 120.067 286.07 136.874 267.824 121.837" style="fill:none;stroke:red;stroke-width:0.25px"/><polygon points="279.506 70.186 286.069 70.186 286.069 74.339 279.506 70.186" style="fill:none;stroke:red;stroke-width:0.25px"/><polygon points="328.071 68.4 338.104 68.4 334.588 73.412 330.454 73.863 328.071 73.244 328.071 68.4" style="fill:none;stroke:red;stroke-width:0.25px"/><polygon points="328.071 93.72 330.803 92.855 337.182 96.564 328.071 105.277 328.071 93.72" style="fill:none;stroke:red;stroke-width:0.25px"/><polygon points="328.071 115.478 357.999 127.859 356.922 134.855 353.7 138.334 328.071 147.734 328.071 115.478" style="fill:none;stroke:red;stroke-width:0.25px"/><polygon points="328.071 153.945 356.548 143.5 363.954 147.945 382.785 175.619 378.02 177.99 328.071 185.412 328.071 153.945" style="fill:none;stroke:red;stroke-width:0.25px"/><polygon points="328.071 190.746 378.276 183.285 393.718 196.066 394.397 197.24 328.071 197.24 328.071 190.746" style="fill:none;stroke:red;stroke-width:0.25px"/><polygon points="332.86 111.021 345.825 98.613 373.557 97.119 380.613 99.025 381.687 99.502 384.022 108.224 362.063 123.105 332.86 111.021" style="fill:none;stroke:red;stroke-width:0.25px"/><polygon points="334.821 78.642 338.022 78.295 351.876 79.726 366.382 92.326 344.798 93.484 336.175 88.486 334.821 78.642" style="fill:none;stroke:red;stroke-width:0.25px"/><polygon points="344.424 73.695 348.139 68.4 363.159 68.4 353.02 74.585 344.424 73.695" style="fill:none;stroke:red;stroke-width:0.25px"/><polygon points="360.568 77.663 375.756 68.4 376.46 68.4 378.183 92.636 377.646 92.494 360.568 77.663" style="fill:none;stroke:red;stroke-width:0.25px"/><polygon points="362.903 139.713 364.141 138.384 431.378 143.5 431.146 145.136 397.573 151.681 370.8 144.467 362.903 139.713" style="fill:none;stroke:red;stroke-width:0.25px"/><polygon points="366.526 133.373 367.389 127.654 390.472 112 442.475 122.435 443.714 129.406 433.948 138.502 366.526 133.373" style="fill:none;stroke:red;stroke-width:0.25px"/><polygon points="376.501 151.746 392.878 156.164 395.424 172.218 391.033 173.082 376.501 151.746" style="fill:none;stroke:red;stroke-width:0.25px"/><polygon points="385.823 68.413 407.69 81.039 401.732 86.927 387.622 93.886 385.823 68.413" style="fill:none;stroke:red;stroke-width:0.25px"/><polygon points="386.428 180.748 390.727 178.609 401.242 176.535 444.204 175.916 445.163 176.392 399.397 191.492 386.428 180.748" style="fill:none;stroke:red;stroke-width:0.25px"/><polygon points="391.033 99.115 406.265 91.592 442.125 100.65 441.751 116.804 393.158 107.066 391.033 99.115" style="fill:none;stroke:red;stroke-width:0.25px"/><polygon points="398.719 68.4 442.129 68.4 414.277 77.367 398.719 68.4" style="fill:none;stroke:red;stroke-width:0.25px"/><polygon points="402.269 156.242 432.126 150.431 440.211 170.814 404.675 171.33 402.269 156.242" style="fill:none;stroke:red;stroke-width:0.25px"/><polygon points="403.578 196.131 446.517 181.97 448.131 197.238 404.219 197.238 403.578 196.131" style="fill:none;stroke:red;stroke-width:0.25px"/><polygon points="411.989 87.365 416.917 82.509 455.022 70.23 459.905 76.323 444.486 95.572 411.989 87.365" style="fill:none;stroke:red;stroke-width:0.25px"/><polygon points="440.255 146.849 440.958 142.095 450.42 133.285 479.995 140.511 495.883 153.627 464.389 170.828 452.055 172.875 450.21 171.949 440.255 146.849" style="fill:none;stroke:red;stroke-width:0.25px"/><polygon points="451.096 116.843 451.495 99.566 466.937 80.33 487.403 88.758 482.379 108.533 451.096 116.843" style="fill:none;stroke:red;stroke-width:0.25px"/><polygon points="451.844 122.371 486.772 113.082 511.535 118.879 514.548 121.353 482.401 135.461 452.895 128.246 451.844 122.371" style="fill:none;stroke:red;stroke-width:0.25px"/><polygon points="455.443 177.681 466.563 175.826 533.122 191.531 539.384 197.24 457.506 197.24 455.443 177.681" style="fill:none;stroke:red;stroke-width:0.25px"/><polygon points="463.779 68.4 561.694 68.4 561.694 73.287 521.067 83.978 493.803 84.968 468.806 74.662 463.779 68.4" style="fill:none;stroke:red;stroke-width:0.25px"/><polygon points="475.09 172.23 503.777 156.578 506.49 156.629 526.229 161.576 530.858 185.384 475.09 172.23" style="fill:none;stroke:red;stroke-width:0.25px"/><polygon points="489.364 138.99 521.325 124.961 525.973 126.326 504.644 151.437 504.458 151.425 489.364 138.99" style="fill:none;stroke:red;stroke-width:0.25px"/><polygon points="491.77 108.662 496.491 90.045 517.329 89.285 515.391 108.765 512.049 113.404 491.77 108.662" style="fill:none;stroke:red;stroke-width:0.25px"/><polygon points="513.801 152.802 534.899 127.963 538.893 128.195 561.694 138.4 561.694 146.672 530.318 156.937 513.801 152.802" style="fill:none;stroke:red;stroke-width:0.25px"/><polygon points="519.901 116.509 523.708 111.199 556.252 102.607 537.981 122.965 533.426 122.705 524.034 119.935 519.901 116.509" style="fill:none;stroke:red;stroke-width:0.25px"/><polygon points="525.108 105.119 526.79 88.189 561.694 79.006 561.694 95.47 525.108 105.119" style="fill:none;stroke:red;stroke-width:0.25px"/><polygon points="535.575 161.203 561.694 152.668 561.694 165.064 544.428 191.867 540.878 188.633 535.575 161.203" style="fill:none;stroke:red;stroke-width:0.25px"/><polygon points="546.58 125.011 561.694 108.152 561.694 131.769 546.58 125.011" style="fill:none;stroke:red;stroke-width:0.25px"/><polygon points="604.48 82.122 610.251 74.426 619.058 91.239 604.48 93.831 604.48 82.122" style="fill:none;stroke:red;stroke-width:0.25px"/><polygon points="604.48 106.307 608.241 112.55 604.48 115.421 604.48 106.307" style="fill:none;stroke:red;stroke-width:0.25px"/><polygon points="604.48 124.221 615.204 116.028 651.183 122.598 604.48 137.997 604.48 124.221" style="fill:none;stroke:red;stroke-width:0.25px"/><polygon points="604.48 144.018 657.116 126.669 654.032 133.884 632.306 160.155 604.48 147.469 604.48 144.018" style="fill:none;stroke:red;stroke-width:0.25px"/><polygon points="604.48 154.139 630.646 166.069 630.974 166.3 619.433 187.223 604.48 193.889 604.48 154.139" style="fill:none;stroke:red;stroke-width:0.25px"/><polygon points="607.868 199.024 624.456 191.63 665.382 199.024 607.868 199.024" style="fill:none;stroke:red;stroke-width:0.25px"/><polygon points="609.526 98.337 625.554 95.479 626.511 95.464 638.239 96.573 660.972 111.118 657.817 118.385 617.12 110.952 609.526 98.337" style="fill:none;stroke:red;stroke-width:0.25px"/><polygon points="617.753 70.186 627.245 70.186 624.386 82.839 617.753 70.186" style="fill:none;stroke:red;stroke-width:0.25px"/><polygon points="629.269 187.081 639.663 168.245 665.29 167.512 684.964 168.426 695.058 175.036 685.407 197.233 629.269 187.081" style="fill:none;stroke:red;stroke-width:0.25px"/><polygon points="632.001 90.762 636.651 70.186 653.679 70.186 650.271 79.217 638.216 91.342 632.001 90.762" style="fill:none;stroke:red;stroke-width:0.25px"/><polygon points="640.179 163.065 655.901 144.063 660.036 162.501 640.179 163.065" style="fill:none;stroke:red;stroke-width:0.25px"/><polygon points="646.37 93.854 656.368 83.766 693.608 97.077 666.905 106.997 646.37 93.854" style="fill:none;stroke:red;stroke-width:0.25px"/><polygon points="659.942 78.895 663.23 70.186 736.183 70.186 735.054 79.089 702.087 93.969 659.942 78.895" style="fill:none;stroke:red;stroke-width:0.25px"/><polygon points="663.237 134.876 666.134 128.087 693.491 139.141 693.538 140.186 683.679 163.208 669.429 162.551 663.237 134.876" style="fill:none;stroke:red;stroke-width:0.25px"/><polygon points="666.04 121.528 670.177 112.009 700.546 100.721 713.934 130.057 698.468 134.76 666.507 121.864 666.04 121.528" style="fill:none;stroke:red;stroke-width:0.25px"/><polygon points="692.394 165.282 701.317 144.487 741.991 157.966 742.366 158.389 725.358 170.473 702.159 171.675 692.394 165.282" style="fill:none;stroke:red;stroke-width:0.25px"/><polygon points="694.23 199.024 703.911 176.76 726.198 175.602 737.903 181.337 754.163 193.522 756.538 199.024 694.23 199.024" style="fill:none;stroke:red;stroke-width:0.25px"/><polygon points="703.351 139.167 720.942 133.819 738.091 132.157 740.357 151.419 703.351 139.167" style="fill:none;stroke:red;stroke-width:0.25px"/><polygon points="708.771 97.63 738.067 84.399 752.925 122.161 740.659 126.682 722.835 128.409 708.771 97.63" style="fill:none;stroke:red;stroke-width:0.25px"/><polygon points="734.189 172.614 750.308 161.159 756.009 160.839 782.339 166.7 742.226 176.544 734.189 172.614" style="fill:none;stroke:red;stroke-width:0.25px"/><polygon points="744.351 79.747 745.566 70.186 838.105 70.186 838.105 78.532 820.163 95.85 745.776 80.907 745.566 80.854 744.351 79.747" style="fill:none;stroke:red;stroke-width:0.25px"/><polygon points="747.273 130.444 758.673 126.245 770.704 129.026 776.872 133.317 753.79 155.788 750.612 155.967 750.239 155.516 747.273 130.444" style="fill:none;stroke:red;stroke-width:0.25px"/><polygon points="748.581 180.628 781.591 172.536 758.673 188.19 748.581 180.628" style="fill:none;stroke:red;stroke-width:0.25px"/><polygon points="749.468 89.126 798.155 111.223 772.714 123.913 762.2 121.479 749.468 89.126" style="fill:none;stroke:red;stroke-width:0.25px"/><polygon points="763.368 156.921 783.81 137.016 830.442 161.522 829.648 161.882 796.286 164.2 795.608 164.11 763.368 156.921" style="fill:none;stroke:red;stroke-width:0.25px"/><polygon points="763.603 193.059 798.46 169.239 824.694 167.409 811.355 188.305 799.786 199.024 766.177 199.024 763.603 193.059" style="fill:none;stroke:red;stroke-width:0.25px"/><polygon points="767.972 90.852 817.476 100.798 817.103 106.171 806.239 108.233 767.972 90.852" style="fill:none;stroke:red;stroke-width:0.25px"/><polygon points="780.026 127.21 807.71 113.399 820.302 111.003 830.909 117.266 784.956 130.663 780.026 127.21" style="fill:none;stroke:red;stroke-width:0.25px"/><polygon points="792.292 134.348 838.105 120.997 838.105 158.434 792.292 134.348" style="fill:none;stroke:red;stroke-width:0.25px"/><polygon points="810.655 199.024 817.079 193.071 832.657 199.024 810.655 199.024" style="fill:none;stroke:red;stroke-width:0.25px"/><polygon points="821.214 188.395 835.583 165.876 838.105 164.723 838.105 194.844 821.214 188.395" style="fill:none;stroke:red;stroke-width:0.25px"/><polygon points="826.401 107.048 826.89 99.755 838.105 88.93 838.105 113.958 826.401 107.048" style="fill:none;stroke:red;stroke-width:0.25px"/><polygon points="897.896 78.721 939.339 95.321 897.896 124.93 897.896 78.721" style="fill:none;stroke:red;stroke-width:0.25px"/><polygon points="897.896 134.809 916.609 142.671 897.896 160.911 897.896 134.809" style="fill:none;stroke:red;stroke-width:0.25px"/><polygon points="897.896 174.62 930.695 173.706 906.865 188.471 902.589 189.155 897.896 187.26 897.896 174.62" style="fill:none;stroke:red;stroke-width:0.25px"/><polygon points="899.787 73.096 956.162 70.184 987.773 70.184 977.769 90.76 972.584 93.221 947.634 92.266 899.787 73.096" style="fill:none;stroke:red;stroke-width:0.25px"/><polygon points="899.927 169.403 924.761 145.196 927.378 145.749 934.433 168.425 899.927 169.403" style="fill:none;stroke:red;stroke-width:0.25px"/><polygon points="902.31 130.184 948.123 97.46 970.271 98.309 977.677 118.846 954.502 137.426 931.746 141.149 924.949 139.706 902.31 130.184" style="fill:none;stroke:red;stroke-width:0.25px"/><polygon points="905.216 199.024 905.464 198.161 907.152 199.024 905.216 199.024" style="fill:none;stroke:red;stroke-width:0.25px"/><polygon points="909.855 193.368 909.904 193.354 937.119 194.823 935.828 199.022 920.921 199.022 909.855 193.368" style="fill:none;stroke:red;stroke-width:0.25px"/><polygon points="919.039 188.665 941.582 174.698 955.693 179.671 940.554 189.837 919.039 188.665" style="fill:none;stroke:red;stroke-width:0.25px"/><polygon points="936.839 145.698 955.904 142.579 974.849 154.303 982.49 172.251 971.648 176.592 964.103 176.489 944.246 169.493 936.839 145.698" style="fill:none;stroke:red;stroke-width:0.25px"/><polygon points="945.296 199.024 946.957 193.637 964.804 181.655 969.476 181.719 977.613 199.024 945.296 199.024" style="fill:none;stroke:red;stroke-width:0.25px"/><polygon points="963.332 139.436 983.845 122.981 1000.574 129.282 993.56 145.132 980.013 149.768 963.332 139.436" style="fill:none;stroke:red;stroke-width:0.25px"/><polygon points="978.449 180.253 989.406 175.858 1006.974 175.266 1022.089 179.13 1031.113 199.022 987.275 199.022 978.449 180.253" style="fill:none;stroke:red;stroke-width:0.25px"/><polygon points="979.265 96.854 983.308 94.934 1033.607 99.546 1045.429 106.671 1045.523 106.917 1023.586 119.438 1005.291 124.825 986.836 117.88 979.265 96.854" style="fill:none;stroke:red;stroke-width:0.25px"/><polygon points="984.474 154.303 997.863 149.717 1013.703 154.202 1004.357 170.176 991.39 170.628 984.474 154.303" style="fill:none;stroke:red;stroke-width:0.25px"/><polygon points="987.748 90.128 997.441 70.184 1066.986 70.184 1033.959 94.354 987.748 90.128" style="fill:none;stroke:red;stroke-width:0.25px"/><polygon points="1003.048 145.401 1008.515 133.018 1010.455 133.882 1022.603 147.114 1018.304 149.717 1003.048 145.401" style="fill:none;stroke:red;stroke-width:0.25px"/><polygon points="1013.002 128.382 1026.552 124.387 1038.046 127.387 1035.875 129.038 1015.687 129.565 1013.002 128.382" style="fill:none;stroke:red;stroke-width:0.25px"/><polygon points="1013.515 171.272 1023.49 154.227 1030.171 150.155 1045.451 150.542 1072.107 158.118 1055.92 166.917 1026.084 174.479 1013.515 171.272" style="fill:none;stroke:red;stroke-width:0.25px"/><polygon points="1021.529 134.579 1036.269 134.19 1041.154 137.335 1041.785 145.286 1031.13 145.014 1021.529 134.579" style="fill:none;stroke:red;stroke-width:0.25px"/><polygon points="1031.552 178.757 1055.777 172.626 1071.683 199.024 1040.75 199.024 1031.552 178.757" style="fill:none;stroke:red;stroke-width:0.25px"/><polygon points="1034.355 120.716 1049.82 111.889 1058.045 119.169 1044.892 123.46 1034.355 120.716" style="fill:none;stroke:red;stroke-width:0.25px"/><polygon points="1042.064 96.983 1078.687 70.184 1114.664 70.184 1088.019 94.716 1051.06 102.421 1042.064 96.983" style="fill:none;stroke:red;stroke-width:0.25px"/><polygon points="1044.259 131.421 1048.324 128.329 1058.418 125.03 1057.484 128.573 1046.527 132.864 1044.259 131.421" style="fill:none;stroke:red;stroke-width:0.25px"/><polygon points="1050.546 137.62 1059.259 134.204 1068.767 151.352 1051.246 146.38 1050.546 137.62" style="fill:none;stroke:red;stroke-width:0.25px"/><polygon points="1055.359 107.032 1087.55 100.321 1093.392 119.413 1067.318 117.622 1055.359 107.032" style="fill:none;stroke:red;stroke-width:0.25px"/><polygon points="1063.931 169.776 1081.267 160.346 1085.916 160.243 1106.847 182.675 1087.617 199.024 1081.546 199.024 1063.931 169.776" style="fill:none;stroke:red;stroke-width:0.25px"/><polygon points="1066.595 129.862 1068.441 122.88 1097.295 124.862 1099.677 125.764 1089.677 153.555 1086.802 155.065 1080.964 155.194 1080.519 154.973 1066.595 129.862" style="fill:none;stroke:red;stroke-width:0.25px"/><polygon points="1094.49 158.13 1095.986 157.344 1127.035 155.811 1127.035 180.858 1115.212 180.368 1094.49 158.13" style="fill:none;stroke:red;stroke-width:0.25px"/><polygon points="1096.101 97.331 1125.589 70.184 1131.519 70.184 1131.519 113.899 1128.271 118.036 1105.634 121.784 1103.296 120.895 1096.101 97.331" style="fill:none;stroke:red;stroke-width:0.25px"/><polygon points="1098.763 199.024 1114.675 185.495 1126.378 185.997 1122.994 199.024 1098.763 199.024" style="fill:none;stroke:red;stroke-width:0.25px"/><polygon points="1099.769 151.985 1108.88 126.653 1127.035 123.639 1127.035 150.645 1099.769 151.985" style="fill:none;stroke:red;stroke-width:0.25px"/><polygon points="1188.414 199 1181.928 186.584 1181.928 143.937 1205.287 170.062 1208.805 177.689 1208.637 178.488 1188.473 199 1188.414 199" style="fill:none;stroke:red;stroke-width:0.25px"/><polygon points="1195.703 199 1211.961 182.457 1250.43 186.851 1252.602 199 1195.703 199" style="fill:none;stroke:red;stroke-width:0.25px"/><polygon points="1257.839 199 1255.403 185.369 1260.003 180.691 1280.541 195.675 1279.02 199 1257.839 199" style="fill:none;stroke:red;stroke-width:0.25px"/><polygon points="1284.691 199 1285.744 196.693 1292.431 193.175 1295.971 199 1284.691 199" style="fill:none;stroke:red;stroke-width:0.25px"/><polygon points="1302.002 199 1296.22 189.492 1299.194 181.336 1310.766 179.361 1310.766 192.275 1302.809 199 1302.002 199" style="fill:none;stroke:red;stroke-width:0.25px"/><polygon points="1283.994 191.799 1263.016 176.492 1267.527 167.511 1286.57 172.576 1294.287 179.763 1291.285 187.959 1283.994 191.799" style="fill:none;stroke:red;stroke-width:0.25px"/><polygon points="1251.679 181.8 1214.409 177.549 1226.351 157.361 1231.839 153.545 1262.515 159.73 1263.456 164.136 1257.607 175.783 1251.679 181.8" style="fill:none;stroke:red;stroke-width:0.25px"/><polygon points="1298.101 176.299 1291.118 169.793 1298.603 157.23 1310.765 157.498 1310.765 174.136 1298.101 176.299" style="fill:none;stroke:red;stroke-width:0.25px"/><polygon points="1211.793 171.842 1209.912 167.744 1204.796 149.177 1213.082 142.17 1221.403 155.593 1211.793 171.842" style="fill:none;stroke:red;stroke-width:0.25px"/><polygon points="1286.621 167.267 1268.365 162.41 1267.348 157.642 1268.673 153.16 1276.352 138.742 1285.899 139.863 1294.182 154.578 1286.621 167.267" style="fill:none;stroke:red;stroke-width:0.25px"/><polygon points="1202.08 158.752 1181.928 136.201 1181.928 135.398 1192.623 135.65 1199.462 149.217 1202.08 158.752" style="fill:none;stroke:red;stroke-width:0.25px"/><polygon points="1262.888 154.55 1234.405 148.804 1236.827 138.859 1240.96 135.496 1263.314 153.095 1262.888 154.55" style="fill:none;stroke:red;stroke-width:0.25px"/><polygon points="1308.896 152.297 1298.681 152.078 1291.258 138.884 1301.452 135.353 1308.896 152.297" style="fill:none;stroke:red;stroke-width:0.25px"/><polygon points="1225.179 151.91 1215.993 137.08 1212.167 127.701 1220.761 128.256 1231.671 138.265 1229.005 149.242 1225.179 151.91" style="fill:none;stroke:red;stroke-width:0.25px"/><polygon points="1265.453 148.224 1244.194 131.488 1247.723 124.584 1269.846 129.183 1272.1 135.74 1265.453 148.224" style="fill:none;stroke:red;stroke-width:0.25px"/><polygon points="1202.711 144.193 1197.764 134.375 1207.58 130.058 1210.606 137.506 1202.711 144.193" style="fill:none;stroke:red;stroke-width:0.25px"/><polygon points="1310.765 143.758 1305.881 132.648 1310.765 127.32 1310.765 143.758" style="fill:none;stroke:red;stroke-width:0.25px"/><polygon points="1287.226 134.826 1276.804 133.601 1274.497 126.851 1278.297 112.357 1279.122 111.57 1293.925 111.377 1309.013 121.595 1301.386 129.929 1287.226 134.826" style="fill:none;stroke:red;stroke-width:0.25px"/><polygon points="1234.634 134.002 1225.616 125.73 1235.151 116.879 1240.239 115.912 1243.421 121.697 1238.886 130.549 1234.634 134.002" style="fill:none;stroke:red;stroke-width:0.25px"/><polygon points="1193.716 130.523 1181.927 130.238 1181.927 112.398 1201.834 105.271 1207.181 124.595 1193.716 130.523" style="fill:none;stroke:red;stroke-width:0.25px"/><polygon points="1269.937 123.925 1248.006 119.379 1244.324 112.666 1247.712 97.605 1273.003 112.24 1269.937 123.925" style="fill:none;stroke:red;stroke-width:0.25px"/><polygon points="1220.877 123.076 1216.147 122.779 1224.985 112.717 1229.496 115.088 1220.877 123.076" style="fill:none;stroke:red;stroke-width:0.25px"/><polygon points="1211.38 120.41 1206.343 102.191 1208.985 97.14 1214.267 97.888 1221.211 109.226 1211.38 120.41" style="fill:none;stroke:red;stroke-width:0.25px"/><polygon points="1310.765 116.547 1297.919 107.847 1310.765 77.886 1310.765 116.547" style="fill:none;stroke:red;stroke-width:0.25px"/><polygon points="1234.339 111.802 1226.222 107.55 1219.899 97.205 1240.214 92.504 1240.227 92.504 1241.694 92.967 1243.151 94.422 1239.453 110.836 1234.339 111.802" style="fill:none;stroke:red;stroke-width:0.25px"/><polygon points="1275.619 107.808 1251.242 93.703 1278.645 79.375 1275.631 107.795 1275.619 107.808" style="fill:none;stroke:red;stroke-width:0.25px"/><polygon points="1182.573 106.713 1195.384 70.162 1195.48 70.162 1204.72 94.177 1201.769 99.834 1182.573 106.713" style="fill:none;stroke:red;stroke-width:0.25px"/><polygon points="1280.964 106.392 1284.211 75.689 1287.483 70.164 1308.464 70.164 1292.998 106.236 1280.964 106.392" style="fill:none;stroke:red;stroke-width:0.25px"/><polygon points="1181.928 92.941 1181.928 70.162 1189.92 70.162 1181.928 92.941" style="fill:none;stroke:red;stroke-width:0.25px"/><polygon points="1215.722 92.888 1209.411 92 1201.005 70.162 1222.726 70.162 1235.859 88.213 1215.722 92.888" style="fill:none;stroke:red;stroke-width:0.25px"/><polygon points="1246.423 90.402 1246.024 90.004 1251.86 71.656 1253.061 70.162 1281.502 70.162 1279.868 72.92 1246.423 90.402" style="fill:none;stroke:red;stroke-width:0.25px"/><polygon points="1242.648 83.574 1241.347 73.011 1246.011 73.011 1242.648 83.574" style="fill:none;stroke:red;stroke-width:0.25px"/><polygon points="1237.16 81.217 1229.119 70.162 1234.695 70.162 1235.973 71.554 1237.16 81.217" style="fill:none;stroke:red;stroke-width:0.25px"/><rect x="32" y="51.5027" width="266.6393" height="166.2051" style="fill:none;stroke:blue;stroke-width:0.25px"/><rect x="306.5016" y="49.7185" width="266.7617" height="166.2022" style="fill:none;stroke:blue;stroke-width:0.25px"/><rect x="583.9108" y="51.5027" width="266.7627" height="166.2051" style="fill:none;stroke:blue;stroke-width:0.25px"/><rect x="877.3262" y="51.4783" width="266.7622" height="166.2275" style="fill:none;stroke:blue;stroke-width:0.25px"/><rect x="1163.2457" y="51.4783" width="166.2041" height="166.2041" style="fill:none;stroke:blue;stroke-width:0.25px"/></svg>