<svg style="fill:none;stroke:#ff0000;stroke-linejoin:round;stroke-width:0.1px;stroke-linecap:round;stroke-opacity:0.5" version="1.1" viewBox="0 0 226.8 566.9" x="0px" xmlns="http://www.w3.org/2000/svg" y="0px" xml:space="preserve"><metadata><laserassistant model="{&quot;attrib&quot;: {&quot;style&quot;: &quot;fill:none;stroke:#ff0000;stroke-linejoin:round;stroke-width:0.1px;stroke-linecap:round;stroke-opacity:0.5&quot;, &quot;version&quot;: &quot;1.1&quot;, &quot;viewBox&quot;: &quot;0 0 226.8 566.9&quot;, &quot;x&quot;: &quot;0px&quot;, &quot;xmlns&quot;: &quot;http://www.w3.org/2000/svg&quot;, &quot;y&quot;: &quot;0px&quot;, &quot;{http://www.w3.org/XML/1998/namespace}space&quot;: &quot;preserve&quot;}, &quot;edge_data&quot;: {&quot;edges&quot;: [{&quot;d&quot;: &quot;M 121.4 466.7 L 121.4 452.5&quot;, &quot;edge&quot;: 1, &quot;face&quot;: &quot;face1&quot;}, {&quot;d&quot;: &quot;M 121.4 452.5 L 107.9 452.5&quot;, &quot;edge&quot;: 2, &quot;face&quot;: &quot;face1&quot;}, {&quot;d&quot;: &quot;M 49.800000000000004 452.5 L 36.3 452.5&quot;, &quot;edge&quot;: 3, &quot;face&quot;: &quot;face1&quot;}, {&quot;d&quot;: &quot;M 36.3 452.5 L 36.3 466.7&quot;, &quot;edge&quot;: 4, &quot;face&quot;: &quot;face1&quot;}, {&quot;d&quot;: &quot;M 36.3 466.7 L 121.4 466.7&quot;, &quot;edge&quot;: 5, &quot;face&quot;: &quot;face1&quot;}, {&quot;d&quot;: &quot;M 182.2 194.0 L 162.4 194.0&quot;, &quot;edge&quot;: 6, &quot;face&quot;: &quot;face2&quot;}, {&quot;d&quot;: &quot;M 162.4 194.0 L 162.4 143.0&quot;, &quot;edge&quot;: 7, &quot;face&quot;: &quot;face2&quot;}, {&quot;d&quot;: &quot;M 162.4 143.0 L 139.7 143.0&quot;, &quot;edge&quot;: 8, &quot;face&quot;: &quot;face2&quot;}, {&quot;d&quot;: &quot;M 139.7 143.0 L 139.7 194.0&quot;, &quot;edge&quot;: 9, &quot;face&quot;: &quot;face2&quot;}, {&quot;d&quot;: &quot;M 139.7 194.0 L 105.7 194.0&quot;, &quot;edge&quot;: 10, &quot;face&quot;: &quot;face2&quot;}, {&quot;d&quot;: &quot;M 105.7 194.0 L 105.7 123.1&quot;, &quot;edge&quot;: 11, &quot;face&quot;: &quot;face2&quot;}, {&quot;d&quot;: &quot;M 105.7 123.1 L 182.2 123.1&quot;, &quot;edge&quot;: 12, &quot;face&quot;: &quot;face2&quot;}, {&quot;d&quot;: &quot;M 182.2 123.1 L 182.2 194.0&quot;, &quot;edge&quot;: 13, &quot;face&quot;: &quot;face2&quot;}, {&quot;d&quot;: &quot;M 134.1 308.9 L 26.400000000000006 308.9&quot;, &quot;edge&quot;: 14, &quot;face&quot;: &quot;face3&quot;}, {&quot;d&quot;: &quot;M 26.4 308.9 L 26.4 238.0&quot;, &quot;edge&quot;: 15, &quot;face&quot;: &quot;face3&quot;}, {&quot;d&quot;: &quot;M 26.4 238.0 L 80.2 209.7&quot;, &quot;edge&quot;: 16, &quot;face&quot;: &quot;face3&quot;}, {&quot;d&quot;: &quot;M 80.2 209.7 L 134.1 238.0&quot;, &quot;edge&quot;: 17, &quot;face&quot;: &quot;face3&quot;}, {&quot;d&quot;: &quot;M 134.1 238.0 L 134.1 308.9&quot;, &quot;edge&quot;: 18, &quot;face&quot;: &quot;face3&quot;}, {&quot;d&quot;: &quot;M 134.1 418.5 L 26.400000000000006 418.5&quot;, &quot;edge&quot;: 19, &quot;face&quot;: &quot;face4&quot;}, {&quot;d&quot;: &quot;M 26.4 418.5 L 26.4 347.7&quot;, &quot;edge&quot;: 20, &quot;face&quot;: &quot;face4&quot;}, {&quot;d&quot;: &quot;M 26.4 347.7 L 80.2 319.3&quot;, &quot;edge&quot;: 21, &quot;face&quot;: &quot;face4&quot;}, {&quot;d&quot;: &quot;M 80.2 319.3 L 134.1 347.7&quot;, &quot;edge&quot;: 22, &quot;face&quot;: &quot;face4&quot;}, {&quot;d&quot;: &quot;M 134.1 347.7 L 134.1 418.5&quot;, &quot;edge&quot;: 23, &quot;face&quot;: &quot;face4&quot;}, {&quot;d&quot;: &quot;M 21.4 124.5 L 97.9 124.5&quot;, &quot;edge&quot;: 24, &quot;face&quot;: &quot;face5&quot;}, {&quot;d&quot;: &quot;M 97.9 124.5 L 97.9 195.4&quot;, &quot;edge&quot;: 25, &quot;face&quot;: &quot;face5&quot;}, {&quot;d&quot;: &quot;M 97.9 195.4 L 21.400000000000006 195.4&quot;, &quot;edge&quot;: 26, &quot;face&quot;: &quot;face5&quot;}, {&quot;d&quot;: &quot;M 21.4 195.4 L 21.4 124.5&quot;, &quot;edge&quot;: 27, &quot;face&quot;: &quot;face5&quot;}, {&quot;d&quot;: &quot;M 20.0 20.0 L 99.4 20.0&quot;, &quot;edge&quot;: 28, &quot;face&quot;: &quot;face6&quot;}, {&quot;d&quot;: &quot;M 99.4 20.0 L 99.4 113.5&quot;, &quot;edge&quot;: 29, &quot;face&quot;: &quot;face6&quot;}, {&quot;d&quot;: &quot;M 99.4 113.5 L 20.0 113.5&quot;, &quot;edge&quot;: 30, &quot;face&quot;: &quot;face6&quot;}, {&quot;d&quot;: &quot;M 20.0 113.5 L 20.0 20.0&quot;, &quot;edge&quot;: 31, &quot;face&quot;: &quot;face6&quot;}, {&quot;d&quot;: &quot;M 105.0 20.0 L 184.4 20.0&quot;, &quot;edge&quot;: 32, &quot;face&quot;: &quot;face7&quot;}, {&quot;d&quot;: &quot;M 184.4 20.0 L 184.4 113.5&quot;, &quot;edge&quot;: 33, &quot;face&quot;: &quot;face7&quot;}, {&quot;d&quot;: &quot;M 184.4 113.5 L 105.0 113.5&quot;, &quot;edge&quot;: 34, &quot;face&quot;: &quot;face7&quot;}, {&quot;d&quot;: &quot;M 105.0 113.5 L 105.0 20.0&quot;, &quot;edge&quot;: 35, &quot;face&quot;: &quot;face7&quot;}, {&quot;d&quot;: &quot;M 115.0 495.2 L 115.0 478.2&quot;, &quot;edge&quot;: 36, &quot;face&quot;: &quot;face8&quot;}, {&quot;d&quot;: &quot;M 115.0 478.2 L 115.0 478.2&quot;, &quot;edge&quot;: 37, &quot;face&quot;: &quot;face8&quot;}, {&quot;d&quot;: &quot;M 115.0 478.2 L 44.099999999999994 478.2&quot;, &quot;edge&quot;: 38, &quot;face&quot;: &quot;face8&quot;}, {&quot;d&quot;: &quot;M 44.1 478.2 L 44.1 478.2&quot;, &quot;edge&quot;: 39, &quot;face&quot;: &quot;face8&quot;}, {&quot;d&quot;: &quot;M 44.1 478.2 L 44.1 495.2&quot;, &quot;edge&quot;: 40, &quot;face&quot;: &quot;face8&quot;}, {&quot;d&quot;: &quot;M 44.1 495.2 L 44.1 495.2&quot;, &quot;edge&quot;: 41, &quot;face&quot;: &quot;face8&quot;}, {&quot;d&quot;: &quot;M 44.1 495.2 L 115.0 495.2&quot;, &quot;edge&quot;: 42, &quot;face&quot;: &quot;face8&quot;}], &quot;viewBox&quot;: &quot;0 0 226.8 566.9&quot;}, &quot;joint_index&quot;: 5, &quot;joints&quot;: {&quot;Joint1&quot;: {&quot;edge_a&quot;: {&quot;d&quot;: &quot;M 134.1 238.0 L 134.1 308.9&quot;, &quot;edge&quot;: 18, &quot;face&quot;: &quot;face3&quot;}, &quot;edge_b&quot;: {&quot;d&quot;: &quot;M 105.7 194.0 L 105.7 123.1&quot;, &quot;edge&quot;: 11, &quot;face&quot;: &quot;face2&quot;}, &quot;joint_parameters&quot;: {&quot;joint_type&quot;: &quot;Box&quot;, &quot;fit&quot;: &quot;Clearance&quot;, &quot;tabsize&quot;: 10, &quot;tabspace&quot;: 20, &quot;tabnum&quot;: 2, &quot;boltsize&quot;: &quot;M2.5&quot;, &quot;boltspace&quot;: 5, &quot;boltnum&quot;: 2, &quot;boltlength&quot;: 10}}, &quot;Joint2&quot;: {&quot;edge_a&quot;: {&quot;d&quot;: &quot;M 26.4 308.9 L 26.4 238.0&quot;, &quot;edge&quot;: 15, &quot;face&quot;: &quot;face3&quot;}, &quot;edge_b&quot;: {&quot;d&quot;: &quot;M 97.9 124.5 L 97.9 195.4&quot;, &quot;edge&quot;: 25, &quot;face&quot;: &quot;face5&quot;}, &quot;joint_parameters&quot;: {&quot;joint_type&quot;: &quot;Box&quot;, &quot;fit&quot;: &quot;Clearance&quot;, &quot;tabsize&quot;: 10, &quot;tabspace&quot;: 20, &quot;tabnum&quot;: 2, &quot;boltsize&quot;: &quot;M2.5&quot;, &quot;boltspace&quot;: 5, &quot;boltnum&quot;: 2, &quot;boltlength&quot;: 10}}, &quot;Joint3&quot;: {&quot;edge_a&quot;: {&quot;d&quot;: &quot;M 26.4 418.5 L 26.4 347.7&quot;, &quot;edge&quot;: 20, &quot;face&quot;: &quot;face4&quot;}, &quot;edge_b&quot;: {&quot;d&quot;: &quot;M 182.2 123.1 L 182.2 194.0&quot;, &quot;edge&quot;: 13, &quot;face&quot;: &quot;face2&quot;}, &quot;joint_parameters&quot;: {&quot;joint_type&quot;: &quot;Box&quot;, &quot;fit&quot;: &quot;Clearance&quot;, &quot;tabsize&quot;: 10, &quot;tabspace&quot;: 20, &quot;tabnum&quot;: 2, &quot;boltsize&quot;: &quot;M2.5&quot;, &quot;boltspace&quot;: 5, &quot;boltnum&quot;: 2, &quot;boltlength&quot;: 10}}, &quot;Joint4&quot;: {&quot;edge_a&quot;: {&quot;d&quot;: &quot;M 134.1 347.7 L 134.1 418.5&quot;, &quot;edge&quot;: 23, &quot;face&quot;: &quot;face4&quot;}, &quot;edge_b&quot;: {&quot;d&quot;: &quot;M 21.4 195.4 L 21.4 124.5&quot;, &quot;edge&quot;: 27, &quot;face&quot;: &quot;face5&quot;}, &quot;joint_parameters&quot;: {&quot;joint_type&quot;: &quot;Box&quot;, &quot;fit&quot;: &quot;Clearance&quot;, &quot;tabsize&quot;: 10, &quot;tabspace&quot;: 20, &quot;tabnum&quot;: 2, &quot;boltsize&quot;: &quot;M2.5&quot;, &quot;boltspace&quot;: 5, &quot;boltnum&quot;: 2, &quot;boltlength&quot;: 10}}}, &quot;tree&quot;: {&quot;face1&quot;: {&quot;Cuts&quot;: {&quot;paths&quot;: []}, &quot;Perimeter&quot;: {&quot;paths&quot;: [&quot;M 121.4,466.7 L 121.4,452.5 L 107.9,452.5 C 105.30000000000001,452.5 102.80000000000001,451.3 101.2,449.2 C 91.60000000000001,436.9 73.80000000000001,434.7 61.400000000000006,444.3 C 59.60000000000001,445.7 57.900000000000006,447.40000000000003 56.50000000000001,449.2 C 54.900000000000006,451.3 52.400000000000006,452.5 49.800000000000004,452.5 L 36.3,452.5 L 36.3,466.7 L 121.4,466.7&quot;]}}, &quot;face2&quot;: {&quot;Cuts&quot;: {&quot;paths&quot;: []}, &quot;Perimeter&quot;: {&quot;paths&quot;: [&quot;M 182.2,194.0 L 162.4,194.0 L 162.4,143.0 L 139.7,143.0 L 139.7,194.0 L 105.7,194.0 L 105.7,123.1 L 182.2,123.1 L 182.2,194.0&quot;]}}, &quot;face3&quot;: {&quot;Cuts&quot;: {&quot;paths&quot;: []}, &quot;Perimeter&quot;: {&quot;paths&quot;: [&quot;M 134.1,308.9 L 26.4,308.9 L 26.4,238.0 L 80.2,209.7 L 134.1,238.0 L 134.1,308.9&quot;]}}, &quot;face4&quot;: {&quot;Cuts&quot;: {&quot;paths&quot;: [&quot;M 44.8,363.2 L 115.7,363.2 L 115.7,397.2 L 44.8,397.2 L 44.8,363.2&quot;]}, &quot;Perimeter&quot;: {&quot;paths&quot;: [&quot;M 134.1,418.5 L 26.4,418.5 L 26.4,347.7 L 80.2,319.3 L 134.1,347.7 L 134.1,418.5&quot;]}}, &quot;face5&quot;: {&quot;Cuts&quot;: {&quot;paths&quot;: []}, &quot;Perimeter&quot;: {&quot;paths&quot;: [&quot;M 21.4,124.5 L 97.9,124.5 L 97.9,195.4 L 21.4,195.4 L 21.4,124.5&quot;]}}, &quot;face6&quot;: {&quot;Cuts&quot;: {&quot;paths&quot;: []}, &quot;Perimeter&quot;: {&quot;paths&quot;: [&quot;M 20.0,20.0 L 99.4,20.0 L 99.4,113.5 L 20.0,113.5 L 20.0,20.0&quot;]}}, &quot;face7&quot;: {&quot;Cuts&quot;: {&quot;paths&quot;: []}, &quot;Perimeter&quot;: {&quot;paths&quot;: [&quot;M 105.0,20.0 L 184.4,20.0 L 184.4,113.5 L 105.0,113.5 L 105.0,20.0&quot;]}}, &quot;face8&quot;: {&quot;Cuts&quot;: {&quot;paths&quot;: []}, &quot;Perimeter&quot;: {&quot;paths&quot;: [&quot;M 115.0,495.2 L 115.0,478.2 L 115.0,478.2 L 44.1,478.2 L 44.1,478.2 L 44.1,495.2 L 44.1,495.2 L 115.0,495.2&quot;]}}}}"></laserassistant></metadata><g data-name="face1" id="face1"><path d="M 101.927,449.643 L 102.215,449.937 L 102.495,450.196 L 102.798,450.45 L 103.111,450.687 L 103.437,450.91 L 103.781,451.121 L 104.113,451.304 L 104.464,451.476 L 104.823,451.631 L 105.2,451.772 L 105.562,451.889 L 105.95,451.994 L 106.336,452.079 L 106.712,452.143 L 107.115,452.192 L 107.497,452.22 L 107.907,452.23 L 121.4,452.23 L 121.423,452.231 L 121.446,452.234 L 121.469,452.239 L 121.491,452.246 L 121.513,452.255 L 121.533,452.265 L 121.553,452.278 L 121.572,452.292 L 121.589,452.307 L 121.605,452.324 L 121.619,452.342 L 121.632,452.362 L 121.643,452.382 L 121.652,452.403 L 121.66,452.425 L 121.665,452.448 L 121.668,452.471 L 121.67,452.5 L 121.67,466.7 L 121.669,466.723 L 121.666,466.746 L 121.661,466.769 L 121.654,466.791 L 121.645,466.813 L 121.635,466.833 L 121.622,466.853 L 121.608,466.872 L 121.593,466.889 L 121.576,466.905 L 121.558,466.919 L 121.538,466.932 L 121.518,466.943 L 121.497,466.952 L 121.475,466.96 L 121.452,466.965 L 121.429,466.968 L 121.4,466.97 L 36.3,466.97 L 36.277,466.969 L 36.254,466.966 L 36.231,466.961 L 36.209,466.954 L 36.187,466.945 L 36.167,466.935 L 36.147,466.922 L 36.128,466.908 L 36.111,466.893 L 36.095,466.876 L 36.081,466.858 L 36.068,466.838 L 36.057,466.818 L 36.048,466.797 L 36.04,466.775 L 36.035,466.752 L 36.032,466.729 L 36.03,466.7 L 36.03,452.5 L 36.031,452.477 L 36.034,452.454 L 36.039,452.431 L 36.046,452.409 L 36.055,452.387 L 36.065,452.367 L 36.078,452.347 L 36.092,452.328 L 36.107,452.311 L 36.124,452.295 L 36.142,452.281 L 36.162,452.268 L 36.182,452.257 L 36.203,452.248 L 36.225,452.24 L 36.248,452.235 L 36.271,452.232 L 36.3,452.23 L 49.793,452.23 L 50.202,452.22 L 50.584,452.192 L 50.987,452.143 L 51.363,452.079 L 51.749,451.994 L 52.137,451.889 L 52.499,451.772 L 52.876,451.631 L 53.235,451.476 L 53.586,451.304 L 53.918,451.121 L 54.262,450.91 L 54.588,450.687 L 54.901,450.45 L 55.204,450.196 L 55.484,449.937 L 55.772,449.643 L 56.029,449.355 L 56.289,449.031 L 56.511,448.749 L 56.513,448.746 L 56.741,448.465 L 56.743,448.462 L 56.976,448.182 L 56.979,448.179 L 57.217,447.902 L 57.219,447.9 L 57.46,447.625 L 57.462,447.622 L 57.708,447.349 L 57.711,447.346 L 57.961,447.077 L 57.963,447.075 L 58.217,446.808 L 58.22,446.806 L 58.477,446.542 L 58.479,446.539 L 58.739,446.279 L 58.742,446.277 L 59.006,446.02 L 59.008,446.017 L 59.275,445.763 L 59.277,445.761 L 59.546,445.511 L 59.549,445.508 L 59.822,445.262 L 59.825,445.26 L 60.1,445.019 L 60.102,445.017 L 60.379,444.779 L 60.382,444.776 L 60.662,444.543 L 60.665,444.541 L 60.946,444.313 L 60.949,444.311 L 61.233,444.088 L 61.243,444.08 L 63.244,442.662 L 63.263,442.649 L 65.342,441.425 L 65.362,441.415 L 67.507,440.385 L 67.528,440.376 L 69.726,439.537 L 69.747,439.53 L 71.988,438.882 L 72.009,438.876 L 74.28,438.416 L 74.302,438.413 L 76.592,438.141 L 76.614,438.139 L 78.909,438.052 L 78.931,438.052 L 81.222,438.15 L 81.243,438.152 L 83.516,438.432 L 83.537,438.436 L 85.781,438.897 L 85.803,438.902 L 88.006,439.544 L 88.026,439.551 L 90.176,440.37 L 90.196,440.378 L 92.281,441.374 L 92.301,441.385 L 94.309,442.557 L 94.328,442.569 L 96.247,443.914 L 96.265,443.928 L 98.084,445.446 L 98.101,445.461 L 99.808,447.15 L 99.824,447.167 L 101.406,449.025 L 101.67,449.355 Z"></path></g><g data-name="face2" id="face2"><path d="M 179.123,122.831 L 179.146,122.834 L 179.169,122.839 L 179.191,122.846 L 179.213,122.855 L 179.233,122.865 L 179.253,122.878 L 179.272,122.892 L 179.289,122.907 L 179.305,122.924 L 179.319,122.942 L 179.332,122.962 L 179.343,122.982 L 179.352,123.003 L 179.36,123.025 L 179.365,123.048 L 179.368,123.071 L 179.37,123.1 L 179.37,138.279 L 182.2,138.279 L 182.223,138.28 L 182.246,138.283 L 182.269,138.288 L 182.291,138.295 L 182.313,138.304 L 182.333,138.314 L 182.353,138.327 L 182.372,138.341 L 182.389,138.356 L 182.405,138.373 L 182.419,138.391 L 182.432,138.411 L 182.443,138.431 L 182.452,138.452 L 182.46,138.474 L 182.465,138.497 L 182.468,138.52 L 182.47,138.549 L 182.47,148.549 L 182.469,148.572 L 182.466,148.595 L 182.461,148.618 L 182.454,148.64 L 182.445,148.662 L 182.435,148.682 L 182.422,148.702 L 182.408,148.721 L 182.393,148.738 L 182.376,148.754 L 182.358,148.768 L 182.338,148.781 L 182.318,148.792 L 182.297,148.801 L 182.275,148.809 L 182.252,148.814 L 182.229,148.817 L 182.2,148.819 L 179.37,148.819 L 179.37,168.279 L 182.2,168.279 L 182.223,168.28 L 182.246,168.283 L 182.269,168.288 L 182.291,168.295 L 182.313,168.304 L 182.333,168.314 L 182.353,168.327 L 182.372,168.341 L 182.389,168.356 L 182.405,168.373 L 182.419,168.391 L 182.432,168.411 L 182.443,168.431 L 182.452,168.452 L 182.46,168.474 L 182.465,168.497 L 182.468,168.52 L 182.47,168.549 L 182.47,178.549 L 182.469,178.572 L 182.466,178.595 L 182.461,178.618 L 182.454,178.64 L 182.445,178.662 L 182.435,178.682 L 182.422,178.702 L 182.408,178.721 L 182.393,178.738 L 182.376,178.754 L 182.358,178.768 L 182.338,178.781 L 182.318,178.792 L 182.297,178.801 L 182.275,178.809 L 182.252,178.814 L 182.229,178.817 L 182.2,178.819 L 179.37,178.819 L 179.37,194.0 L 179.369,194.023 L 179.366,194.046 L 179.361,194.069 L 179.354,194.091 L 179.345,194.113 L 179.335,194.133 L 179.322,194.153 L 179.308,194.172 L 179.293,194.189 L 179.276,194.205 L 179.258,194.219 L 179.238,194.232 L 179.218,194.243 L 179.197,194.252 L 179.175,194.26 L 179.152,194.265 L 179.129,194.268 L 179.1,194.27 L 162.4,194.27 L 162.377,194.269 L 162.354,194.266 L 162.331,194.261 L 162.309,194.254 L 162.287,194.245 L 162.267,194.235 L 162.247,194.222 L 162.228,194.208 L 162.211,194.193 L 162.195,194.176 L 162.181,194.158 L 162.168,194.138 L 162.157,194.118 L 162.148,194.097 L 162.14,194.075 L 162.135,194.052 L 162.132,194.029 L 162.13,194.0 L 162.13,143.27 L 139.97,143.27 L 139.97,194.0 L 139.969,194.023 L 139.966,194.046 L 139.961,194.069 L 139.954,194.091 L 139.945,194.113 L 139.935,194.133 L 139.922,194.153 L 139.908,194.172 L 139.893,194.189 L 139.876,194.205 L 139.858,194.219 L 139.838,194.232 L 139.818,194.243 L 139.797,194.252 L 139.775,194.26 L 139.752,194.265 L 139.729,194.268 L 139.7,194.27 L 108.8,194.27 L 108.777,194.269 L 108.754,194.266 L 108.731,194.261 L 108.709,194.254 L 108.687,194.245 L 108.667,194.235 L 108.647,194.222 L 108.628,194.208 L 108.611,194.193 L 108.595,194.176 L 108.581,194.158 L 108.568,194.138 L 108.557,194.118 L 108.548,194.097 L 108.54,194.075 L 108.535,194.052 L 108.532,194.029 L 108.53,194.0 L 108.53,178.82 L 105.7,178.82 L 105.677,178.819 L 105.654,178.816 L 105.631,178.811 L 105.609,178.804 L 105.587,178.795 L 105.567,178.785 L 105.547,178.772 L 105.528,178.758 L 105.511,178.743 L 105.495,178.726 L 105.481,178.708 L 105.468,178.688 L 105.457,178.668 L 105.448,178.647 L 105.44,178.625 L 105.435,178.602 L 105.432,178.579 L 105.43,178.55 L 105.43,168.55 L 105.431,168.527 L 105.434,168.504 L 105.439,168.481 L 105.446,168.459 L 105.455,168.437 L 105.465,168.417 L 105.478,168.397 L 105.492,168.378 L 105.507,168.361 L 105.524,168.345 L 105.542,168.331 L 105.562,168.318 L 105.582,168.307 L 105.603,168.298 L 105.625,168.29 L 105.648,168.285 L 105.671,168.282 L 105.7,168.28 L 108.53,168.28 L 108.53,148.82 L 105.7,148.82 L 105.677,148.819 L 105.654,148.816 L 105.631,148.811 L 105.609,148.804 L 105.587,148.795 L 105.567,148.785 L 105.547,148.772 L 105.528,148.758 L 105.511,148.743 L 105.495,148.726 L 105.481,148.708 L 105.468,148.688 L 105.457,148.668 L 105.448,148.647 L 105.44,148.625 L 105.435,148.602 L 105.432,148.579 L 105.43,148.55 L 105.43,138.55 L 105.431,138.527 L 105.434,138.504 L 105.439,138.481 L 105.446,138.459 L 105.455,138.437 L 105.465,138.417 L 105.478,138.397 L 105.492,138.378 L 105.507,138.361 L 105.524,138.345 L 105.542,138.331 L 105.562,138.318 L 105.582,138.307 L 105.603,138.298 L 105.625,138.29 L 105.648,138.285 L 105.671,138.282 L 105.7,138.28 L 108.53,138.28 L 108.53,123.1 L 108.531,123.077 L 108.534,123.054 L 108.539,123.031 L 108.546,123.009 L 108.555,122.987 L 108.565,122.967 L 108.578,122.947 L 108.592,122.928 L 108.607,122.911 L 108.624,122.895 L 108.642,122.881 L 108.662,122.868 L 108.682,122.857 L 108.703,122.848 L 108.725,122.84 L 108.748,122.835 L 108.771,122.832 L 108.8,122.83 L 179.1,122.83 Z"></path></g><g data-name="face3" id="face3"><path d="M 80.232,209.432 L 80.255,209.436 L 80.277,209.441 L 80.299,209.449 L 80.326,209.461 L 134.226,237.761 L 134.246,237.773 L 134.265,237.786 L 134.282,237.801 L 134.299,237.817 L 134.314,237.835 L 134.327,237.854 L 134.339,237.874 L 134.349,237.895 L 134.357,237.917 L 134.363,237.939 L 134.367,237.962 L 134.37,237.985 L 134.37,253.45 L 134.369,253.473 L 134.366,253.496 L 134.361,253.519 L 134.354,253.541 L 134.345,253.563 L 134.335,253.583 L 134.322,253.603 L 134.308,253.622 L 134.293,253.639 L 134.276,253.655 L 134.258,253.669 L 134.238,253.682 L 134.218,253.693 L 134.197,253.702 L 134.175,253.71 L 134.152,253.715 L 134.129,253.718 L 134.1,253.72 L 131.27,253.72 L 131.27,263.18 L 134.1,263.18 L 134.123,263.181 L 134.146,263.184 L 134.169,263.189 L 134.191,263.196 L 134.213,263.205 L 134.233,263.215 L 134.253,263.228 L 134.272,263.242 L 134.289,263.257 L 134.305,263.274 L 134.319,263.292 L 134.332,263.312 L 134.343,263.332 L 134.352,263.353 L 134.36,263.375 L 134.365,263.398 L 134.368,263.421 L 134.37,263.45 L 134.37,283.45 L 134.369,283.473 L 134.366,283.496 L 134.361,283.519 L 134.354,283.541 L 134.345,283.563 L 134.335,283.583 L 134.322,283.603 L 134.308,283.622 L 134.293,283.639 L 134.276,283.655 L 134.258,283.669 L 134.238,283.682 L 134.218,283.693 L 134.197,283.702 L 134.175,283.71 L 134.152,283.715 L 134.129,283.718 L 134.1,283.72 L 131.27,283.72 L 131.27,293.18 L 134.1,293.18 L 134.123,293.181 L 134.146,293.184 L 134.169,293.189 L 134.191,293.196 L 134.213,293.205 L 134.233,293.215 L 134.253,293.228 L 134.272,293.242 L 134.289,293.257 L 134.305,293.274 L 134.319,293.292 L 134.332,293.312 L 134.343,293.332 L 134.352,293.353 L 134.36,293.375 L 134.365,293.398 L 134.368,293.421 L 134.37,293.45 L 134.37,308.9 L 134.369,308.923 L 134.366,308.946 L 134.361,308.969 L 134.354,308.991 L 134.345,309.013 L 134.335,309.033 L 134.322,309.053 L 134.308,309.072 L 134.293,309.089 L 134.276,309.105 L 134.258,309.119 L 134.238,309.132 L 134.218,309.143 L 134.197,309.152 L 134.175,309.16 L 134.152,309.165 L 134.129,309.168 L 134.1,309.17 L 26.4,309.17 L 26.377,309.169 L 26.354,309.166 L 26.331,309.161 L 26.309,309.154 L 26.287,309.145 L 26.267,309.135 L 26.247,309.122 L 26.228,309.108 L 26.211,309.093 L 26.195,309.076 L 26.181,309.058 L 26.168,309.038 L 26.157,309.018 L 26.148,308.997 L 26.14,308.975 L 26.135,308.952 L 26.132,308.929 L 26.13,308.9 L 26.13,293.45 L 26.131,293.427 L 26.134,293.404 L 26.139,293.381 L 26.146,293.359 L 26.155,293.337 L 26.165,293.317 L 26.178,293.297 L 26.192,293.278 L 26.207,293.261 L 26.224,293.245 L 26.242,293.231 L 26.262,293.218 L 26.282,293.207 L 26.303,293.198 L 26.325,293.19 L 26.348,293.185 L 26.371,293.182 L 26.4,293.18 L 29.23,293.18 L 29.23,283.72 L 26.4,283.72 L 26.377,283.719 L 26.354,283.716 L 26.331,283.711 L 26.309,283.704 L 26.287,283.695 L 26.267,283.685 L 26.247,283.672 L 26.228,283.658 L 26.211,283.643 L 26.195,283.626 L 26.181,283.608 L 26.168,283.588 L 26.157,283.568 L 26.148,283.547 L 26.14,283.525 L 26.135,283.502 L 26.132,283.479 L 26.13,283.45 L 26.13,263.45 L 26.131,263.427 L 26.134,263.404 L 26.139,263.381 L 26.146,263.359 L 26.155,263.337 L 26.165,263.317 L 26.178,263.297 L 26.192,263.278 L 26.207,263.261 L 26.224,263.245 L 26.242,263.231 L 26.262,263.218 L 26.282,263.207 L 26.303,263.198 L 26.325,263.19 L 26.348,263.185 L 26.371,263.182 L 26.4,263.18 L 29.23,263.18 L 29.23,253.72 L 26.4,253.72 L 26.377,253.719 L 26.354,253.716 L 26.331,253.711 L 26.309,253.704 L 26.287,253.695 L 26.267,253.685 L 26.247,253.672 L 26.228,253.658 L 26.211,253.643 L 26.195,253.626 L 26.181,253.608 L 26.168,253.588 L 26.157,253.568 L 26.148,253.547 L 26.14,253.525 L 26.135,253.502 L 26.132,253.479 L 26.13,253.45 L 26.13,238.0 L 26.131,237.977 L 26.134,237.954 L 26.139,237.931 L 26.146,237.909 L 26.155,237.887 L 26.165,237.867 L 26.178,237.847 L 26.192,237.828 L 26.207,237.811 L 26.224,237.795 L 26.242,237.781 L 26.262,237.768 L 26.274,237.761 L 80.074,209.461 L 80.095,209.451 L 80.117,209.443 L 80.139,209.437 L 80.162,209.433 L 80.185,209.43 L 80.209,209.43 Z"></path></g><g data-name="face4" id="face4"><path d="M 80.231,319.032 L 80.254,319.036 L 80.277,319.041 L 80.299,319.049 L 80.326,319.061 L 134.226,347.461 L 134.246,347.473 L 134.265,347.486 L 134.283,347.501 L 134.299,347.518 L 134.314,347.535 L 134.327,347.554 L 134.339,347.575 L 134.349,347.596 L 134.357,347.617 L 134.363,347.64 L 134.367,347.663 L 134.37,347.686 L 134.37,363.1 L 134.369,363.123 L 134.366,363.146 L 134.361,363.169 L 134.354,363.191 L 134.345,363.213 L 134.335,363.233 L 134.322,363.253 L 134.308,363.272 L 134.293,363.289 L 134.276,363.305 L 134.258,363.319 L 134.238,363.332 L 134.218,363.343 L 134.197,363.352 L 134.175,363.36 L 134.152,363.365 L 134.129,363.368 L 134.1,363.37 L 131.269,363.37 L 131.269,372.83 L 134.1,372.83 L 134.123,372.831 L 134.146,372.834 L 134.169,372.839 L 134.191,372.846 L 134.213,372.855 L 134.233,372.865 L 134.253,372.878 L 134.272,372.892 L 134.289,372.907 L 134.305,372.924 L 134.319,372.942 L 134.332,372.962 L 134.343,372.982 L 134.352,373.003 L 134.36,373.025 L 134.365,373.048 L 134.368,373.071 L 134.37,373.1 L 134.37,393.1 L 134.369,393.123 L 134.366,393.146 L 134.361,393.169 L 134.354,393.191 L 134.345,393.213 L 134.335,393.233 L 134.322,393.253 L 134.308,393.272 L 134.293,393.289 L 134.276,393.305 L 134.258,393.319 L 134.238,393.332 L 134.218,393.343 L 134.197,393.352 L 134.175,393.36 L 134.152,393.365 L 134.129,393.368 L 134.1,393.37 L 131.269,393.37 L 131.269,402.83 L 134.1,402.83 L 134.123,402.831 L 134.146,402.834 L 134.169,402.839 L 134.191,402.846 L 134.213,402.855 L 134.233,402.865 L 134.253,402.878 L 134.272,402.892 L 134.289,402.907 L 134.305,402.924 L 134.319,402.942 L 134.332,402.962 L 134.343,402.982 L 134.352,403.003 L 134.36,403.025 L 134.365,403.048 L 134.368,403.071 L 134.37,403.1 L 134.37,418.5 L 134.369,418.523 L 134.366,418.546 L 134.361,418.569 L 134.354,418.591 L 134.345,418.613 L 134.335,418.633 L 134.322,418.653 L 134.308,418.672 L 134.293,418.689 L 134.276,418.705 L 134.258,418.719 L 134.238,418.732 L 134.218,418.743 L 134.197,418.752 L 134.175,418.76 L 134.152,418.765 L 134.129,418.768 L 134.1,418.77 L 26.4,418.77 L 26.377,418.769 L 26.354,418.766 L 26.331,418.761 L 26.309,418.754 L 26.287,418.745 L 26.267,418.735 L 26.247,418.722 L 26.228,418.708 L 26.211,418.693 L 26.195,418.676 L 26.181,418.658 L 26.168,418.638 L 26.157,418.618 L 26.148,418.597 L 26.14,418.575 L 26.135,418.552 L 26.132,418.529 L 26.13,418.5 L 26.13,403.1 L 26.131,403.077 L 26.134,403.054 L 26.139,403.031 L 26.146,403.009 L 26.155,402.987 L 26.165,402.967 L 26.178,402.947 L 26.192,402.928 L 26.207,402.911 L 26.224,402.895 L 26.242,402.881 L 26.262,402.868 L 26.282,402.857 L 26.303,402.848 L 26.325,402.84 L 26.348,402.835 L 26.371,402.832 L 26.4,402.83 L 29.23,402.83 L 29.23,393.37 L 26.4,393.37 L 26.377,393.369 L 26.354,393.366 L 26.331,393.361 L 26.309,393.354 L 26.287,393.345 L 26.267,393.335 L 26.247,393.322 L 26.228,393.308 L 26.211,393.293 L 26.195,393.276 L 26.181,393.258 L 26.168,393.238 L 26.157,393.218 L 26.148,393.197 L 26.14,393.175 L 26.135,393.152 L 26.132,393.129 L 26.13,393.1 L 26.13,373.099 L 26.131,373.076 L 26.134,373.053 L 26.139,373.03 L 26.146,373.008 L 26.155,372.986 L 26.165,372.966 L 26.178,372.946 L 26.192,372.927 L 26.207,372.91 L 26.224,372.894 L 26.242,372.88 L 26.262,372.867 L 26.282,372.856 L 26.303,372.847 L 26.325,372.839 L 26.348,372.834 L 26.371,372.831 L 26.4,372.829 L 29.23,372.829 L 29.23,363.369 L 26.4,363.369 L 26.377,363.368 L 26.354,363.365 L 26.331,363.36 L 26.309,363.353 L 26.287,363.344 L 26.267,363.334 L 26.247,363.321 L 26.228,363.307 L 26.211,363.292 L 26.195,363.275 L 26.181,363.257 L 26.168,363.237 L 26.157,363.217 L 26.148,363.196 L 26.14,363.174 L 26.135,363.151 L 26.132,363.128 L 26.13,363.099 L 26.13,347.7 L 26.131,347.677 L 26.134,347.654 L 26.139,347.631 L 26.146,347.609 L 26.155,347.587 L 26.165,347.567 L 26.178,347.547 L 26.192,347.528 L 26.207,347.511 L 26.224,347.495 L 26.242,347.481 L 26.262,347.468 L 26.274,347.461 L 80.074,319.061 L 80.095,319.051 L 80.117,319.043 L 80.139,319.037 L 80.162,319.033 L 80.185,319.03 L 80.208,319.03 Z M 45.07,363.47 L 45.07,396.93 L 115.43,396.93 L 115.43,363.47 Z"></path></g><g data-name="face5" id="face5"><path d="M 94.823,124.231 L 94.846,124.234 L 94.869,124.239 L 94.891,124.246 L 94.913,124.255 L 94.933,124.265 L 94.953,124.278 L 94.972,124.292 L 94.989,124.307 L 95.005,124.324 L 95.019,124.342 L 95.032,124.362 L 95.043,124.382 L 95.052,124.403 L 95.06,124.425 L 95.065,124.448 L 95.068,124.471 L 95.07,124.5 L 95.07,139.68 L 97.9,139.68 L 97.923,139.681 L 97.946,139.684 L 97.969,139.689 L 97.991,139.696 L 98.013,139.705 L 98.033,139.715 L 98.053,139.728 L 98.072,139.742 L 98.089,139.757 L 98.105,139.774 L 98.119,139.792 L 98.132,139.812 L 98.143,139.832 L 98.152,139.853 L 98.16,139.875 L 98.165,139.898 L 98.168,139.921 L 98.17,139.95 L 98.17,149.95 L 98.169,149.973 L 98.166,149.996 L 98.161,150.019 L 98.154,150.041 L 98.145,150.063 L 98.135,150.083 L 98.122,150.103 L 98.108,150.122 L 98.093,150.139 L 98.076,150.155 L 98.058,150.169 L 98.038,150.182 L 98.018,150.193 L 97.997,150.202 L 97.975,150.21 L 97.952,150.215 L 97.929,150.218 L 97.9,150.22 L 95.07,150.22 L 95.07,169.68 L 97.9,169.68 L 97.923,169.681 L 97.946,169.684 L 97.969,169.689 L 97.991,169.696 L 98.013,169.705 L 98.033,169.715 L 98.053,169.728 L 98.072,169.742 L 98.089,169.757 L 98.105,169.774 L 98.119,169.792 L 98.132,169.812 L 98.143,169.832 L 98.152,169.853 L 98.16,169.875 L 98.165,169.898 L 98.168,169.921 L 98.17,169.95 L 98.17,179.95 L 98.169,179.973 L 98.166,179.996 L 98.161,180.019 L 98.154,180.041 L 98.145,180.063 L 98.135,180.083 L 98.122,180.103 L 98.108,180.122 L 98.093,180.139 L 98.076,180.155 L 98.058,180.169 L 98.038,180.182 L 98.018,180.193 L 97.997,180.202 L 97.975,180.21 L 97.952,180.215 L 97.929,180.218 L 97.9,180.22 L 95.07,180.22 L 95.07,195.4 L 95.069,195.423 L 95.066,195.446 L 95.061,195.469 L 95.054,195.491 L 95.045,195.513 L 95.035,195.533 L 95.022,195.553 L 95.008,195.572 L 94.993,195.589 L 94.976,195.605 L 94.958,195.619 L 94.938,195.632 L 94.918,195.643 L 94.897,195.652 L 94.875,195.66 L 94.852,195.665 L 94.829,195.668 L 94.8,195.67 L 24.498,195.67 L 24.475,195.669 L 24.452,195.666 L 24.429,195.661 L 24.407,195.654 L 24.385,195.645 L 24.365,195.635 L 24.345,195.622 L 24.326,195.608 L 24.309,195.593 L 24.293,195.576 L 24.279,195.558 L 24.266,195.538 L 24.255,195.518 L 24.246,195.497 L 24.238,195.475 L 24.233,195.452 L 24.23,195.429 L 24.228,195.406 L 24.229,195.383 L 24.229,180.22 L 21.4,180.22 L 21.377,180.219 L 21.354,180.216 L 21.331,180.211 L 21.309,180.204 L 21.287,180.195 L 21.267,180.185 L 21.247,180.172 L 21.228,180.158 L 21.211,180.143 L 21.195,180.126 L 21.181,180.108 L 21.168,180.088 L 21.157,180.068 L 21.148,180.047 L 21.14,180.025 L 21.135,180.002 L 21.132,179.979 L 21.13,179.95 L 21.13,169.95 L 21.131,169.927 L 21.134,169.904 L 21.139,169.881 L 21.146,169.859 L 21.155,169.837 L 21.165,169.817 L 21.178,169.797 L 21.192,169.778 L 21.207,169.761 L 21.224,169.745 L 21.242,169.731 L 21.262,169.718 L 21.282,169.707 L 21.303,169.698 L 21.325,169.69 L 21.348,169.685 L 21.371,169.682 L 21.4,169.68 L 24.229,169.68 L 24.229,150.22 L 21.4,150.22 L 21.377,150.219 L 21.354,150.216 L 21.331,150.211 L 21.309,150.204 L 21.287,150.195 L 21.267,150.185 L 21.247,150.172 L 21.228,150.158 L 21.211,150.143 L 21.195,150.126 L 21.181,150.108 L 21.168,150.088 L 21.157,150.068 L 21.148,150.047 L 21.14,150.025 L 21.135,150.002 L 21.132,149.979 L 21.13,149.95 L 21.13,139.95 L 21.131,139.927 L 21.134,139.904 L 21.139,139.881 L 21.146,139.859 L 21.155,139.837 L 21.165,139.817 L 21.178,139.797 L 21.192,139.778 L 21.207,139.761 L 21.224,139.745 L 21.242,139.731 L 21.262,139.718 L 21.282,139.707 L 21.303,139.698 L 21.325,139.69 L 21.348,139.685 L 21.371,139.682 L 21.4,139.68 L 24.229,139.68 L 24.229,124.5 L 24.23,124.477 L 24.233,124.454 L 24.238,124.431 L 24.245,124.409 L 24.254,124.387 L 24.264,124.367 L 24.277,124.347 L 24.291,124.328 L 24.306,124.311 L 24.323,124.295 L 24.341,124.281 L 24.361,124.268 L 24.381,124.257 L 24.402,124.248 L 24.424,124.24 L 24.447,124.235 L 24.47,124.232 L 24.499,124.23 L 94.8,124.23 Z"></path></g><g data-name="face6" id="face6"><path d="M 99.423,19.731 L 99.446,19.734 L 99.469,19.739 L 99.491,19.746 L 99.513,19.755 L 99.533,19.765 L 99.553,19.778 L 99.572,19.792 L 99.589,19.807 L 99.605,19.824 L 99.619,19.842 L 99.632,19.862 L 99.643,19.882 L 99.652,19.903 L 99.66,19.925 L 99.665,19.948 L 99.668,19.971 L 99.67,20.0 L 99.67,113.5 L 99.669,113.523 L 99.666,113.546 L 99.661,113.569 L 99.654,113.591 L 99.645,113.613 L 99.635,113.633 L 99.622,113.653 L 99.608,113.672 L 99.593,113.689 L 99.576,113.705 L 99.558,113.719 L 99.538,113.732 L 99.518,113.743 L 99.497,113.752 L 99.475,113.76 L 99.452,113.765 L 99.429,113.768 L 99.4,113.77 L 20.0,113.77 L 19.977,113.769 L 19.954,113.766 L 19.931,113.761 L 19.909,113.754 L 19.887,113.745 L 19.867,113.735 L 19.847,113.722 L 19.828,113.708 L 19.811,113.693 L 19.795,113.676 L 19.781,113.658 L 19.768,113.638 L 19.757,113.618 L 19.748,113.597 L 19.74,113.575 L 19.735,113.552 L 19.732,113.529 L 19.73,113.5 L 19.73,20.0 L 19.731,19.977 L 19.734,19.954 L 19.739,19.931 L 19.746,19.909 L 19.755,19.887 L 19.765,19.867 L 19.778,19.847 L 19.792,19.828 L 19.807,19.811 L 19.824,19.795 L 19.842,19.781 L 19.862,19.768 L 19.882,19.757 L 19.903,19.748 L 19.925,19.74 L 19.948,19.735 L 19.971,19.732 L 20.0,19.73 L 99.4,19.73 Z"></path></g><g data-name="face7" id="face7"><path d="M 184.423,19.731 L 184.446,19.734 L 184.469,19.739 L 184.491,19.746 L 184.513,19.755 L 184.533,19.765 L 184.553,19.778 L 184.572,19.792 L 184.589,19.807 L 184.605,19.824 L 184.619,19.842 L 184.632,19.862 L 184.643,19.882 L 184.652,19.903 L 184.66,19.925 L 184.665,19.948 L 184.668,19.971 L 184.67,20.0 L 184.67,113.5 L 184.669,113.523 L 184.666,113.546 L 184.661,113.569 L 184.654,113.591 L 184.645,113.613 L 184.635,113.633 L 184.622,113.653 L 184.608,113.672 L 184.593,113.689 L 184.576,113.705 L 184.558,113.719 L 184.538,113.732 L 184.518,113.743 L 184.497,113.752 L 184.475,113.76 L 184.452,113.765 L 184.429,113.768 L 184.4,113.77 L 105.0,113.77 L 104.977,113.769 L 104.954,113.766 L 104.931,113.761 L 104.909,113.754 L 104.887,113.745 L 104.867,113.735 L 104.847,113.722 L 104.828,113.708 L 104.811,113.693 L 104.795,113.676 L 104.781,113.658 L 104.768,113.638 L 104.757,113.618 L 104.748,113.597 L 104.74,113.575 L 104.735,113.552 L 104.732,113.529 L 104.73,113.5 L 104.73,20.0 L 104.731,19.977 L 104.734,19.954 L 104.739,19.931 L 104.746,19.909 L 104.755,19.887 L 104.765,19.867 L 104.778,19.847 L 104.792,19.828 L 104.807,19.811 L 104.824,19.795 L 104.842,19.781 L 104.862,19.768 L 104.882,19.757 L 104.903,19.748 L 104.925,19.74 L 104.948,19.735 L 104.971,19.732 L 105.0,19.73 L 184.4,19.73 Z"></path></g><g data-name="face8" id="face8"><path d="M 115.023,477.931 L 115.046,477.934 L 115.069,477.939 L 115.091,477.946 L 115.113,477.955 L 115.133,477.965 L 115.153,477.978 L 115.172,477.992 L 115.189,478.007 L 115.205,478.024 L 115.219,478.042 L 115.232,478.062 L 115.243,478.082 L 115.252,478.103 L 115.26,478.125 L 115.265,478.148 L 115.268,478.171 L 115.27,478.2 L 115.27,495.2 L 115.269,495.223 L 115.266,495.246 L 115.261,495.269 L 115.254,495.291 L 115.245,495.313 L 115.235,495.333 L 115.222,495.353 L 115.208,495.372 L 115.193,495.389 L 115.176,495.405 L 115.158,495.419 L 115.138,495.432 L 115.118,495.443 L 115.097,495.452 L 115.075,495.46 L 115.052,495.465 L 115.029,495.468 L 115.0,495.47 L 44.1,495.47 L 44.077,495.469 L 44.054,495.466 L 44.031,495.461 L 44.009,495.454 L 43.987,495.445 L 43.967,495.435 L 43.947,495.422 L 43.928,495.408 L 43.911,495.393 L 43.895,495.376 L 43.881,495.358 L 43.868,495.338 L 43.857,495.318 L 43.848,495.297 L 43.84,495.275 L 43.835,495.252 L 43.832,495.229 L 43.83,495.2 L 43.83,478.218 L 43.829,478.206 L 43.83,478.183 L 43.832,478.159 L 43.837,478.137 L 43.843,478.114 L 43.851,478.093 L 43.861,478.072 L 43.873,478.052 L 43.887,478.033 L 43.902,478.015 L 43.919,477.999 L 43.937,477.984 L 43.956,477.971 L 43.976,477.96 L 43.997,477.95 L 44.019,477.942 L 44.041,477.936 L 44.064,477.932 L 44.099,477.93 L 115.0,477.93 Z"></path></g></svg>